<svg width="256" height="206" viewBox="0 0 256 206" fill="none" xmlns="http://www.w3.org/2000/svg">
<path d="M91.4742 30.9637L106.368 43.1781C107.704 44.2735 109.263 45.037 110.918 45.4058C112.572 45.7746 114.274 45.738 115.882 45.299L167.143 31.2854C170.967 30.2401 175.096 30.81 178.623 32.8698C182.149 34.9296 184.784 38.3108 185.949 42.2702L214.729 140.319C215.884 144.276 215.475 148.483 213.593 152.018C211.712 155.552 208.51 158.125 204.691 159.172L62.5689 198.023C58.7434 199.068 54.6128 198.497 51.0857 196.436C47.5586 194.374 44.9239 190.991 43.7609 187.03L6.67781 60.7675C5.86205 57.9856 6.14679 55.0261 7.4694 52.54C8.79201 50.0539 11.0442 48.2448 13.7305 47.5106L81.9679 28.8412C83.5753 28.4018 85.2759 28.3651 86.9291 28.7342C88.5822 29.1033 90.1402 29.8675 91.4742 30.9637Z" fill="#3ACAAF"/>
<g opacity="0.3">
<path d="M90.7098 30.1618L105.649 42.6255C106.989 43.7432 108.547 44.5288 110.194 44.9175C111.842 45.3062 113.531 45.2868 115.124 44.861L165.864 31.2646C169.649 30.2504 173.757 30.8672 177.284 32.9795C180.811 35.0918 183.469 38.5267 184.674 42.5292L214.441 141.645C215.636 145.645 215.281 149.881 213.454 153.424C211.628 156.967 208.48 159.527 204.7 160.544L64.0208 198.237C60.2341 199.252 56.125 198.634 52.5971 196.52C49.0693 194.406 46.4117 190.968 45.2089 186.964L6.8546 59.3274C6.01083 56.5152 6.25786 53.5354 7.54137 51.0434C8.82488 48.5514 11.0398 46.7512 13.6988 46.0388L81.243 27.9248C82.8341 27.4984 84.5226 27.4789 86.1689 27.8679C87.8151 28.2569 89.3717 29.0432 90.7098 30.1618Z" fill="black"/>
</g>
<path d="M67.0014 42.5753L17.6492 56.3566C16.5313 56.6688 15.9005 57.8801 16.2403 59.0622L16.2552 59.1137C16.595 60.2958 17.7767 61.0009 18.8947 60.6888L68.2469 46.9074C69.3648 46.5953 69.9956 45.384 69.6558 44.2019L69.6409 44.1503C69.3011 42.9683 68.1194 42.2631 67.0014 42.5753Z" fill="white"/>
<path d="M61.7993 53.8537L19.726 65.4184C18.6045 65.7267 17.9681 66.9368 18.3047 68.1213L18.3193 68.1729C18.6559 69.3574 19.8379 70.0677 20.9594 69.7595L63.0327 58.1948C64.1542 57.8865 64.7906 56.6764 64.454 55.4919L64.4393 55.4402C64.1028 54.2558 62.9208 53.5454 61.7993 53.8537Z" fill="white"/>
<path d="M208.233 152.44L58.5851 193.409C56.7771 193.899 54.8268 193.627 53.1606 192.653C51.4945 191.679 50.248 190.082 49.6937 188.211L21.6463 92.5826C21.099 90.7089 21.291 88.7164 22.1801 87.0419C23.0693 85.3674 24.5831 84.1476 26.3896 83.6499L176.048 42.688C177.856 42.1955 179.807 42.4661 181.474 43.4404C183.14 44.4148 184.387 46.0133 184.939 47.8856L212.993 143.504C213.536 145.38 213.34 147.373 212.448 149.048C211.556 150.722 210.041 151.942 208.233 152.44Z" fill="#E0E0E0"/>
<path d="M176.163 42.8181L28.349 83.1212C24.575 84.1502 22.4456 88.143 23.5929 92.0393L51.6984 187.493C52.8457 191.39 56.8351 193.714 60.6091 192.685L208.423 152.382C212.197 151.353 214.327 147.36 213.179 143.464L185.074 48.0099C183.927 44.1136 179.937 41.7891 176.163 42.8181Z" fill="white"/>
<path d="M64.8843 191.196L94.9982 182.865L46.7275 93.1065L64.8843 191.196Z" fill="#F5F5F5"/>
<path d="M232.502 119.657L87.8474 174.829C86.0931 175.488 84.1294 175.399 82.386 174.58C80.6425 173.761 79.2613 172.278 78.5443 170.457L42.05 77.7151C41.3416 75.8918 41.3569 73.8816 42.0926 72.1246C42.8283 70.3676 44.2245 69.007 45.9753 68.3408L190.629 13.1688C192.384 12.5066 194.348 12.595 196.092 13.4145C197.836 14.2341 199.217 15.7178 199.933 17.5403L236.429 110.291C237.132 112.113 237.114 114.121 236.379 115.875C235.643 117.63 234.249 118.989 232.502 119.657Z" fill="white"/>
<path opacity="0.3" d="M190.877 13.441L47.6226 67.6502C43.965 69.0343 42.2136 73.215 43.7105 76.9882L80.3843 169.425C81.8813 173.198 86.0599 175.135 89.7174 173.75L232.972 119.541C236.63 118.157 238.381 113.976 236.884 110.203L200.211 17.7668C198.714 13.9937 194.535 12.0569 190.877 13.441Z" fill="#3ACAAF"/>
<path opacity="0.2" d="M194.413 34.5858L60.5445 86.3886C59.7664 86.6874 58.8949 86.6492 58.12 86.2825C57.3452 85.9158 56.7301 85.2503 56.4088 84.4313L54.5862 79.7132C54.4287 79.3072 54.3486 78.8758 54.3504 78.4438C54.3522 78.0117 54.436 77.5873 54.5968 77.195C54.7576 76.8027 54.9925 76.4501 55.2878 76.1573C55.5832 75.8645 55.9333 75.6374 56.3181 75.4888L190.184 23.6773C190.962 23.3761 191.835 23.4131 192.61 23.7801C193.386 24.1471 194.001 24.8141 194.32 25.6346L196.151 30.3511C196.465 31.1736 196.458 32.0798 196.133 32.8728C195.807 33.6658 195.189 34.2814 194.413 34.5858Z" fill="#3ACAAF"/>
<path opacity="0.2" d="M197.458 42.1875L63.3902 94.0952C63.0149 94.2376 62.6732 94.4569 62.3846 94.7405C62.096 95.024 61.8661 95.3662 61.7083 95.7474C61.5505 96.1286 61.4678 96.5413 61.4649 96.9617C61.4621 97.3822 61.5392 97.8022 61.6917 98.1976L63.3065 102.39C63.4574 102.786 63.6809 103.15 63.9642 103.461C64.2475 103.772 64.585 104.024 64.9574 104.203C65.3297 104.381 65.7296 104.483 66.134 104.501C66.5384 104.52 66.9394 104.455 67.314 104.311L201.382 52.4029C201.756 52.2606 202.097 52.0417 202.385 51.7588C202.673 51.476 202.903 51.1347 203.061 50.7545C203.219 50.3743 203.302 49.9626 203.306 49.543C203.309 49.1234 203.233 48.7041 203.082 48.3092L201.459 44.118C201.154 43.3195 200.562 42.6677 199.812 42.3057C199.062 41.9438 198.215 41.9013 197.458 42.1875Z" fill="#3ACAAF"/>
<path d="M239.646 149.205L239.178 148.466C240.91 147.359 242.42 145.931 243.637 144.254L244.316 144.784C243.043 146.545 241.461 148.043 239.646 149.205Z" fill="#3ACAAF"/>
<path d="M247.591 138.445L246.817 138.21C247.543 135.175 247.463 131.959 246.588 128.906L243.09 116.615L243.858 116.402L247.356 128.692C248.27 131.893 248.352 135.265 247.591 138.445Z" fill="#3ACAAF"/>
<path d="M233.831 150.598L76.8248 193.643L62.1539 197.64C66.0454 196.573 69.3075 193.944 71.2225 190.333C73.1375 186.722 73.5486 182.423 72.3653 178.383L52.828 111.582C52.4367 110.261 52.3009 108.883 52.4284 107.527C52.5558 106.172 52.9441 104.866 53.5708 103.684C54.1975 102.502 55.0502 101.468 56.08 100.641C57.1097 99.814 58.2961 99.2105 59.5709 98.8654L211.834 57.136C213.107 56.7812 214.445 56.6914 215.77 56.8718C217.096 57.0522 218.384 57.4992 219.559 58.187C220.735 58.8748 221.774 59.7898 222.619 60.8794C223.463 61.969 224.095 63.2115 224.478 64.5355L244.05 131.375C245.225 135.411 244.809 139.702 242.893 143.307C240.977 146.911 237.717 149.533 233.831 150.598Z" fill="#3ACAAF"/>
</svg>
