<svg width="403" height="300" viewBox="0 0 403 300" fill="none" xmlns="http://www.w3.org/2000/svg">
<path d="M402.62 263.633H0V263.834H402.62V263.633Z" fill="#EBEBEB"/>
<path d="M362.279 276.594H335.609V276.795H362.279V276.594Z" fill="#EBEBEB"/>
<path d="M325.472 276.594H268.453V276.795H325.472V276.594Z" fill="#EBEBEB"/>
<path d="M237.007 269.117H221.555V269.318H237.007V269.117Z" fill="#EBEBEB"/>
<path d="M69.8539 270.469H42.2422V270.67H69.8539V270.469Z" fill="#EBEBEB"/>
<path d="M127.23 270.469H77.0234V270.67H127.23V270.469Z" fill="#EBEBEB"/>
<path d="M181.289 273.867H151.648V274.068H181.289V273.867Z" fill="#EBEBEB"/>
<path d="M190.839 227.722H35.3555C34.1374 227.72 32.97 227.234 32.1095 226.372C31.2489 225.51 30.7656 224.342 30.7656 223.124V4.55766C30.7762 3.3466 31.2642 2.18862 32.1236 1.33526C32.983 0.481902 34.1444 0.00207461 35.3555 0H190.839C192.059 0 193.228 0.484422 194.09 1.3467C194.953 2.20898 195.437 3.37847 195.437 4.59792V223.124C195.437 224.343 194.953 225.513 194.09 226.375C193.228 227.237 192.059 227.722 190.839 227.722ZM35.3555 0.161049C34.1908 0.163182 33.0746 0.627334 32.2518 1.45163C31.429 2.27592 30.9669 3.393 30.9669 4.55766V223.124C30.9669 224.288 31.429 225.406 32.2518 226.23C33.0746 227.054 34.1908 227.518 35.3555 227.52H190.839C192.005 227.518 193.122 227.054 193.946 226.23C194.77 225.406 195.234 224.289 195.236 223.124V4.55766C195.234 3.39226 194.77 2.2752 193.946 1.45114C193.122 0.627073 192.005 0.163177 190.839 0.161049H35.3555Z" fill="#EBEBEB"/>
<path d="M365.019 227.722H209.528C208.309 227.72 207.141 227.235 206.279 226.373C205.417 225.511 204.932 224.343 204.93 223.124V4.55766C204.942 3.34586 205.432 2.1879 206.293 1.33476C207.154 0.481621 208.316 0.00205198 209.528 0H365.019C366.229 0.00419087 367.388 0.484955 368.246 1.33809C369.104 2.19122 369.591 3.34799 369.601 4.55766V223.124C369.601 224.34 369.119 225.508 368.26 226.369C367.401 227.231 366.236 227.717 365.019 227.722ZM209.528 0.161049C208.362 0.163177 207.245 0.627073 206.421 1.45114C205.597 2.2752 205.133 3.39226 205.131 4.55766V223.124C205.133 224.289 205.597 225.406 206.421 226.23C207.245 227.054 208.362 227.518 209.528 227.52H365.019C366.185 227.518 367.302 227.054 368.126 226.23C368.95 225.406 369.414 224.289 369.416 223.124V4.55766C369.414 3.39226 368.95 2.2752 368.126 1.45114C367.302 0.627073 366.185 0.163177 365.019 0.161049H209.528Z" fill="#EBEBEB"/>
<path d="M61.0727 111.297L170.344 111.297V16.6248L61.0727 16.6248L61.0727 111.297Z" fill="#E6E6E6"/>
<path d="M58.6274 111.297L167.898 111.297V16.6248L58.6274 16.6248L58.6274 111.297Z" fill="#F5F5F5"/>
<path d="M163.547 107.916V20.0078L62.9966 20.0078V107.916H163.547Z" fill="#FAFAFA"/>
<path d="M123.221 107.916L141.444 20.0078H103.324L85.1094 107.916H123.221Z" fill="white"/>
<path d="M64.8281 107.924V20.0156H62.9922L62.9922 107.924H64.8281Z" fill="#E6E6E6"/>
<path d="M60.4302 92.1563L166.094 92.1562V87.6147L60.4302 87.6147V92.1563Z" fill="#F5F5F5"/>
<path d="M165.269 258.844H182.719V183.175H165.269V258.844Z" fill="#F0F0F0"/>
<path d="M51.3177 263.633H179.375V258.842H51.3177V263.633Z" fill="#F0F0F0"/>
<path d="M165.268 183.164H47.9609V258.832H165.268V183.164Z" fill="#F5F5F5"/>
<path d="M158.414 192.484H54.8203V217.302H158.414V192.484Z" fill="#F0F0F0"/>
<path d="M158.414 224.711H54.8203V249.528H158.414V224.711Z" fill="#F0F0F0"/>
<path d="M78.6991 206.594H134.542C134.992 206.592 135.423 206.412 135.742 206.094C136.06 205.776 136.239 205.345 136.241 204.895C136.239 204.444 136.06 204.012 135.742 203.693C135.424 203.373 134.993 203.192 134.542 203.188H78.6991C78.2484 203.192 77.8174 203.373 77.4995 203.693C77.1815 204.012 77.0021 204.444 77 204.895C77.0021 205.345 77.1818 205.776 77.5 206.094C77.8182 206.412 78.2491 206.592 78.6991 206.594Z" fill="#F5F5F5"/>
<path d="M78.6991 238.82H134.542C134.992 238.818 135.423 238.638 135.742 238.32C136.06 238.002 136.239 237.571 136.241 237.121C136.241 236.67 136.063 236.237 135.744 235.917C135.426 235.597 134.994 235.416 134.542 235.414H78.6991C78.2477 235.416 77.8156 235.597 77.4971 235.917C77.1787 236.237 77 236.67 77 237.121C77.0021 237.571 77.1818 238.002 77.5 238.32C77.8182 238.638 78.2491 238.818 78.6991 238.82Z" fill="#F5F5F5"/>
<path d="M347.554 66.1114C357.491 63.3736 360.889 45.3443 335.781 37.9844C341.321 56.1184 330.233 70.8623 347.554 66.1114Z" fill="#EBEBEB"/>
<path d="M349.758 73.9376C357.593 65.4745 350.184 46.3259 321.969 54.1529C337.929 68.1157 336.109 88.6977 349.758 73.9376Z" fill="#E0E0E0"/>
<path d="M342.023 76.1098C335.468 69.6196 344.857 47.0326 366.502 57.5007C354.238 69.2492 353.498 87.4234 342.023 76.1098Z" fill="#FAFAFA"/>
<path d="M335.488 88.7517H354.564L356.006 75.8438H334.055L335.488 88.7517Z" fill="#E6E6E6"/>
<path d="M333.839 78.1552H356.225C356.603 78.1552 356.966 78.0051 357.233 77.7378C357.5 77.4705 357.65 77.108 357.65 76.73C357.65 76.3519 357.5 75.9894 357.233 75.7221C356.966 75.4548 356.603 75.3047 356.225 75.3047H333.839C333.461 75.3047 333.099 75.4548 332.832 75.7221C332.564 75.9894 332.414 76.3519 332.414 76.73C332.414 77.108 332.564 77.4705 332.832 77.7378C333.099 78.0051 333.461 78.1552 333.839 78.1552Z" fill="#E6E6E6"/>
<path d="M174.988 241.77V219.907H193.194V198.053H211.409V176.191H229.615V154.329H247.83V132.475H266.036V110.612H284.251V88.75H302.465H402.621V263.632H174.988H156.773V241.77H174.988Z" fill="#FAFAFA"/>
<path d="M275.144 241.77V219.907H293.358V198.053H311.565V176.191H329.779V154.329H347.986V132.475H366.2V110.612H384.407V88.75H402.621V110.612V263.632H275.144H256.938V241.77H275.144Z" fill="#E0E0E0"/>
<path d="M256.938 241.773H155.703V248.328H256.938V241.773Z" fill="#EBEBEB"/>
<path d="M275.149 219.914H173.914V226.469H275.149V219.914Z" fill="#EBEBEB"/>
<path d="M293.36 198.055H192.125V204.609H293.36V198.055Z" fill="#EBEBEB"/>
<path d="M311.571 176.195H210.336V182.75H311.571V176.195Z" fill="#EBEBEB"/>
<path d="M329.774 154.336H228.539V160.891H329.774V154.336Z" fill="#EBEBEB"/>
<path d="M347.993 132.477H246.758V139.031H347.993V132.477Z" fill="#EBEBEB"/>
<path d="M366.196 110.617H264.961V117.172H366.196V110.617Z" fill="#EBEBEB"/>
<path d="M384.414 88.75H283.18V95.3047H384.414V88.75Z" fill="#EBEBEB"/>
<path d="M201.308 299.996C287.535 299.996 357.436 295.915 357.436 290.881C357.436 285.847 287.535 281.766 201.308 281.766C115.081 281.766 45.1797 285.847 45.1797 290.881C45.1797 295.915 115.081 299.996 201.308 299.996Z" fill="#F5F5F5"/>
<path d="M269.513 83.4436C269.368 85.8593 269.086 88.0737 268.772 90.3687C268.458 92.6636 268.031 94.9102 267.548 97.1649C266.606 101.728 265.245 106.195 263.481 110.508L262.749 112.118L262.572 112.521L262.507 112.73L262.378 112.988C262.132 113.493 261.821 113.964 261.452 114.389C261.013 114.883 260.49 115.295 259.906 115.605C259.333 115.905 258.712 116.102 258.07 116.185C257.085 116.29 256.089 116.186 255.147 115.879C253.813 115.423 252.554 114.772 251.411 113.946C250.411 113.241 249.457 112.475 248.552 111.651C245.163 108.509 242.113 105.019 239.453 101.239L242.118 98.9767C243.729 100.466 245.339 101.972 246.95 103.397C248.551 104.822 250.223 106.166 251.958 107.424C252.776 108.008 253.625 108.546 254.503 109.034C255.211 109.463 255.975 109.791 256.774 110.008C257.048 110.065 257.241 110.008 257.152 110.008C256.962 110.03 256.784 110.111 256.645 110.242C256.597 110.242 256.597 110.242 256.645 110.242L256.903 109.574L257.466 108.108C258.863 104.073 259.953 99.9386 260.728 95.7396C261.154 93.6299 261.452 91.4799 261.774 89.346C262.096 87.2121 262.322 85.0138 262.507 82.9766L269.513 83.4436Z" fill="#FFC3BD"/>
<path d="M264.636 74.5824C261.633 75.3474 259.531 87.6998 259.531 87.6998L267.801 93.3365C267.801 93.3365 275.733 80.8794 273.438 77.5779C271.022 74.1235 269.017 73.4712 264.636 74.5824Z" fill="#3AD3B7"/>
<path d="M264.636 74.5824C261.633 75.3474 259.531 87.6998 259.531 87.6998L267.801 93.3365C267.801 93.3365 275.733 80.8794 273.438 77.5779C271.022 74.1235 269.017 73.4712 264.636 74.5824Z" fill="#3AD3B7"/>
<path opacity="0.4" d="M264.636 74.5824C261.633 75.3474 259.531 87.6998 259.531 87.6998L267.801 93.3365C267.801 93.3365 275.733 80.8794 273.438 77.5779C271.022 74.1235 269.017 73.4712 264.636 74.5824Z" fill="black"/>
<path opacity="0.3" d="M264.897 77.3438L262.594 89.7847L267.24 92.9412L264.897 77.3438Z" fill="black"/>
<path d="M242.261 98.4743L238.356 92.2578L236.125 99.3198C236.125 99.3198 239.346 102.702 242.269 101.897L242.261 98.4743Z" fill="#FFC3BD"/>
<path d="M232.554 90.2031L231.008 96.2102L236.089 99.3184L238.319 92.2565L232.554 90.2031Z" fill="#FFC3BD"/>
<path d="M280.864 282.432H273.585L273.094 265.57H280.381L280.864 282.432Z" fill="#FFC3BD"/>
<path d="M345.114 248.619L339.566 253.337L326.867 242L332.415 237.289L345.114 248.619Z" fill="#FFC3BD"/>
<path d="M338.051 252.767L343.438 246.599C343.53 246.492 343.658 246.423 343.797 246.404C343.936 246.385 344.078 246.417 344.195 246.494L349.679 250.045C349.814 250.139 349.928 250.261 350.013 250.402C350.098 250.543 350.152 250.7 350.172 250.864C350.192 251.027 350.177 251.193 350.128 251.35C350.079 251.508 349.997 251.653 349.888 251.776C347.972 253.894 346.941 254.82 344.574 257.526C343.124 259.193 341.167 261.785 339.154 264.08C337.141 266.375 334.758 264.523 335.394 263.38C338.22 258.275 337.544 256.487 337.592 253.975C337.599 253.531 337.762 253.103 338.051 252.767Z" fill="#263238"/>
<path d="M273.337 281.602H281.518C281.659 281.6 281.795 281.65 281.902 281.742C282.009 281.834 282.078 281.961 282.098 282.101L283.032 288.543C283.058 288.713 283.046 288.887 282.997 289.052C282.949 289.217 282.864 289.37 282.749 289.498C282.634 289.627 282.493 289.728 282.334 289.796C282.176 289.863 282.004 289.894 281.832 289.888C278.981 289.839 277.605 289.67 274.005 289.67C271.791 289.67 267.217 289.904 264.157 289.904C261.097 289.904 260.936 286.876 262.216 286.61C267.917 285.378 270.164 283.687 272.089 282.069C272.435 281.767 272.878 281.602 273.337 281.602Z" fill="#263238"/>
<path opacity="0.2" d="M273.109 265.578L273.359 274.267H280.638L280.389 265.578H273.109Z" fill="black"/>
<path opacity="0.2" d="M332.423 237.289L326.867 242L333.422 247.846L338.97 243.127L332.423 237.289Z" fill="black"/>
<path d="M264.632 74.5758C264.632 74.5758 261.162 75.7998 268.111 118.526H297.679C297.188 106.487 297.172 99.0632 302.921 74.3665C298.782 73.513 294.587 72.9586 290.368 72.7077C285.896 72.3891 281.408 72.3891 276.936 72.7077C271.171 73.2714 264.632 74.5758 264.632 74.5758Z" fill="#3AD3B7"/>
<path opacity="0.4" d="M264.632 74.5758C264.632 74.5758 261.162 75.7998 268.111 118.526H297.679C297.188 106.487 297.172 99.0632 302.921 74.3665C298.782 73.513 294.587 72.9586 290.368 72.7077C285.896 72.3891 281.408 72.3891 276.936 72.7077C271.171 73.2714 264.632 74.5758 264.632 74.5758Z" fill="black"/>
<path d="M290.366 72.7077C285.895 72.3891 281.406 72.3891 276.935 72.7077C276.21 72.7721 275.469 72.8526 274.737 72.9412C274.434 73.3989 274.24 73.92 274.17 74.4645C274.1 75.0091 274.156 75.5623 274.334 76.0816C275.276 78.4249 278.674 78.6987 281.154 78.6987C290.31 78.6987 291.856 73.3519 291.92 73.1264L292.009 72.8043C291.494 72.7721 290.914 72.7318 290.366 72.7077Z" fill="white"/>
<path d="M289.082 57.5938C288.229 61.9098 287.391 69.8253 290.411 72.7081C290.411 72.7081 289.227 77.0967 281.199 77.0967C272.341 77.0967 276.979 72.7162 276.979 72.7162C281.811 71.5647 281.674 67.9894 280.836 64.6638L289.082 57.5938Z" fill="#FFC3BD"/>
<path opacity="0.2" d="M285.677 60.4609L280.797 64.624C281.007 65.4154 281.147 66.2238 281.216 67.0397C283.052 66.774 285.58 64.7529 285.781 62.8283C285.894 62.0396 285.859 61.2367 285.677 60.4609Z" fill="black"/>
<path d="M284.012 34.1023C283.263 31.5658 282.635 27.5718 287.145 25.7681C285.381 23.61 284.954 19.5516 287.145 17.144C289.335 14.7363 292.62 15.6221 292.62 15.6221C292.62 15.6221 293.586 9.73575 300.745 10.7906C307.904 11.8455 304.715 16.5561 304.715 16.5561C304.715 16.5561 314.482 14.6236 315.135 23.8033C315.787 32.983 310.182 31.8557 310.182 31.8557C310.182 31.8557 314.539 35.5115 312.123 39.5296C309.707 43.5478 304.127 42.1628 304.127 42.1628C304.127 42.1628 301.502 49.265 295.318 45.2227C289.134 41.1804 284.012 34.1023 284.012 34.1023Z" fill="#263238"/>
<path d="M269.515 39.4572C267.099 42.5815 268.162 46.1165 270.32 47.5096C275.514 50.8272 283.026 36.9126 281.07 35.2458C279.113 33.579 271.93 36.3248 269.515 39.4572Z" fill="#263238"/>
<path d="M291.331 32.0107C287.917 30.6338 284.454 32.0752 283.375 34.1527C280.742 39.2176 292.7 48.341 296.163 42.0118C298.216 38.2513 294.85 33.428 291.331 32.0107Z" fill="#3AD3B7"/>
<path d="M289.887 47.506C290.137 54.7532 290.394 57.7809 287.117 61.8151C282.197 67.8786 273.267 66.6063 270.867 59.6007C268.709 53.2957 268.669 42.5458 275.425 39.0188C276.91 38.2332 278.571 37.8403 280.251 37.8774C281.931 37.9145 283.573 38.3803 285.022 39.2307C286.471 40.0811 287.679 41.2877 288.53 42.736C289.382 44.1844 289.849 45.8264 289.887 47.506Z" fill="#FFC3BD"/>
<path d="M288.802 51.2977C285.581 50.0979 284.776 46.3374 285.291 44.8558C283.681 44.7914 280.162 44.2116 278.849 42.2146C276.337 43.8251 271.03 45.4356 270.459 42.7541C269.887 40.0727 277.891 33.1798 283.946 32.6484C291.145 32.0203 298.247 39.0903 296.42 45.8624C294.592 52.6344 288.802 51.2977 288.802 51.2977Z" fill="#263238"/>
<path d="M268.146 118.531C268.146 118.531 262.404 174.616 262.88 196.825C263.379 219.919 271.842 272.59 271.842 272.59H281.682C281.682 272.59 280.128 221.264 280.997 198.588C281.948 173.859 289.799 118.531 289.799 118.531H268.146Z" fill="#263238"/>
<path d="M282.502 272.943H270.955L270.102 269.263L283.042 268.812L282.502 272.943Z" fill="#3AD3B7"/>
<path opacity="0.2" d="M280.868 132.485C273.621 147.092 279.411 173.745 281.98 183.666C283.292 168.769 285.515 150.562 287.246 137.195C286.151 129.642 284.25 125.745 280.868 132.485Z" fill="black"/>
<path d="M275.922 118.532C275.922 118.532 282.621 176.839 287.678 195.561C293.685 217.786 330.992 247.7 330.992 247.7L338.561 241.258C338.561 241.258 311.522 208.759 306.924 197.051C297.124 172.088 305.514 134.822 297.679 118.516L275.922 118.532Z" fill="#263238"/>
<path d="M339.767 240.924L330.378 248.896L326.867 246.794L337.488 236.914L339.767 240.924Z" fill="#3AD3B7"/>
<path d="M279.168 50.5313C279.224 51.1191 278.959 51.6184 278.58 51.6586C278.202 51.6989 277.839 51.2479 277.775 50.6682C277.711 50.0884 277.984 49.573 278.371 49.5408C278.757 49.5086 279.112 49.9193 279.168 50.5313Z" fill="#263238"/>
<path d="M272.569 51.1718C272.625 51.7516 272.359 52.2589 271.973 52.2991C271.586 52.3394 271.24 51.8885 271.168 51.3006C271.095 50.7128 271.377 50.2136 271.755 50.1814C272.134 50.1492 272.512 50.584 272.569 51.1718Z" fill="#263238"/>
<path d="M271.941 50.1957L270.5 49.9219C270.5 49.9219 271.37 50.9526 271.941 50.1957Z" fill="#263238"/>
<path d="M274.403 52.0078C274.011 53.3903 273.431 54.7125 272.68 55.9374C272.999 56.1211 273.354 56.2335 273.721 56.2669C274.088 56.3003 274.458 56.2538 274.806 56.1306L274.403 52.0078Z" fill="#ED847E"/>
<path d="M278.051 58.0574C277.732 58.1447 277.406 58.2039 277.077 58.2345C277.054 58.2367 277.032 58.2345 277.011 58.228C276.989 58.2215 276.969 58.2108 276.952 58.1966C276.935 58.1824 276.921 58.1649 276.91 58.1451C276.9 58.1254 276.894 58.1038 276.892 58.0815C276.887 58.0357 276.9 57.99 276.929 57.9539C276.957 57.9178 276.999 57.8943 277.045 57.8883C277.773 57.8346 278.479 57.6107 279.106 57.2345C279.733 56.8583 280.262 56.3403 280.652 55.7222C280.661 55.7008 280.675 55.6818 280.692 55.6662C280.709 55.6507 280.73 55.6391 280.752 55.6322C280.774 55.6253 280.798 55.6233 280.821 55.6264C280.844 55.6294 280.866 55.6373 280.886 55.6497C280.925 55.6718 280.955 55.7085 280.968 55.7519C280.982 55.7954 280.978 55.8424 280.958 55.8832C280.308 56.9582 279.266 57.738 278.051 58.0574Z" fill="#263238"/>
<path d="M291.578 52.5056C291.402 53.8914 290.684 55.1508 289.581 56.0084C288.108 57.1358 286.69 56.0084 286.521 54.245C286.376 52.6345 286.956 50.2188 288.712 49.7517C289.095 49.6737 289.491 49.6898 289.866 49.7987C290.242 49.9076 290.585 50.1059 290.867 50.3768C291.149 50.6476 291.361 50.9828 291.485 51.3536C291.609 51.7244 291.641 52.1197 291.578 52.5056Z" fill="#FFC3BD"/>
<path d="M279.879 46.3954C279.834 46.4067 279.788 46.409 279.742 46.4021C279.696 46.3952 279.653 46.3792 279.613 46.3551C279.248 46.1221 278.833 45.9788 278.402 45.9368C277.971 45.8948 277.536 45.9554 277.133 46.1136C277.049 46.1508 276.954 46.1549 276.868 46.125C276.781 46.0951 276.709 46.0335 276.666 45.9525C276.627 45.8702 276.622 45.7759 276.652 45.69C276.682 45.6041 276.745 45.5335 276.827 45.4935C277.334 45.2841 277.884 45.1997 278.431 45.2473C278.977 45.295 279.504 45.4733 279.967 45.7673C280.006 45.7904 280.039 45.8209 280.065 45.8569C280.092 45.893 280.111 45.9339 280.121 45.9773C280.132 46.0208 280.133 46.0658 280.126 46.11C280.119 46.1541 280.104 46.1963 280.08 46.2344C280.036 46.3114 279.964 46.3689 279.879 46.3954Z" fill="#263238"/>
<path d="M269.332 48.3986C269.249 48.4302 269.157 48.4302 269.074 48.3986C268.996 48.3529 268.938 48.2791 268.913 48.1923C268.887 48.1054 268.896 48.0122 268.937 47.9315C269.183 47.4414 269.543 47.0179 269.988 46.6969C270.432 46.3758 270.947 46.1668 271.49 46.0875C271.535 46.0831 271.58 46.0878 271.624 46.1013C271.667 46.1148 271.707 46.1369 271.741 46.1662C271.776 46.1955 271.804 46.2314 271.825 46.2718C271.845 46.3123 271.857 46.3564 271.86 46.4016C271.867 46.4922 271.838 46.5818 271.779 46.6511C271.72 46.7204 271.637 46.7638 271.546 46.772C271.119 46.8439 270.715 47.0155 270.366 47.2729C270.018 47.5304 269.735 47.8664 269.541 48.2536C269.518 48.2911 269.488 48.3233 269.452 48.3483C269.416 48.3732 269.375 48.3904 269.332 48.3986Z" fill="#263238"/>
<path d="M305.941 82.2188C307.583 86.2354 308.999 90.3404 310.184 94.5148C311.44 98.7255 312.335 103.036 312.858 107.399C312.995 108.51 313.035 109.677 313.083 110.829V111.481C313.083 111.715 313.043 111.956 313.011 112.166C312.944 112.568 312.852 112.966 312.737 113.357C312.527 114.027 312.258 114.677 311.932 115.298C310.815 117.362 309.447 119.28 307.857 121.007C304.918 124.236 301.683 127.183 298.194 129.808L295.867 127.224C298.549 124.091 301.254 120.878 303.549 117.561C304.658 116.055 305.603 114.436 306.368 112.729C306.499 112.399 306.606 112.06 306.69 111.715C306.711 111.598 306.725 111.479 306.73 111.36C306.734 111.326 306.734 111.29 306.73 111.256V111.143C306.625 110.193 306.553 109.243 306.376 108.268C305.683 104.29 304.717 100.365 303.485 96.5198C302.253 92.6224 300.876 88.6687 299.459 84.9002L305.941 82.2188Z" fill="#FFC3BD"/>
<path d="M302.921 74.3668C305.885 75.2687 309.444 85.4711 309.444 85.4711L297.937 93.6845C297.937 93.6845 293.742 85.1731 294.99 81.3402C296.326 77.3542 299.547 73.3361 302.921 74.3668Z" fill="#3AD3B7"/>
<path opacity="0.4" d="M302.921 74.3668C305.885 75.2687 309.444 85.4711 309.444 85.4711L297.937 93.6845C297.937 93.6845 293.742 85.1731 294.99 81.3402C296.326 77.3542 299.547 73.3361 302.921 74.3668Z" fill="black"/>
<path d="M336.058 256.284C335.909 256.28 335.763 256.242 335.631 256.174C335.498 256.106 335.383 256.008 335.293 255.889C335.22 255.814 335.168 255.721 335.143 255.619C335.117 255.517 335.119 255.41 335.148 255.309C335.422 254.424 337.95 253.699 338.24 253.618C338.272 253.607 338.306 253.606 338.338 253.617C338.371 253.627 338.398 253.647 338.418 253.675C338.436 253.702 338.445 253.734 338.445 253.767C338.445 253.8 338.436 253.832 338.418 253.86C337.967 254.722 337.073 256.171 336.155 256.276L336.058 256.284ZM337.926 254.069C336.928 254.391 335.623 254.947 335.511 255.414C335.499 255.458 335.499 255.505 335.512 255.549C335.525 255.593 335.549 255.633 335.583 255.664C335.647 255.756 335.735 255.83 335.836 255.878C335.938 255.926 336.051 255.946 336.163 255.937C336.63 255.881 337.282 255.189 337.926 254.069Z" fill="#3AD3B7"/>
<path d="M337.13 254.1C336.377 254.176 335.623 253.963 335.021 253.504C334.936 253.397 334.891 253.265 334.891 253.129C334.891 252.993 334.936 252.862 335.021 252.755C335.092 252.643 335.188 252.549 335.301 252.479C335.414 252.41 335.541 252.366 335.673 252.352C336.72 252.223 338.306 253.592 338.37 253.649C338.394 253.668 338.412 253.693 338.422 253.721C338.432 253.75 338.433 253.78 338.427 253.81C338.424 253.841 338.411 253.871 338.391 253.895C338.371 253.919 338.344 253.937 338.314 253.947C337.929 254.056 337.53 254.108 337.13 254.1ZM335.85 252.69H335.737C335.655 252.7 335.575 252.727 335.505 252.77C335.434 252.813 335.373 252.871 335.327 252.94C335.206 253.125 335.246 253.222 335.327 253.286C335.641 253.697 337.074 253.85 337.944 253.689C337.348 253.174 336.625 252.829 335.85 252.69Z" fill="#3AD3B7"/>
<path d="M270.605 282.869C269.983 282.926 269.36 282.766 268.841 282.418C268.73 282.317 268.644 282.192 268.59 282.052C268.536 281.913 268.514 281.762 268.527 281.613C268.534 281.517 268.565 281.425 268.617 281.345C268.669 281.265 268.741 281.199 268.825 281.154C269.719 280.663 272.618 282.144 272.948 282.322C272.979 282.339 273.004 282.365 273.019 282.397C273.035 282.428 273.041 282.464 273.037 282.499C273.032 282.534 273.016 282.567 272.992 282.594C272.967 282.62 272.935 282.637 272.9 282.644C272.143 282.789 271.375 282.864 270.605 282.869ZM269.308 281.363C269.197 281.356 269.086 281.378 268.986 281.428C268.952 281.445 268.923 281.471 268.903 281.504C268.883 281.537 268.873 281.575 268.873 281.613C268.86 281.714 268.872 281.816 268.907 281.912C268.942 282.007 268.999 282.092 269.075 282.161C269.518 282.563 270.685 282.628 272.296 282.362C271.364 281.861 270.354 281.523 269.308 281.363Z" fill="#3AD3B7"/>
<path d="M272.867 282.636H272.795C271.925 282.241 270.21 280.671 270.379 279.85C270.379 279.656 270.548 279.407 271.023 279.358C271.195 279.341 271.368 279.358 271.533 279.409C271.698 279.46 271.85 279.544 271.981 279.656C272.891 280.421 273.06 282.378 273.068 282.467C273.071 282.496 273.065 282.526 273.053 282.553C273.04 282.58 273.02 282.603 272.996 282.62C272.977 282.632 272.956 282.639 272.933 282.642C272.911 282.645 272.888 282.643 272.867 282.636ZM271.128 279.681H271.031C270.709 279.681 270.693 279.842 270.685 279.882C270.604 280.373 271.772 281.613 272.658 282.145C272.585 281.317 272.259 280.533 271.724 279.898C271.561 279.748 271.349 279.662 271.128 279.656V279.681Z" fill="#3AD3B7"/>
<path d="M298.125 116.758L298.882 119.408C298.986 119.609 298.745 119.818 298.398 119.818H267.968C267.703 119.818 267.477 119.689 267.461 119.52L267.195 116.879C267.195 116.694 267.405 116.541 267.703 116.541H297.649C297.741 116.533 297.832 116.549 297.916 116.587C297.999 116.625 298.071 116.684 298.125 116.758Z" fill="#3AD3B7"/>
<path opacity="0.3" d="M298.125 116.758L298.882 119.408C298.986 119.609 298.745 119.818 298.398 119.818H267.968C267.703 119.818 267.477 119.689 267.461 119.52L267.195 116.879C267.195 116.694 267.405 116.541 267.703 116.541H297.649C297.741 116.533 297.832 116.549 297.916 116.587C297.999 116.625 298.071 116.684 298.125 116.758Z" fill="white"/>
<path d="M294.108 120.137H294.913C295.066 120.137 295.187 120.056 295.179 119.952L294.8 116.513C294.8 116.417 294.655 116.328 294.494 116.328H293.689C293.528 116.328 293.407 116.417 293.423 116.513L293.794 119.952C293.81 120.056 293.914 120.137 294.108 120.137Z" fill="#263238"/>
<path d="M270.224 120.137H271.029C271.19 120.137 271.311 120.056 271.303 119.952L270.924 116.513C270.924 116.417 270.771 116.328 270.618 116.328H269.813C269.652 116.328 269.531 116.417 269.539 116.513L269.918 119.952C269.926 120.056 270.063 120.137 270.224 120.137Z" fill="#263238"/>
<path d="M282.162 120.137H282.967C283.129 120.137 283.249 120.056 283.241 119.952L282.863 116.513C282.863 116.417 282.718 116.328 282.557 116.328H281.752C281.59 116.328 281.47 116.417 281.486 116.513L281.832 119.976C281.832 120.056 282.001 120.137 282.162 120.137Z" fill="#263238"/>
<path d="M278.551 49.5628L277.109 49.2891C277.109 49.2891 277.931 50.3198 278.551 49.5628Z" fill="#263238"/>
<path opacity="0.2" d="M251.893 152.098C238.251 157.398 223.343 158.533 209.055 155.361C194.767 152.189 181.741 144.851 171.623 134.275C161.506 123.7 154.751 110.361 152.214 95.9472C149.677 81.533 151.471 66.6901 157.369 53.2954C163.268 39.9008 173.006 28.5559 185.352 20.6955C197.697 12.8351 212.097 8.81209 226.729 9.13523C241.361 9.45838 255.569 14.1131 267.556 22.5109C279.543 30.9087 288.771 42.6724 294.072 56.3144C297.593 65.3729 299.295 75.0364 299.081 84.753C298.867 94.4695 296.741 104.049 292.824 112.943C288.907 121.838 283.277 129.874 276.254 136.592C269.231 143.31 260.953 148.579 251.893 152.098Z" fill="#3AD3B7"/>
<path opacity="0.1" d="M238.506 10.3471L180.464 142.165C179.57 141.488 178.684 140.788 177.815 140.079C172.205 135.438 167.319 129.986 163.32 123.902L213.455 10.0411C221.76 8.70333 230.235 8.80684 238.506 10.3471Z" fill="white"/>
<path opacity="0.1" d="M279.764 33.2141L225.193 157.149C213.858 157.161 202.672 154.565 192.5 149.563L252.088 14.2266C262.644 18.3551 272.113 24.851 279.764 33.2141Z" fill="white"/>
<path d="M164.173 33.27C174.033 21.2213 187.245 12.3671 202.138 7.82721C217.031 3.28732 232.935 3.26557 247.84 7.76472C262.745 12.2639 275.982 21.0819 285.875 33.1036C295.769 45.1253 301.875 59.8108 303.423 75.3031C304.97 90.7954 301.889 106.399 294.568 120.14C287.248 133.881 276.017 145.142 262.296 152.5C248.575 159.859 232.981 162.983 217.484 161.478C201.988 159.973 187.285 153.907 175.237 144.047C159.081 130.823 148.84 111.724 146.765 90.9495C144.69 70.1754 150.952 49.4279 164.173 33.27ZM281.029 128.9C290.08 117.836 295.648 104.336 297.027 90.1083C298.406 75.8802 295.535 61.5626 288.778 48.966C282.02 36.3693 271.679 26.0593 259.062 19.3397C246.445 12.62 232.119 9.79255 217.895 11.2147C203.671 12.6369 190.188 18.2448 179.151 27.3295C168.115 36.4141 160.019 48.5674 155.89 62.2527C151.76 75.9379 151.781 90.5405 155.949 104.214C160.118 117.887 168.248 130.017 179.311 139.07C186.657 145.082 195.116 149.588 204.204 152.331C213.292 155.073 222.831 155.999 232.277 155.054C241.722 154.11 250.889 151.314 259.254 146.826C267.619 142.339 275.018 136.248 281.029 128.9Z" fill="#3AD3B7"/>
<path d="M287.979 128.624C295.733 133.254 303.109 138.344 310.357 143.594C317.604 148.844 324.666 154.311 331.615 159.924C338.564 165.536 345.385 171.31 351.963 177.374C355.259 180.401 358.48 183.509 361.626 186.698C364.783 189.919 367.883 193.14 370.806 196.635C371.481 197.444 371.854 198.463 371.859 199.517C371.864 200.571 371.502 201.594 370.835 202.41C370.168 203.225 369.237 203.783 368.203 203.987C367.169 204.192 366.096 204.029 365.169 203.528C361.143 201.354 357.375 198.954 353.614 196.498C349.854 194.042 346.182 191.481 342.558 188.848C335.311 183.598 328.297 178.066 321.429 172.357C314.56 166.648 307.796 160.81 301.217 154.738C294.638 148.667 288.188 142.45 282.117 135.767C281.359 134.94 280.924 133.868 280.892 132.747C280.861 131.625 281.235 130.53 281.945 129.662C282.655 128.794 283.655 128.212 284.76 128.021C285.866 127.83 287.003 128.045 287.963 128.624H287.979Z" fill="#3AD3B7"/>
<path d="M296.646 126.422L288.867 127.606L294.431 132.485C294.431 132.485 298.828 130.875 299.263 127.895L296.646 126.422Z" fill="#FFC3BD"/>
<path d="M284.664 132.07L289.552 135.903L295.519 132.006L288.867 127.617L284.664 132.07Z" fill="#FFC3BD"/>
<path d="M247.887 140.557C248.598 138.617 249.879 136.938 251.562 135.741C253.245 134.544 255.251 133.884 257.317 133.849H321.776C322.89 133.807 323.999 134.011 325.026 134.445C326.053 134.878 326.972 135.532 327.718 136.36C328.464 137.188 329.02 138.17 329.346 139.236C329.671 140.301 329.759 141.426 329.603 142.53L312.951 282.247C312.597 284.625 311.409 286.8 309.599 288.383C307.789 289.966 305.475 290.854 303.07 290.887H98.5394C97.4293 290.929 96.3235 290.728 95.2997 290.297C94.2759 289.865 93.359 289.215 92.6136 288.391C91.8683 287.568 91.3125 286.591 90.9854 285.529C90.6583 284.467 90.5679 283.347 90.7205 282.247L104.683 164.859C105.037 162.48 106.225 160.305 108.035 158.722C109.845 157.139 112.159 156.252 114.564 156.219H225.864C230.687 156.136 235.372 154.596 239.303 151.801C243.234 149.005 246.226 145.085 247.887 140.557Z" fill="#3AD3B7"/>
<path d="M94.3984 284.456H308.117L320.292 140.656H106.582L94.3984 284.456Z" fill="#F0F0F0"/>
<path d="M94.3984 284.456H308.117L316.926 140.656H106.582L94.3984 284.456Z" fill="#E0E0E0"/>
<path d="M94.3984 284.451H308.117L315.461 136.086H101.75L94.3984 284.451Z" fill="#F0F0F0"/>
<path d="M94.3984 284.451H308.117L311.024 136.086H101.75L94.3984 284.451Z" fill="#E0E0E0"/>
<path d="M94.3984 284.454H308.117L309.389 132.062H95.6788L94.3984 284.454Z" fill="#F0F0F0"/>
<path d="M94.3942 284.454H308.113L303.724 134.945H91.3906L94.3942 284.454Z" fill="#E0E0E0"/>
<path d="M94.3997 284.451H308.118L301.773 136.086H88.0625L94.3997 284.451Z" fill="#F0F0F0"/>
<path d="M94.3946 284.455H308.113L298.007 138.328H84.2969L94.3946 284.455Z" fill="#E0E0E0"/>
<path d="M94.3957 284.457H308.114L296.398 139.578H82.6875L94.3957 284.457Z" fill="#F0F0F0"/>
<path d="M201.422 149.634C201.434 148.7 201.634 147.777 202.009 146.922C202.385 146.066 202.929 145.295 203.609 144.654C204.289 144.014 205.091 143.516 205.967 143.192C206.843 142.867 207.776 142.722 208.709 142.765H273.169C275.664 142.861 278.058 143.783 279.973 145.386C281.888 146.989 283.216 149.183 283.749 151.623L309.219 282.072C310.169 286.96 306.981 290.929 302.093 290.929H97.562C92.6661 290.929 87.8991 286.96 86.9731 282.072L65.9644 174.532C65.0142 169.644 68.2029 165.674 73.0907 165.674H184.399C194.062 165.674 201.092 159.023 201.422 149.634Z" fill="#3AD3B7"/>
<path opacity="0.2" d="M201.422 149.634C201.434 148.7 201.634 147.777 202.009 146.922C202.385 146.066 202.929 145.295 203.609 144.654C204.289 144.014 205.091 143.516 205.967 143.192C206.843 142.867 207.776 142.722 208.709 142.765H273.169C275.664 142.861 278.058 143.783 279.973 145.386C281.888 146.989 283.216 149.183 283.749 151.623L309.219 282.072C310.169 286.96 306.981 290.929 302.093 290.929H97.562C92.6661 290.929 87.8991 286.96 86.9731 282.072L65.9644 174.532C65.0142 169.644 68.2029 165.674 73.0907 165.674H184.399C194.062 165.674 201.092 159.023 201.422 149.634Z" fill="black"/>
</svg>
