<svg width="400" height="400" viewBox="0 0 400 400" fill="none" xmlns="http://www.w3.org/2000/svg">
<path d="M200 399.997C89.5431 399.997 0 346.688 0 280.928C0 215.168 89.5431 161.859 200 161.859C310.457 161.859 400 215.168 400 280.928C400 346.688 310.457 399.997 200 399.997Z" fill="#F0F0F0"/>
<path d="M85.1404 322.246C98.2553 314.438 98.2553 301.781 85.1404 293.973C72.0255 286.165 50.7615 286.165 37.6466 293.973C24.5318 301.781 24.5318 314.438 37.6466 322.246C50.7615 330.053 72.0255 330.053 85.1404 322.246Z" fill="#E0E0E0"/>
<path d="M351.888 323.331L386.386 302.796C388.33 301.64 388.33 299.758 386.386 298.603L185.724 179.14C184.633 178.57 183.428 178.273 182.205 178.273C180.983 178.273 179.777 178.57 178.687 179.14L144.18 199.675C142.237 200.83 142.237 202.712 144.18 203.868L344.843 323.331C345.935 323.9 347.141 324.197 348.365 324.197C349.589 324.197 350.796 323.9 351.888 323.331Z" fill="#E0E0E0"/>
<path d="M227.886 286.723L198.227 269.042C195.171 267.221 193.643 264.84 193.643 262.45C193.643 260.061 193.643 258.196 193.643 258.196L224.406 240.305C225.265 239.732 225.981 238.957 226.494 238.045C227.008 237.132 227.304 236.107 227.36 235.053V197.336L279.141 228.199V265.899C279.081 266.952 278.783 267.975 278.27 268.888C277.757 269.8 277.043 270.575 276.187 271.151L250.008 286.697C243.913 290.364 233.998 290.364 227.886 286.723Z" fill="#3ACAAF"/>
<g opacity="0.6">
<path d="M227.886 286.723L198.227 269.042C195.171 267.221 193.643 264.84 193.643 262.45C193.643 260.061 193.643 258.196 193.643 258.196L224.406 240.305C225.265 239.732 225.981 238.957 226.494 238.045C227.008 237.132 227.304 236.107 227.36 235.053V197.336L279.141 228.199V265.899C279.081 266.952 278.783 267.975 278.27 268.888C277.757 269.8 277.043 270.575 276.187 271.151L250.008 286.697C243.913 290.364 233.998 290.364 227.886 286.723Z" fill="black"/>
</g>
<path opacity="0.3" d="M266.72 272.58V276.816L276.211 271.171C277.067 270.595 277.78 269.82 278.292 268.907C278.803 267.995 279.1 266.971 279.156 265.919V228.201L269.292 222.328C269.089 224.91 268.868 227.58 268.656 230.206L275.591 234.32V263.774C275.536 264.828 275.24 265.853 274.726 266.766C274.213 267.679 273.497 268.454 272.637 269.026L266.72 272.58Z" fill="black"/>
<path d="M275.586 263.787C275.528 264.84 275.23 265.865 274.717 266.777C274.203 267.689 273.489 268.464 272.632 269.039L250.035 282.467C243.923 286.099 234.009 286.108 227.888 282.467L198.178 264.785C192.058 261.144 192.058 255.244 198.178 251.603L220.792 238.176C221.647 237.599 222.36 236.824 222.871 235.911C223.383 234.999 223.68 233.976 223.738 232.924V203.461L275.518 234.324L275.586 263.787Z" fill="#3ACAAF"/>
<path opacity="0.3" d="M275.586 263.787C275.528 264.84 275.23 265.865 274.717 266.777C274.203 267.689 273.489 268.464 272.632 269.039L250.035 282.467C243.923 286.099 234.009 286.108 227.888 282.467L198.178 264.785C192.058 261.144 192.058 255.244 198.178 251.603L220.792 238.176C221.647 237.599 222.36 236.824 222.871 235.911C223.383 234.999 223.68 233.976 223.738 232.924V203.461L275.518 234.324L275.586 263.787Z" fill="black"/>
<path opacity="0.5" d="M214.81 241.773L220.829 238.193C221.684 237.617 222.396 236.841 222.908 235.929C223.419 235.017 223.716 233.994 223.774 232.941V203.461L275.555 234.324V263.787C275.496 264.84 275.199 265.865 274.685 266.777C274.172 267.689 273.458 268.464 272.601 269.039L266.659 272.541L214.81 241.773Z" fill="black"/>
<path d="M193.63 258.211V262.465C193.63 264.855 195.166 267.227 198.214 269.056L227.924 286.729C231.175 288.518 234.807 289.448 238.492 289.433V285.197C234.807 285.211 231.175 284.282 227.924 282.492L198.214 264.802C195.166 262.99 193.63 260.601 193.63 258.211Z" fill="#3ACAAF"/>
<path opacity="0.5" d="M193.63 258.211V262.465C193.63 264.855 195.166 267.227 198.214 269.056L227.924 286.729C231.175 288.518 234.807 289.448 238.492 289.433V285.197C234.807 285.211 231.175 284.282 227.924 282.492L198.214 264.802C195.166 262.99 193.63 260.601 193.63 258.211Z" fill="black"/>
<path d="M358.776 300.398C357.657 300.956 356.426 301.234 355.183 301.211C353.94 301.189 352.72 300.865 351.621 300.267L151.289 181.005C150.215 180.283 149.321 179.31 148.68 178.165C148.038 177.02 147.667 175.735 147.597 174.414V7.29955C147.635 6.01492 147.967 4.75781 148.566 3.63066C149.165 2.50352 150.014 1.53824 151.043 0.813482C152.161 0.255344 153.391 -0.0228657 154.633 0.00146953C155.875 0.0258048 157.094 0.351998 158.191 0.953532L358.522 120.25C359.592 120.977 360.481 121.955 361.115 123.103C361.75 124.251 362.112 125.538 362.172 126.859V293.947C362.134 295.221 361.807 296.468 361.217 297.589C360.628 298.709 359.792 299.671 358.776 300.398Z" fill="#3ACAAF"/>
<path d="M351.597 300.254L151.265 180.993C150.19 180.272 149.295 179.299 148.653 178.154C148.011 177.008 147.641 175.723 147.573 174.402V7.29594C147.573 4.87133 149.228 3.88222 151.265 5.09891L351.597 124.36C352.671 125.082 353.566 126.055 354.207 127.201C354.849 128.346 355.219 129.631 355.289 130.951V298.057C355.289 300.482 353.634 301.471 351.597 300.254Z" fill="#3ACAAF"/>
<path opacity="0.5" d="M351.597 300.254L151.265 180.993C150.19 180.272 149.295 179.299 148.653 178.154C148.011 177.008 147.641 175.723 147.573 174.402V7.29594C147.573 4.87133 149.228 3.88222 151.265 5.09891L351.597 124.36C352.671 125.082 353.566 126.055 354.207 127.201C354.849 128.346 355.219 129.631 355.289 130.951V298.057C355.289 300.482 353.634 301.471 351.597 300.254Z" fill="black"/>
<path d="M352.138 304.603C353.189 305.076 354.326 305.308 355.472 305.284C356.618 305.26 357.746 304.98 358.776 304.463C359.794 303.734 360.631 302.769 361.221 301.645C361.811 300.522 362.137 299.271 362.172 297.994V282.781L355.254 286.913V302.126C355.296 304.34 353.929 305.347 352.138 304.603Z" fill="#3ACAAF"/>
<path opacity="0.5" d="M352.138 304.603C353.189 305.076 354.326 305.308 355.472 305.284C356.618 305.26 357.746 304.98 358.776 304.463C359.794 303.734 360.631 302.769 361.221 301.645C361.811 300.522 362.137 299.271 362.172 297.994V282.781L355.254 286.913V302.126C355.296 304.34 353.929 305.347 352.138 304.603Z" fill="black"/>
<path d="M355.297 286.909V302.122C355.297 304.547 353.599 305.527 351.604 304.319L151.273 185.058C150.204 184.339 149.312 183.371 148.671 182.233C148.03 181.094 147.656 179.816 147.581 178.502V163.219L355.297 286.909Z" fill="#3ACAAF"/>
<path opacity="0.3" d="M355.289 286.874V302.122C355.289 304.547 353.591 305.527 351.597 304.319L151.265 185.058C150.197 184.338 149.308 183.37 148.668 182.231C148.028 181.093 147.656 179.815 147.581 178.502V163.219L355.289 286.874Z" fill="black"/>
<path d="M348.367 267.784V133.328C348.328 132.535 348.107 131.764 347.724 131.076C347.34 130.389 346.804 129.805 346.16 129.371L156.745 16.5695C155.523 15.843 154.53 16.4295 154.53 17.8825V152.409C154.571 153.202 154.793 153.974 155.178 154.661C155.563 155.349 156.1 155.933 156.745 156.366L346.152 269.141C347.374 269.868 348.367 269.272 348.367 267.784Z" fill="#3ACAAF"/>
<path d="M348.367 267.784V133.328C348.328 132.535 348.107 131.764 347.724 131.076C347.34 130.389 346.804 129.805 346.16 129.371L156.745 16.5695C155.523 15.843 154.53 16.4295 154.53 17.8825V152.409C154.571 153.202 154.793 153.974 155.178 154.661C155.563 155.349 156.1 155.933 156.745 156.366L346.152 269.141C347.374 269.868 348.367 269.272 348.367 267.784Z" fill="#263238"/>
<path d="M251.435 229.91C252.443 230.586 253.283 231.498 253.884 232.572C254.486 233.646 254.834 234.851 254.898 236.09C254.898 238.365 253.345 239.293 251.435 238.155C250.426 237.478 249.586 236.565 248.984 235.489C248.382 234.414 248.035 233.207 247.972 231.967C247.972 229.691 249.525 228.772 251.435 229.91Z" fill="#3ACAAF"/>
<path opacity="0.7" d="M354.201 127.19C354.859 128.33 355.235 129.62 355.296 130.945V286.909L362.172 282.777V126.858C362.127 125.528 361.753 124.232 361.085 123.094L354.201 127.19Z" fill="black"/>
<path opacity="0.3" d="M147.61 6.66566C147.874 4.70496 149.41 4.03972 151.269 5.09885L351.6 124.36C352.686 125.061 353.583 126.033 354.206 127.188L361.133 123.065C360.505 121.911 359.606 120.939 358.518 120.238L158.187 0.984879C157.089 0.383261 155.869 0.0570523 154.626 0.0327192C153.382 0.00838606 152.151 0.286614 151.031 0.844829C150.09 1.506 149.298 2.36784 148.708 3.37205C148.118 4.37627 147.743 5.49945 147.61 6.66566Z" fill="black"/>
<path d="M136.806 27.2398C137.103 27.0859 137.436 27.0184 137.768 27.0446C138.1 27.0708 138.419 27.1897 138.69 27.3886L327.714 139.989C328.46 140.498 329.079 141.18 329.522 141.982C329.964 142.783 330.217 143.681 330.261 144.602V278.236C330.287 278.687 330.201 279.137 330.009 279.544C329.817 279.95 329.527 280.299 329.166 280.555C328.75 280.792 326.526 282.122 325.864 282.49C325.63 282.613 325.368 282.67 325.105 282.654C324.843 282.639 324.589 282.552 324.37 282.402L135.388 169.802C134.642 169.293 134.023 168.611 133.581 167.809C133.138 167.008 132.885 166.11 132.841 165.189V30.8636C132.804 30.5242 132.858 30.1806 132.999 29.8713C133.14 29.5621 133.362 29.2995 133.639 29.113C134.064 28.8242 136.33 27.5287 136.806 27.2398Z" fill="#3ACAAF"/>
<path d="M324.414 141.876L135.382 29.3199C133.956 28.4445 132.835 29.1623 132.835 30.8604V165.186C132.879 166.107 133.132 167.005 133.574 167.806C134.017 168.607 134.636 169.29 135.382 169.799L324.414 282.399C325.84 283.274 326.961 281.865 326.961 280.167V146.489C326.916 145.569 326.662 144.671 326.22 143.87C325.778 143.069 325.159 142.386 324.414 141.876Z" fill="#FAFAFA"/>
<path d="M134.227 29.8284C133.726 29.8284 133.65 30.4762 133.65 30.8613V165.187C133.696 165.958 133.915 166.708 134.291 167.376C134.667 168.045 135.188 168.614 135.815 169.038L324.822 281.638C324.949 281.723 325.095 281.772 325.246 281.779C325.722 281.779 326.095 281.026 326.095 280.168V146.49C326.054 145.719 325.841 144.968 325.473 144.296C325.105 143.623 324.592 143.047 323.973 142.613L134.957 30.0735C134.739 29.928 134.487 29.8436 134.227 29.8284ZM134.227 28.9531C134.636 28.9711 135.034 29.0977 135.382 29.3208L324.414 141.877C325.159 142.387 325.778 143.07 326.22 143.871C326.662 144.672 326.916 145.569 326.961 146.49V280.168C326.961 281.516 326.231 282.654 325.263 282.654C324.963 282.648 324.671 282.56 324.414 282.4L135.39 169.8C134.644 169.291 134.025 168.608 133.583 167.807C133.14 167.005 132.887 166.108 132.844 165.187V30.8613C132.844 29.6534 133.421 28.9531 134.27 28.9531H134.227Z" fill="#E0E0E0"/>
<path d="M329.221 280.551C328.941 280.699 326.929 281.881 326.046 282.406C326.363 282.135 326.614 281.791 326.779 281.402C326.944 281.013 327.019 280.59 326.997 280.165V155.214L330.307 153.219V278.231C330.335 278.681 330.249 279.131 330.059 279.538C329.869 279.944 329.58 280.293 329.221 280.551Z" fill="#F0F0F0"/>
<path d="M132.801 30.8327C132.801 29.1521 133.964 28.4693 135.348 29.3184L324.414 141.875C325.159 142.385 325.778 143.068 326.22 143.869C326.662 144.67 326.916 145.567 326.961 146.488V155.241L132.801 39.5858V30.8327Z" fill="#3ACAAF"/>
<g opacity="0.4">
<path d="M135.381 29.3204L324.414 141.868C325.173 142.362 325.798 143.045 326.231 143.855L329.516 141.886C329.083 141.104 328.464 140.45 327.716 139.986L138.692 27.386C138.421 27.1857 138.103 27.0652 137.771 27.0374C137.439 27.0097 137.106 27.0757 136.807 27.2284C136.349 27.526 134.201 28.7777 133.65 29.0841C133.935 28.975 134.242 28.9394 134.544 28.9806C134.846 29.0218 135.133 29.1385 135.381 29.3204Z" fill="white"/>
</g>
<path opacity="0.15" d="M330.305 153.227V144.553C330.27 143.607 329.998 142.687 329.515 141.883L326.222 143.844C326.697 144.634 326.964 145.54 326.994 146.469V155.223L330.305 153.227Z" fill="black"/>
<path d="M172.66 131.604L285.873 199.003C286.423 199.371 286.882 199.868 287.211 200.454C287.539 201.04 287.73 201.697 287.766 202.373V235.845C287.73 236.521 287.539 237.178 287.211 237.764C286.882 238.349 286.423 238.846 285.873 239.215L282.571 241.175C281.984 241.482 281.335 241.641 280.678 241.641C280.02 241.641 279.372 241.482 278.785 241.175L165.589 173.776C165.038 173.406 164.58 172.907 164.251 172.32C163.922 171.733 163.732 171.075 163.696 170.398V136.917C163.732 136.241 163.922 135.584 164.251 134.998C164.58 134.413 165.039 133.915 165.589 133.547L168.9 131.586C169.484 131.285 170.129 131.13 170.782 131.133C171.435 131.136 172.079 131.297 172.66 131.604Z" fill="#3ACAAF"/>
<path opacity="0.5" d="M163.702 136.614C163.838 135.607 164.627 135.24 165.578 135.809L278.79 203.208C279.349 203.566 279.808 204.066 280.123 204.661L287.211 200.442C286.893 199.856 286.438 199.363 285.887 199.006L172.666 131.607C172.081 131.3 171.433 131.141 170.777 131.141C170.121 131.141 169.473 131.3 168.888 131.607L165.578 133.568C165.073 133.909 164.645 134.357 164.321 134.882C163.998 135.408 163.786 135.998 163.702 136.614Z" fill="white"/>
<path d="M279.107 241.34C279.662 241.565 280.256 241.668 280.851 241.64C281.446 241.613 282.029 241.457 282.562 241.182L285.873 239.222C286.422 238.852 286.88 238.355 287.209 237.769C287.538 237.184 287.728 236.527 287.766 235.852V202.38C287.74 201.697 287.547 201.031 287.205 200.445L280.117 204.664C280.462 205.243 280.655 205.903 280.678 206.581V240.062C280.678 241.174 279.999 241.69 279.107 241.34Z" fill="#263238"/>
<path d="M278.788 203.213L165.576 135.814C164.531 135.193 163.683 135.692 163.683 136.934V170.415C163.719 171.092 163.909 171.751 164.238 172.338C164.566 172.925 165.025 173.424 165.576 173.794L278.771 241.193C279.815 241.814 280.664 241.307 280.664 240.064V206.592C280.63 205.917 280.442 205.259 280.117 204.672C279.791 204.085 279.336 203.585 278.788 203.213Z" fill="#3ACAAF"/>
<path d="M202.683 149.477L285.871 199.011C286.422 199.367 286.878 199.861 287.195 200.446L280.107 204.665C279.792 204.07 279.333 203.57 278.775 203.212L195.586 153.687L202.683 149.477Z" fill="#455A64"/>
<path d="M195.598 153.688L278.787 203.213C279.337 203.583 279.796 204.082 280.125 204.669C280.454 205.256 280.644 205.915 280.68 206.591V240.055C280.68 241.298 279.831 241.805 278.787 241.184L195.598 191.659V153.688Z" fill="#37474F"/>
<path d="M259.602 199.132L216.676 173.581C214.901 172.522 213.458 173.275 213.458 175.262C213.538 176.378 213.871 177.459 214.432 178.417C214.992 179.375 215.764 180.184 216.684 180.777L259.602 206.336C261.377 207.395 262.828 206.642 262.828 204.655C262.748 203.538 262.414 202.456 261.854 201.497C261.294 200.537 260.522 199.727 259.602 199.132Z" fill="#3ACAAF"/>
<path d="M250.81 207.592C250.802 207.583 250.792 207.575 250.781 207.57C250.77 207.565 250.758 207.563 250.746 207.562C250.734 207.563 250.722 207.565 250.711 207.57C250.7 207.575 250.69 207.583 250.682 207.592C250.644 207.652 250.627 207.722 250.632 207.793V212.774C250.631 213.255 250.671 213.735 250.75 214.209C250.821 214.643 250.94 215.066 251.107 215.47C251.259 215.84 251.459 216.188 251.701 216.503C251.94 216.795 252.227 217.041 252.55 217.229C252.803 217.399 253.097 217.49 253.399 217.492C253.514 217.482 253.626 217.449 253.728 217.393C253.831 217.338 253.921 217.261 253.993 217.168C254.179 216.911 254.302 216.61 254.35 216.293C254.431 215.869 254.468 215.438 254.46 215.006V210.017C254.46 209.929 254.443 209.843 254.409 209.763C254.388 209.691 254.343 209.629 254.282 209.588L253.747 209.264C253.73 209.247 253.707 209.238 253.683 209.238C253.66 209.238 253.637 209.247 253.62 209.264C253.58 209.323 253.562 209.394 253.569 209.465V214.385C253.575 214.655 253.549 214.926 253.492 215.19C253.469 215.359 253.398 215.517 253.288 215.645C253.25 215.692 253.202 215.729 253.147 215.753C253.093 215.778 253.034 215.789 252.974 215.785C252.829 215.775 252.689 215.727 252.567 215.645C252.416 215.552 252.279 215.437 252.159 215.304C252.027 215.146 251.918 214.969 251.837 214.778C251.741 214.554 251.67 214.319 251.625 214.078C251.575 213.789 251.552 213.496 251.557 213.203V208.275C251.554 208.187 251.534 208.101 251.497 208.021C251.477 207.949 251.431 207.887 251.37 207.846L250.81 207.592Z" fill="#FAFAFA"/>
<path d="M247.485 212.305C247.48 212.241 247.495 212.176 247.527 212.121C247.547 212.098 247.572 212.081 247.601 212.07C247.629 212.06 247.659 212.056 247.688 212.06C247.793 212.045 247.898 212.045 248.003 212.06L248.495 212.156C248.654 212.197 248.82 212.197 248.979 212.156C249.103 212.115 249.211 212.032 249.284 211.92C249.367 211.778 249.422 211.62 249.446 211.456C249.528 210.987 249.528 210.507 249.446 210.038C249.382 209.769 249.291 209.508 249.174 209.259C249.058 209.01 248.915 208.775 248.75 208.559C248.589 208.352 248.393 208.177 248.172 208.042C247.994 207.93 247.794 207.858 247.587 207.832C247.436 207.816 247.284 207.85 247.154 207.928C247.029 208.007 246.931 208.123 246.874 208.261C246.805 208.424 246.768 208.6 246.763 208.777C246.754 208.865 246.772 208.954 246.814 209.031C246.835 209.103 246.88 209.165 246.941 209.206L247.451 209.513C247.474 209.526 247.5 209.534 247.527 209.534C247.554 209.534 247.58 209.526 247.604 209.513L247.714 209.425C247.758 209.389 247.811 209.368 247.867 209.364C247.976 209.376 248.081 209.415 248.172 209.478C248.306 209.56 248.423 209.667 248.52 209.793C248.623 209.931 248.677 210.1 248.673 210.274C248.685 210.341 248.685 210.409 248.673 210.475C248.657 210.5 248.635 210.521 248.611 210.536C248.586 210.551 248.558 210.56 248.529 210.563C248.436 210.579 248.341 210.579 248.249 210.563L247.773 210.475C247.374 210.397 247.103 210.475 246.924 210.703C246.737 211.027 246.651 211.403 246.678 211.78C246.68 212.04 246.715 212.299 246.78 212.55C246.847 212.823 246.944 213.087 247.069 213.338C247.193 213.597 247.35 213.838 247.536 214.056C247.711 214.268 247.921 214.449 248.155 214.589C248.342 214.712 248.554 214.788 248.775 214.808C248.935 214.814 249.092 214.768 249.225 214.677C249.356 214.585 249.457 214.453 249.513 214.301C249.582 214.135 249.617 213.956 249.615 213.775C249.623 213.685 249.606 213.593 249.564 213.513C249.544 213.441 249.498 213.379 249.437 213.338L248.928 213.031C248.86 213.031 248.809 212.988 248.775 213.031L248.665 213.154C248.642 213.18 248.615 213.201 248.584 213.216C248.553 213.231 248.52 213.24 248.486 213.241C248.367 213.242 248.251 213.202 248.155 213.128C248.002 213.038 247.864 212.923 247.748 212.786C247.69 212.714 247.642 212.635 247.604 212.55C247.544 212.481 247.503 212.396 247.485 212.305Z" fill="#FAFAFA"/>
<path d="M245.75 209.932C245.751 209.477 245.714 209.023 245.639 208.575C245.569 208.154 245.458 207.74 245.308 207.341C245.184 206.983 245.012 206.645 244.799 206.334C244.621 206.068 244.389 205.844 244.12 205.678C243.923 205.541 243.683 205.488 243.449 205.529C243.242 205.579 243.06 205.707 242.94 205.888C242.78 206.125 242.668 206.393 242.609 206.676C242.528 207.043 242.488 207.419 242.49 207.796V208.339C242.487 208.43 242.508 208.521 242.55 208.601C242.57 208.674 242.615 208.736 242.677 208.776L244.884 210.098C244.889 210.252 244.869 210.406 244.824 210.553C244.792 210.652 244.733 210.74 244.655 210.807C244.585 210.864 244.497 210.892 244.409 210.886C244.306 210.873 244.207 210.838 244.12 210.781C243.992 210.709 243.877 210.614 243.78 210.501C243.694 210.4 243.619 210.288 243.56 210.168C243.523 210.099 243.484 210.032 243.441 209.967C243.404 209.922 243.361 209.884 243.313 209.853L242.787 209.538C242.769 209.523 242.747 209.515 242.724 209.515C242.7 209.515 242.678 209.523 242.66 209.538C242.638 209.566 242.621 209.598 242.613 209.633C242.604 209.668 242.603 209.704 242.609 209.739C242.618 209.91 242.653 210.078 242.711 210.238C242.784 210.481 242.881 210.716 242.999 210.938C243.132 211.195 243.292 211.435 243.475 211.656C243.657 211.882 243.876 212.074 244.12 212.225C244.321 212.361 244.561 212.419 244.799 212.391C245.008 212.34 245.19 212.208 245.308 212.024C245.475 211.758 245.588 211.461 245.639 211.149C245.717 210.748 245.754 210.34 245.75 209.932ZM244.12 207.14C244.25 207.212 244.364 207.314 244.451 207.437C244.545 207.56 244.622 207.695 244.68 207.84C244.74 207.984 244.788 208.134 244.824 208.286C244.854 208.425 244.874 208.565 244.884 208.706L243.39 207.831C243.399 207.71 243.416 207.59 243.441 207.472C243.454 207.366 243.495 207.266 243.56 207.183C243.585 207.146 243.618 207.114 243.656 207.089C243.694 207.065 243.736 207.05 243.78 207.043C243.901 207.033 244.021 207.067 244.12 207.14Z" fill="#FAFAFA"/>
<path d="M239.824 204.695C240.081 204.846 240.284 205.08 240.401 205.36C240.533 205.729 240.594 206.122 240.579 206.515V209.675C240.578 209.765 240.596 209.855 240.63 209.938C240.651 210.01 240.696 210.072 240.758 210.113L241.258 210.41C241.266 210.42 241.276 210.427 241.287 210.432C241.298 210.437 241.31 210.44 241.322 210.44C241.334 210.44 241.346 210.437 241.357 210.432C241.368 210.427 241.378 210.42 241.386 210.41C241.424 210.351 241.442 210.28 241.437 210.209V204.546C241.436 204.456 241.419 204.367 241.386 204.283C241.362 204.213 241.318 204.152 241.258 204.108L240.758 203.811C240.74 203.794 240.718 203.785 240.694 203.785C240.67 203.785 240.648 203.794 240.63 203.811C240.591 203.866 240.573 203.935 240.579 204.003V204.283C240.478 204.048 240.353 203.825 240.206 203.618C240.072 203.426 239.898 203.268 239.697 203.154L239.391 202.97C239.375 202.954 239.354 202.945 239.332 202.945C239.309 202.945 239.288 202.954 239.272 202.97C239.231 203.029 239.21 203.1 239.213 203.172V203.968C239.214 204.059 239.234 204.149 239.272 204.231C239.294 204.3 239.335 204.361 239.391 204.406L239.824 204.695Z" fill="#FAFAFA"/>
<path d="M233.496 204.28C233.488 204.271 233.478 204.264 233.467 204.258C233.456 204.253 233.444 204.251 233.432 204.251C233.42 204.251 233.408 204.253 233.397 204.258C233.386 204.264 233.377 204.271 233.369 204.28C233.331 204.34 233.313 204.411 233.318 204.482V205.357C233.318 205.447 233.335 205.536 233.369 205.62C233.398 205.685 233.441 205.742 233.496 205.786L236.399 207.537C236.416 207.553 236.439 207.562 236.463 207.562C236.486 207.562 236.509 207.553 236.526 207.537C236.564 207.48 236.582 207.412 236.577 207.344V199.466C236.577 199.376 236.56 199.287 236.526 199.204C236.503 199.135 236.458 199.077 236.399 199.037L235.864 198.713C235.847 198.697 235.824 198.688 235.801 198.688C235.777 198.688 235.754 198.697 235.737 198.713C235.699 198.77 235.681 198.838 235.686 198.906V205.567L233.496 204.28Z" fill="#FAFAFA"/>
<path d="M230.891 197.804C230.7 197.667 230.469 197.603 230.237 197.62C230.039 197.636 229.853 197.73 229.719 197.883C229.561 198.07 229.445 198.291 229.38 198.53C229.289 198.84 229.238 199.161 229.227 199.484C229.227 199.554 229.227 199.651 229.227 199.764V200.438C229.227 200.544 229.227 200.64 229.227 200.719C229.244 201.099 229.295 201.477 229.38 201.848C229.458 202.209 229.572 202.561 229.719 202.898C229.854 203.212 230.028 203.506 230.237 203.773C230.416 204.015 230.638 204.22 230.891 204.377C231.087 204.509 231.319 204.573 231.553 204.561C231.749 204.544 231.931 204.45 232.062 204.299C232.225 204.118 232.342 203.898 232.402 203.66C232.493 203.35 232.544 203.029 232.555 202.706C232.555 202.636 232.555 202.548 232.555 202.434V201.76C232.555 201.646 232.555 201.55 232.555 201.48C232.545 201.097 232.496 200.715 232.41 200.342C232.328 199.978 232.211 199.624 232.062 199.283C231.927 198.971 231.756 198.677 231.553 198.408C231.373 198.163 231.148 197.958 230.891 197.804ZM230.093 200.062C230.093 199.868 230.125 199.676 230.186 199.493C230.218 199.382 230.283 199.283 230.373 199.213C230.445 199.163 230.533 199.141 230.619 199.152C230.716 199.171 230.809 199.209 230.891 199.266C230.991 199.322 231.082 199.393 231.163 199.476C231.26 199.58 231.343 199.698 231.409 199.826C231.494 199.985 231.557 200.156 231.595 200.333C231.651 200.557 231.685 200.786 231.697 201.016C231.697 201.086 231.697 201.165 231.697 201.261V201.883C231.697 201.979 231.697 202.058 231.697 202.11C231.689 202.304 231.655 202.495 231.595 202.679C231.564 202.791 231.499 202.889 231.409 202.959C231.373 202.985 231.333 203.003 231.291 203.012C231.249 203.021 231.205 203.021 231.163 203.012C231.066 202.995 230.974 202.959 230.891 202.907C230.793 202.848 230.701 202.778 230.619 202.697C230.525 202.59 230.442 202.473 230.373 202.347C230.291 202.186 230.229 202.015 230.186 201.839C230.131 201.616 230.1 201.387 230.093 201.156C230.088 201.075 230.088 200.993 230.093 200.911V200.298C230.088 200.22 230.088 200.141 230.093 200.062Z" fill="#FAFAFA"/>
<path d="M226.626 202.924C226.517 202.855 226.42 202.77 226.337 202.67C226.235 202.547 226.147 202.411 226.074 202.267C225.99 202.091 225.924 201.907 225.879 201.716C225.827 201.501 225.801 201.281 225.803 201.059V200.613C225.803 200.701 225.887 200.806 225.947 200.928C226.005 201.056 226.073 201.179 226.151 201.296C226.239 201.419 226.336 201.536 226.439 201.646C226.546 201.761 226.669 201.858 226.804 201.935C226.891 201.996 226.99 202.039 227.093 202.06C227.197 202.081 227.304 202.08 227.407 202.057C227.596 201.996 227.758 201.869 227.865 201.698C228.004 201.472 228.104 201.224 228.162 200.963C228.235 200.633 228.275 200.295 228.281 199.957C228.281 199.843 228.281 199.703 228.281 199.536C228.281 199.37 228.281 199.23 228.281 199.108C228.271 198.723 228.231 198.339 228.162 197.961C228.093 197.588 227.993 197.222 227.865 196.867C227.745 196.558 227.591 196.264 227.407 195.991C227.25 195.75 227.045 195.547 226.804 195.396C226.691 195.326 226.568 195.276 226.439 195.247C226.344 195.229 226.246 195.229 226.151 195.247C226.075 195.269 226.006 195.308 225.947 195.361C225.893 195.404 225.844 195.454 225.803 195.51V195.23C225.802 195.14 225.785 195.051 225.752 194.967C225.728 194.899 225.683 194.841 225.624 194.801L225.123 194.495C225.106 194.478 225.083 194.469 225.06 194.469C225.036 194.469 225.013 194.478 224.996 194.495C224.955 194.553 224.934 194.624 224.937 194.696V200.385C224.914 201.238 225.067 202.085 225.387 202.871C225.637 203.49 226.071 204.011 226.626 204.359C226.815 204.481 227.032 204.55 227.254 204.561C227.43 204.572 227.605 204.526 227.755 204.429C227.898 204.319 228.015 204.175 228.094 204.009C228.177 203.81 228.223 203.596 228.23 203.379C228.238 203.288 228.221 203.197 228.179 203.116C228.159 203.044 228.113 202.982 228.052 202.941L227.602 202.679C227.592 202.667 227.579 202.658 227.565 202.652C227.552 202.646 227.537 202.643 227.522 202.643C227.506 202.643 227.491 202.646 227.478 202.652C227.464 202.658 227.451 202.667 227.441 202.679C227.399 202.724 227.362 202.774 227.331 202.828C227.279 202.921 227.193 202.991 227.093 203.02C226.991 203.099 226.838 203.011 226.626 202.924ZM227.424 198.679C227.424 198.912 227.424 199.14 227.424 199.361C227.448 199.711 227.352 200.058 227.152 200.342C227.077 200.409 226.98 200.446 226.881 200.446C226.781 200.446 226.685 200.409 226.609 200.342C226.363 200.177 226.17 199.939 226.057 199.659C225.903 199.294 225.816 198.902 225.803 198.504C225.803 198.372 225.803 198.215 225.803 198.031C225.803 197.847 225.803 197.689 225.803 197.576C225.785 197.262 225.875 196.952 226.057 196.7C226.132 196.629 226.231 196.589 226.333 196.589C226.435 196.589 226.534 196.629 226.609 196.7C226.851 196.865 227.04 197.099 227.152 197.374C227.327 197.786 227.419 198.229 227.424 198.679Z" fill="#FAFAFA"/>
<path d="M222.962 190.905C222.945 190.891 222.924 190.883 222.903 190.883C222.881 190.883 222.86 190.891 222.843 190.905C222.799 190.961 222.777 191.034 222.784 191.106V192.06C222.783 192.151 222.804 192.241 222.843 192.323C222.867 192.389 222.908 192.446 222.962 192.489L223.531 192.831C223.539 192.84 223.549 192.847 223.559 192.852C223.57 192.858 223.582 192.86 223.594 192.86C223.606 192.86 223.618 192.858 223.629 192.852C223.64 192.847 223.65 192.84 223.658 192.831C223.68 192.804 223.697 192.774 223.707 192.741C223.717 192.707 223.721 192.673 223.717 192.638V191.684C223.718 191.593 223.698 191.503 223.658 191.421C223.634 191.353 223.59 191.295 223.531 191.255L222.962 190.905ZM222.818 199.124C222.817 199.211 222.835 199.298 222.869 199.378C222.896 199.447 222.94 199.507 222.996 199.553L223.505 199.851C223.512 199.86 223.521 199.867 223.532 199.872C223.542 199.877 223.553 199.88 223.565 199.88C223.576 199.88 223.587 199.877 223.598 199.872C223.608 199.867 223.617 199.86 223.624 199.851C223.669 199.794 223.69 199.722 223.684 199.649V193.986C223.684 193.895 223.664 193.805 223.624 193.723C223.6 193.655 223.559 193.595 223.505 193.548L222.996 193.251C222.979 193.234 222.956 193.225 222.932 193.225C222.909 193.225 222.886 193.234 222.869 193.251C222.831 193.307 222.813 193.375 222.818 193.443V199.124Z" fill="#FAFAFA"/>
<path d="M218.35 196.45C218.351 196.54 218.368 196.63 218.401 196.713C218.425 196.781 218.47 196.84 218.529 196.879L219.038 197.186C219.054 197.202 219.075 197.211 219.097 197.211C219.12 197.211 219.141 197.202 219.157 197.186C219.201 197.129 219.223 197.057 219.216 196.984V193.903C219.19 193.539 219.254 193.175 219.403 192.844C219.522 192.625 219.709 192.59 219.972 192.748C220.234 192.93 220.429 193.198 220.524 193.509C220.665 193.922 220.734 194.358 220.727 194.796V197.886C220.728 197.976 220.745 198.065 220.778 198.148C220.799 198.221 220.844 198.283 220.906 198.323L221.406 198.621C221.414 198.63 221.424 198.638 221.435 198.643C221.446 198.648 221.458 198.651 221.47 198.651C221.482 198.651 221.494 198.648 221.505 198.643C221.516 198.638 221.526 198.63 221.534 198.621C221.573 198.566 221.591 198.497 221.585 198.429V192.765C221.586 192.675 221.568 192.586 221.534 192.503C221.513 192.43 221.468 192.368 221.406 192.328L220.906 192.03C220.898 192.021 220.888 192.013 220.877 192.008C220.866 192.003 220.854 192 220.842 192C220.83 192 220.818 192.003 220.807 192.008C220.796 192.013 220.786 192.021 220.778 192.03C220.74 192.09 220.722 192.16 220.727 192.231V192.503C220.616 192.236 220.479 191.981 220.32 191.741C220.18 191.52 219.991 191.337 219.768 191.207C219.575 191.062 219.335 190.999 219.097 191.032C219.004 191.057 218.916 191.101 218.84 191.163C218.764 191.225 218.701 191.303 218.656 191.391C218.533 191.628 218.452 191.886 218.418 192.153C218.373 192.501 218.35 192.852 218.35 193.203V196.45Z" fill="#FAFAFA"/>
<path d="M175.535 170.974L183.778 175.876L182.496 163.954C183.489 163.411 184.117 162.09 184.117 160.19C184.117 156.803 182.114 152.873 179.652 151.437C177.191 150.002 175.196 151.525 175.196 154.938C175.247 156.947 175.802 158.907 176.809 160.628L175.535 170.974Z" fill="#455A64"/>
<path d="M175.523 170.972L182.78 166.656L183.773 175.882L175.523 170.972Z" fill="#37474F"/>
<path d="M179.666 151.41C181.461 152.66 182.799 154.493 183.469 156.618L176.822 160.574C175.816 158.854 175.26 156.893 175.209 154.885C175.192 151.497 177.187 149.948 179.666 151.41Z" fill="#37474F"/>
<path d="M219.731 111.713C222.558 110.033 226.454 110.269 230.766 112.834C239.374 117.963 246.352 130.419 246.352 140.669C246.352 145.815 244.586 149.422 241.751 151.085L236.259 154.376C233.44 156.057 229.544 155.812 225.223 153.247C216.616 148.126 209.638 135.662 209.638 125.412C209.638 120.291 211.387 116.659 214.205 115.022" fill="#3ACAAF"/>
<path d="M225.235 116.131C233.843 121.26 240.82 133.725 240.82 143.966C240.82 154.207 233.843 158.374 225.235 153.244C216.628 148.115 209.642 135.659 209.65 125.409C209.659 115.159 216.636 111.01 225.235 116.131Z" fill="#3ACAAF"/>
<path d="M216.637 138.874V140.047C218.699 143.842 221.657 147.039 225.236 149.343C228.589 151.329 231.62 151.548 233.844 150.279V147.863C233.73 145.35 233.034 142.901 231.814 140.722C230.594 138.543 228.886 136.696 226.832 135.338L224.566 133.99C222.562 132.799 220.61 132.642 219.082 133.561C217.554 134.48 216.637 136.414 216.637 138.874Z" fill="#3ACAAF"/>
<path opacity="0.4" d="M219.732 111.711L214.215 115.019C217.033 113.33 220.929 113.566 225.25 116.131C230.886 119.492 235.827 125.996 238.56 132.963L244.086 129.663C241.344 122.661 236.446 116.192 230.776 112.831C226.447 110.275 222.55 110.03 219.732 111.711Z" fill="white"/>
<path opacity="0.2" d="M236.455 154.248L241.743 151.088C244.578 149.425 246.344 145.836 246.344 140.672L240.818 143.981C240.784 148.97 239.154 152.524 236.455 154.248Z" fill="black"/>
<path opacity="0.1" d="M244.072 129.664L238.545 132.964C239.961 136.452 240.722 140.186 240.786 143.967L246.312 140.658C246.244 136.88 245.484 133.15 244.072 129.664Z" fill="black"/>
<path d="M227.204 133.437C227.731 133.443 228.25 133.304 228.707 133.035C229.258 132.656 229.7 132.131 229.985 131.514C230.27 130.898 230.389 130.214 230.328 129.533C230.256 127.939 229.815 126.385 229.041 125.002C228.267 123.619 227.183 122.448 225.88 121.586C225.357 121.155 224.719 120.897 224.052 120.845C223.384 120.794 222.716 120.952 222.137 121.298C221.557 121.644 221.092 122.162 220.803 122.785C220.514 123.408 220.414 124.107 220.515 124.789C220.589 126.384 221.031 127.937 221.805 129.319C222.578 130.702 223.661 131.874 224.963 132.737C225.637 133.171 226.411 133.412 227.204 133.437Z" fill="white"/>
<path d="M219.082 133.553C220.61 132.634 222.562 132.791 224.566 133.982L226.832 135.33C228.887 136.689 230.596 138.537 231.816 140.718C233.036 142.899 233.731 145.349 233.844 147.864V150.289C231.62 151.558 228.589 151.339 225.236 149.352C221.657 147.049 218.699 143.852 216.637 140.056V138.883C216.637 136.415 217.52 134.481 219.082 133.553Z" fill="white"/>
<path d="M44.5781 284.986C44.5781 284.986 43.4491 274.762 38.5173 266.823C33.5854 258.884 26.8115 253.938 20.4875 253.422C14.1635 252.905 9.05332 258.91 15.8187 263.05C22.5842 267.191 34.604 271.375 40.1386 286.78L44.5781 284.986Z" fill="#3ACAAF"/>
<path opacity="0.1" d="M44.5781 284.986C44.5781 284.986 43.4491 274.762 38.5173 266.823C33.5854 258.884 26.8115 253.938 20.4875 253.422C14.1635 252.905 9.05332 258.91 15.8187 263.05C22.5842 267.191 34.604 271.375 40.1386 286.78L44.5781 284.986Z" fill="black"/>
<path d="M42.7207 282.325H42.7886C42.8718 282.29 42.9382 282.222 42.9732 282.137C43.0082 282.052 43.009 281.956 42.9754 281.87C36.3033 264.932 23.6044 257.851 17.8152 256.486C17.7717 256.475 17.7267 256.474 17.6827 256.481C17.6386 256.489 17.5965 256.505 17.5587 256.53C17.5208 256.554 17.488 256.586 17.4621 256.623C17.4362 256.661 17.4177 256.703 17.4077 256.748C17.3977 256.793 17.3963 256.839 17.4037 256.885C17.411 256.93 17.427 256.974 17.4506 257.013C17.4743 257.052 17.5051 257.085 17.5415 257.112C17.5778 257.139 17.6189 257.158 17.6624 257.168C23.3328 258.516 35.7855 265.466 42.3472 282.141C42.38 282.211 42.4348 282.267 42.5027 282.3C42.5706 282.334 42.6475 282.342 42.7207 282.325Z" fill="white"/>
<path d="M8.95525 282.522C9.52399 283.853 10.9331 284.553 12.2403 285.096C13.5476 285.638 14.9737 286.225 15.6867 287.485C17.1128 290.024 14.7699 293.613 16.2979 296.072C16.6576 296.567 17.1108 296.982 17.6301 297.292C18.1495 297.602 18.7242 297.801 19.3198 297.875C20.296 298.059 21.2892 298.059 22.2739 298.147C22.7455 298.14 23.2162 298.102 23.683 298.033C25.0547 297.717 26.489 297.874 27.766 298.479C29.7269 299.617 30.3126 302.164 31.518 304.134C32.2544 305.293 33.2249 306.275 34.3632 307.013C35.5016 307.75 36.7808 308.225 38.1136 308.405C38.9625 308.519 40.6602 308.685 41.5091 308.169C41.5755 308.135 41.6381 308.094 41.6958 308.046C41.8231 307.906 41.9759 307.723 42.0438 307.626C42.0482 307.606 42.0482 307.585 42.0438 307.565C42.3918 306.243 41.8231 304.878 41.7977 303.512V303.267C41.8571 301.683 41.8995 300.107 41.9335 298.532C42.0071 295.614 42.0353 292.696 42.0184 289.779C42.0184 287.888 42.2221 285.822 41.4411 284.045C40.5923 282.085 38.4531 282.041 37.6467 280.124C37.3242 279.354 37.1544 278.54 36.8403 277.761C36.355 276.628 35.5775 275.655 34.5926 274.946C33.6077 274.238 32.4532 273.822 31.2548 273.743C27.5283 273.55 24.1923 276.658 20.4658 276.369C19.5066 276.29 18.5643 275.984 17.6136 275.809C14.6002 275.222 11.1114 276.106 9.41365 278.741C9.04107 279.284 8.80425 279.913 8.72429 280.572C8.64431 281.232 8.72366 281.902 8.95525 282.522Z" fill="#3ACAAF"/>
<path d="M42.4095 301.501C42.4898 301.476 42.5577 301.421 42.5989 301.346C42.6401 301.271 42.6513 301.182 42.6302 301.098C37.4862 281.194 17.1644 278.34 12.3853 278.673C12.3433 278.675 12.3021 278.686 12.2643 278.705C12.2264 278.724 12.1926 278.75 12.1649 278.783C12.1372 278.816 12.1161 278.854 12.103 278.895C12.0898 278.936 12.0848 278.98 12.0882 279.023C12.0968 279.108 12.1369 279.186 12.2002 279.242C12.2634 279.297 12.3449 279.325 12.4278 279.321C17.088 278.979 36.9853 281.789 42.0191 301.273C42.0428 301.356 42.0968 301.426 42.1697 301.469C42.2425 301.511 42.3285 301.523 42.4095 301.501Z" fill="white"/>
<path d="M19.805 291.422C19.8693 291.413 19.929 291.382 19.9748 291.334C21.8535 289.655 24.0686 288.425 26.4618 287.73C28.855 287.036 31.3674 286.894 33.8197 287.317C33.9023 287.324 33.9849 287.3 34.0509 287.248C34.1169 287.196 34.1617 287.121 34.1762 287.036C34.1885 286.951 34.1679 286.863 34.1188 286.793C34.0696 286.723 33.9958 286.675 33.9131 286.66C31.3555 286.221 28.7353 286.371 26.2405 287.099C23.7456 287.827 21.4378 289.115 19.4824 290.87C19.4524 290.9 19.4285 290.937 19.4122 290.976C19.3959 291.016 19.3875 291.059 19.3875 291.102C19.3875 291.146 19.3959 291.188 19.4122 291.228C19.4285 291.268 19.4524 291.304 19.4824 291.334C19.5208 291.381 19.5724 291.415 19.6302 291.431C19.688 291.447 19.7491 291.443 19.805 291.422Z" fill="white"/>
<path d="M91.2839 44.5826L88.5846 45.6505V39.5233C88.5846 34.6565 84.8241 33.4924 80.7411 35.9257C76.6496 38.3591 73.339 44.2675 73.339 49.1342V50.0095C72.77 49.8302 72.169 49.7859 71.5811 49.8799C70.9931 49.9739 70.4333 50.2037 69.9436 50.5522C68.3932 51.5947 67.1032 52.9996 66.1784 54.6528C65.2535 56.3061 64.7201 58.161 64.6212 60.0669V60.4695L60.8523 62.7103C59.8327 63.3966 58.984 64.3208 58.375 65.4081C57.7659 66.4953 57.4136 67.7151 57.3465 68.9688C57.3465 71.2796 58.9169 72.2162 60.8523 71.0608L91.2839 52.9331C92.3044 52.2483 93.1532 51.3244 93.761 50.2366C94.3688 49.1489 94.7185 47.9283 94.7812 46.6746C94.7812 44.3725 93.2278 43.4359 91.2839 44.5826Z" fill="#E6E6E6"/>
<path d="M55.1296 39.7315L50.2316 42.6463C50.2584 42.4256 50.2726 42.2034 50.2741 41.981V40.5192C50.2741 37.8933 48.5085 36.8604 46.3184 38.1647C45.3773 38.7588 44.5723 39.5561 43.9586 40.5017C43.6021 37.2281 41.1064 36.0114 38.0844 37.8058C36.3575 38.9644 34.9196 40.5264 33.8872 42.365C32.8549 44.2035 32.2571 46.2671 32.1424 48.3883V50.5766C32.1206 51.4509 32.2918 52.319 32.6433 53.115L28.5687 55.5309C27.9337 55.9651 27.4063 56.5469 27.0289 57.2295C26.6515 57.912 26.4346 58.6763 26.3957 59.461C26.3957 60.9053 27.3803 61.4918 28.5942 60.774L55.1296 45.0184C55.7714 44.5872 56.3051 44.0055 56.6872 43.3209C57.0693 42.6364 57.289 41.8683 57.3281 41.0794C57.3281 39.6002 56.3435 39.0137 55.1296 39.7315Z" fill="#E6E6E6"/>
<path d="M74.0996 172.572C77.6648 178.787 81.0942 184.188 83.505 186.778C88.0803 188.967 98.8269 192.345 103.029 192.906C103.767 193.003 104.514 192.822 105.134 192.398C106.789 191.278 108.071 191.094 109.811 190.472C111.178 189.991 111.755 189.317 112.01 189.597C112.273 189.915 112.405 190.326 112.378 190.743C112.351 191.16 112.167 191.55 111.865 191.829C111.212 192.469 110.489 193.027 109.709 193.492C111.573 193.969 113.517 194.005 115.397 193.597C119.038 192.608 120.753 194.411 118.291 198.49C117.442 199.943 113.945 202.28 106.917 201.65C104.409 201.511 101.912 201.218 99.4381 200.775C92.6981 199.287 85.2027 197.851 80.5934 196.398C78.8788 195.703 77.3444 194.606 76.1114 193.194C68.3613 184.082 65.7893 177.588 62.3938 171.688L62.6824 162.06C68.183 161.867 71.1201 167.373 74.0996 172.572Z" fill="#FFA8A7"/>
<path d="M61.7413 161.87C63.3362 161.639 64.9622 161.861 66.4433 162.514C67.9245 163.167 69.2045 164.224 70.145 165.573C73.9139 170.553 80.5859 182.51 80.5859 182.51C80.5859 182.51 78.4044 188.506 72.5133 189.512L63.0485 176.33C63.0485 176.33 58.5665 167.174 61.7413 161.87Z" fill="#455A64"/>
<path d="M41.2741 296.266H47.4453V307.61H41.2741V296.266Z" fill="#FFA8A7"/>
<path d="M62.6638 295.666L68.8266 295.893L69.1406 283.884L62.6638 283.656V295.666Z" fill="#FFA8A7"/>
<path d="M40.4026 198.068C40.4026 204.388 41.3024 255.305 41.3024 255.305C41.1666 257.126 39.6047 260.487 39.9188 267.48C40.3857 276.978 41.0053 301.942 41.0053 301.942C42.0647 302.501 43.2335 302.804 44.4233 302.828C45.6131 302.852 46.7926 302.597 47.8726 302.082C47.8726 302.082 52.8809 267.069 53.9844 257.694C54.9521 249.475 57.4308 222.271 57.4308 222.271L60.7668 254.43C60.0596 257.88 59.8026 261.413 60.0028 264.933C60.2914 269.31 62.2778 291.963 62.2778 291.963C63.3439 292.612 64.5393 293.001 65.7732 293.103C67.0071 293.205 68.2473 293.015 69.3997 292.549C69.3997 292.549 72.914 258.412 72.9819 254.403C73.0668 249.852 70.9277 198.016 70.9277 198.016L40.4026 198.068Z" fill="#37474F"/>
<path d="M47.4466 304.34V303.395C48.0408 303.666 49.4075 309.285 51.8607 311.684C53.8046 313.592 56.4531 315.789 57.1321 317.916C57.8112 320.043 53.4396 321.347 51.6145 321.006C49.5094 320.603 45.8423 319.001 44.9255 317.505C44.0088 316.008 43.5758 313.837 42.8288 312.752C42.0818 311.666 40.3587 310.458 39.9597 309.198C39.8352 308.019 39.9538 306.825 40.3077 305.697C40.5963 304.524 40.9019 303.237 41.2754 303.351V304.069C42.1456 304.805 43.2396 305.202 44.3653 305.189C45.2651 305.268 47.4551 305.075 47.4466 304.34Z" fill="#263238"/>
<path d="M68.8901 293.842C69.2126 293.842 69.4758 294.341 70.1803 295.164C71.228 296.3 72.4532 297.247 73.805 297.965C76.1139 299.208 80.5959 301.116 82.6416 302.105C83.9149 302.718 83.8555 304.364 82.5397 305.3C81.224 306.237 78.0578 306.911 74.2549 306C72.1837 305.501 69.4843 303.444 67.7696 303.558C66.0549 303.672 62.8717 303.637 61.6069 302.683C60.3421 301.729 60.8514 299.751 61.2079 298.044C61.5984 296.171 62.0567 293.256 62.6594 293.387V294.044C63.3979 295.252 67.2263 295.742 68.8561 294.858L68.8901 293.842Z" fill="#263238"/>
<path d="M57.433 222.264C60.6431 221.181 63.5781 219.372 66.0234 216.969C66.0234 216.969 64.3257 220.304 59.4363 223.411L60.4889 252.13L57.433 222.264Z" fill="#263238"/>
<path d="M43.8507 162.797C43.8507 162.797 38.7575 164.005 39.1225 173.493L40.1836 188.592V211.263C44.7165 216.567 64.8005 216.182 71.7188 210.843C71.7188 210.843 70.9378 184.014 70.4709 173.686C70.1399 166.351 68.5016 162.657 61.507 161.852L52.908 162.237L43.8507 162.797Z" fill="#3ACAAF"/>
<path d="M50.3396 143.084C50.3103 144.354 50.5251 145.618 50.9717 146.802C51.4183 147.986 52.0878 149.067 52.9416 149.984C53.7954 150.9 54.8166 151.633 55.9464 152.14C57.0762 152.647 58.2922 152.919 59.5242 152.94C64.6174 152.94 67.6054 148.405 68.7089 143.084C70.7462 133.341 64.6004 133.219 59.5242 133.219C57.0379 133.272 54.6736 134.34 52.9513 136.19C51.2289 138.04 50.2896 140.52 50.3396 143.084Z" fill="#263238"/>
<path d="M45.6525 147.07C45.6525 147.07 47.0617 154.178 47.6304 155.351C47.9881 156.057 48.5963 156.593 49.3281 156.848L49.2262 151.85L45.6525 147.07Z" fill="#263238"/>
<path d="M47.4297 136.889C47.4297 136.889 46.4195 136.627 45.3415 138.36C44.4247 139.839 44.2125 143.165 45.6556 147.113L48.3125 147.445L47.4297 136.889Z" fill="#263238"/>
<path d="M46.4531 138.33L43.1935 138.391C43.1712 138.174 43.1927 137.954 43.2566 137.746C43.3206 137.538 43.4256 137.345 43.5651 137.181C43.7046 137.017 43.8756 136.884 44.0673 136.791C44.259 136.698 44.4672 136.647 44.679 136.641C45.1247 136.647 45.5522 136.823 45.8797 137.135C46.2071 137.447 46.4113 137.872 46.4531 138.33Z" fill="#263238"/>
<path d="M46.0519 137.533L43.6412 135.144C43.7801 134.975 43.9514 134.838 44.1444 134.74C44.3374 134.643 44.5478 134.589 44.7624 134.579C44.977 134.57 45.191 134.607 45.3911 134.688C45.5911 134.768 45.7728 134.891 45.9246 135.048C46.2443 135.37 46.4349 135.804 46.4585 136.265C46.482 136.725 46.3369 137.178 46.0519 137.533Z" fill="#263238"/>
<path d="M49.1075 147.404C48.5727 147.745 47.8172 146.651 47.1551 145.907C46.493 145.163 44.4387 144.48 43.3692 146.896C42.2996 149.312 44.1246 151.702 45.6526 152.49C48.3944 153.89 49.2602 151.851 49.2602 151.851L49.4895 163.107C53.3433 169.234 62.0865 169.042 58.9372 162.809V159.387C60.2326 159.609 61.5483 159.68 62.859 159.597C64.9981 159.247 66.3393 157.435 66.9929 154.949C68.0286 150.958 68.4275 147.737 67.5447 139.885C66.577 131.289 57.2565 131.193 52.2652 134.633C47.2739 138.073 49.1075 147.404 49.1075 147.404Z" fill="#FFA8A7"/>
<path d="M60.7169 138.544C58.4928 138.316 56.2943 137.844 54.0618 137.669C53.5804 137.608 53.0925 137.632 52.6187 137.739C50.921 138.22 51.1247 140.268 50.8531 141.695C50.3862 144.163 50.0042 148.339 49.1044 148.356C48.8328 148.356 47.8142 146.544 47.1521 145.896C46.7881 145.338 46.5823 144.687 46.5579 144.015C46.3881 142.999 46.3032 141.958 46.2268 140.925C46.1589 140.049 46.074 139.174 46.074 138.299C46.0352 137.31 46.1122 136.319 46.3032 135.349C46.5161 134.524 46.9244 133.766 47.4916 133.143L47.6614 132.951C48.7803 131.744 50.1382 130.801 51.6425 130.185C53.8069 129.348 56.0769 128.838 58.3825 128.67C60.6848 128.502 62.977 128.21 65.2498 127.795C65.38 127.756 65.5184 127.756 65.6487 127.795C65.7409 127.848 65.8187 127.923 65.8751 128.015C65.9315 128.107 65.9646 128.212 65.9713 128.32C66.0644 128.864 66.0062 129.424 65.8034 129.935C65.6006 130.447 65.2615 130.888 64.8253 131.209C66.3618 131.331 68.1274 130.508 69.6044 130.088C69.7239 130.036 69.8524 130.009 69.9822 130.009C70.112 130.009 70.2404 130.036 70.3599 130.088C70.5081 130.195 70.6136 130.354 70.657 130.535C70.7645 130.946 70.779 131.377 70.6995 131.795C70.5643 133.062 70.1075 134.27 69.3752 135.296C68.2311 136.832 66.6148 137.922 64.7914 138.386C63.449 138.653 62.0749 138.706 60.7169 138.544Z" fill="#263238"/>
<path d="M58.9297 159.383C58.9297 159.383 54.1591 158.35 52.4953 157.396C51.5043 156.837 50.6996 155.983 50.1864 154.945C50.4369 155.988 50.884 156.969 51.5022 157.834C52.716 159.514 58.9297 160.74 58.9297 160.74V159.383Z" fill="#F28F8F"/>
<path d="M57.7806 146.112C57.7898 146.382 57.6951 146.645 57.5169 146.844C57.3388 147.042 57.0919 147.16 56.8299 147.171C56.622 147.189 56.4137 147.141 56.2324 147.035C56.0511 146.928 55.9052 146.768 55.8139 146.574C55.7226 146.381 55.69 146.163 55.7206 145.951C55.7511 145.738 55.8433 145.539 55.985 145.382C56.1268 145.224 56.3114 145.114 56.5149 145.066C56.7183 145.018 56.931 145.035 57.1251 145.114C57.3192 145.193 57.4857 145.33 57.6026 145.508C57.7196 145.686 57.7816 145.897 57.7806 146.112Z" fill="#263238"/>
<path d="M56.2578 141.869L54.2121 143.086C54.0632 142.786 54.0294 142.439 54.1176 142.115C54.2057 141.79 54.4092 141.512 54.6874 141.335C54.8231 141.257 54.9731 141.208 55.1279 141.193C55.2827 141.177 55.439 141.195 55.5867 141.246C55.7344 141.296 55.8704 141.377 55.9859 141.485C56.1015 141.592 56.194 141.723 56.2578 141.869Z" fill="#263238"/>
<path d="M58.5059 153.211L60.6875 154.086C60.6436 154.241 60.5695 154.384 60.4696 154.507C60.3697 154.631 60.2463 154.732 60.107 154.804C59.9677 154.876 59.8155 154.918 59.6598 154.927C59.5041 154.936 59.3483 154.912 59.202 154.857C58.905 154.725 58.6679 154.481 58.5386 154.176C58.4093 153.87 58.3977 153.525 58.5059 153.211Z" fill="#F28F8F"/>
<path d="M66.5565 142.775L64.689 141.234C64.7727 141.1 64.8829 140.985 65.0125 140.897C65.142 140.81 65.2881 140.751 65.441 140.726C65.5939 140.7 65.7504 140.708 65.9002 140.749C66.05 140.79 66.1897 140.863 66.3104 140.963C66.5599 141.181 66.723 141.486 66.7684 141.821C66.8138 142.155 66.7384 142.494 66.5565 142.775Z" fill="#263238"/>
<path d="M65.7334 145.826C65.7186 146.017 65.65 146.2 65.536 146.352C65.422 146.504 65.2675 146.619 65.0915 146.681C64.9154 146.744 64.7254 146.753 64.5446 146.706C64.3639 146.66 64.2002 146.56 64.0735 146.419C63.9469 146.278 63.8629 146.102 63.8316 145.913C63.8004 145.723 63.8234 145.529 63.8977 145.352C63.972 145.176 64.0944 145.026 64.2501 144.921C64.4058 144.815 64.5879 144.758 64.7742 144.758C64.9054 144.762 65.0344 144.794 65.1538 144.85C65.2732 144.906 65.3806 144.986 65.4698 145.085C65.559 145.185 65.6283 145.301 65.6735 145.428C65.7187 145.555 65.7391 145.69 65.7334 145.826Z" fill="#263238"/>
<path d="M60.6165 145L60.7268 151.223L64.1562 150.418L60.6165 145Z" fill="#F28F8F"/>
<path d="M142.055 197.131L136.732 193.963L134.627 191.328L139.941 194.497L142.055 197.131Z" fill="#3ACAAF"/>
<path opacity="0.4" d="M142.055 197.131L136.732 193.963L134.627 191.328L139.941 194.497L142.055 197.131Z" fill="black"/>
<path d="M127.586 205.745L122.264 202.576L117.824 198.523L123.138 201.683L127.586 205.745Z" fill="#3ACAAF"/>
<path opacity="0.4" d="M127.586 205.745L122.264 202.576L117.824 198.523L123.138 201.683L127.586 205.745Z" fill="black"/>
<path d="M82.3772 216.676C81.1187 218.415 80.3572 220.483 80.1787 222.645C81.4317 220.903 82.1926 218.837 82.3772 216.676ZM70.0093 216.842C71.8004 204.281 78.3451 191.861 86.1377 187.213C89.8811 184.981 93.3445 184.902 96.1203 186.574L101.129 189.55L101.409 189.725C101.632 189.852 101.847 189.992 102.054 190.145C102.465 190.437 102.851 190.765 103.208 191.125L103.378 191.292C103.531 191.449 103.692 191.633 103.836 191.808C103.981 191.983 104.201 192.255 104.371 192.491C104.732 192.98 105.058 193.495 105.347 194.032C105.5 194.303 105.644 194.592 105.78 194.907L149.522 168.875L154.836 172.035V175.536L154.386 175.799L153.962 176.053V176.753L154.81 177.269V179.3L148.385 193.305L142.035 197.095L139.921 194.469L134.319 197.927L131.102 203.607L127.554 205.717L123.114 201.655L117.664 204.903L115.831 212.702L106.672 218.164C106.219 220.149 105.652 222.104 104.974 224.02C104.914 224.212 104.838 224.414 104.762 224.632C101.723 232.86 96.8927 239.907 91.4431 243.154C90.7899 243.553 90.1056 243.896 89.3973 244.178C89.0228 244.332 88.6402 244.463 88.2513 244.572C87.9118 244.665 87.5723 244.744 87.2327 244.808C86.1607 245.01 85.0621 245.01 83.9901 244.808L83.5487 244.695C83.3376 244.651 83.1304 244.589 82.929 244.511L82.4536 244.318C82.2854 244.256 82.1233 244.176 81.9698 244.082C81.8128 244.012 81.6598 243.933 81.5114 243.846L81.2907 243.706C81.2507 243.692 81.2133 243.671 81.1803 243.644C79.9665 242.926 76.9785 241.141 76.1636 240.668C72.123 238.252 69.5085 232.143 69.5085 223.503C69.5153 221.273 69.6827 219.047 70.0093 216.842Z" fill="#3ACAAF"/>
<path d="M83.9299 227.272C86.0351 226.021 87.7328 222.309 87.7328 218.983C87.7328 215.657 86.0351 213.967 83.9299 215.21C81.8248 216.453 80.1355 220.173 80.1355 223.508C80.1355 226.843 81.8333 228.524 83.9299 227.272ZM75.331 219.998C77.1136 207.446 83.6583 195.017 91.4593 190.378C95.0755 188.225 98.42 188.067 101.136 189.546L101.416 189.721C101.639 189.848 101.855 189.988 102.062 190.141C102.473 190.433 102.859 190.761 103.216 191.122L103.386 191.288C103.539 191.446 103.7 191.63 103.844 191.805C103.989 191.98 104.209 192.251 104.379 192.487C104.739 192.976 105.066 193.491 105.355 194.028C105.508 194.299 105.652 194.588 105.788 194.903C106.58 196.595 107.15 198.388 107.486 200.234L154.844 172.031V175.533L154.394 175.795L153.969 176.049V176.749L154.818 177.266V179.296L148.392 193.301L142.043 197.091L139.929 194.466L134.327 197.923L131.11 203.604L127.561 205.713L123.122 201.652L117.672 204.899L115.839 212.698L106.671 218.16C106.218 220.145 105.651 222.101 104.973 224.016C104.914 224.209 104.837 224.41 104.761 224.629C101.722 232.857 96.892 239.903 91.4424 243.15C90.7892 243.55 90.1049 243.892 89.3966 244.175C89.0221 244.328 88.6395 244.46 88.2506 244.568C87.9111 244.662 87.5716 244.741 87.232 244.805C86.16 245.006 85.0614 245.006 83.9894 244.805L83.548 244.691C83.3369 244.647 83.1297 244.586 82.9283 244.507L82.4529 244.315C82.2847 244.252 82.1227 244.173 81.9691 244.078C81.8122 244.008 81.6591 243.929 81.5107 243.842L81.29 243.702C81.25 243.688 81.2126 243.668 81.1796 243.641C77.3088 241.12 74.8217 235.098 74.8217 226.668C74.8359 224.435 75.0061 222.206 75.331 219.998Z" fill="#3ACAAF"/>
<path opacity="0.4" d="M80.1371 223.499C80.1371 226.834 81.8348 228.523 83.9315 227.272C86.0282 226.02 87.7344 222.317 87.7344 218.982C87.7344 215.648 86.0366 213.958 83.9315 215.21C83.3252 215.59 82.7974 216.09 82.3781 216.68C82.1956 218.842 81.4345 220.909 80.1795 222.65C80.1485 222.932 80.1343 223.215 80.1371 223.499Z" fill="black"/>
<path opacity="0.4" d="M69.5212 223.492C69.5212 232.131 72.1357 238.241 76.1763 240.657C77.0252 241.129 79.9792 242.915 81.1931 243.633C77.3223 241.112 74.8351 235.09 74.8351 226.66C74.8442 224.431 75.0087 222.204 75.3274 219.999C77.11 207.447 83.6548 195.018 91.4558 190.379C95.0719 188.225 98.4165 188.068 101.133 189.547L96.1245 186.571C93.3487 184.899 89.8854 184.978 86.1419 187.21C78.3409 191.858 71.7962 204.279 70.0136 216.839C69.6903 219.041 69.5257 221.265 69.5212 223.492Z" fill="white"/>
<path d="M74.8374 226.647C74.8374 235.076 77.3245 241.099 81.1953 243.619C79.9814 242.902 76.9935 241.116 76.1785 240.643C72.138 238.227 69.5235 232.118 69.5235 223.478C69.5235 223.163 69.5235 222.839 69.5235 222.516L74.8374 225.684C74.8458 226.026 74.8374 226.341 74.8374 226.647Z" fill="#3ACAAF"/>
<path opacity="0.1" d="M74.8374 226.647C74.8374 235.076 77.3245 241.099 81.1953 243.619C79.9814 242.902 76.9935 241.116 76.1785 240.643C72.138 238.227 69.5235 232.118 69.5235 223.478C69.5235 223.163 69.5235 222.839 69.5235 222.516L74.8374 225.684C74.8458 226.026 74.8374 226.341 74.8374 226.647Z" fill="black"/>
<path opacity="0.15" d="M107.283 203.815V205.592L154.836 177.284L153.962 176.759V176.023L107.283 203.815Z" fill="black"/>
<path opacity="0.15" d="M107.283 204.55V205.592L154.836 177.284L153.962 176.759V176.75L107.283 204.55Z" fill="black"/>
<path opacity="0.15" d="M86.5997 240.65C88.402 240.602 90.1595 240.061 91.6928 239.083C99.4429 234.471 105.75 220.746 105.75 208.491C105.75 201.34 103.653 196.001 99.9947 193.821C97.4481 192.298 94.4347 192.491 91.2684 194.373C83.5268 198.985 77.2198 212.754 77.2198 225.008C77.2198 232.151 79.3165 237.499 82.9751 239.67C84.0786 240.32 85.3289 240.658 86.5997 240.65ZM96.3191 193.69C97.4504 193.683 98.5632 193.985 99.5448 194.565C102.881 196.552 104.876 201.76 104.876 208.483C104.876 220.457 98.7639 233.867 91.243 238.313C88.3653 240.064 85.6405 240.221 83.374 238.873C80.038 236.886 78.0432 231.687 78.0432 224.965C78.0432 212.982 84.155 199.581 91.6674 195.125C93.0714 194.244 94.6761 193.761 96.3191 193.725V193.69Z" fill="black"/>
<path opacity="0.4" d="M105.819 194.891C106.611 196.583 107.182 198.376 107.517 200.222L154.875 172.019L149.561 168.859L105.819 194.891Z" fill="white"/>
<path d="M44.2669 197.625C41.7882 192.784 38.953 181.913 37.5439 176.425C35.5406 168.634 38.7832 163.733 42.4673 163.531C44.7677 163.899 52.348 192.32 52.348 192.32C53.1969 193.012 64.7159 199.043 68.417 200.557C69.0788 200.815 69.8093 200.815 70.4712 200.557C72.2453 199.892 73.4592 200.014 75.1993 199.839C76.566 199.699 77.2536 199.2 77.4319 199.498C77.5937 199.867 77.6146 200.286 77.4903 200.67C77.366 201.055 77.1057 201.377 76.7612 201.572C76.0119 202.022 75.2143 202.381 74.3844 202.64C75.8721 203.106 77.4227 203.321 78.9768 203.279C82.542 203.2 83.8238 204.794 81.0565 208.531C79.3588 210.859 76.549 211.595 70.276 209.363C68.4764 208.715 66.0317 207.463 63.7482 206.614C59.0455 204.864 57.8062 204.653 54.224 203.402C49.0035 201.581 45.3704 199.778 44.2669 197.625Z" fill="#FFA8A7"/>
<path d="M43.8497 162.797C41.6851 163.103 39.6054 163.602 38.3236 165.423C37.0419 167.243 36.0147 169.799 37.2711 176.758C38.2331 181.652 39.5208 186.472 41.1249 191.183C41.1249 191.183 46.1671 193.407 51.5234 187.77L47.8394 173.082C47.8394 173.082 47.2452 163.532 43.8497 162.797Z" fill="#455A64"/>
</svg>
