<svg width="132" height="144" viewBox="0 0 132 144" fill="none" xmlns="http://www.w3.org/2000/svg">
<path d="M49.6009 3.43863L11.3675 98.26L20.1274 119.774L79.9248 142.396C80.5436 142.628 81.2396 142.594 81.8602 142.302C82.4807 142.01 82.9753 141.484 83.2354 140.839L126.853 32.6641C127.113 32.0189 127.118 31.3074 126.866 30.6854C126.614 30.0634 126.125 29.5817 125.508 29.3459L52.9188 1.88448C52.2995 1.65019 51.602 1.68231 50.9798 1.97377C50.3575 2.26523 49.8615 2.79216 49.6009 3.43863Z" fill="#3ACAAF"/>
<path opacity="0.6" d="M47.973 7.47885L11.3717 98.2285L20.1406 119.759L79.9995 142.398C80.6189 142.63 81.3156 142.596 81.9368 142.304C82.558 142.012 83.0531 141.485 83.3135 140.84L125.305 36.7266L47.973 7.47885Z" fill="white"/>
<path opacity="0.6" d="M50.0589 6.40694C49.4347 6.171 49.1417 5.45197 49.4044 4.80095C49.6671 4.14993 50.3862 3.81343 51.0104 4.04937C51.6346 4.2853 51.9276 5.00432 51.6649 5.65535C51.4022 6.30637 50.6831 6.64287 50.0589 6.40694Z" fill="white"/>
<path opacity="0.6" d="M54.4808 8.1335C53.8566 7.89756 53.5635 7.17853 53.8263 6.52751C54.089 5.87649 54.808 5.54 55.4323 5.77593C56.0565 6.01187 56.3495 6.73089 56.0868 7.38191C55.824 8.03293 55.105 8.36943 54.4808 8.1335Z" fill="white"/>
<path opacity="0.6" d="M58.2492 8.25641C58.1528 8.49116 58.1255 8.7464 58.1707 8.98969C58.216 9.23299 58.3317 9.45335 58.5032 9.62276C58.6748 9.79217 58.8943 9.90298 59.134 9.9411C59.3738 9.97923 59.6228 9.94294 59.8495 9.83686C60.0761 9.73078 60.2702 9.5597 60.407 9.34536C60.5438 9.13102 60.6172 8.88311 60.6179 8.63313C60.6185 8.38316 60.5463 8.14241 60.4105 7.9415C60.2747 7.74059 60.0814 7.58859 59.8552 7.50483C59.7069 7.44761 59.5475 7.4217 59.3861 7.42858C59.2248 7.43547 59.0648 7.47503 58.9154 7.54495C58.766 7.61487 58.6302 7.71376 58.5158 7.83589C58.4014 7.95802 58.3108 8.10097 58.2492 8.25641Z" fill="white"/>
<path d="M77.29 28.6013L92.4281 34.4447C92.6252 34.5207 92.8472 34.5103 93.0452 34.4157C93.2433 34.321 93.4011 34.1499 93.4841 33.94C93.567 33.73 93.5683 33.4985 93.4876 33.2963C93.4069 33.094 93.2508 32.9377 93.0537 32.8616L77.9156 27.0182C77.7185 26.9422 77.4966 26.9526 77.2985 27.0472C77.1005 27.1419 76.9426 27.313 76.8597 27.5229C76.7767 27.7329 76.7754 27.9644 76.8562 28.1666C76.9369 28.3689 77.0929 28.5253 77.29 28.6013Z" fill="#3ACAAF"/>
<path d="M69.4737 30.2124L97.075 40.9126C97.2724 40.9891 97.4946 40.9786 97.6928 40.8835C97.8911 40.7883 98.0491 40.6163 98.1322 40.4052C98.2152 40.1941 98.2165 39.9613 98.1357 39.758C98.0549 39.5547 97.8987 39.3975 97.7013 39.321L70.1 28.6207C69.9027 28.5442 69.6805 28.5547 69.4822 28.6499C69.284 28.745 69.1259 28.9171 69.0429 29.1281C68.9598 29.3392 68.9586 29.572 69.0394 29.7753C69.1201 29.9787 69.2764 30.1359 69.4737 30.2124Z" fill="#3ACAAF"/>
<path d="M73.9036 36.6295L89.4515 42.6326C89.6486 42.7087 89.8706 42.6982 90.0686 42.6036C90.2667 42.5089 90.4245 42.3377 90.5075 42.1277C90.5905 41.9177 90.5917 41.6861 90.511 41.4838C90.4303 41.2815 90.2742 41.1251 90.0771 41.049L74.4698 35.023C74.2726 34.9469 74.0507 34.9573 73.8526 35.052C73.6546 35.1467 73.4967 35.3179 73.4137 35.5278C73.3308 35.7378 73.3295 35.9695 73.4102 36.1718C73.4909 36.3741 73.647 36.5305 73.8441 36.6066L73.9036 36.6295Z" fill="#3ACAAF"/>
<path d="M45.7503 38.0692L100.137 59.2225C100.334 59.2993 100.556 59.2888 100.755 59.1933C100.953 59.0977 101.111 58.925 101.194 58.7131C101.278 58.5012 101.279 58.2674 101.198 58.0633C101.117 57.8591 100.961 57.7013 100.763 57.6245L46.4143 36.4856C46.2168 36.4088 45.9944 36.4194 45.796 36.5149C45.5976 36.6104 45.4395 36.7832 45.3564 36.9951C45.2733 37.207 45.272 37.4407 45.3529 37.6449C45.4337 37.849 45.5901 38.0069 45.7875 38.0837L45.7503 38.0692Z" fill="#3ACAAF"/>
<path d="M48.4906 57.904L102.84 79.0429C103.037 79.1197 103.26 79.1091 103.458 79.0136C103.656 78.918 103.814 78.7453 103.898 78.5334C103.981 78.3215 103.982 78.0877 103.901 77.8836C103.82 77.6794 103.664 77.5216 103.466 77.4448L49.1174 56.3059C48.9199 56.2291 48.6975 56.2397 48.4991 56.3352C48.3007 56.4307 48.1426 56.6035 48.0595 56.8154C47.9764 57.0273 47.9751 57.261 48.056 57.4652C48.1368 57.6694 48.2932 57.8272 48.4906 57.904Z" fill="#3ACAAF"/>
<path d="M44.1672 42.1363L107.629 66.8328C107.826 66.9096 108.048 66.8991 108.247 66.8035C108.445 66.7079 108.603 66.535 108.687 66.323C108.77 66.1109 108.771 65.877 108.69 65.6728C108.609 65.4685 108.453 65.3105 108.255 65.2337L44.794 40.5372C44.5965 40.4603 44.3741 40.4709 44.1757 40.5665C43.9773 40.6621 43.8191 40.8349 43.736 41.047C43.6529 41.259 43.6516 41.4929 43.7325 41.6972C43.8133 41.9015 43.9697 42.0594 44.1672 42.1363Z" fill="#3ACAAF"/>
<path d="M42.5734 46.2144L106.035 70.9109C106.232 70.9878 106.455 70.9772 106.653 70.8816C106.852 70.786 107.01 70.6132 107.093 70.4011C107.176 70.1891 107.177 69.9552 107.096 69.7509C107.016 69.5466 106.859 69.3886 106.662 69.3118L43.2002 44.6153C43.0028 44.5384 42.7804 44.549 42.5819 44.6446C42.3835 44.7402 42.2254 44.913 42.1423 45.1251C42.0591 45.3371 42.0579 45.571 42.1387 45.7753C42.2196 45.9796 42.376 46.1376 42.5734 46.2144Z" fill="#3ACAAF"/>
<path d="M40.9875 50.2847L104.449 74.9812C104.646 75.0581 104.869 75.0475 105.067 74.9519C105.266 74.8563 105.424 74.6835 105.507 74.4714C105.59 74.2594 105.591 74.0255 105.51 73.8212C105.43 73.6169 105.273 73.459 105.076 73.3821L41.6143 48.6856C41.4168 48.6088 41.1944 48.6193 40.996 48.7149C40.7976 48.8105 40.6394 48.9833 40.5563 49.1954C40.4732 49.4075 40.4719 49.6413 40.5528 49.8456C40.6336 50.0499 40.79 50.2079 40.9875 50.2847Z" fill="#3ACAAF"/>
<path d="M29.7503 79.0458L84.1366 100.199C84.334 100.276 84.5564 100.265 84.7548 100.17C84.9532 100.074 85.1113 99.9016 85.1944 99.6897C85.2776 99.4777 85.2788 99.244 85.198 99.0398C85.1171 98.8357 84.9608 98.6779 84.7633 98.6011L30.4143 77.4622C30.2168 77.3854 29.9944 77.3959 29.796 77.4915C29.5976 77.587 29.4395 77.7597 29.3564 77.9716C29.2733 78.1836 29.272 78.4173 29.3529 78.6215C29.4337 78.8256 29.5901 78.9834 29.7875 79.0602L29.7503 79.0458Z" fill="#3ACAAF"/>
<path d="M32.4906 98.8806L86.8397 120.019C87.0371 120.096 87.2595 120.086 87.4579 119.99C87.6563 119.895 87.8145 119.722 87.8976 119.51C87.9807 119.298 87.982 119.064 87.9011 118.86C87.8202 118.656 87.6639 118.498 87.4664 118.421L33.1174 97.2825C32.9199 97.2057 32.6975 97.2162 32.4991 97.3117C32.3008 97.4073 32.1426 97.58 32.0595 97.792C31.9764 98.0039 31.9751 98.2376 32.056 98.4417C32.1368 98.6459 32.2932 98.8038 32.4906 98.8806Z" fill="#3ACAAF"/>
<path d="M28.1594 83.1207L91.6208 107.817C91.8183 107.894 92.0407 107.883 92.2391 107.788C92.4375 107.692 92.5957 107.519 92.6788 107.307C92.7619 107.095 92.7632 106.861 92.6823 106.657C92.6014 106.453 92.4451 106.295 92.2476 106.218L28.7862 81.5215C28.5887 81.4447 28.3663 81.4552 28.1679 81.5508C27.9695 81.6464 27.8113 81.8193 27.7282 82.0313C27.6451 82.2434 27.6438 82.4773 27.7247 82.6816C27.8055 82.8859 27.9619 83.0438 28.1594 83.1207Z" fill="#3ACAAF"/>
<path d="M26.5656 87.191L90.027 111.887C90.2245 111.964 90.4469 111.954 90.6453 111.858C90.8437 111.763 91.0019 111.59 91.085 111.378C91.1682 111.166 91.1694 110.932 91.0886 110.727C91.0077 110.523 90.8513 110.365 90.6538 110.288L27.1924 85.5919C26.995 85.515 26.7725 85.5256 26.5741 85.6212C26.3757 85.7168 26.2176 85.8896 26.1344 86.1016C26.0513 86.3137 26.05 86.5476 26.1309 86.7519C26.2118 86.9562 26.3681 87.1141 26.5656 87.191Z" fill="#3ACAAF"/>
<path d="M24.9797 91.2613L88.4411 115.958C88.6386 116.035 88.861 116.024 89.0594 115.929C89.2578 115.833 89.416 115.66 89.4991 115.448C89.5822 115.236 89.5835 115.002 89.5026 114.798C89.4218 114.593 89.2654 114.436 89.0679 114.359L25.6065 89.6622C25.409 89.5853 25.1866 89.5959 24.9882 89.6915C24.7898 89.7871 24.6316 89.9599 24.5485 90.172C24.4654 90.384 24.4641 90.6179 24.545 90.8222C24.6258 91.0265 24.7822 91.1844 24.9797 91.2613Z" fill="#3ACAAF"/>
<path d="M53.9812 17.4026L61.4062 20.2109L57.2453 30.528L49.8203 27.7196L53.9812 17.4026Z" fill="#3ACAAF"/>
<path d="M109.666 49.0927C107.383 48.2296 106.311 45.5994 107.272 43.2179C108.233 40.8364 110.863 39.6055 113.147 40.4685C115.43 41.3316 116.502 43.9618 115.541 46.3433C114.58 48.7248 111.95 49.9557 109.666 49.0927Z" fill="#3ACAAF"/>
<path d="M101.04 84.4476C100.928 84.6667 100.743 84.8395 100.52 84.932C100.297 85.0245 100.052 85.0301 99.8337 84.9476C99.6154 84.8651 99.4394 84.7005 99.3401 84.4861C99.2408 84.2718 99.2254 84.0231 99.297 83.7889C99.3369 83.6583 99.4026 83.5364 99.4899 83.4308C99.5771 83.3252 99.6841 83.2382 99.8039 83.1755C99.9237 83.1128 100.054 83.0757 100.186 83.0665C100.318 83.0574 100.449 83.0764 100.57 83.1224C100.692 83.1684 100.802 83.2403 100.892 83.3336C100.983 83.4268 101.052 83.5394 101.097 83.6641C101.141 83.7888 101.159 83.9229 101.149 84.0578C101.139 84.1927 101.102 84.3254 101.04 84.4476Z" fill="#3ACAAF"/>
<path d="M99.4472 88.5144C99.3756 88.6961 99.2537 88.8546 99.097 88.9697C98.9404 89.0848 98.7561 89.1513 98.5677 89.1608C98.3792 89.1702 98.1952 89.1222 98.0388 89.0228C97.8825 88.9235 97.7611 88.7772 97.69 88.6027C97.6189 88.4282 97.6013 88.2333 97.6395 88.0429C97.6777 87.8525 97.7699 87.6752 97.9045 87.5335C98.039 87.3918 98.2098 87.2922 98.3951 87.2473C98.5803 87.2024 98.7716 87.2143 98.9447 87.2814C99.1749 87.3684 99.3571 87.5472 99.4513 87.7784C99.5456 88.0096 99.5441 88.2744 99.4472 88.5144Z" fill="#3ACAAF"/>
<path d="M97.8601 92.596C97.7487 92.8152 97.5632 92.988 97.3401 93.0805C97.1169 93.173 96.8722 93.1785 96.654 93.096C96.4357 93.0135 96.2597 92.849 96.1604 92.6346C96.0611 92.4202 96.0457 92.1715 96.1173 91.9373C96.1572 91.8068 96.2229 91.6848 96.3102 91.5792C96.3974 91.4736 96.5044 91.3867 96.6242 91.324C96.744 91.2612 96.8741 91.2241 97.006 91.215C97.138 91.2058 97.269 91.2249 97.3906 91.2708C97.5122 91.3168 97.6219 91.3887 97.7125 91.482C97.8031 91.5753 97.8727 91.6878 97.9169 91.8125C97.9611 91.9372 97.9788 92.0713 97.9691 92.2062C97.9593 92.3411 97.9222 92.4739 97.8601 92.596Z" fill="#3ACAAF"/>
<path d="M96.2663 96.6585C96.1549 96.8777 95.9695 97.0505 95.7463 97.143C95.5232 97.2355 95.2785 97.241 95.0602 97.1585C94.842 97.076 94.6659 96.9114 94.5666 96.6971C94.4673 96.4827 94.452 96.234 94.5236 95.9998C94.5635 95.8693 94.6291 95.7473 94.7164 95.6417C94.8037 95.5361 94.9107 95.4492 95.0305 95.3865C95.1503 95.3237 95.2803 95.2866 95.4123 95.2775C95.5442 95.2683 95.6752 95.2874 95.7968 95.3333C95.9185 95.3793 96.0281 95.4512 96.1187 95.5445C96.2094 95.6378 96.279 95.7503 96.3231 95.875C96.3673 95.9997 96.3851 96.1338 96.3753 96.2687C96.3655 96.4036 96.3284 96.5364 96.2663 96.6585Z" fill="#3ACAAF"/>
<path d="M87.1009 79.9547L96.7501 83.6645C96.947 83.7402 97.1687 83.7298 97.3665 83.6356C97.5642 83.5415 97.7219 83.3713 97.8048 83.1624C97.8876 82.9536 97.8889 82.7232 97.8083 82.522C97.7277 82.3209 97.5718 82.1653 97.3749 82.0896L87.7257 78.3798C87.5288 78.3042 87.3071 78.3145 87.1093 78.4087C86.9116 78.5028 86.7539 78.6731 86.671 78.8819C86.5882 79.0907 86.5869 79.3211 86.6675 79.5223C86.7481 79.7235 86.904 79.879 87.1009 79.9547Z" fill="#3ACAAF"/>
<path d="M76.4114 80.4835L95.1697 87.7365C95.3669 87.8128 95.5889 87.8023 95.7871 87.7074C95.9852 87.6126 96.1431 87.4411 96.2261 87.2307C96.3091 87.0204 96.3104 86.7883 96.2296 86.5856C96.1489 86.383 95.9928 86.2263 95.7956 86.15L77.0372 78.897C76.8401 78.8208 76.618 78.8312 76.4199 78.9261C76.2217 79.0209 76.0638 79.1924 75.9808 79.4028C75.8978 79.6132 75.8965 79.8452 75.9773 80.0479C76.058 80.2506 76.2142 80.4072 76.4114 80.4835Z" fill="#3ACAAF"/>
<path d="M86.0001 88.8986L93.5871 91.8089C93.7838 91.8844 94.0054 91.8741 94.203 91.7802C94.4006 91.6863 94.5582 91.5166 94.641 91.3084C94.7237 91.1002 94.725 90.8706 94.6445 90.67C94.5639 90.4695 94.4082 90.3144 94.2115 90.2389L86.6245 87.3286C86.4278 87.2532 86.2062 87.2635 86.0086 87.3574C85.811 87.4513 85.6534 87.621 85.5707 87.8292C85.4879 88.0373 85.4866 88.267 85.5671 88.4676C85.6477 88.6681 85.8034 88.8232 86.0001 88.8986Z" fill="#3ACAAF"/>
<path d="M76.2118 89.7822L91.9905 95.8749C92.1876 95.951 92.4096 95.9406 92.6077 95.8459C92.8057 95.7512 92.9636 95.58 93.0465 95.37C93.1295 95.16 93.1308 94.9283 93.0501 94.726C92.9693 94.5237 92.8133 94.3673 92.6161 94.2911L76.8375 88.1985C76.6404 88.1224 76.4184 88.1328 76.2203 88.2275C76.0223 88.3222 75.8644 88.4934 75.7814 88.7034C75.6985 88.9134 75.6972 89.145 75.7779 89.3474C75.8586 89.5497 76.0147 89.7061 76.2118 89.7822Z" fill="#3ACAAF"/>
<path opacity="0.5" d="M11.3985 96.7351L20.2069 118.348L26.6094 102.484L11.3985 96.7351Z" fill="#3ACAAF"/>
<path opacity="0.2" d="M53.9812 17.4026L57.2453 30.528L49.8203 27.7196L53.9812 17.4026Z" fill="black"/>
<path opacity="0.2" d="M110.009 41.3524L114.844 43.1797L112.809 48.2218L107.974 46.3945L110.009 41.3524Z" fill="black"/>
<path opacity="0.4" d="M46.2228 7.47767L50.3281 9.07031L15.1845 98.4477L11.0792 96.8551L46.2228 7.47767Z" fill="black"/>
<path d="M41.4853 25.2082C41.8951 25.3647 42.3566 25.3432 42.7683 25.1486C43.18 24.954 43.5082 24.6021 43.6807 24.1704L47.334 15.0262C47.5065 14.5945 47.5091 14.1183 47.3413 13.7024C47.1735 13.2865 46.8491 12.965 46.4393 12.8085C46.0295 12.6521 45.568 12.6735 45.1563 12.8681C44.7445 13.0628 44.4163 13.4147 44.2439 13.8464L40.5756 23.028C40.415 23.4568 40.4203 23.9249 40.5903 24.3324C40.7603 24.7398 41.0815 25.0542 41.4853 25.2082Z" fill="#3ACAAF"/>
<path opacity="0.4" d="M41.4853 25.2082C41.8951 25.3647 42.3566 25.3432 42.7683 25.1486C43.18 24.954 43.5082 24.6021 43.6807 24.1704L47.334 15.0262C47.5065 14.5945 47.5091 14.1183 47.3413 13.7024C47.1735 13.2865 46.8491 12.965 46.4393 12.8085C46.0295 12.6521 45.568 12.6735 45.1563 12.8681C44.7445 13.0628 44.4163 13.4147 44.2439 13.8464L40.5756 23.028C40.415 23.4568 40.4203 23.9249 40.5903 24.3324C40.7603 24.7398 41.0815 25.0542 41.4853 25.2082Z" fill="white"/>
</svg>
