<svg width="146" height="219" viewBox="0 0 146 219" fill="none" xmlns="http://www.w3.org/2000/svg">
<path d="M101.526 118.382C117.95 126.413 117.95 139.428 101.526 147.458C85.1013 155.489 58.4835 155.463 42.0655 147.458C25.6476 139.454 25.6476 126.413 42.0655 118.382C58.4835 110.352 85.1454 110.352 101.526 118.382Z" fill="#E0E0E0"/>
<path d="M55.2962 213.629C33.2088 213.629 15.3034 204.873 15.3034 194.072C15.3034 183.271 33.2088 174.516 55.2962 174.516C77.3837 174.516 95.2891 183.271 95.2891 194.072C95.2891 204.873 77.3837 213.629 55.2962 213.629Z" fill="#E0E0E0"/>
<path d="M145.263 114.75C145.446 125.657 134.478 131.409 121.178 131.409C107.879 131.409 97.112 125.657 97.112 114.75H145.263Z" fill="#3ACAAF"/>
<path d="M138.203 123.078C147.609 118.478 147.609 111.018 138.203 106.418C128.797 101.819 113.551 101.819 104.145 106.418C94.7392 111.018 94.7392 118.478 104.145 123.078C113.551 127.677 128.797 127.677 138.203 123.078Z" fill="#3ACAAF"/>
<path opacity="0.4" d="M138.203 123.078C147.609 118.478 147.609 111.018 138.203 106.418C128.797 101.819 113.551 101.819 104.145 106.418C94.7392 111.018 94.7392 118.478 104.145 123.078C113.551 127.677 128.797 127.677 138.203 123.078Z" fill="white"/>
<path opacity="0.5" d="M136.984 123.622C127.937 127.485 114.417 127.485 105.37 123.622C102.157 120.42 103.266 116.424 108.728 113.756C115.601 110.394 126.752 110.394 133.626 113.756C139.088 116.424 140.197 120.41 136.984 123.622Z" fill="#3ACAAF"/>
<path d="M127.387 126.483H127.425C127.48 126.479 127.533 126.466 127.581 126.445C127.63 126.423 127.673 126.394 127.708 126.358C127.743 126.322 127.77 126.281 127.786 126.237C127.802 126.192 127.808 126.146 127.803 126.099L121.591 68.8756C121.578 68.7832 121.524 68.6984 121.44 68.6388C121.355 68.5792 121.247 68.5494 121.137 68.5555C121.083 68.5595 121.029 68.5726 120.981 68.5942C120.932 68.6157 120.889 68.6452 120.854 68.6809C120.819 68.7166 120.792 68.7578 120.776 68.8023C120.76 68.8467 120.754 68.8934 120.759 68.9397L126.971 126.163C126.981 126.251 127.029 126.333 127.106 126.392C127.183 126.451 127.283 126.484 127.387 126.483Z" fill="#37474F"/>
<path d="M97.9231 112.044C98.0032 112.045 98.0817 112.025 98.1489 111.988C98.2161 111.951 98.269 111.899 98.3011 111.836L121.555 69.0574C121.601 68.9725 121.606 68.8753 121.569 68.7873C121.531 68.6992 121.453 68.6275 121.353 68.5878C121.253 68.5482 121.138 68.5439 121.034 68.576C120.93 68.608 120.845 68.6737 120.799 68.7586L97.5451 111.543C97.5217 111.585 97.5084 111.63 97.5059 111.677C97.5034 111.723 97.5118 111.77 97.5305 111.813C97.5493 111.857 97.578 111.897 97.6151 111.931C97.6522 111.965 97.6969 111.993 97.7467 112.012C97.8021 112.034 97.8622 112.045 97.9231 112.044Z" fill="#37474F"/>
<path d="M138.208 106.78C138.259 106.779 138.311 106.77 138.359 106.753C138.411 106.737 138.459 106.713 138.499 106.681C138.54 106.649 138.573 106.61 138.596 106.568C138.619 106.525 138.631 106.479 138.633 106.432C138.634 106.385 138.625 106.338 138.604 106.294L121.594 68.7821C121.575 68.7385 121.545 68.6985 121.507 68.6647C121.469 68.6308 121.424 68.6036 121.373 68.5847C121.323 68.5659 121.269 68.5557 121.214 68.5548C121.159 68.5538 121.104 68.5622 121.052 68.5794C120.949 68.6139 120.867 68.6814 120.822 68.7673C120.777 68.8531 120.774 68.9505 120.813 69.0383L137.823 106.551C137.853 106.617 137.906 106.674 137.974 106.715C138.043 106.756 138.124 106.778 138.208 106.78Z" fill="#37474F"/>
<path d="M48.5446 67.3594C48.7273 78.2662 37.7589 84.0185 24.4595 84.0185C11.16 84.0185 0.374336 78.2662 0.374336 67.3594H48.5446Z" fill="#3ACAAF"/>
<path d="M41.4924 75.687C50.8984 71.0873 50.8984 63.6275 41.4924 59.0279C32.0864 54.4282 16.8339 54.4282 7.42794 59.0279C-1.97806 63.6275 -1.97806 71.0873 7.42794 75.687C16.8339 80.2866 32.0864 80.2866 41.4924 75.687Z" fill="#3ACAAF"/>
<path opacity="0.4" d="M41.4924 75.687C50.8984 71.0873 50.8984 63.6275 41.4924 59.0279C32.0864 54.4282 16.8339 54.4282 7.42794 59.0279C-1.97806 63.6275 -1.97806 71.0873 7.42794 75.687C16.8339 80.2866 32.0864 80.2866 41.4924 75.687Z" fill="white"/>
<path opacity="0.5" d="M40.2648 76.2235C31.2179 80.0868 17.6979 80.0868 8.65105 76.2235C5.43802 73.0219 6.54684 69.0252 12.009 66.3572C18.8824 62.9955 30.0335 62.9955 36.9068 66.3572C42.369 69.0252 43.4778 73.0113 40.2648 76.2235Z" fill="#3ACAAF"/>
<path d="M30.6683 79.0932H30.7061C30.7608 79.0892 30.8139 79.076 30.8626 79.0545C30.9113 79.033 30.9544 79.0035 30.9896 78.9678C31.0247 78.9321 31.0511 78.8908 31.0674 78.8464C31.0836 78.802 31.0893 78.7553 31.0841 78.709L24.8722 21.4854C24.861 21.3924 24.8073 21.3068 24.7225 21.2469C24.6377 21.1871 24.5286 21.1577 24.4186 21.1652C24.3639 21.1692 24.3107 21.1824 24.2621 21.2039C24.2134 21.2254 24.1702 21.2549 24.1351 21.2906C24.1 21.3263 24.0735 21.3676 24.0573 21.412C24.0411 21.4564 24.0354 21.5031 24.0406 21.5494L30.2525 78.773C30.2605 78.8612 30.308 78.9435 30.3853 79.0031C30.4626 79.0626 30.5638 79.0948 30.6683 79.0932Z" fill="#37474F"/>
<path d="M1.19828 64.6491C1.27915 64.6493 1.35835 64.6297 1.42648 64.5928C1.49461 64.5559 1.54879 64.5033 1.58258 64.441L24.8361 21.662C24.8704 21.5783 24.8667 21.4867 24.8257 21.4052C24.7848 21.3236 24.7095 21.2578 24.6146 21.2206C24.5196 21.1833 24.4117 21.1773 24.3117 21.2037C24.2118 21.23 24.127 21.2869 24.0738 21.3632L0.820276 64.1475C0.77483 64.2326 0.770472 64.3294 0.808146 64.4171C0.845818 64.5049 0.922539 64.5766 1.02188 64.6171C1.07751 64.6378 1.13753 64.6487 1.19828 64.6491Z" fill="#37474F"/>
<path d="M41.4883 59.3854C41.5384 59.3929 41.5895 59.3929 41.6396 59.3854C41.7426 59.3509 41.8255 59.2834 41.8702 59.1975C41.915 59.1116 41.9182 59.0143 41.8789 58.9265L24.8688 21.4142C24.8489 21.3707 24.8191 21.331 24.7812 21.2973C24.7432 21.2636 24.6978 21.2366 24.6474 21.2178C24.5971 21.1989 24.5429 21.1887 24.4879 21.1876C24.433 21.1865 24.3783 21.1946 24.327 21.2114C24.2757 21.2282 24.2288 21.2534 24.189 21.2856C24.1492 21.3178 24.1173 21.3563 24.0951 21.3989C24.0728 21.4415 24.0607 21.4874 24.0594 21.534C24.0581 21.5805 24.0677 21.6269 24.0876 21.6703L41.0977 59.1826C41.1322 59.2451 41.1877 59.2977 41.2571 59.3337C41.3265 59.3697 41.4069 59.3877 41.4883 59.3854Z" fill="#37474F"/>
<path d="M21.6075 15.7188C21.6516 17.4903 22.9368 19.5767 24.4677 20.3237C24.6525 20.4401 24.8693 20.5144 25.0976 20.5396C25.3259 20.5648 25.558 20.5401 25.7718 20.4678C26.2191 20.249 26.49 19.6407 26.49 18.835C26.4456 17.7316 26.0612 16.6573 25.3749 15.7188H27.2649C27.8194 16.6916 28.1182 17.7548 28.1406 18.835C28.1406 20.1743 27.5736 21.2149 26.5845 21.7004C26.2011 21.8867 25.7665 21.9842 25.3245 21.9833C24.7141 21.971 24.1184 21.8219 23.5983 21.551C21.5508 20.5532 19.9442 18.0079 19.9001 15.7188H21.6075Z" fill="#455A64"/>
<path d="M55.675 119.037C64.766 114.592 79.5082 114.592 88.5929 119.037C93.1415 121.262 95.3969 124.175 95.3906 127.089V130.104C95.3906 133.017 93.1415 135.931 88.5929 138.15C79.5019 142.595 64.766 142.595 55.675 138.15C51.1264 135.931 48.8709 133.017 48.8772 130.104C48.8772 129.202 48.8772 127.969 48.8772 127.089C48.8709 124.191 51.1201 121.262 55.675 119.037Z" fill="#263238"/>
<path d="M88.5958 119.041C97.6868 123.491 97.6868 130.695 88.5958 135.14C79.5048 139.585 64.769 139.585 55.678 135.14C46.587 130.695 46.587 123.491 55.678 119.041C64.769 114.591 79.4733 114.591 88.5958 119.041Z" fill="#455A64"/>
<path d="M58.5297 115.3C66.0457 111.629 78.23 111.629 85.7397 115.3C89.5198 117.141 91.3657 119.569 91.3594 121.954V126.389C91.3594 128.8 89.5009 131.191 85.7397 133.043C78.23 136.719 66.0457 136.719 58.5297 133.043C54.7497 131.207 52.9038 128.8 52.9101 126.389C52.9101 125.647 52.9101 122.701 52.9101 121.954C52.9038 119.548 54.7749 117.141 58.5297 115.3Z" fill="#37474F"/>
<path d="M85.7458 115.299C93.2618 118.975 93.2618 124.904 85.7458 128.607C78.2299 132.31 66.0518 132.283 58.5358 128.607C51.0199 124.93 51.0199 119.002 58.5358 115.299C66.0518 111.595 78.2173 111.622 85.7458 115.299Z" fill="#455A64"/>
<path d="M117.082 62.8281H118.77C118.744 62.9819 118.731 63.137 118.732 63.2924C118.732 65.0799 120.043 67.2304 121.599 67.9934C121.785 68.1084 122.003 68.1818 122.232 68.207C122.461 68.2321 122.694 68.2082 122.909 68.1375C123.35 67.9187 123.621 67.3104 123.621 66.5047C123.609 65.8399 123.457 65.1823 123.174 64.5623H124.95C125.173 65.1928 125.29 65.8466 125.297 66.5047C125.297 67.8387 124.736 68.8845 123.747 69.3701C123.364 69.5563 122.929 69.6539 122.487 69.6529C121.877 69.6407 121.281 69.4915 120.761 69.2207C118.688 68.2068 117.063 65.6029 117.063 63.2924C117.059 63.1374 117.066 62.9825 117.082 62.8281Z" fill="#455A64"/>
<path d="M56.8794 119.072C56.8794 117.162 58.3725 115.251 61.3462 113.794C67.306 110.881 76.964 110.881 82.9239 113.794C85.9038 115.251 87.3906 117.162 87.3906 119.072V120.598C87.3906 122.508 85.9038 124.419 82.9239 125.875C76.964 128.789 67.306 128.789 61.3462 125.875C58.3725 124.419 56.8794 122.508 56.8794 120.598V119.072Z" fill="#37474F"/>
<path d="M61.3462 113.799C62.392 113.265 64.0048 111.003 64.7419 107.983C66.4555 100.96 66.4366 89.6907 65.0443 85.4219H79.232C77.8334 89.6907 77.8145 100.96 79.5281 107.983C80.2652 111.003 81.8781 113.239 82.9239 113.799C85.9038 115.256 87.3906 117.166 87.3906 119.076C87.3906 120.987 85.9038 122.897 82.9239 124.354C76.964 127.267 67.306 127.267 61.3462 124.354C58.3725 122.897 56.8794 120.987 56.8794 119.076C56.8794 117.166 58.3725 115.256 61.3462 113.799Z" fill="#455A64"/>
<g opacity="0.15">
<path d="M76.2672 87.9688C76.2672 90.7008 76.45 110.295 78.5353 112.781C80.6206 115.268 82.9894 115.449 84.5833 117.584C86.1772 119.718 83.6635 122.685 79.8772 123.656C80.4952 123.085 80.9006 122.372 81.0427 121.607C81.0427 121.607 78.5227 124.115 72.903 123.656C77.8675 122.941 79.8331 119.761 78.781 118.208C77.6596 116.57 75.8451 116.036 74.8182 113.155C74.0244 110.93 74.037 88.3209 74.037 88.3209C74.7907 88.2564 75.5367 88.1386 76.2672 87.9688Z" fill="white"/>
</g>
<g opacity="0.15">
<path d="M69.7075 88.2739C69.5248 92.9322 69.4051 111.496 67.8175 113.732C66.5575 115.477 65.7889 116.469 65.5306 118.412C65.2722 120.354 67.3261 122.03 68.8444 122.457C67.4804 122.357 66.1739 121.946 65.0644 121.267C65.0644 121.267 66.3244 123.454 71.3203 124.468C67.9561 124.655 62.5884 123.849 59.6022 120.669C57.0822 117.974 59.7093 116.699 61.8387 115.653C63.9681 114.607 65.0833 113.673 66.1102 111.203C68.3593 105.797 67.3702 87.8203 67.3702 87.8203C68.1326 88.0276 68.9146 88.1794 69.7075 88.2739Z" fill="black"/>
</g>
<g opacity="0.25">
<path d="M65.6577 88.0205C65.5222 87.1425 65.3116 86.2741 65.0277 85.4219H79.2344C78.9445 86.2728 78.7338 87.1417 78.6044 88.0205C74.9629 89.6854 69.3181 89.6854 65.6577 88.0205Z" fill="black"/>
</g>
<path d="M78.8903 87.0606C80.7803 86.1482 81.6875 84.9529 81.6875 83.7576C81.6875 82.5624 80.7551 81.3671 78.8903 80.4546C75.1606 78.6297 69.1126 78.6297 65.3829 80.4546C63.4929 81.3671 62.5857 82.5624 62.5857 83.7576C62.5857 84.9529 63.5181 86.1482 65.3829 87.0606C69.1126 88.8856 75.1606 88.8856 78.8903 87.0606Z" fill="#37474F"/>
<g opacity="0.25">
<path d="M63.2288 82.0711C63.7939 81.4056 64.5308 80.8581 65.3834 80.4703C69.1131 78.6453 75.1611 78.6453 78.8907 80.4703C79.7404 80.8596 80.4749 81.4069 81.0391 82.0711C80.7997 83.0049 79.9555 83.9067 78.4875 84.6217C74.9784 86.3399 69.2894 86.3399 65.7803 84.6217C64.3187 83.9067 63.4745 83.0049 63.2288 82.0711Z" fill="black"/>
</g>
<path d="M78.4916 83.5467C80.2493 82.6929 81.125 81.567 81.125 80.4411C81.125 79.3152 80.2493 78.1893 78.4916 77.3355C74.9824 75.6173 69.2935 75.6173 65.7843 77.3355C64.0329 78.1893 63.1509 79.3152 63.1509 80.4411C63.1509 81.567 64.0329 82.6929 65.7843 83.5467C69.2935 85.2435 74.9824 85.2435 78.4916 83.5467Z" fill="#37474F"/>
<g opacity="0.25">
<path d="M63.7829 78.8424C64.3115 78.2294 64.9935 77.7229 65.78 77.359C69.2892 75.6408 74.9781 75.6408 78.4873 77.359C79.275 77.7214 79.9573 78.2282 80.4844 78.8424C80.3071 79.364 80.0024 79.8483 79.59 80.2638C79.1775 80.6793 78.6666 81.0167 78.0904 81.2543C74.8017 82.8551 69.4719 82.8551 66.1832 81.2543C65.6056 81.0176 65.0932 80.6805 64.6796 80.265C64.2661 79.8494 63.9605 79.3647 63.7829 78.8424Z" fill="black"/>
</g>
<path d="M78.0914 80.0378C79.7357 79.2321 80.5547 78.1809 80.5547 77.1244C80.5547 76.0678 79.7357 75.0166 78.0914 74.2162C74.8027 72.6154 69.4729 72.6154 66.1842 74.2162C64.5399 75.0166 63.7146 76.0732 63.7146 77.1244C63.7146 78.1756 64.5399 79.2321 66.1842 80.0378C69.4729 81.644 74.8027 81.644 78.0914 80.0378Z" fill="#37474F"/>
<g opacity="0.25">
<path d="M64.3957 75.5076C64.8791 74.976 65.4886 74.5361 66.185 74.2162C69.4736 72.6154 74.8034 72.6154 78.0921 74.2162C78.7854 74.5376 79.3925 74.9773 79.875 75.5076C79.4904 76.414 78.7071 77.1596 77.6889 77.5886C74.6207 79.088 69.65 79.088 66.5819 77.5886C65.5636 77.1596 64.7804 76.414 64.3957 75.5076Z" fill="black"/>
</g>
<g opacity="0.15">
<path d="M65.1615 83.207C63.9015 82.3586 64.7457 80.3789 65.7474 79.8026C64.6512 78.7354 65.2497 77.2467 66.5853 76.5156C67.4096 76.9069 68.2967 77.1945 69.2188 77.3694C67.8831 78.0951 67.2279 79.7279 68.3241 80.7898C67.3224 81.3714 66.4656 83.4205 67.7508 84.2742C66.8499 84.9199 65.8608 86.7235 67.3665 87.8013C66.4544 87.5505 65.5889 87.1912 64.7961 86.7341C63.3156 85.6669 64.2543 83.8527 65.1615 83.207Z" fill="black"/>
</g>
<g opacity="0.15">
<path d="M79.1213 83.207C80.3813 82.3586 79.5371 80.3789 78.5354 79.8026C79.6253 78.7354 79.0331 77.2467 77.6912 76.5156C76.8679 76.9086 75.9805 77.1964 75.0578 77.3694C76.3997 78.0951 77.0486 79.7279 75.9524 80.7898C76.9541 81.3714 77.8424 83.4205 76.5257 84.2742C77.4329 84.9199 78.4157 86.7235 76.9163 87.8013C77.827 87.5516 78.6906 87.1922 79.4804 86.7341C80.9673 85.6669 80.0222 83.8527 79.1213 83.207Z" fill="white"/>
</g>
<path d="M65.6091 71.672C65.9746 71.3945 66.9952 69.2868 67.3039 66.0211C68.3434 54.9168 68.3371 40.6269 68.3371 29.7734H75.9412C75.9412 40.6216 75.9413 54.8528 76.9745 65.9891C77.2832 69.2708 78.3101 71.3998 78.6755 71.6773C79.0663 71.9296 79.3868 72.2516 79.6143 72.6204C79.8419 72.9893 79.9708 73.396 79.9922 73.8117C79.9922 74.7989 79.2236 75.7807 77.6864 76.5278C74.6245 78.0325 69.6475 78.0325 66.5794 76.5278C65.0484 75.7807 64.2798 74.7989 64.2798 73.8117C64.3035 73.3945 64.4347 72.9867 64.6644 72.617C64.8941 72.2474 65.2165 71.9248 65.6091 71.672Z" fill="#455A64"/>
<g opacity="0.15">
<path d="M66.5804 72.1576C67.6767 70.6581 68.4705 69.6603 68.8296 65.9838C69.1446 62.5847 68.88 30.8246 68.8296 29.7734H69.3903L70.077 29.9549C70.077 35.0668 70.4739 67.2484 69.573 70.0498C68.6721 72.8512 66.612 75.6527 69.2391 77.3709C68.3165 77.1975 67.4291 76.9098 66.6056 76.5171C65.1062 75.0123 65.4842 73.657 66.5804 72.1576Z" fill="black"/>
</g>
<g opacity="0.15">
<path d="M77.6862 72.1576C76.59 70.6581 75.7962 69.6603 75.4371 65.9838C75.1221 62.5847 75.393 30.8246 75.4371 29.7734H74.9079L74.2212 29.9549C74.2212 35.0668 73.8243 67.2484 74.7315 70.0498C75.6387 72.8512 77.6925 75.6527 75.0591 77.3709C75.982 77.1984 76.8695 76.9107 77.6925 76.5171C79.1604 75.0123 78.7824 73.657 77.6862 72.1576Z" fill="white"/>
</g>
<g opacity="0.25">
<path d="M75.9531 31.5557C74.8385 32.2259 73.5054 32.5859 72.1384 32.5859C70.7715 32.5859 69.4384 32.2259 68.3237 31.5557C68.3237 30.9847 68.3237 30.3924 68.3237 29.7734H75.9468C75.9468 30.3924 75.9531 30.9794 75.9531 31.5557Z" fill="black"/>
</g>
<path d="M65.5007 25.5773C65.5007 26.6897 65.8902 27.777 66.6198 28.7019C67.3494 29.6268 68.3865 30.3477 69.5999 30.7734C70.8132 31.1991 72.1483 31.3104 73.4364 31.0934C74.7245 30.8764 75.9077 30.3408 76.8364 29.5542C77.765 28.7676 78.3974 27.7655 78.6537 26.6745C78.9099 25.5835 78.7784 24.4527 78.2758 23.425C77.7732 22.3973 76.9221 21.519 75.8301 20.901C74.7381 20.283 73.4543 19.9531 72.141 19.9531C70.3799 19.9531 68.6909 20.5457 67.4456 21.6004C66.2003 22.6551 65.5007 24.0857 65.5007 25.5773Z" fill="#37474F"/>
<g opacity="0.15">
<path d="M73.6689 28.4949C74.3751 28.25 75.0071 27.8734 75.5176 27.3929C76.0281 26.9125 76.404 26.3407 76.6173 25.7201C76.8794 24.8702 76.9287 23.9832 76.7622 23.1161C76.6821 22.6904 76.5469 22.2735 76.359 21.8728C76.2717 21.6698 76.1686 21.472 76.0503 21.2805C75.9764 21.1346 75.8788 20.9981 75.7605 20.875C76.7222 21.4073 77.5043 22.142 78.0301 23.0071C78.5559 23.8723 78.8074 24.8383 78.76 25.8105C78.7126 26.7827 78.3679 27.7279 77.7597 28.5534C77.1514 29.3789 76.3005 30.0565 75.2903 30.5198C74.28 30.9831 73.145 31.2162 71.9964 31.1964C70.8477 31.1765 69.7249 30.9044 68.7378 30.4066C67.7506 29.9088 66.9331 29.2023 66.3651 28.3565C65.7971 27.5107 65.4982 26.5544 65.4977 25.5814C66.2411 27.3636 69.7943 29.9356 73.6689 28.4949Z" fill="black"/>
</g>
<g opacity="0.15">
<path d="M66.7777 25.441C67.4077 26.9457 67.6345 24.7633 70.6018 23.1625C73.0211 21.8605 75.8876 22.1326 74.3315 21.2202C73.0714 20.4838 71.0491 20.4731 69.1402 21.3536C67.2313 22.234 66.2926 24.3097 66.7777 25.441Z" fill="white"/>
</g>
<path d="M72.6047 18.2812C73.4783 18.6832 74.3351 19.1012 75.1752 19.5352C84.3292 23.9268 94.1195 28.4144 97.4837 33.4089C98.7647 35.282 99.6516 37.3295 100.105 39.46C102.562 42.128 104.93 44.796 107.268 47.464C109.044 49.5077 110.796 51.5461 112.604 53.5258L112.73 53.6058C112.85 53.6645 112.913 53.7125 112.894 53.7499C112.875 53.7872 112.894 53.8566 113.02 53.8139C113.388 53.5373 113.629 53.1593 113.7 52.7467C113.868 52.2126 113.949 51.6613 113.939 51.1085C113.954 50.5285 113.849 49.9509 113.631 49.401C113.618 49.3664 113.615 49.3295 113.624 49.2939C113.633 49.2584 113.653 49.2254 113.681 49.1982C113.725 49.1617 113.784 49.1413 113.845 49.1413C113.906 49.1413 113.965 49.1617 114.009 49.1982C114.591 49.6659 115.049 50.2335 115.351 50.8631C115.674 51.5007 115.886 52.1747 115.981 52.8641C116.116 53.6987 115.951 54.5483 115.508 55.3027C115.341 55.55 115.128 55.7733 114.878 55.9643C116.107 57.2343 117.398 58.4616 118.702 59.5982C120.043 60.7873 121.52 61.8599 123.112 62.7998C124.662 63.7816 125.809 63.9097 126.521 63.4454C126.963 63.0778 127.247 62.5948 127.327 62.0741C127.482 61.3592 127.503 60.6281 127.39 59.9077C127.28 59.136 127.069 58.3772 126.76 57.6452C126.461 56.9133 126.059 56.2146 125.563 55.5641C125.11 54.9595 124.521 54.4356 123.831 54.022C123.547 53.8626 123.234 53.7453 122.904 53.6752C122.67 53.633 122.425 53.6535 122.205 53.7339C121.976 53.8379 121.8 54.0085 121.707 54.2141C121.554 54.5202 121.469 54.8476 121.455 55.1799C121.413 55.9457 121.541 56.7115 121.833 57.4371C122.096 58.181 122.541 58.8699 123.138 59.4594C123.406 59.7174 123.734 59.9262 124.101 60.0731C124.234 60.1302 124.381 60.16 124.53 60.16C124.679 60.16 124.826 60.1302 124.958 60.0731L125.015 60.0411C125.151 59.9746 125.311 59.9515 125.466 59.976C125.621 60.0004 125.76 60.0708 125.859 60.1745C125.916 60.2307 125.958 60.2962 125.982 60.3669C126.007 60.4376 126.015 60.5118 126.004 60.585C125.993 60.6583 125.965 60.7288 125.921 60.7922C125.876 60.8556 125.817 60.9106 125.746 60.9535C125.446 61.1559 125.086 61.2851 124.706 61.327C124.347 61.3652 123.982 61.3398 123.635 61.2523C123.034 61.0846 122.482 60.8098 122.016 60.4466C121.162 59.7686 120.488 58.9447 120.038 58.0294C119.555 57.1221 119.29 56.1427 119.257 55.1479C119.24 54.6048 119.334 54.0633 119.534 53.5471C119.651 53.2461 119.821 52.9619 120.038 52.704C120.274 52.4205 120.574 52.1793 120.92 51.9943C121.6 51.6249 122.409 51.463 123.213 51.5354C123.91 51.5978 124.586 51.7793 125.198 52.069C126.267 52.5927 127.2 53.2954 127.938 54.1341C128.637 54.9226 129.223 55.7788 129.683 56.6847C130.15 57.5844 130.494 58.526 130.71 59.4914C130.953 60.5064 131.001 61.5476 130.855 62.5757C130.765 63.1484 130.585 63.7083 130.32 64.2405C130.014 64.847 129.561 65.3924 128.99 65.8413C128.394 66.2866 127.691 66.6169 126.93 66.8095C126.169 67.002 125.367 67.0522 124.58 66.9566C123.882 66.8798 123.201 66.718 122.558 66.4763C122.256 66.3704 121.961 66.2492 121.676 66.1135L120.939 65.7453C117.045 63.7389 114.009 61.0709 111.193 58.4029C110.18 57.4282 109.189 56.4463 108.219 55.4574C107.825 55.2047 107.478 54.9024 107.192 54.561C106.936 54.2805 106.709 53.9824 106.512 53.6698C102.732 49.7372 99.1721 45.7458 95.3984 41.9306C90.1378 36.6372 84.6001 31.584 78.2622 27.4912C76.4404 26.3151 74.5478 25.2198 72.5921 24.2096V18.2812H72.6047ZM98.0192 37.2188C97.8869 36.4665 97.3577 35.0844 95.4992 33.0674C92.6389 29.9778 88.3108 27.4859 85.5829 26.1306C90.0787 29.533 94.238 33.2415 98.0192 37.2188Z" fill="#455A64"/>
<path d="M15.1666 2.4798C15.5348 1.8993 16.0566 1.39888 16.6913 1.01772C17.4265 0.582382 18.3166 0.37508 19.2113 0.430758C19.9626 0.487542 20.6897 0.684337 21.3407 1.00705C21.9101 1.2816 22.437 1.61498 22.9094 1.99955C23.7572 2.71969 24.4634 3.55018 25.001 4.45946C25.5549 5.35912 25.9255 6.33148 26.0972 7.33559C26.3169 8.41841 26.1548 9.53204 25.6311 10.5372C25.455 10.8667 25.2 11.1616 24.8822 11.4032C24.5644 11.6448 24.1908 11.8278 23.7851 11.9406C23.3502 12.0453 22.8916 12.0581 22.4495 11.9779C22.084 11.8952 21.7356 11.7657 21.4163 11.5937C20.8741 11.2981 20.4159 10.9045 20.0744 10.4412C19.7545 10.0201 19.5202 9.55653 19.3814 9.0698C19.3517 8.96676 19.3631 8.85829 19.4138 8.76131C19.4645 8.66434 19.5518 8.58432 19.6618 8.53374C19.7719 8.48317 19.8987 8.46488 20.0223 8.48173C20.1459 8.49858 20.2595 8.54963 20.3453 8.62691C20.9244 9.20619 21.6415 9.67533 22.4495 10.0036C22.5814 10.051 22.7222 10.0781 22.8653 10.0836C22.9351 10.0851 23.0042 10.0723 23.0669 10.0463C23.203 9.93754 23.3123 9.80694 23.3882 9.6621C23.6182 9.02984 23.6399 8.35642 23.4512 7.71445C23.2678 6.98129 22.9398 6.27955 22.481 5.63873C22.0417 4.99252 21.4822 4.41054 20.8241 3.91519C20.3501 3.5063 19.7256 3.24655 19.0538 3.17882C18.9071 3.17743 18.7653 3.22319 18.6569 3.30688C18.4627 3.4555 18.3081 3.63739 18.2033 3.84048C17.9239 4.44068 17.8034 5.08551 17.8505 5.72944C17.9489 7.23002 18.4556 8.691 19.331 9.99827C20.1662 11.3309 21.3181 12.5028 22.7141 13.44C23.0336 13.642 23.373 13.8206 23.7284 13.9736C24.1379 14.155 24.5474 14.3258 24.9884 14.4699C25.8137 14.759 26.6676 14.9857 27.54 15.1475C28.3704 15.2931 29.213 15.3841 30.06 15.4197C29.8925 15.0719 29.7515 14.7155 29.6379 14.3525C29.4456 13.6819 29.3546 12.9934 29.367 12.3034C29.3774 11.6271 29.5091 10.9559 29.7576 10.3131C29.8855 9.98348 30.0679 9.67087 30.2994 9.38463C30.4158 9.21646 30.5753 9.07258 30.7661 8.9636C30.9569 8.85463 31.1742 8.78333 31.4019 8.75497C31.44 8.75179 31.4784 8.75758 31.5129 8.7717C31.5473 8.78583 31.5765 8.80774 31.5972 8.83501C31.6151 8.85468 31.628 8.87726 31.6352 8.90134C31.6424 8.92542 31.6437 8.95049 31.639 8.975C31.6342 8.99952 31.6236 9.02294 31.6078 9.04384C31.5919 9.06473 31.5712 9.08265 31.5468 9.09648L31.4901 9.13383C31.3947 9.20909 31.3183 9.29985 31.2652 9.4007C31.2122 9.50154 31.1837 9.61041 31.1814 9.7208C31.1404 9.97575 31.1404 10.2342 31.1814 10.4892C31.2467 11.0152 31.3994 11.5308 31.635 12.0206C31.8425 12.5014 32.1197 12.9585 32.4603 13.3813C32.7586 13.7845 33.1188 14.1523 33.5313 14.4752C33.9318 14.7628 34.3968 14.9788 34.8984 15.1102C34.9735 15.1336 35.0471 15.1603 35.1189 15.1902C38.2186 14.8434 41.482 14.2244 44.9029 13.8509C45.073 12.17 45.722 10.0516 47.7632 9.02177C51.4298 7.18618 62.7006 13.376 72.4657 18.1624L72.6484 18.2424V24.2241C67.9804 21.6919 62.8014 19.9102 57.3708 18.9681C53.557 18.3973 49.667 18.2859 45.8164 18.6373C41.86 18.9361 37.7776 19.6458 33.273 19.7579C30.9376 19.8284 28.603 19.5981 26.3492 19.0749C25.2144 18.8009 24.1098 18.4438 23.048 18.0077C22.5251 17.7889 22.0085 17.5488 21.5171 17.298C20.9683 17.0223 20.4478 16.7082 19.961 16.3588C18.177 15.025 16.7433 13.3889 15.7525 11.5564C14.7131 9.74356 14.1888 7.74989 14.2216 5.73478C14.227 4.60161 14.5509 3.48583 15.1666 2.4798ZM47.1773 13.0185C50.4218 12.6076 57.7425 13.0185 61.8753 14.5926L62.0328 14.6299C60.987 14.059 53.8427 10.2491 49.7162 10.6813C46.7678 10.9854 47.1773 13.0185 47.1773 13.0185Z" fill="#455A64"/>
<path d="M72.6047 1.14134C76.5108 3.05164 79.6797 8.17957 79.6797 12.6085C79.6797 17.0374 76.5297 20.6125 72.6047 18.7076C68.6798 16.8026 65.5108 10.0952 65.5108 5.6823C65.5108 1.2694 68.6798 -0.774301 72.6047 1.14134ZM72.6047 3.37714C69.776 1.9951 67.4954 3.45717 67.4954 6.64812C67.5016 7.38161 67.5945 8.11273 67.7726 8.83056C68.1002 6.30662 70.1477 5.26609 72.6047 6.4667C75.0618 7.66731 77.0778 10.6982 77.4243 13.5316C77.604 12.9134 77.697 12.2793 77.7015 11.6427C77.7015 8.4517 75.4146 4.75383 72.6047 3.37714Z" fill="#455A64"/>
<path d="M72.5868 9.24219L70.3566 11.0991L72.612 15.3786L74.8359 13.2656L72.5868 9.24219Z" fill="#3ACAAF"/>
<path opacity="0.6" d="M71.678 12.6721L72.3899 13.9261L72.4844 10.4844L71.6591 11.2154C71.5045 11.4364 71.4245 11.6892 71.4279 11.946C71.4312 12.2029 71.5177 12.4541 71.678 12.6721Z" fill="white"/>
<path d="M29.625 174.187C43.8002 167.25 66.7954 167.25 80.9579 174.187C88.0455 177.65 91.5673 182.191 91.5547 186.737C91.5547 188.141 91.5547 190.035 91.5547 191.438C91.5547 195.979 88.0455 200.51 80.9579 203.989C66.7828 210.926 43.7876 210.926 29.625 203.989C22.5311 200.52 19.0157 195.985 19.0283 191.438V186.737C18.9905 182.191 22.5311 177.65 29.625 174.187Z" fill="#37474F"/>
<path d="M55.2928 204.49C35.2443 204.49 18.9918 196.542 18.9918 186.737C18.9918 176.933 35.2443 168.984 55.2928 168.984C75.3413 168.984 91.5938 176.933 91.5938 186.737C91.5938 196.542 75.3413 204.49 55.2928 204.49Z" fill="#455A64"/>
<path d="M35.728 171.306C46.5326 166.023 64.0468 166.023 74.8451 171.306C80.2506 173.947 82.9344 177.41 82.9218 180.868V183.984C82.9218 187.447 80.2506 190.921 74.8451 193.552C64.0468 198.834 46.5326 198.834 35.728 193.552C30.3289 190.884 27.6451 187.447 27.6514 183.984C27.6514 182.917 27.6514 181.94 27.6514 180.868C27.6451 177.41 30.3289 173.947 35.728 171.306Z" fill="#37474F"/>
<path d="M55.2895 194.397C40.0114 194.397 27.6259 188.341 27.6259 180.871C27.6259 173.4 40.0114 167.344 55.2895 167.344C70.5677 167.344 82.9531 173.4 82.9531 180.871C82.9531 188.341 70.5677 194.397 55.2895 194.397Z" fill="#455A64"/>
<path d="M38.427 147.111C44.538 144.123 49.7671 145.312 51.8083 149.571C52.2052 150.387 53.6983 153.493 54.0826 154.256C54.6015 155.412 54.8539 156.642 54.8261 157.879C54.8261 164.106 49.66 171.678 43.2969 174.789C42.0424 175.43 40.6545 175.861 39.2082 176.059L33.3239 176.726C27.9248 177.361 24.088 174.127 24.088 168.14C24.088 160.397 30.5078 150.985 38.427 147.111Z" fill="#37474F"/>
<path d="M43.299 152.238C49.6621 149.127 54.8281 151.651 54.8281 157.878C54.8281 164.106 49.6621 171.677 43.299 174.788C36.9359 177.899 31.7699 175.375 31.7699 169.153C31.7699 162.932 36.9296 155.354 43.299 152.238Z" fill="#263238"/>
<path d="M57.7982 153.058C55.5554 151.991 52.4747 152.129 49.06 153.794C42.2119 157.145 36.63 165.283 36.63 171.99C36.63 175.341 38.0223 177.684 40.2651 178.777L61.8303 189.418C64.0731 190.522 67.1664 190.367 70.5937 188.692C77.4418 185.346 82.9922 177.198 82.9922 170.496C82.9922 167.15 81.5999 164.802 79.3571 163.708C78.5884 163.346 58.5542 153.426 57.7982 153.058Z" fill="#3ACAAF"/>
<path opacity="0.3" d="M57.7982 153.058C55.5554 151.991 52.4747 152.129 49.06 153.794C42.2119 157.145 36.63 165.283 36.63 171.99C36.63 175.341 38.0223 177.684 40.2651 178.777L61.8303 189.418C64.0731 190.522 67.1664 190.367 70.5937 188.692C77.4418 185.346 82.9922 177.198 82.9922 170.496C82.9922 167.15 81.5999 164.802 79.3571 163.708C78.5884 163.346 58.5542 153.426 57.7982 153.058Z" fill="white"/>
<path opacity="0.45" d="M76.6797 184.129L38.2493 165.234C37.2315 167.387 36.683 169.677 36.6302 171.995C36.6302 175.346 38.0225 177.689 40.2653 178.783L61.8304 189.423C64.0733 190.527 67.1666 190.372 70.5938 188.697C72.9323 187.499 74.9944 185.951 76.6797 184.129Z" fill="#3ACAAF"/>
<path d="M70.578 164.428C77.4262 161.077 82.9766 163.793 82.9766 170.489C82.9766 177.186 77.4262 185.34 70.578 188.685C63.7299 192.031 58.1732 189.32 58.1732 182.624C58.1732 175.927 63.7236 167.773 70.578 164.428Z" fill="#263238"/>
<path d="M62.7247 184.286C62.7247 178.064 67.8844 170.492 74.2538 167.376C75.584 166.69 77.0692 166.249 78.6135 166.079C78.6639 166.079 83.5149 165.61 84.5607 165.503C89.8717 164.969 93.6328 168.171 93.6328 174.11C93.6328 181.852 87.213 191.265 79.2939 195.139C73.2647 198.09 68.1049 196.964 65.9881 192.839C65.5597 192.002 63.9532 188.859 63.5626 188.106C62.9742 186.896 62.6889 185.595 62.7247 184.286Z" fill="#37474F"/>
<path d="M79.2939 167.096C87.213 163.222 93.6328 166.365 93.6328 174.108C93.6328 181.851 87.213 191.263 79.2939 195.137C71.3747 199.011 64.9801 195.868 64.9801 188.126C64.9801 180.383 71.381 170.965 79.2939 167.096Z" fill="#455A64"/>
<path d="M93.6328 174.109C93.5955 177.747 92.5648 181.329 90.6214 184.573C88.7495 187.859 86.1263 190.797 82.9038 193.218C81.2778 194.422 79.4417 195.407 77.4605 196.137C76.9657 196.324 76.4537 196.478 75.9296 196.595L75.1421 196.777C74.8775 196.825 74.6066 196.852 74.3357 196.889C73.2554 197.034 72.1525 197.005 71.0849 196.804C70.0178 196.58 69.0205 196.163 68.1616 195.582C67.96 195.432 67.771 195.261 67.5757 195.101L67.2859 194.856L67.0465 194.578L66.5614 194.045L66.1834 193.442C65.2646 191.79 64.8446 189.971 64.9612 188.148L65.0746 189.498L65.3266 190.827C65.4778 191.259 65.5912 191.697 65.7676 192.118L66.07 192.737C66.1161 192.841 66.1686 192.943 66.2275 193.042L66.4228 193.33L66.8071 193.911L67.2922 194.445L67.5316 194.706L67.8151 194.936C68.0041 195.085 68.1868 195.245 68.3821 195.384C69.2144 195.904 70.168 196.268 71.1794 196.451C73.2455 196.739 75.3661 196.494 77.2652 195.747C79.1885 195.021 80.969 194.049 82.5447 192.866C85.7239 190.493 88.3354 187.626 90.2371 184.419C91.2109 182.823 91.996 181.15 92.5807 179.424C93.1956 177.697 93.5491 175.912 93.6328 174.109Z" fill="#37474F"/>
<path d="M51.122 180.116C50.8427 179.322 50.3463 178.595 49.6731 177.994C48.9999 177.393 48.1689 176.935 47.2475 176.658C46.9245 176.545 46.5722 176.507 46.2261 176.546C45.88 176.586 45.5522 176.701 45.2756 176.882L33.9669 185.953C33.7376 186.176 33.5823 186.447 33.517 186.738C33.4517 187.028 33.4787 187.328 33.5952 187.607C33.8732 188.402 34.3691 189.13 35.0424 189.732C35.7158 190.334 36.5475 190.793 37.4698 191.07C37.7943 191.184 38.1488 191.222 38.4966 191.181C38.8444 191.14 39.1728 191.02 39.448 190.836L50.7503 181.764C50.9792 181.542 51.1342 181.272 51.1995 180.983C51.2648 180.693 51.2381 180.394 51.122 180.116Z" fill="#37474F"/>
<path d="M50.7193 181.785C50.9548 181.562 51.1148 181.288 51.1825 180.995C51.2501 180.701 51.2229 180.397 51.1036 180.115C50.9156 179.519 50.5878 178.962 50.1397 178.477L35.5677 190.184C36.1186 190.589 36.7619 190.894 37.4577 191.08C37.7822 191.194 38.1367 191.232 38.4845 191.191C38.8323 191.149 39.1607 191.03 39.4359 190.845L50.7382 181.774L50.7193 181.785Z" fill="#263238"/>
<path d="M2.27591 208.596L32.0248 186.382H32.0563C32.4128 186.156 32.832 186.012 33.2734 185.964C33.7148 185.915 34.1636 185.964 34.5763 186.105C35.7751 186.467 36.8561 187.064 37.7317 187.846C38.6074 188.629 39.253 189.575 39.6164 190.608C39.8873 191.569 39.6794 192.327 39.1187 192.775L11.537 216.995C10.8933 217.533 10.1292 217.956 9.28944 218.24C8.44974 218.524 7.55148 218.663 6.64752 218.648C5.74356 218.633 4.85218 218.466 4.02584 218.155C3.19951 217.844 2.45491 217.397 1.83588 216.839C1.21684 216.28 0.735867 215.623 0.421284 214.905C0.106705 214.187 -0.0351295 213.423 0.00411224 212.658C0.043354 211.893 0.262882 211.142 0.649788 210.45C1.0367 209.758 1.58316 209.139 2.25701 208.628L2.27591 208.596Z" fill="#3ACAAF"/>
<path opacity="0.2" d="M2.16225 208.686C1.69183 209.129 1.40121 209.688 1.33295 210.281C1.26469 210.874 1.42237 211.47 1.7829 211.982C2.14343 212.493 2.68788 212.894 3.33656 213.125C3.98524 213.355 4.70409 213.404 5.38789 213.264C5.89998 213.156 6.37485 212.948 6.77389 212.656L37.5497 187.656C38.5482 188.457 39.273 189.471 39.6476 190.591C39.9185 191.552 39.7106 192.309 39.1499 192.757L11.5682 216.978C10.7045 217.698 9.62696 218.207 8.44971 218.451C6.99419 218.758 5.45949 218.648 4.08554 218.138C2.71159 217.628 1.57586 216.747 0.855946 215.632C0.136028 214.518 -0.12751 213.232 0.106564 211.977C0.340637 210.722 1.05911 209.569 2.14964 208.696L2.16225 208.686Z" fill="black"/>
</svg>
