<svg width="324" height="371" viewBox="0 0 324 371" fill="none" xmlns="http://www.w3.org/2000/svg">
<g clip-path="url(#clip0_346_5969)">
<path d="M155.483 347.167L155.07 337.882C155.027 337.859 154.984 337.837 154.941 337.814C150.516 335.492 145.445 339.695 146.858 344.488C148.188 348.997 149.081 353.859 151.515 357.806C152.954 360.098 154.889 362.038 157.179 363.481C159.468 364.924 162.053 365.833 164.742 366.141L170.363 369.583C171.135 365.282 170.965 360.866 169.865 356.638C168.765 352.41 166.762 348.471 163.993 345.091C162.421 343.211 160.618 341.536 158.628 340.106C157.281 343.656 155.483 347.167 155.483 347.167Z" fill="#F2F2F2"/>
<path d="M105.156 252.947C94.3336 241.785 78.6501 235.384 62.1271 235.384L61.4898 235.386C50.6066 235.39 39.9176 232.503 30.516 227.021L29.5376 226.451L30.3256 225.639C34.5915 221.226 38.1535 216.183 40.8869 210.687C38.9456 212.497 36.6302 213.858 34.1046 214.674C31.579 215.489 28.9049 215.74 26.2717 215.408C23.4916 215.077 20.8226 214.12 18.465 212.61C16.1074 211.1 14.1223 209.075 12.6587 206.689C6.88381 197.319 0 184.024 0 173.895C0.00898957 165.334 1.80152 156.869 5.26334 149.039C8.72516 141.209 13.7803 134.186 20.1066 128.418C24.1117 124.807 27.3107 120.392 29.4951 115.461C31.6796 110.531 32.8003 105.195 32.7844 99.8024L32.7812 99.035C32.7801 91.935 33.6477 84.8616 35.3647 77.9725L35.539 77.2768L36.2548 77.3018C40.8705 77.4589 45.4887 77.072 50.0139 76.1491C45.7692 75.6285 41.6168 74.524 37.6743 72.8671L36.9043 72.5556L37.1656 71.7666C55.1794 60.6132 95.8416 66.389 119.443 12.3901C138.581 -31.3957 206.105 51.2587 206.105 99.035C206.105 103.91 201.28 110.352 204.892 113.574C243.934 148.406 216.996 170.772 208.502 193.279C206.487 198.618 210.857 204.481 210.857 210.258C210.857 211.238 210.832 212.25 210.782 213.265L210.707 214.826L209.405 213.96C206.83 212.273 204.443 210.315 202.285 208.119C204.524 213.272 205.579 218.861 205.373 224.475C205.166 230.089 203.704 235.585 201.093 240.56C197.001 248.282 193.043 253.811 189.328 256.991C177.427 267.175 162.085 272.429 146.439 271.677C130.794 270.925 116.026 264.225 105.156 252.947Z" fill="#E6E6E6"/>
<path d="M170.521 369.122C170.787 369.122 171.044 369.026 171.245 368.851C171.446 368.677 171.577 368.436 171.614 368.172C171.661 367.842 176.263 334.653 172.13 290.544C168.313 249.808 156.056 191.133 119.338 142.945C119.25 142.829 119.14 142.732 119.015 142.658C118.889 142.585 118.75 142.537 118.606 142.518C118.462 142.498 118.316 142.507 118.175 142.544C118.035 142.582 117.903 142.646 117.787 142.734C117.672 142.822 117.574 142.932 117.501 143.058C117.428 143.184 117.381 143.322 117.361 143.466C117.342 143.61 117.351 143.757 117.389 143.897C117.426 144.038 117.49 144.17 117.579 144.285C153.98 192.057 166.138 250.301 169.928 290.75C174.037 334.603 169.471 367.533 169.425 367.861C169.403 368.018 169.414 368.177 169.459 368.329C169.504 368.481 169.581 368.622 169.685 368.742C169.789 368.861 169.917 368.957 170.062 369.023C170.206 369.088 170.363 369.122 170.521 369.122Z" fill="#3F3D56"/>
<path d="M140.56 210.923C140.794 210.923 141.021 210.849 141.211 210.712C141.4 210.575 141.54 210.381 141.613 210.159C141.685 209.937 141.685 209.698 141.613 209.476C141.541 209.253 141.4 209.06 141.211 208.922C141.078 208.826 127.645 199.147 107.564 191.794C89 184.998 60.771 178.836 31.7096 188.086C31.571 188.13 31.4425 188.2 31.3312 188.294C31.22 188.387 31.1284 188.502 31.0615 188.631C30.9946 188.76 30.9538 188.901 30.9415 189.046C30.9292 189.191 30.9455 189.337 30.9896 189.475C31.0336 189.614 31.1046 189.742 31.1984 189.853C31.2922 189.964 31.4069 190.056 31.5361 190.122C31.6652 190.189 31.8063 190.23 31.9512 190.242C32.096 190.254 32.2418 190.237 32.3803 190.193C60.8462 181.134 88.5636 187.193 106.803 193.871C126.598 201.119 139.78 210.617 139.911 210.712C140.1 210.849 140.327 210.923 140.56 210.923Z" fill="#3F3D56"/>
<path d="M191.168 84.866C191.185 84.6331 191.128 84.4007 191.005 84.2022C190.882 84.0038 190.699 83.8494 190.483 83.7613C190.266 83.6732 190.028 83.6559 189.801 83.7119C189.574 83.7678 189.371 83.8941 189.22 84.0727C189.114 84.1986 178.493 96.8993 169.713 116.399C161.598 134.425 153.419 162.137 160.552 191.789C160.62 192.074 160.799 192.321 161.049 192.474C161.3 192.627 161.6 192.674 161.885 192.606C162.17 192.537 162.417 192.358 162.57 192.108C162.723 191.858 162.77 191.557 162.702 191.272C155.716 162.228 163.756 135.019 171.73 117.307C180.385 98.0856 190.807 85.622 190.911 85.4983C191.062 85.3202 191.152 85.0988 191.168 84.866Z" fill="#3F3D56"/>
<path d="M189.675 141.887C190.608 149.415 195.824 155.622 203.409 155.622C207.052 155.622 210.545 154.175 213.121 151.599C215.696 149.023 217.143 145.53 217.143 141.887C217.143 134.302 210.962 128.854 203.409 128.153C195.395 127.409 188.477 132.223 189.675 141.887Z" fill="#2F2E41"/>
<path d="M209.767 363.08L214.997 363.08L217.485 342.906L209.766 342.907L209.767 363.08Z" fill="#FFB6B6"/>
<path d="M209.586 368.537L225.67 368.536V368.333C225.67 366.672 225.01 365.08 223.836 363.906C222.662 362.732 221.07 362.073 219.41 362.073H219.409L216.471 359.844L210.99 362.073L209.586 362.073L209.586 368.537Z" fill="#2F2E41"/>
<path d="M189.165 363.08L194.395 363.08L196.883 342.906L189.164 342.907L189.165 363.08Z" fill="#FFB6B6"/>
<path d="M188.985 368.537L205.068 368.536V368.333C205.068 366.672 204.408 365.08 203.234 363.906C202.06 362.732 200.468 362.073 198.808 362.073H198.808L195.87 359.844L190.388 362.073L188.984 362.073L188.985 368.537Z" fill="#2F2E41"/>
<path d="M227.767 236.728L231.464 249.406L227.108 303.099C227.108 303.099 229.351 306.456 227.767 306.456C226.182 306.456 224.15 307.201 225.43 309.206C226.71 311.21 222.334 318.408 222.334 318.408L216.145 356.639L208.259 356.523C208.259 356.523 204.25 354.289 206.5 352.031C208.75 349.772 210.335 349.772 208.222 347.659C206.109 345.546 206.109 346.183 206.109 344.544C206.109 342.905 203.992 322.878 209.012 315.195L207.499 283.873L203.936 314.596L196.6 355.583L189.003 355.52C189.003 355.52 185.494 352.138 185.501 349.635C185.507 347.131 187.669 346.923 186.06 345.442C184.451 343.962 184.451 321.214 189.205 308.569C189.205 308.569 191.894 301.504 189.199 299.084C186.503 296.663 189.195 293.893 189.195 293.893C189.195 293.893 193.465 292.35 189.192 287.903C184.919 283.457 189.168 252.01 189.168 252.01C189.168 252.01 184.497 239.315 189.228 234.324C193.959 229.333 227.767 236.728 227.767 236.728Z" fill="#2F2E41"/>
<path d="M161.909 258.569L168.506 242.625L173.704 245.513L170.565 261.731C170.88 262.759 170.901 263.854 170.627 264.893C170.354 265.932 169.795 266.874 169.016 267.613C168.236 268.353 167.265 268.86 166.213 269.078C165.161 269.295 164.069 269.216 163.059 268.847C162.05 268.478 161.164 267.835 160.5 266.99C159.836 266.145 159.421 265.132 159.301 264.064C159.182 262.996 159.363 261.916 159.823 260.945C160.284 259.974 161.006 259.151 161.909 258.569Z" fill="#FFB6B6"/>
<path d="M272.611 132.494L262.572 146.528L258.164 142.538L264.896 127.452C264.823 126.38 265.05 125.309 265.552 124.359C266.054 123.409 266.811 122.617 267.738 122.074C268.665 121.531 269.726 121.257 270.8 121.283C271.874 121.309 272.92 121.634 273.819 122.222C274.719 122.81 275.436 123.637 275.891 124.611C276.347 125.584 276.521 126.665 276.396 127.732C276.27 128.799 275.849 129.81 275.181 130.652C274.512 131.493 273.622 132.131 272.611 132.494Z" fill="#FFB6B6"/>
<path d="M228.76 238.025C235.271 248.124 202.543 260.941 189.985 255.795C187.786 254.894 180.221 251.918 185.392 247.793C190.562 243.667 184.792 243.086 184.656 240.4C184.565 238.605 185.955 234.666 184.504 234.835C183.054 235.004 181.356 232.52 184.515 231.452C187.674 230.383 184.549 229.409 184.577 228.394C184.879 217.325 193.372 199.718 193.372 199.718L178.068 238.838C178.068 238.838 178.181 245.606 176.23 243.538C174.278 241.469 174.42 248.163 174.42 248.163C174.42 248.163 171.518 250.189 173.187 251.316C174.856 252.443 171.39 255.908 171.39 255.908L163.305 255.33C163.305 255.33 163.431 249.324 164.812 247.996C166.192 246.667 165.514 244.577 165.514 244.577C165.514 244.577 169.109 241.395 166.699 238.812C163.6 235.489 174.9 179.368 178.799 179.924C179.35 177.241 180.633 174.763 182.505 172.763C184.377 170.763 186.765 169.32 189.406 168.593L198.139 166.188L199.69 160.035H211.987L214.129 164.078L223.478 168.297C225.239 165.812 226.554 163.194 233.765 162.346C233.765 162.346 253.196 144.667 252.247 143.286C251.298 141.906 254.31 138.674 254.31 138.674C254.31 138.674 256.883 137.832 255.431 137.383C253.98 136.933 256.723 135.894 256.723 135.894C256.723 135.894 259.264 135.226 258.066 134.347C256.867 133.468 262.065 132.891 262.065 132.891L268.809 138.393L267.446 140.705C267.446 140.705 268.277 143.852 267.193 142.703C266.108 141.554 265.904 144.888 265.904 144.888C265.904 144.888 265.35 148.539 262.065 149.639C258.78 150.74 256.29 161.19 256.29 161.19C248.543 171.263 239.401 179.12 228.567 184.292C232.79 189.139 228.76 238.025 228.76 238.025Z" fill="#3ACAAF"/>
<path d="M204.929 156.436C211.655 156.436 217.108 150.983 217.108 144.257C217.108 137.531 211.655 132.078 204.929 132.078C198.203 132.078 192.75 137.531 192.75 144.257C192.75 150.983 198.203 156.436 204.929 156.436Z" fill="#FFB6B6"/>
<path d="M192.315 145.581C192.701 148.227 194.956 151.92 194.428 151.92C193.9 151.92 190.144 141.01 193.9 140.298C196.624 139.782 197.233 140.235 199.779 139.131L199.42 139.469C201.105 140.694 203.45 139.939 205.373 139.141C207.301 138.349 209.641 137.594 211.332 138.814C212.394 139.58 212.843 140.911 213.503 142.041C214.163 143.177 215.383 144.249 216.641 143.901C217.65 143.621 218.231 142.49 218.225 141.444C218.22 140.399 216.858 139.404 217.317 138.465C218.676 135.684 217.454 133.789 214.491 132.48C213.413 132.316 212.335 132.149 211.258 131.978C211.822 131.196 212.507 130.508 213.286 129.939C212.957 129.095 212.388 128.366 211.649 127.842C210.788 127.33 209.721 127.367 208.722 127.42C206.493 127.536 204.266 127.652 202.04 127.768C200.392 127.853 198.686 127.953 197.212 128.708C195.374 129.654 194.169 131.498 193.292 133.373C191.327 137.588 191.639 140.98 192.315 145.581Z" fill="#2F2E41"/>
<path d="M141.652 369.906L261.432 370.069C261.599 370.069 261.759 370.002 261.876 369.885C261.994 369.767 262.061 369.607 262.061 369.44C262.061 369.273 261.994 369.113 261.876 368.995C261.759 368.877 261.599 368.811 261.432 368.811L141.652 368.648C141.486 368.648 141.326 368.715 141.208 368.833C141.09 368.951 141.023 369.111 141.023 369.277C141.023 369.444 141.09 369.604 141.208 369.722C141.326 369.84 141.486 369.906 141.652 369.906Z" fill="#CACACA"/>
<path d="M98.3314 315.081C98.5522 313.564 96.9627 312.076 94.7811 311.759C92.5995 311.441 90.6519 312.414 90.4311 313.932C90.2103 315.449 91.7998 316.937 93.9814 317.254C96.1631 317.572 98.1106 316.599 98.3314 315.081Z" fill="#E6E6E6"/>
<path d="M124.3 312.542C124.521 311.025 122.931 309.537 120.75 309.22C118.568 308.902 116.621 309.875 116.4 311.393C116.179 312.91 117.769 314.398 119.95 314.715C122.132 315.033 124.079 314.06 124.3 312.542Z" fill="#3F3D56"/>
<path d="M91.2142 294.05C91.435 292.532 89.8455 291.045 87.6639 290.727C85.4822 290.41 83.5347 291.383 83.3139 292.9C83.0931 294.418 84.6826 295.906 86.8642 296.223C89.0458 296.541 90.9934 295.568 91.2142 294.05Z" fill="#FF6584"/>
<path d="M79.9274 285.434C79.9379 284.04 79.1608 282.905 78.1915 282.898C77.2223 282.89 76.428 284.014 76.4175 285.407C76.407 286.8 77.1842 287.936 78.1534 287.943C79.1226 287.95 79.9169 286.827 79.9274 285.434Z" fill="#E6E6E6"/>
<path d="M76.0993 269.394C76.1098 268.001 75.3326 266.866 74.3634 266.858C73.3942 266.851 72.5999 267.975 72.5894 269.368C72.5789 270.761 73.356 271.897 74.3253 271.904C75.2945 271.911 76.0887 270.788 76.0993 269.394Z" fill="#3F3D56"/>
<path d="M105.865 297.629C105.875 296.236 105.098 295.1 104.129 295.093C103.16 295.085 102.366 296.209 102.355 297.602C102.344 298.996 103.122 300.131 104.091 300.138C105.06 300.146 105.854 299.022 105.865 297.629Z" fill="#E6E6E6"/>
<path d="M93.3102 303.894C93.3207 302.501 92.5435 301.366 91.5743 301.358C90.6051 301.351 89.8109 302.475 89.8003 303.868C89.7898 305.261 90.5669 306.397 91.5362 306.404C92.5054 306.411 93.2997 305.288 93.3102 303.894Z" fill="#FF6584"/>
<path d="M110.787 315.48C110.797 314.087 110.02 312.952 109.051 312.944C108.082 312.937 107.287 314.061 107.277 315.454C107.266 316.847 108.044 317.983 109.013 317.99C109.982 317.997 110.776 316.874 110.787 315.48Z" fill="#3F3D56"/>
<path d="M298.003 233.73C298.224 232.212 296.635 230.724 294.453 230.407C292.271 230.09 290.324 231.063 290.103 232.58C289.882 234.098 291.472 235.585 293.653 235.903C295.835 236.22 297.782 235.247 298.003 233.73Z" fill="#E6E6E6"/>
<path d="M323.98 231.191C324.201 229.673 322.611 228.185 320.429 227.868C318.248 227.551 316.3 228.523 316.08 230.041C315.859 231.559 317.448 233.046 319.63 233.364C321.811 233.681 323.759 232.708 323.98 231.191Z" fill="#3F3D56"/>
<path d="M290.894 212.698C291.115 211.181 289.525 209.693 287.344 209.376C285.162 209.058 283.214 210.031 282.994 211.549C282.773 213.067 284.362 214.554 286.544 214.872C288.726 215.189 290.673 214.216 290.894 212.698Z" fill="#FF6584"/>
<path d="M279.607 204.09C279.618 202.696 278.84 201.561 277.871 201.554C276.902 201.546 276.108 202.67 276.097 204.063C276.087 205.456 276.864 206.592 277.833 206.599C278.802 206.607 279.597 205.483 279.607 204.09Z" fill="#E6E6E6"/>
<path d="M275.779 188.043C275.789 186.65 275.012 185.514 274.043 185.507C273.074 185.5 272.28 186.623 272.269 188.016C272.259 189.41 273.036 190.545 274.005 190.552C274.974 190.56 275.768 189.436 275.779 188.043Z" fill="#3F3D56"/>
<path d="M305.545 216.277C305.555 214.884 304.778 213.749 303.809 213.741C302.839 213.734 302.045 214.857 302.035 216.251C302.024 217.644 302.801 218.779 303.771 218.787C304.74 218.794 305.534 217.671 305.545 216.277Z" fill="#E6E6E6"/>
<path d="M292.99 222.543C293 221.15 292.223 220.014 291.254 220.007C290.285 220 289.491 221.123 289.48 222.516C289.469 223.91 290.247 225.045 291.216 225.052C292.185 225.06 292.979 223.936 292.99 222.543Z" fill="#FF6584"/>
<path d="M310.466 234.129C310.477 232.736 309.7 231.6 308.731 231.593C307.761 231.586 306.967 232.709 306.957 234.102C306.946 235.496 307.723 236.631 308.692 236.638C309.662 236.646 310.456 235.522 310.466 234.129Z" fill="#3F3D56"/>
<path d="M201.339 83.175C201.56 81.6573 199.97 80.1697 197.789 79.8523C195.607 79.5349 193.66 80.5078 193.439 82.0255C193.218 83.5431 194.808 85.0308 196.989 85.3482C199.171 85.6656 201.118 84.6926 201.339 83.175Z" fill="white"/>
<path d="M227.308 80.6437C227.529 79.1261 225.939 77.6385 223.758 77.3211C221.576 77.0037 219.628 77.9766 219.408 79.4943C219.187 81.0119 220.776 82.4995 222.958 82.8169C225.14 83.1343 227.087 82.1614 227.308 80.6437Z" fill="#3F3D56"/>
<path d="M194.222 62.1515C194.443 60.6339 192.853 59.1463 190.672 58.8289C188.49 58.5114 186.543 59.4844 186.322 61.002C186.101 62.5197 187.69 64.0073 189.872 64.3247C192.054 64.6422 194.001 63.6692 194.222 62.1515Z" fill="#FF6584"/>
<path d="M182.935 53.5351C182.946 52.1418 182.169 51.0064 181.199 50.9991C180.23 50.9917 179.436 52.1153 179.425 53.5085C179.415 54.9018 180.192 56.0372 181.161 56.0445C182.13 56.0518 182.925 54.9283 182.935 53.5351Z" fill="#E6E6E6"/>
<path d="M179.107 37.496C179.118 36.1027 178.34 34.9673 177.371 34.96C176.402 34.9527 175.608 36.0762 175.597 37.4695C175.587 38.8627 176.364 39.9981 177.333 40.0055C178.302 40.0128 179.097 38.8893 179.107 37.496Z" fill="#3F3D56"/>
<path d="M208.873 65.7304C208.883 64.3371 208.106 63.2017 207.137 63.1944C206.168 63.1871 205.373 64.3106 205.363 65.7038C205.352 67.0971 206.129 68.2325 207.099 68.2398C208.068 68.2472 208.862 67.1236 208.873 65.7304Z" fill="#E6E6E6"/>
<path d="M196.318 71.996C196.329 70.6027 195.551 69.4674 194.582 69.46C193.613 69.4527 192.819 70.5762 192.808 71.9695C192.798 73.3627 193.575 74.4981 194.544 74.5055C195.513 74.5128 196.307 73.3893 196.318 71.996Z" fill="#FF6584"/>
<path d="M213.795 83.5819C213.805 82.1887 213.028 81.0533 212.059 81.046C211.089 81.0386 210.295 82.1621 210.285 83.5554C210.274 84.9487 211.051 86.0841 212.021 86.0914C212.99 86.0987 213.784 84.9752 213.795 83.5819Z" fill="#3F3D56"/>
</g>
<defs>
<clipPath id="clip0_346_5969">
<rect width="324" height="370.067" fill="white"/>
</clipPath>
</defs>
</svg>
