<svg width="108" height="76" viewBox="0 0 108 76" fill="none" xmlns="http://www.w3.org/2000/svg">
<path d="M72.7734 0.5H58.3929C57.0536 0.5 55.7645 1.08594 54.7768 2.14063L38.3203 19.7187C38.3036 19.7383 38.2868 19.7773 38.2701 19.7969C35.4911 22.8437 35.5413 27.707 37.9185 30.7344C40.0446 33.4492 44.5145 34.1719 47.3103 31.2617C47.327 31.2422 47.3605 31.2422 47.3772 31.2227L60.7533 16.9258C61.8415 15.7734 63.5491 15.8516 64.5368 17.1211C65.5413 18.3906 65.4576 20.3633 64.3694 21.5352L60 26.2031L84.375 49.2891C84.8605 49.7578 85.2958 50.2656 85.6975 50.793V13L76.5569 2.33594C75.5692 1.16406 74.1964 0.5 72.7734 0.5ZM91.0714 13.0391V56.7695C91.0714 60.2266 93.4654 63.0195 96.4286 63.0195H107.143V13.0391H91.0714ZM99.1071 56.7695C97.6339 56.7695 96.4286 55.3633 96.4286 53.6445C96.4286 51.9258 97.6339 50.5195 99.1071 50.5195C100.58 50.5195 101.786 51.9258 101.786 53.6445C101.786 55.3633 100.58 56.7695 99.1071 56.7695ZM0 63H10.7143C13.6775 63 16.0714 60.207 16.0714 56.75V13.0391H0V63ZM8.03571 50.5195C9.50893 50.5195 10.7143 51.9258 10.7143 53.6445C10.7143 55.3633 9.50893 56.7695 8.03571 56.7695C6.5625 56.7695 5.35714 55.3633 5.35714 53.6445C5.35714 51.9062 6.5625 50.5195 8.03571 50.5195ZM81.01 54.1523L56.0156 30.4805L50.9933 35.8516C46.0212 41.1445 38.404 40.6367 33.9676 34.9922C29.4643 29.25 29.8158 20.3633 34.7042 15.1289L48.3984 0.5H34.3694C32.9464 0.5 31.5904 1.16406 30.5859 2.33594L21.4286 13V56.7305H24.4922L39.6429 72.7266C44.2299 77.082 50.9766 76.2617 54.7098 70.9101L54.7433 70.8711L57.74 73.8984C60.4018 76.4375 64.3359 75.9492 66.4955 72.8437L71.7522 65.3047L72.6562 66.1641C74.9498 68.332 78.3315 67.9414 80.1897 65.2461L81.7801 62.9609C83.6551 60.2656 83.3036 56.3398 81.01 54.1523Z" fill="#F5F9FA"/>
</svg>
