<svg width="20" height="19" viewBox="0 0 20 19" fill="none" xmlns="http://www.w3.org/2000/svg">
<path d="M9.99132 6.31476C8.27101 6.31476 6.8671 7.71867 6.8671 9.43898C6.8671 11.1593 8.27101 12.5632 9.99132 12.5632C11.7116 12.5632 13.1155 11.1593 13.1155 9.43898C13.1155 7.71867 11.7116 6.31476 9.99132 6.31476ZM19.3616 9.43898C19.3616 8.14523 19.3734 6.8632 19.3007 5.57179C19.228 4.07179 18.8859 2.74054 17.789 1.64367C16.6898 0.544447 15.3609 0.204603 13.8609 0.131947C12.5671 0.0592909 11.2851 0.0710096 9.99367 0.0710096C8.69992 0.0710096 7.41789 0.0592909 6.12648 0.131947C4.62648 0.204603 3.29523 0.546791 2.19835 1.64367C1.09913 2.74288 0.759291 4.07179 0.686635 5.57179C0.613978 6.86554 0.625697 8.14757 0.625697 9.43898C0.625697 10.7304 0.613978 12.0148 0.686635 13.3062C0.759291 14.8062 1.10148 16.1374 2.19835 17.2343C3.29757 18.3335 4.62648 18.6734 6.12648 18.746C7.42023 18.8187 8.70226 18.8069 9.99367 18.8069C11.2874 18.8069 12.5694 18.8187 13.8609 18.746C15.3609 18.6734 16.6921 18.3312 17.789 17.2343C18.8882 16.1351 19.228 14.8062 19.3007 13.3062C19.3757 12.0148 19.3616 10.7327 19.3616 9.43898ZM9.99132 14.246C7.33117 14.246 5.18429 12.0991 5.18429 9.43898C5.18429 6.77882 7.33117 4.63195 9.99132 4.63195C12.6515 4.63195 14.7984 6.77882 14.7984 9.43898C14.7984 12.0991 12.6515 14.246 9.99132 14.246ZM14.9952 5.55773C14.3741 5.55773 13.8726 5.05617 13.8726 4.43507C13.8726 3.81398 14.3741 3.31242 14.9952 3.31242C15.6163 3.31242 16.1179 3.81398 16.1179 4.43507C16.1181 4.58255 16.0892 4.72862 16.0328 4.86491C15.9765 5.0012 15.8938 5.12504 15.7895 5.22932C15.6852 5.33361 15.5614 5.4163 15.4251 5.47265C15.2888 5.529 15.1427 5.55791 14.9952 5.55773Z" fill="#257E7E"/>
</svg>
