<svg width="30" height="29" viewBox="0 0 30 29" fill="none" xmlns="http://www.w3.org/2000/svg">
<path d="M14.987 10.101C12.4065 10.101 10.3007 12.2069 10.3007 14.7874C10.3007 17.3678 12.4065 19.4737 14.987 19.4737C17.5675 19.4737 19.6733 17.3678 19.6733 14.7874C19.6733 12.2069 17.5675 10.101 14.987 10.101ZM29.0425 14.7874C29.0425 12.8467 29.06 10.9237 28.951 8.98659C28.8421 6.73659 28.3288 4.73972 26.6835 3.0944C25.0346 1.44558 23.0413 0.935811 20.7913 0.826827C18.8507 0.717843 16.9276 0.735421 14.9905 0.735421C13.0499 0.735421 11.1268 0.717843 9.18972 0.826827C6.93972 0.935811 4.94284 1.44909 3.29753 3.0944C1.6487 4.74323 1.13894 6.73659 1.02995 8.98659C0.920968 10.9272 0.938546 12.8503 0.938546 14.7874C0.938546 16.7245 0.920968 18.651 1.02995 20.5882C1.13894 22.8382 1.65222 24.835 3.29753 26.4803C4.94636 28.1292 6.93972 28.6389 9.18972 28.7479C11.1303 28.8569 13.0534 28.8393 14.9905 28.8393C16.9311 28.8393 18.8542 28.8569 20.7913 28.7479C23.0413 28.6389 25.0382 28.1257 26.6835 26.4803C28.3323 24.8315 28.8421 22.8382 28.951 20.5882C29.0635 18.651 29.0425 16.728 29.0425 14.7874ZM14.987 21.9979C10.9967 21.9979 7.77644 18.7776 7.77644 14.7874C7.77644 10.7971 10.9967 7.57683 14.987 7.57683C18.9772 7.57683 22.1975 10.7971 22.1975 14.7874C22.1975 18.7776 18.9772 21.9979 14.987 21.9979ZM22.4928 8.9655C21.5612 8.9655 20.8089 8.21315 20.8089 7.28151C20.8089 6.34987 21.5612 5.59753 22.4928 5.59753C23.4245 5.59753 24.1768 6.34987 24.1768 7.28151C24.1771 7.50274 24.1337 7.72184 24.0492 7.92628C23.9647 8.13071 23.8406 8.31646 23.6842 8.47289C23.5278 8.62932 23.342 8.75335 23.1376 8.83788C22.9332 8.92241 22.7141 8.96578 22.4928 8.9655Z" fill="#23597B"/>
</svg>
