<svg width="100" height="100" viewBox="0 0 100 100" fill="none" xmlns="http://www.w3.org/2000/svg">
<path d="M84.9615 22.5142C78.3315 15.7142 69.1775 11.1762 59.9455 9.06823C58.6121 8.76157 57.2695 8.4949 55.9175 8.26823C35.4415 4.81023 22.9235 22.9962 19.2915 30.8522C15.6595 38.7082 6.11348 55.7222 6.25148 65.8222C6.38948 75.9222 27.6955 93.6222 49.6915 94.1822C71.6875 94.7422 88.9835 82.7002 92.7175 63.8842C94.2935 55.9522 95.9175 47.5502 94.2235 39.4962C92.8235 32.8262 89.4775 27.1462 84.9615 22.5142Z" fill="#3ACAAF"/>
<path opacity="0.7" d="M84.9615 22.5142C78.3315 15.7142 69.1775 11.1762 59.9455 9.06823C58.6121 8.76157 57.2695 8.4949 55.9175 8.26823C35.4415 4.81023 22.9235 22.9962 19.2915 30.8522C15.6595 38.7082 6.11348 55.7222 6.25148 65.8222C6.38948 75.9222 27.6955 93.6222 49.6915 94.1822C71.6875 94.7422 88.9835 82.7002 92.7175 63.8842C94.2935 55.9522 95.9175 47.5502 94.2235 39.4962C92.8235 32.8262 89.4775 27.1462 84.9615 22.5142Z" fill="white"/>
<g opacity="0.15">
<path d="M12.7054 63.4048C13.8314 63.4408 16.1534 62.4548 16.1554 62.4548C16.1574 62.4548 15.0394 61.1208 14.9554 61.0548C14.0134 60.1848 11.6794 59.0548 10.4274 59.7608C9.52541 60.2708 9.37541 61.4348 9.94741 62.2468C10.5194 63.0588 11.7474 63.3648 12.7054 63.4048Z" fill="black"/>
<path d="M16.2176 69.8597C17.2696 69.6097 19.1196 68.1697 19.2656 68.0597C20.0869 69.1175 20.9775 70.1197 21.9316 71.0597C22.4856 71.6117 23.0596 72.1497 23.6416 72.6817C23.3396 72.4817 23.0676 72.2997 23.0276 72.2817C21.8876 71.6917 19.3396 71.2177 18.3196 72.2297C17.5836 72.9577 17.7456 74.1217 18.5196 74.7537C19.2936 75.3857 20.5536 75.3737 21.4856 75.1537C22.4176 74.9337 24.0316 73.7317 24.4516 73.4097L25.1276 74.0097C26.2136 74.9737 27.2996 75.9317 28.3376 76.9037C28.7036 77.2477 29.0516 77.5977 29.4016 77.9477C29.1336 77.7677 28.9056 77.6177 28.8676 77.5977C27.7296 76.9977 25.1816 76.5337 24.1596 77.5457C23.4236 78.2737 23.5876 79.4377 24.3596 80.0697C25.1316 80.7017 26.3916 80.6897 27.3236 80.4697C28.2556 80.2497 29.7236 79.1637 30.2156 78.7837C30.5636 79.1517 30.9116 79.5217 31.2296 79.8937C31.4436 80.1537 31.6656 80.3897 31.8636 80.6617L32.4636 81.4517C32.8276 81.9677 33.2076 82.4977 33.5496 83.0097C33.7896 83.3637 34.0136 83.7077 34.2376 84.0517C33.8776 83.7057 33.1596 83.0517 33.0916 82.9957C32.0556 82.2397 29.6096 81.3957 28.4456 82.2317C27.6096 82.8317 27.5936 84.0157 28.2556 84.7557C28.9176 85.4957 30.1696 85.6777 31.1256 85.5977C32.1776 85.5117 34.1476 84.4237 34.3936 84.2857C34.7656 84.8557 35.1216 85.4137 35.4476 85.9477C35.7436 86.4237 36.0156 86.8777 36.2736 87.3137L37.1096 86.9817C36.8176 86.5077 36.5096 86.0137 36.1676 85.4917C35.7936 84.9117 35.3816 84.2917 34.9516 83.6717C35.4774 83.173 35.9729 82.6434 36.4356 82.0857C37.4136 82.5537 39.5096 82.7237 39.7796 82.7437C39.7796 83.4237 39.7636 84.0857 39.7436 84.7117C39.7296 85.1417 39.7136 85.5537 39.6956 85.9517L40.5816 85.5997C40.5816 85.3157 40.5916 85.0277 40.5936 84.7277C40.5936 84.0377 40.5936 83.2977 40.5936 82.5397C40.8656 82.4917 43.0876 82.0917 43.9596 81.4937C44.7496 80.9517 45.6056 80.0417 45.6536 79.0277C45.7016 78.0137 44.9456 77.1337 43.9116 77.1917C42.4756 77.2697 41.1116 79.4757 40.7916 80.7177C40.7716 80.7917 40.6516 81.6097 40.5916 82.1177C40.5916 81.8077 40.5916 81.5077 40.5696 81.1877C40.5536 80.5577 40.5176 79.9277 40.4816 79.2517C40.4516 78.9237 40.4236 78.5957 40.3936 78.2617C40.3636 77.9277 40.3056 77.5837 40.2636 77.2417C40.1476 76.4417 39.9916 75.6557 39.8176 74.8557C40.3696 74.8397 42.3316 74.7537 43.1976 74.3357C44.0636 73.9177 45.0456 73.1497 45.2456 72.1537C45.4456 71.1577 44.8336 70.1757 43.8016 70.0757C42.3716 69.9357 40.6936 71.9117 40.1836 73.0897C40.1516 73.1617 39.8816 74.0477 39.7416 74.5377C39.6336 74.0577 39.5276 73.5797 39.4016 73.0977C39.0376 71.7097 38.6276 70.3137 38.2236 68.9217C38.0996 68.4937 37.9816 68.0677 37.8616 67.6417C38.0616 67.6417 40.3916 67.5837 41.3636 67.1157C42.2276 66.6997 43.2116 65.9297 43.4116 64.9357C43.6116 63.9417 42.9996 62.9577 41.9676 62.8577C40.5376 62.7177 38.8596 64.6917 38.3496 65.8697C38.3116 65.9577 37.9236 67.2337 37.8396 67.5637C37.5756 66.6237 37.3216 65.6837 37.1096 64.7477C36.8152 63.4855 36.6034 62.2054 36.4756 60.9157C36.5656 60.9157 39.0016 60.8717 39.9976 60.3917C40.8596 59.9757 41.8456 59.2057 42.0436 58.2097C42.2416 57.2137 41.6316 56.2317 40.6016 56.1317C39.1716 55.9917 37.4936 57.9677 36.9836 59.1437C36.9436 59.2377 36.5256 60.6097 36.4676 60.8637C36.4676 60.7897 36.4456 60.7117 36.4396 60.6377C36.3472 59.3409 36.37 58.0384 36.5076 56.7457C36.5756 56.0297 36.6796 55.3457 36.7956 54.6917C37.2496 54.7297 39.3296 54.8817 40.2716 54.5497C41.1756 54.2297 42.2396 53.5737 42.5456 52.6057C42.8516 51.6377 42.3456 50.5937 41.3456 50.3817C39.9456 50.0857 38.0556 51.8637 37.4196 52.9817C37.3836 53.0417 37.1016 53.6957 36.9016 54.1817C36.9576 53.8857 37.0116 53.5817 37.0716 53.2957C37.2956 52.2317 37.5656 51.2717 37.8116 50.4237C37.9556 49.9417 38.0956 49.5097 38.2296 49.1077C38.6956 48.9077 40.5616 48.1077 41.2296 47.3857C41.8976 46.6637 42.5256 45.6137 42.3536 44.6137C42.1816 43.6137 41.2536 42.9177 40.2576 43.1937C38.8736 43.5797 38.0196 46.0277 37.9696 47.3097C37.9696 47.4197 38.0936 49.1617 38.1176 49.1517L38.1476 49.1397C38.0096 49.5257 37.8656 49.9397 37.7196 50.3957C37.4536 51.2417 37.1616 52.1957 36.9196 53.2597C36.6401 54.4023 36.4277 55.5602 36.2836 56.7277C36.116 58.0339 36.0644 59.3524 36.1296 60.6677C36.1296 60.6817 36.1296 60.6977 36.1296 60.7137C35.9816 60.3137 35.5296 59.2337 35.4836 59.1537C34.8596 58.0317 32.9956 56.2317 31.5856 56.5117C30.5696 56.7117 30.0636 57.7737 30.3556 58.7237C30.6476 59.6737 31.7076 60.3637 32.6076 60.6917C33.6236 61.0617 35.9596 60.8817 36.1456 60.8677C36.2461 62.2041 36.4352 63.5323 36.7116 64.8437C36.8696 65.6097 37.0516 66.3757 37.2436 67.1397C37.1036 66.8037 36.9756 66.5037 36.9536 66.4637C36.3296 65.3417 34.4656 63.5437 33.0556 63.8237C32.0396 64.0237 31.5336 65.0857 31.8256 66.0237C32.1176 66.9617 33.1776 67.6637 34.0776 67.9917C34.9776 68.3197 36.9876 68.2117 37.5136 68.1757C37.5916 68.4677 37.6636 68.7617 37.7416 69.0537C38.1156 70.4537 38.4936 71.8537 38.8236 73.2397C38.9396 73.7277 39.0376 74.2117 39.1356 74.6957C39.0116 74.3977 38.9036 74.1477 38.8836 74.1117C38.2596 72.9897 36.3936 71.1897 34.9856 71.4697C33.9696 71.6697 33.4636 72.7317 33.7536 73.6817C34.0436 74.6317 35.1076 75.3197 36.0076 75.6497C36.9076 75.9797 38.7216 75.8797 39.3496 75.8377C39.4356 76.3377 39.5216 76.8377 39.5816 77.3257C39.6156 77.6577 39.6716 77.9777 39.6876 78.3137C39.7036 78.6497 39.7316 78.9777 39.7536 79.3137C39.7736 79.9437 39.7956 80.5957 39.7996 81.2117C39.7996 81.6397 39.7996 82.0477 39.7996 82.4597C39.6896 81.9737 39.4536 81.0257 39.4256 80.9477C38.9937 79.905 38.3016 78.9906 37.4156 78.2917C37.3714 78.1733 37.3172 78.0589 37.2536 77.9497C36.7456 77.0977 35.6196 76.7617 34.7876 77.3797C33.6356 78.2357 33.7176 80.8277 34.1316 82.0417C34.1556 82.1137 34.5076 82.8617 34.7316 83.3297C34.5556 83.0757 34.3876 82.8257 34.2016 82.5657C33.8396 82.0497 33.4616 81.5437 33.0596 80.9997L32.4396 80.2237C32.2396 79.9597 31.9936 79.7057 31.7696 79.4437C31.2356 78.8437 30.6676 78.2697 30.0816 77.7017C30.5336 77.3817 32.1196 76.2277 32.6136 75.4017C33.1076 74.5757 33.4996 73.3917 33.1176 72.4517C32.7356 71.5117 31.6816 71.0297 30.7676 71.5137C29.4976 72.1877 29.1876 74.7597 29.4116 76.0237C29.4256 76.1017 29.6876 76.9917 29.8416 77.4757C29.4876 77.1377 29.1336 76.7957 28.7636 76.4637C27.6956 75.5057 26.5836 74.5677 25.4776 73.6297C25.1396 73.3417 24.8056 73.0497 24.4776 72.7617C24.6396 72.6497 26.5576 71.3177 27.1096 70.3917C27.5996 69.5677 27.9956 68.3917 27.6136 67.4437C27.2316 66.4957 26.1776 66.0197 25.2636 66.5057C23.9936 67.1777 23.6836 69.7517 23.9076 71.0137C23.9236 71.1097 24.3076 72.3877 24.4176 72.7077C23.6776 72.0697 22.9476 71.4277 22.2536 70.7637C21.3123 69.8731 20.4298 68.9224 19.6116 67.9177C19.6876 67.8657 21.6936 66.4857 22.2596 65.5357C22.7496 64.7137 23.1456 63.5357 22.7636 62.5877C22.3816 61.6397 21.3276 61.1657 20.4136 61.6497C19.1436 62.3217 18.8336 64.8957 19.0576 66.1597C19.0756 66.2577 19.4836 67.6337 19.5756 67.8777C19.5296 67.8177 19.4736 67.7637 19.4276 67.7037C18.6346 66.6733 17.9352 65.5743 17.3376 64.4197C16.9996 63.7857 16.7116 63.1617 16.4436 62.5477C16.8436 62.3297 18.6616 61.3097 19.2656 60.5117C19.8436 59.7477 20.3676 58.6137 20.0916 57.6377C19.8156 56.6617 18.8196 56.0657 17.8576 56.4377C16.5216 56.9677 15.9316 59.4917 16.0156 60.7717C16.0156 60.8417 16.1436 61.5437 16.2416 62.0537C16.1256 61.7757 16.0016 61.4897 15.8956 61.2197C15.4956 60.2097 15.1896 59.2597 14.9276 58.4197C14.7816 57.9377 14.6596 57.4997 14.5516 57.0897C14.8316 56.6697 15.9516 54.9657 16.1056 53.9977C16.2596 53.0297 16.2096 51.7977 15.5056 51.0657C14.8016 50.3337 13.6536 50.2657 12.9756 51.0377C12.0336 52.1237 12.6716 54.6377 13.3356 55.7337C13.3936 55.8277 14.4636 57.2077 14.4776 57.1857L14.4936 57.1617C14.5916 57.5617 14.6936 57.9837 14.8296 58.4457C15.0756 59.2957 15.3596 60.2557 15.7396 61.2777C16.1363 62.3845 16.5978 63.467 17.1216 64.5197C17.7011 65.7023 18.3852 66.8308 19.1656 67.8917C19.1656 67.9037 19.1876 67.9157 19.1956 67.9277C18.8556 67.6817 17.8776 67.0257 17.7956 66.9837C16.6576 66.3837 14.1096 65.9197 13.0876 66.9317C12.3516 67.6597 12.5156 68.8217 13.2876 69.4537C14.0596 70.0857 15.2856 70.0837 16.2176 69.8597Z" fill="black"/>
<path d="M36.6154 54.4708C36.6414 54.4708 36.4153 52.7428 36.3953 52.6368C36.0894 51.3908 34.7674 49.1608 33.3334 49.0588C32.3014 48.9868 31.5333 49.8748 31.5633 50.8588C31.5933 51.8428 32.4334 52.7968 33.2154 53.3528C34.1334 54.0128 36.6134 54.4708 36.6154 54.4708Z" fill="black"/>
</g>
<g opacity="0.15">
<path d="M93.0991 56.5435C92.0611 56.9795 89.5411 56.8835 89.5391 56.8835C89.5371 56.8835 90.1051 55.2395 90.1551 55.1415C90.7271 53.9915 92.5051 52.1075 93.9271 52.3215C94.9511 52.4755 95.5051 53.5115 95.2591 54.4735C95.0131 55.4355 93.9831 56.1735 93.0991 56.5435Z" fill="black"/>
<path d="M64.2223 58.0789C65.2223 58.0549 67.1103 57.1729 67.5223 56.9749C67.8643 57.5489 68.2043 58.1489 68.5223 58.7929C69.1108 59.9501 69.5947 61.1575 69.9683 62.4009C69.9903 62.4729 70.0023 62.5489 70.0223 62.6229C69.8783 62.4049 69.0003 61.2709 68.9303 61.1989C68.0343 60.2789 65.7643 59.0289 64.4763 59.6689C63.5503 60.1289 63.3383 61.2849 63.8763 62.1249C64.4143 62.9649 65.6103 63.3529 66.5643 63.4349C67.6643 63.5289 69.9643 62.7049 70.0423 62.6729C70.3813 63.9214 70.6385 65.1908 70.8123 66.4729C70.9463 67.4229 71.0423 68.3909 71.1303 69.3629C70.9303 69.0849 70.1183 68.0309 70.0523 67.9629C69.1563 67.0429 66.8863 65.7929 65.5983 66.4329C64.6703 66.8929 64.4603 68.0489 64.9883 68.8889C65.5163 69.7289 66.7223 70.1169 67.6783 70.1989C68.7523 70.2909 70.9523 69.5109 71.1363 69.4449C71.1763 69.8849 71.2183 70.3269 71.2543 70.7689C71.3723 72.2149 71.4843 73.6649 71.6403 75.0929C71.6923 75.5869 71.7643 76.0709 71.8403 76.5589C71.5363 76.1589 70.9683 75.4189 70.9123 75.3589C70.0163 74.4409 67.7463 73.1909 66.4583 73.8289C65.5323 74.2889 65.3203 75.4449 65.8583 76.2869C66.3963 77.1289 67.5923 77.5149 68.5463 77.5969C69.5003 77.6789 71.3703 77.0629 71.8923 76.8809C72.0123 77.6809 72.1503 78.4809 72.3223 79.2689C72.4043 79.6049 72.4663 79.9529 72.5643 80.2689C72.6623 80.5849 72.7443 80.9089 72.8343 81.2249C73.0343 81.8709 73.2343 82.4709 73.4343 83.0669C73.5383 83.3689 73.6343 83.6509 73.7463 83.9429C73.5003 83.4829 73.0963 82.7629 73.0523 82.7009C72.3063 81.6569 70.2523 80.0769 68.8823 80.5129C67.8963 80.8289 67.5123 81.9389 67.9083 82.8489C68.3043 83.7589 69.4363 84.3269 70.3683 84.5529C71.3943 84.8009 73.6143 84.3849 73.8843 84.3329C74.1423 85.0469 74.4003 85.7329 74.6543 86.3829C74.7623 86.6609 74.8703 86.9289 74.9763 87.1829L75.9283 87.1989C75.7703 86.8329 75.6083 86.4529 75.4423 86.0549C75.2023 85.4789 74.9543 84.8649 74.7083 84.2289C74.9543 84.1149 76.8523 83.2109 77.6003 82.4289C78.232 82.7843 78.8838 83.1028 79.5523 83.3829C79.3723 84.1209 79.2063 84.8409 79.0623 85.5169C78.9323 86.1169 78.8163 86.6969 78.7103 87.2429H79.0623H79.6023C79.6883 86.7449 79.7823 86.2269 79.8863 85.6809C80.0043 85.0649 80.1363 84.4169 80.2863 83.7509C80.5643 83.7929 82.7943 84.1089 83.8063 83.8169C84.7283 83.5509 85.8263 82.9549 86.1903 82.0169C86.5543 81.0789 86.1143 79.9969 85.1143 79.7249C83.7263 79.3489 81.7423 81.0169 81.0443 82.0929C80.9983 82.1609 80.5603 83.0349 80.3463 83.4929C80.4363 83.0929 80.5223 82.6929 80.6223 82.2749C80.7603 81.6749 80.9243 81.0449 81.0823 80.4329L81.3623 79.4809C81.4523 79.1549 81.5763 78.8569 81.6823 78.5389C81.8483 78.0769 82.0423 77.6069 82.2363 77.1389C82.8363 77.3169 84.6183 77.8069 85.5383 77.6869C86.4583 77.5669 87.6643 77.1429 88.1663 76.2609C88.6683 75.3789 88.3983 74.2609 87.4503 73.8329C86.1363 73.2509 83.9243 74.5989 83.0683 75.5569C83.0403 75.5869 82.8823 75.8089 82.6943 76.0729C82.8943 75.6209 83.0943 75.1689 83.3183 74.7189C83.9423 73.4409 84.6183 72.1589 85.2903 70.8709C85.4303 70.6029 85.5663 70.3329 85.7043 70.0709C86.2123 70.2229 88.1343 70.7709 89.1043 70.6449C90.0743 70.5189 91.2323 70.0989 91.7323 69.2189C92.2323 68.3389 91.9643 67.2189 91.0163 66.7909C89.7043 66.2089 87.4903 67.5569 86.6343 68.5129C86.6043 68.5489 86.4143 68.8129 86.2043 69.1129C86.5603 68.4069 86.9043 67.7009 87.2243 66.9889C87.7832 65.7697 88.2589 64.5142 88.6483 63.2309C88.8263 63.2869 91.0683 63.9749 92.1403 63.8309C93.0903 63.7069 94.2663 63.2869 94.7683 62.4049C95.2703 61.5229 94.9983 60.4049 94.0523 59.9769C92.7383 59.3949 90.5243 60.7429 89.6703 61.7009C89.6103 61.7689 88.9303 62.7309 88.6983 63.0809L88.7123 63.0369C89.056 61.7697 89.2869 60.4747 89.4023 59.1669C89.5172 57.9966 89.5633 56.8205 89.5403 55.6449C89.5403 54.5529 89.4563 53.5569 89.3823 52.6749C89.3383 52.1969 89.2903 51.7609 89.2403 51.3549L89.2643 51.3729C89.2863 51.3869 89.7943 49.7169 89.8143 49.6089C90.0443 48.3449 89.7483 45.7709 88.4823 45.0909C87.5703 44.6029 86.5063 45.0909 86.1263 46.0169C85.7463 46.9429 86.1263 48.1409 86.6163 48.9669C87.1063 49.7929 88.7583 51.0129 89.1703 51.3049C89.2123 51.7289 89.2543 52.1809 89.2903 52.6809C89.3443 53.5629 89.3963 54.5589 89.3823 55.6449C89.3823 55.9349 89.3643 56.2449 89.3543 56.5489C89.2643 56.0369 89.1323 55.3349 89.1103 55.2689C88.7343 54.0429 87.2843 51.8929 85.8483 51.8689C84.8123 51.8549 84.0963 52.7869 84.1843 53.7769C84.2723 54.7669 85.1663 55.6609 85.9843 56.1769C86.8303 56.7069 88.8923 57.0149 89.3443 57.0769C89.3143 57.7449 89.2663 58.4309 89.1743 59.1429C89.0264 60.4351 88.7634 61.7115 88.3883 62.9569C88.3663 63.0269 88.3343 63.0989 88.3123 63.1709C88.3123 62.9109 88.2043 61.4789 88.1863 61.3809C87.9463 60.1209 86.7423 57.8249 85.3163 57.6489C84.2883 57.5209 83.4743 58.3669 83.4523 59.3609C83.4303 60.3549 84.2203 61.3409 84.9723 61.9369C85.8383 62.6229 88.2043 63.1989 88.2943 63.2209C87.886 64.4512 87.3983 65.6537 86.8343 66.8209C86.4223 67.6869 85.9683 68.5469 85.5043 69.4069C85.5043 69.0669 85.3963 67.7389 85.3783 67.6429C85.1383 66.3829 83.9343 64.0869 82.5083 63.9109C81.4803 63.7829 80.6683 64.6309 80.6443 65.6229C80.6203 66.6149 81.4143 67.6049 82.1663 68.1989C83.0103 68.8689 85.2763 69.4309 85.4663 69.4789C85.2563 69.8689 85.0483 70.2589 84.8323 70.6469C84.1343 71.9189 83.4323 73.1889 82.7703 74.4649C82.5423 74.9069 82.3343 75.3529 82.1223 75.7949C82.0943 75.2869 82.0223 74.3629 82.0083 74.2849C81.7683 73.0249 80.5643 70.7289 79.1383 70.5529C78.1103 70.4249 77.2963 71.2709 77.2743 72.2649C77.2523 73.2589 78.0423 74.2469 78.7943 74.8409C79.5463 75.4349 81.4443 75.9529 81.9783 76.0909C81.6343 76.8309 81.3083 77.5729 81.0203 78.3209C80.9043 78.6449 80.7643 78.9689 80.6703 79.2869L80.3683 80.2309C80.1843 80.8849 80.0123 81.4909 79.8563 82.1029C79.7763 82.4109 79.7083 82.7029 79.6323 83.0049C79.6803 82.4869 79.7423 81.6629 79.7403 81.5869C79.6943 80.3049 78.8523 77.8529 77.4683 77.4629C76.4683 77.1809 75.5403 77.8949 75.3683 78.8729C75.3463 78.9969 75.3363 79.1229 75.3383 79.2489C74.7576 80.2178 74.4353 81.3197 74.4023 82.4489C74.4023 82.5309 74.5203 83.5009 74.5903 83.9949C74.4423 83.6109 74.2943 83.2309 74.1483 82.8269C73.9303 82.2509 73.7223 81.6269 73.5143 81.0369C73.4183 80.7222 73.3216 80.4062 73.2243 80.0889C73.1203 79.7669 73.0583 79.4489 72.9703 79.1249C72.8543 78.6489 72.7583 78.1509 72.6603 77.6529C73.2603 77.4689 75.0163 76.8949 75.7163 76.2889C76.4163 75.6829 77.1903 74.6609 77.1163 73.6489C77.0423 72.6369 76.2023 71.8489 75.1803 72.0189C73.7643 72.2589 72.6603 74.6029 72.4763 75.8729C72.4763 75.9149 72.4583 76.1869 72.4483 76.5089C72.3683 76.0229 72.2863 75.5349 72.2223 75.0389C72.0383 73.6269 71.8943 72.1849 71.7443 70.7409C71.7123 70.4389 71.6783 70.1409 71.6443 69.8389C72.1523 69.6849 74.0563 69.0809 74.7923 68.4389C75.5283 67.7969 76.2643 66.8109 76.1923 65.7989C76.1203 64.7869 75.2763 63.9989 74.2563 64.1689C72.8383 64.4089 71.7363 66.7549 71.5503 68.0249C71.5503 68.0689 71.5323 68.3949 71.5203 68.7589C71.4283 67.9749 71.3203 67.1949 71.2003 66.4249C70.9933 65.1006 70.698 63.7917 70.3163 62.5069C70.4943 62.4549 72.7423 61.7909 73.5603 61.0829C74.2843 60.4569 75.0323 59.4569 74.9603 58.4429C74.8883 57.4289 74.0443 56.6429 73.0243 56.8149C71.6063 57.0529 70.5043 59.3989 70.3183 60.6689C70.3063 60.7589 70.2683 61.9369 70.2703 62.3569L70.2583 62.3109C69.8525 61.0577 69.3351 59.8435 68.7123 58.6829C68.162 57.644 67.5523 56.6376 66.8863 55.6689C66.2763 54.7649 65.6643 53.9749 65.1143 53.2689C64.8143 52.8949 64.5343 52.5589 64.2683 52.2469H64.2983C64.3243 52.2469 63.8263 50.5749 63.7843 50.4729C63.2803 49.2929 61.6123 47.3089 60.1843 47.4409C59.1523 47.5349 58.5383 48.5369 58.7303 49.5129C58.9223 50.4889 59.9043 51.2829 60.7663 51.7029C61.6283 52.1229 63.6803 52.2269 64.1843 52.2449C64.4543 52.5729 64.7383 52.9269 65.0443 53.3269C65.5763 54.0309 66.1703 54.8329 66.7563 55.7469C66.9143 55.9909 67.0723 56.2589 67.2303 56.5149C66.8743 56.1389 66.3763 55.6269 66.3223 55.5829C65.3223 54.7669 62.9363 53.7829 61.7223 54.5509C60.8503 55.1109 60.7683 56.2829 61.3863 57.0589C62.0043 57.8349 63.2643 58.1029 64.2223 58.0789Z" fill="black"/>
<path d="M67.5859 56.7108C67.5639 56.7248 67.1539 55.0268 67.1399 54.9108C66.9819 53.6368 67.4259 51.0848 68.7299 50.4788C69.6699 50.0428 70.7039 50.6008 71.0279 51.5388C71.3519 52.4768 70.9019 53.6608 70.3699 54.4568C69.7439 55.4028 67.5879 56.7088 67.5859 56.7108Z" fill="black"/>
</g>
<g opacity="0.3">
<path d="M27.3518 36.469L31.9922 31.3438L23.1181 23.3091L18.4777 28.4344L27.3518 36.469Z" stroke="black" stroke-width="0.998248" stroke-miterlimit="10"/>
<path d="M26.4544 34.7356C26.6039 34.5718 26.8122 34.4738 27.0338 34.4633C27.2554 34.4528 27.4721 34.5306 27.6364 34.6796C27.6624 34.7036 27.6844 34.7276 27.7084 34.7536L30.3844 31.8136L30.3024 31.7496C30.139 31.5999 30.0414 31.3916 30.0309 31.1702C30.0204 30.9488 30.0979 30.7322 30.2464 30.5676L30.2844 30.5316L23.9464 24.7656L23.9144 24.8056C23.765 24.9691 23.5568 25.0666 23.3355 25.0767C23.1143 25.0868 22.8981 25.0088 22.7344 24.8596C22.7084 24.837 22.6843 24.8122 22.6624 24.7856L19.9844 27.7276C20.013 27.7472 20.0404 27.7686 20.0664 27.7916C20.2301 27.9408 20.328 28.1488 20.3385 28.37C20.349 28.5913 20.2713 28.8076 20.1224 28.9716C20.0985 28.9972 20.0732 29.0212 20.0464 29.0436L26.3964 34.8156C26.4104 34.7876 26.4324 34.7616 26.4544 34.7356ZM24.1544 28.8676C24.3368 28.6671 24.5745 28.5253 24.8376 28.4599C25.1007 28.3946 25.3772 28.4088 25.6322 28.5007C25.8872 28.5926 26.1092 28.758 26.2701 28.9761C26.431 29.1942 26.5237 29.4551 26.5363 29.7259C26.5489 29.9966 26.4809 30.265 26.3409 30.4971C26.2009 30.7292 25.9952 30.9146 25.7499 31.0297C25.5045 31.1449 25.2305 31.1847 24.9625 31.1441C24.6945 31.1035 24.4446 30.9843 24.2444 30.8016C23.9762 30.557 23.8161 30.2159 23.7992 29.8532C23.7824 29.4906 23.9101 29.1361 24.1544 28.8676V28.8676Z" stroke="black" stroke-miterlimit="10"/>
</g>
<g opacity="0.3">
<path d="M61.2044 10.8531L59.4375 4.15625L47.8423 7.21551L49.6092 13.9123L61.2044 10.8531Z" stroke="black" stroke-miterlimit="10"/>
<path d="M59.3789 10.6426C59.323 10.4275 59.3548 10.199 59.4673 10.0074C59.5798 9.8157 59.7638 9.67659 59.9789 9.62062C60.0126 9.61269 60.0466 9.60668 60.0809 9.60262L59.0649 5.75662L58.9669 5.79063C58.8606 5.81831 58.7498 5.82474 58.6409 5.80956C58.532 5.79438 58.4272 5.75788 58.3325 5.70215C58.2378 5.64642 58.1549 5.57256 58.0888 5.48478C58.0226 5.39701 57.9744 5.29705 57.9469 5.19063C57.942 5.1742 57.938 5.1575 57.9349 5.14062L49.6469 7.33062C49.6469 7.34662 49.6569 7.36262 49.6629 7.38062C49.6906 7.487 49.6971 7.59779 49.6819 7.70665C49.6667 7.81551 49.6302 7.92031 49.5745 8.01505C49.5187 8.10979 49.4449 8.19261 49.3571 8.25878C49.2693 8.32494 49.1694 8.37314 49.0629 8.40063C49.0296 8.41017 48.9954 8.41686 48.9609 8.42062L49.9769 12.2666C50.0085 12.2523 50.0413 12.2409 50.0749 12.2326C50.1813 12.2047 50.2922 12.198 50.4011 12.2131C50.5101 12.2281 50.615 12.2646 50.7098 12.3204C50.8046 12.3761 50.8874 12.4501 50.9535 12.538C51.0196 12.6259 51.0677 12.7261 51.0949 12.8326C51.1045 12.866 51.1112 12.9001 51.1149 12.9346L59.4089 10.7466C59.3966 10.7127 59.3866 10.6779 59.3789 10.6426V10.6426ZM53.1969 9.38662C53.1276 9.12465 53.1375 8.84798 53.2254 8.59163C53.3133 8.33528 53.4752 8.11075 53.6908 7.94646C53.9063 7.78216 54.1657 7.68548 54.4362 7.66864C54.7066 7.6518 54.976 7.71555 55.2103 7.85184C55.4445 7.98813 55.6331 8.19083 55.7521 8.4343C55.8711 8.67777 55.9153 8.95107 55.8789 9.21963C55.8426 9.48819 55.7275 9.73994 55.548 9.94304C55.3686 10.1461 55.133 10.2915 54.8709 10.3606C54.5198 10.4533 54.1462 10.4028 53.8323 10.2201C53.5184 10.0375 53.2899 9.7377 53.1969 9.38662Z" stroke="black" stroke-miterlimit="10"/>
</g>
<g opacity="0.3">
<path d="M68.2317 48.3065L72.2969 53.9141L82.006 46.8755L77.9409 41.268L68.2317 48.3065Z" stroke="black" stroke-miterlimit="10"/>
<path d="M70.0162 47.8406C70.146 48.0203 70.1993 48.2441 70.1644 48.463C70.1295 48.6819 70.0094 48.8781 69.8302 49.0086C69.802 49.0284 69.7727 49.0465 69.7422 49.0626L72.0762 52.2826C72.1022 52.2606 72.1282 52.2366 72.1562 52.2166C72.2449 52.1521 72.3455 52.1058 72.4521 52.0802C72.5588 52.0547 72.6695 52.0504 72.7778 52.0677C72.8861 52.085 72.9899 52.1234 73.0833 52.1809C73.1767 52.2384 73.2579 52.3137 73.3222 52.4026C73.3333 52.4164 73.3434 52.4311 73.3522 52.4466L80.2882 47.4166L80.2562 47.3766C80.1917 47.2877 80.1453 47.1869 80.1197 47.0801C80.0942 46.9733 80.0899 46.8625 80.1072 46.754C80.1244 46.6456 80.1629 46.5415 80.2204 46.448C80.2779 46.3544 80.3532 46.273 80.4422 46.2086C80.4703 46.1887 80.4997 46.1706 80.5302 46.1546L78.2022 42.9346C78.1769 42.9582 78.1502 42.9803 78.1222 43.0006C78.0333 43.0651 77.9326 43.1115 77.8257 43.137C77.7189 43.1626 77.6081 43.1669 77.4996 43.1496C77.3912 43.1323 77.2872 43.0938 77.1936 43.0364C77.1 42.9789 77.0186 42.9035 76.9542 42.8146C76.9343 42.7864 76.9163 42.757 76.9002 42.7266L69.9562 47.7606C69.9722 47.7966 70.0022 47.8126 70.0162 47.8406ZM76.2302 46.7846C76.389 47.004 76.4792 47.2657 76.4894 47.5364C76.4995 47.8071 76.4292 48.0748 76.2872 48.3055C76.1453 48.5363 75.9381 48.7198 75.6919 48.8328C75.4457 48.9458 75.1715 48.9833 74.904 48.9406C74.6365 48.8978 74.3877 48.7767 74.189 48.5925C73.9903 48.4083 73.8507 48.1694 73.7878 47.9059C73.7249 47.6424 73.7415 47.3662 73.8355 47.1121C73.9296 46.858 74.0969 46.6376 74.3162 46.4786C74.4618 46.3726 74.627 46.2965 74.8021 46.2546C74.9772 46.2126 75.1589 46.2057 75.3367 46.2341C75.5146 46.2625 75.685 46.3258 75.8383 46.4203C75.9917 46.5147 76.1248 46.6385 76.2302 46.7846V46.7846Z" stroke="black" stroke-miterlimit="10"/>
</g>
<g opacity="0.3">
<path d="M79.1837 20.7888L74.7969 26.1484L84.0768 33.7439L88.4636 28.3843L79.1837 20.7888Z" stroke="black" stroke-miterlimit="10"/>
<path d="M80.0825 22.3907C79.9419 22.5619 79.739 22.6703 79.5185 22.6921C79.298 22.7138 79.0779 22.6471 78.9065 22.5067C78.8798 22.4849 78.8544 22.4615 78.8305 22.4367L76.3125 25.5147L76.3965 25.5747C76.5676 25.7153 76.676 25.918 76.6981 26.1383C76.7202 26.3587 76.6542 26.5789 76.5145 26.7507L76.4785 26.7887L83.1105 32.2147C83.1105 32.2007 83.1285 32.1867 83.1405 32.1727C83.2811 32.0015 83.484 31.893 83.7045 31.8713C83.925 31.8495 84.1451 31.9162 84.3165 32.0567L84.3925 32.1267L86.9105 29.0487C86.8812 29.0305 86.8532 29.0105 86.8265 28.9887C86.655 28.8483 86.5462 28.6456 86.5241 28.4251C86.5019 28.2046 86.5683 27.9843 86.7085 27.8127C86.7304 27.7861 86.7545 27.7613 86.7805 27.7387L80.1425 22.3047C80.1243 22.3346 80.1043 22.3633 80.0825 22.3907V22.3907ZM82.6825 28.1287C82.5116 28.3389 82.2823 28.4938 82.0234 28.5737C81.7646 28.6536 81.4878 28.6549 81.2282 28.5776C80.9686 28.5002 80.7377 28.3476 80.5648 28.1391C80.3918 27.9305 80.2846 27.6754 80.2567 27.406C80.2287 27.1365 80.2813 26.8648 80.4077 26.6252C80.5342 26.3856 80.7288 26.1889 80.967 26.0599C81.2052 25.9309 81.4764 25.8754 81.7461 25.9005C82.0159 25.9255 82.2721 26.03 82.4825 26.2007C82.7653 26.4292 82.9458 26.7606 82.9844 27.1221C83.023 27.4836 82.9166 27.8456 82.6885 28.1287H82.6825Z" stroke="black" stroke-miterlimit="10"/>
</g>
<g opacity="0.3">
<path d="M4.27081 72.0487L8.33594 77.6562L18.045 70.6177L13.9799 65.0102L4.27081 72.0487Z" stroke="black" stroke-miterlimit="10"/>
<path d="M6.05525 71.5828C6.11971 71.6715 6.16604 71.7721 6.19159 71.8787C6.21713 71.9854 6.22139 72.096 6.20411 72.2043C6.18683 72.3126 6.14836 72.4165 6.0909 72.5099C6.03344 72.6033 5.95812 72.6845 5.86925 72.7487C5.83925 72.7707 5.81125 72.7867 5.78125 72.8047L8.11525 76.0247C8.14012 76.0001 8.16687 75.9773 8.19525 75.9568C8.37488 75.8273 8.59853 75.7744 8.81713 75.8096C9.03573 75.8449 9.23141 75.9654 9.36125 76.1448L9.38925 76.1867L16.3273 71.1588L16.2953 71.1167C16.2308 71.028 16.1845 70.9274 16.1589 70.8208C16.1334 70.7141 16.1291 70.6035 16.1464 70.4952C16.1637 70.3869 16.2021 70.283 16.2596 70.1896C16.3171 70.0962 16.3924 70.015 16.4813 69.9508C16.5093 69.9308 16.5392 69.9128 16.5692 69.8948L14.2353 66.6747L14.1552 66.7427C13.9754 66.872 13.7517 66.925 13.533 66.8902C13.3142 66.8553 13.1181 66.7355 12.9873 66.5568C12.9673 66.5268 12.9492 66.4988 12.9332 66.4688L5.99925 71.5028C6.01125 71.5268 6.03325 71.5548 6.05525 71.5828ZM12.2692 70.5247C12.4283 70.744 12.5188 71.0056 12.5293 71.2763C12.5398 71.5471 12.4697 71.8148 12.328 72.0457C12.1864 72.2767 11.9794 72.4604 11.7333 72.5737C11.4872 72.687 11.213 72.7248 10.9454 72.6823C10.6779 72.6398 10.4289 72.5189 10.23 72.3349C10.0311 72.1509 9.89126 71.9121 9.82809 71.6487C9.76492 71.3852 9.78129 71.1089 9.87512 70.8548C9.96895 70.6006 10.136 70.38 10.3552 70.2208C10.6495 70.0077 11.0163 69.92 11.3751 69.977C11.7339 70.034 12.0555 70.231 12.2692 70.5247V70.5247Z" stroke="black" stroke-miterlimit="10"/>
</g>
<path d="M70.5984 21.4964V82.1084C70.5984 82.9051 70.2828 83.6694 69.7205 84.2339C69.1582 84.7985 68.3952 85.1172 67.5984 85.1204H41.3984C40.6017 85.1172 39.8387 84.7985 39.2764 84.2339C38.7141 83.6694 38.3984 82.9051 38.3984 82.1084V21.4964C38.3979 20.6995 38.7134 19.9348 39.2758 19.3702C39.8382 18.8056 40.6015 18.487 41.3984 18.4844H52.6384V18.5204C52.9184 19.5204 53.5644 20.1844 54.2784 20.1844H54.6904C55.4044 20.1844 56.0504 19.5284 56.3304 18.5204V18.4844H67.5984C68.3952 18.4875 69.1582 18.8063 69.7205 19.3708C70.2828 19.9353 70.5984 20.6996 70.5984 21.4964Z" fill="white" stroke="#257E7E" stroke-linecap="round" stroke-linejoin="round"/>
<path d="M70.5984 23.2124V21.4964C70.5984 20.6996 70.2828 19.9353 69.7205 19.3708C69.1582 18.8063 68.3952 18.4875 67.5984 18.4844H56.3544V18.5204C56.0744 19.5204 55.4284 20.1844 54.7144 20.1844H54.3024C53.5884 20.1844 52.9424 19.5284 52.6624 18.5204V18.4844H41.3984C40.6015 18.487 39.8382 18.8056 39.2758 19.3702C38.7134 19.9348 38.3979 20.6995 38.3984 21.4964V23.2124H70.5984Z" fill="#257E7E" stroke="#257E7E" stroke-miterlimit="10"/>
<path d="M38.3984 80.4922V82.1122C38.3984 82.9089 38.7141 83.6732 39.2764 84.2378C39.8387 84.8023 40.6017 85.121 41.3984 85.1242H67.5984C68.3952 85.121 69.1582 84.8023 69.7205 84.2378C70.2828 83.6732 70.5984 82.9089 70.5984 82.1122V80.4922H38.3984Z" fill="#257E7E" stroke="#257E7E" stroke-miterlimit="10"/>
<path d="M72.6546 35.9744V29.9204H72.1066V22.1704C72.1045 20.9044 71.6002 19.691 70.7045 18.7963C69.8087 17.9017 68.5946 17.399 67.3286 17.3984H41.6686C40.4016 17.399 39.1866 17.9025 38.2907 18.7985C37.3947 19.6944 36.8912 20.9094 36.8906 22.1764V83.7544C36.8912 85.0215 37.3947 86.2365 38.2907 87.1324C39.1866 88.0283 40.4016 88.5319 41.6686 88.5324H67.3286C68.5957 88.5319 69.8107 88.0283 70.7066 87.1324C71.6025 86.2365 72.1061 85.0215 72.1066 83.7544V41.1324H72.6546V37.5564H72.1066V35.9744H72.6546ZM70.5986 80.3424C70.5986 81.6093 70.0955 82.8243 69.1999 83.7203C68.3043 84.6163 67.0895 85.1199 65.8226 85.1204H43.1686C41.9028 85.1183 40.6896 84.614 39.7952 83.7182C38.9009 82.8223 38.3986 81.6083 38.3986 80.3424V23.2604C38.3992 21.9939 38.9025 20.7794 39.7981 19.8839C40.6936 18.9883 41.9081 18.485 43.1746 18.4844H52.6486V18.5204C52.9286 19.5204 53.5746 20.1844 54.2886 20.1844H54.7006C55.4146 20.1844 56.0606 19.5284 56.3406 18.5204V18.4844H65.8146C66.4424 18.4836 67.0642 18.6066 67.6445 18.8462C68.2247 19.0859 68.7521 19.4375 69.1964 19.8811C69.6406 20.3246 69.9932 20.8514 70.2338 21.4312C70.4744 22.0111 70.5984 22.6326 70.5986 23.2604V80.3424Z" fill="#3ACAAF" stroke="#257E7E" stroke-linecap="round" stroke-linejoin="round"/>
<path d="M66.9491 18.0469H42.0531C40.8331 18.0469 39.6631 18.5315 38.8004 19.3942C37.9378 20.2569 37.4531 21.4269 37.4531 22.6469V83.2469C37.4531 84.4669 37.9378 85.6369 38.8004 86.4996C39.6631 87.3622 40.8331 87.8469 42.0531 87.8469H66.9491C68.1691 87.8469 69.3391 87.3622 70.2018 86.4996C71.0645 85.6369 71.5491 84.4669 71.5491 83.2469V22.6469C71.5491 21.4269 71.0645 20.2569 70.2018 19.3942C69.3391 18.5315 68.1691 18.0469 66.9491 18.0469ZM70.6011 80.5089C70.6011 81.7289 70.1165 82.8989 69.2538 83.7616C68.3912 84.6242 67.2211 85.1089 66.0011 85.1089H43.0011C41.7811 85.1089 40.6111 84.6242 39.7484 83.7616C38.8858 82.8989 38.4011 81.7289 38.4011 80.5089V23.0889C38.4011 21.8689 38.8858 20.6989 39.7484 19.8362C40.6111 18.9735 41.7811 18.4889 43.0011 18.4889H52.6451V18.5249C52.9251 19.5249 53.5711 20.1889 54.2851 20.1889H54.6971C55.4111 20.1889 56.0571 19.5329 56.3371 18.5249V18.4889H66.0011C67.2211 18.4889 68.3912 18.9735 69.2538 19.8362C70.1165 20.6989 70.6011 21.8689 70.6011 23.0889V80.5089Z" fill="#257E7E" stroke="#257E7E" stroke-linecap="round" stroke-linejoin="round"/>
<mask id="path-24-inside-1_151_8660" fill="white">
<path d="M54.8491 18.7136C54.8491 18.6251 54.8229 18.5386 54.7738 18.4649C54.7246 18.3913 54.6548 18.3339 54.573 18.2999C54.4913 18.266 54.4013 18.257 54.3145 18.2741C54.2276 18.2912 54.1478 18.3337 54.0851 18.3961C54.0223 18.4586 53.9795 18.5382 53.962 18.625C53.9445 18.7118 53.9531 18.8018 53.9867 18.8837C54.0203 18.9656 54.0774 19.0357 54.1508 19.0851C54.2242 19.1346 54.3106 19.1612 54.3991 19.1616C54.4581 19.1619 54.5166 19.1505 54.5712 19.1281C54.6258 19.1057 54.6754 19.0727 54.7172 19.0311C54.759 18.9895 54.7922 18.94 54.8148 18.8855C54.8375 18.831 54.8491 18.7726 54.8491 18.7136Z"/>
</mask>
<path d="M54.8491 18.7136C54.8491 18.6251 54.8229 18.5386 54.7738 18.4649C54.7246 18.3913 54.6548 18.3339 54.573 18.2999C54.4913 18.266 54.4013 18.257 54.3145 18.2741C54.2276 18.2912 54.1478 18.3337 54.0851 18.3961C54.0223 18.4586 53.9795 18.5382 53.962 18.625C53.9445 18.7118 53.9531 18.8018 53.9867 18.8837C54.0203 18.9656 54.0774 19.0357 54.1508 19.0851C54.2242 19.1346 54.3106 19.1612 54.3991 19.1616C54.4581 19.1619 54.5166 19.1505 54.5712 19.1281C54.6258 19.1057 54.6754 19.0727 54.7172 19.0311C54.759 18.9895 54.7922 18.94 54.8148 18.8855C54.8375 18.831 54.8491 18.7726 54.8491 18.7136Z" fill="white"/>
<path d="M54.3991 19.1616L54.3947 20.1616L54.3991 19.1616ZM55.8491 18.7136C55.8491 18.4275 55.7644 18.1478 55.6055 17.9098L53.942 19.02C53.8814 18.9293 53.8491 18.8227 53.8491 18.7136L55.8491 18.7136ZM55.6055 17.9098C55.4467 17.6719 55.221 17.4863 54.9567 17.3765L54.1893 19.2234C54.0886 19.1815 54.0025 19.1108 53.942 19.02L55.6055 17.9098ZM54.9567 17.3765C54.6925 17.2667 54.4017 17.2376 54.121 17.293L54.5079 19.2552C54.4009 19.2763 54.29 19.2652 54.1893 19.2234L54.9567 17.3765ZM54.121 17.293C53.8403 17.3483 53.5823 17.4856 53.3795 17.6875L54.7906 19.1048C54.7133 19.1818 54.6149 19.2341 54.5079 19.2552L54.121 17.293ZM53.3795 17.6875C53.1768 17.8893 53.0383 18.1467 52.9817 18.4272L54.9422 18.8228C54.9206 18.9298 54.8679 19.0279 54.7906 19.1048L53.3795 17.6875ZM52.9817 18.4272C52.9251 18.7076 52.9529 18.9986 53.0615 19.2633L54.9118 18.5041C54.9532 18.605 54.9638 18.7159 54.9422 18.8228L52.9817 18.4272ZM53.0615 19.2633C53.1701 19.528 53.3547 19.7546 53.592 19.9144L54.7096 18.2559C54.8 18.3168 54.8704 18.4032 54.9118 18.5041L53.0615 19.2633ZM53.592 19.9144C53.8292 20.0743 54.1085 20.1603 54.3947 20.1616L54.4036 18.1616C54.5127 18.1621 54.6191 18.1949 54.7096 18.2559L53.592 19.9144ZM54.3947 20.1616C54.5854 20.1625 54.7743 20.1256 54.9508 20.0532L54.1916 18.2029C54.2588 18.1753 54.3309 18.1613 54.4036 18.1616L54.3947 20.1616ZM54.9508 20.0532C55.1272 19.9809 55.2876 19.8743 55.4227 19.7398L54.0117 18.3224C54.0632 18.2711 54.1243 18.2305 54.1916 18.2029L54.9508 20.0532ZM55.4227 19.7398C55.5579 19.6053 55.6651 19.4454 55.7383 19.2692L53.8914 18.5018C53.9193 18.4347 53.9602 18.3737 54.0117 18.3224L55.4227 19.7398ZM55.7383 19.2692C55.8115 19.0931 55.8491 18.9043 55.8491 18.7136L53.8491 18.7136C53.8491 18.641 53.8635 18.569 53.8914 18.5018L55.7383 19.2692Z" fill="#257E7E" mask="url(#path-24-inside-1_151_8660)"/>
<mask id="path-26-inside-2_151_8660" fill="white">
<path d="M41.2541 20.4307C41.2541 20.8847 40.7441 21.0467 40.7421 21.3947V21.4167H41.2381V21.5707H40.5781V21.4407C40.5781 20.9547 41.0861 20.8607 41.0861 20.4407C41.0861 20.2867 41.0361 20.2047 40.9101 20.2047C40.7841 20.2047 40.7341 20.2927 40.7341 20.4267V20.5587H40.5781V20.4367C40.5781 20.2067 40.6821 20.0547 40.9141 20.0547C41.1461 20.0547 41.2541 20.1967 41.2541 20.4307Z"/>
</mask>
<path d="M41.2541 20.4307C41.2541 20.8847 40.7441 21.0467 40.7421 21.3947V21.4167H41.2381V21.5707H40.5781V21.4407C40.5781 20.9547 41.0861 20.8607 41.0861 20.4407C41.0861 20.2867 41.0361 20.2047 40.9101 20.2047C40.7841 20.2047 40.7341 20.2927 40.7341 20.4267V20.5587H40.5781V20.4367C40.5781 20.2067 40.6821 20.0547 40.9141 20.0547C41.1461 20.0547 41.2541 20.1967 41.2541 20.4307Z" fill="white"/>
<path d="M40.7421 21.3947L39.7421 21.3889V21.3947H40.7421ZM40.7421 21.4167H39.7421V22.4167H40.7421V21.4167ZM41.2381 21.4167H42.2381V20.4167H41.2381V21.4167ZM41.2381 21.5707V22.5707H42.2381V21.5707H41.2381ZM40.5781 21.5707H39.5781V22.5707H40.5781V21.5707ZM40.7341 20.5587V21.5587H41.7341V20.5587H40.7341ZM40.5781 20.5587H39.5781V21.5587H40.5781V20.5587ZM40.2541 20.4307C40.2541 20.2399 40.3865 20.1393 40.2584 20.2804C40.2237 20.3186 40.0935 20.4545 39.9942 20.6015C39.8787 20.7725 39.7442 21.0394 39.7421 21.3889L41.7421 21.4004C41.7411 21.576 41.671 21.6921 41.6517 21.7207C41.6487 21.7252 41.6463 21.727 41.7394 21.6245C41.8668 21.4841 42.2541 21.0755 42.2541 20.4307H40.2541ZM39.7421 21.3947V21.4167H41.7421V21.3947H39.7421ZM40.7421 22.4167H41.2381V20.4167H40.7421V22.4167ZM40.2381 21.4167V21.5707H42.2381V21.4167H40.2381ZM41.2381 20.5707H40.5781V22.5707H41.2381V20.5707ZM41.5781 21.5707V21.4407H39.5781V21.5707H41.5781ZM41.5781 21.4407C41.5781 21.617 41.4454 21.7251 41.5649 21.5964C41.6367 21.5191 42.0861 21.1071 42.0861 20.4407H40.0861C40.0861 20.1943 40.2815 20.0393 40.0994 20.2354C39.9648 20.3803 39.5781 20.7783 39.5781 21.4407H41.5781ZM42.0861 20.4407C42.0861 20.2923 42.0692 19.9793 41.8605 19.6856C41.6008 19.3203 41.213 19.2047 40.9101 19.2047V21.2047C40.8352 21.2047 40.7154 21.1926 40.58 21.1317C40.4368 21.0671 40.3166 20.9658 40.2303 20.8442C40.1494 20.7305 40.1157 20.6242 40.1011 20.5601C40.0867 20.4965 40.0861 20.4524 40.0861 20.4407H42.0861ZM40.9101 19.2047C40.5864 19.2047 40.2155 19.3353 39.9668 19.6763C39.7597 19.9605 39.7341 20.2635 39.7341 20.4267H41.7341C41.7341 20.4559 41.7336 20.6479 41.5829 20.8545C41.5003 20.9679 41.3863 21.0649 41.2486 21.1285C41.1159 21.1897 40.9947 21.2047 40.9101 21.2047V19.2047ZM39.7341 20.4267V20.5587H41.7341V20.4267H39.7341ZM40.7341 19.5587H40.5781V21.5587H40.7341V19.5587ZM41.5781 20.5587V20.4367H39.5781V20.5587H41.5781ZM41.5781 20.4367C41.5781 20.4533 41.5767 20.6184 41.4309 20.7954C41.2581 21.005 41.0318 21.0547 40.9141 21.0547V19.0547C40.5645 19.0547 40.1702 19.1803 39.8874 19.5235C39.6316 19.834 39.5781 20.1901 39.5781 20.4367H41.5781ZM40.9141 21.0547C40.8187 21.0547 40.5949 21.0174 40.4148 20.8091C40.2566 20.6262 40.2541 20.4495 40.2541 20.4307H42.2541C42.2541 20.1779 42.1976 19.8131 41.9275 19.5008C41.6354 19.163 41.2416 19.0547 40.9141 19.0547V21.0547Z" fill="#257E7E" mask="url(#path-26-inside-2_151_8660)"/>
<mask id="path-28-inside-3_151_8660" fill="white">
<path d="M42.0784 20.4327V20.4707C42.0856 20.5351 42.0718 20.6001 42.039 20.656C42.0062 20.7118 41.9562 20.7556 41.8964 20.7807C41.9565 20.8059 42.0068 20.8499 42.0397 20.9062C42.0725 20.9625 42.0861 21.028 42.0784 21.0927V21.2007C42.0784 21.4307 41.9704 21.5807 41.7384 21.5807C41.5064 21.5807 41.3984 21.4387 41.3984 21.2007V21.0967H41.5544V21.2107C41.5544 21.3467 41.6104 21.4287 41.7304 21.4287C41.8504 21.4287 41.9064 21.3487 41.9064 21.1967V21.0807C41.9064 20.9327 41.8444 20.8607 41.7184 20.8567H41.6284V20.7067H41.7264C41.8384 20.7067 41.9064 20.6307 41.9064 20.5067V20.4387C41.9064 20.2847 41.8524 20.2047 41.7304 20.2047C41.6084 20.2047 41.5544 20.2887 41.5544 20.4247V20.5007H41.3984V20.4327C41.3984 20.2027 41.5044 20.0547 41.7344 20.0547C41.9644 20.0547 42.0784 20.2007 42.0784 20.4327Z"/>
</mask>
<path d="M42.0784 20.4327V20.4707C42.0856 20.5351 42.0718 20.6001 42.039 20.656C42.0062 20.7118 41.9562 20.7556 41.8964 20.7807C41.9565 20.8059 42.0068 20.8499 42.0397 20.9062C42.0725 20.9625 42.0861 21.028 42.0784 21.0927V21.2007C42.0784 21.4307 41.9704 21.5807 41.7384 21.5807C41.5064 21.5807 41.3984 21.4387 41.3984 21.2007V21.0967H41.5544V21.2107C41.5544 21.3467 41.6104 21.4287 41.7304 21.4287C41.8504 21.4287 41.9064 21.3487 41.9064 21.1967V21.0807C41.9064 20.9327 41.8444 20.8607 41.7184 20.8567H41.6284V20.7067H41.7264C41.8384 20.7067 41.9064 20.6307 41.9064 20.5067V20.4387C41.9064 20.2847 41.8524 20.2047 41.7304 20.2047C41.6084 20.2047 41.5544 20.2887 41.5544 20.4247V20.5007H41.3984V20.4327C41.3984 20.2027 41.5044 20.0547 41.7344 20.0547C41.9644 20.0547 42.0784 20.2007 42.0784 20.4327Z" fill="white"/>
<path d="M42.0784 20.4707H41.0784V20.5265L41.0846 20.582L42.0784 20.4707ZM41.8964 20.7807L41.5093 19.8587L39.3108 20.7817L41.5101 21.703L41.8964 20.7807ZM42.0784 21.0927L41.0854 20.975L41.0784 21.0337V21.0927H42.0784ZM41.3984 21.0967V20.0967H40.3984V21.0967H41.3984ZM41.5544 21.0967H42.5544V20.0967H41.5544V21.0967ZM41.7184 20.8567L41.7502 19.8572L41.7343 19.8567H41.7184V20.8567ZM41.6284 20.8567H40.6284V21.8567H41.6284V20.8567ZM41.6284 20.7067V19.7067H40.6284V20.7067H41.6284ZM41.5544 20.5007V21.5007H42.5544V20.5007H41.5544ZM41.3984 20.5007H40.3984V21.5007H41.3984V20.5007ZM41.0784 20.4327V20.4707H43.0784V20.4327H41.0784ZM41.0846 20.582C41.0678 20.4317 41.1001 20.2801 41.1766 20.1497L42.9014 21.1623C43.0435 20.9201 43.1035 20.6384 43.0722 20.3594L41.0846 20.582ZM41.1766 20.1497C41.2532 20.0193 41.3699 19.9172 41.5093 19.8587L42.2836 21.7027C42.5425 21.594 42.7592 21.4044 42.9014 21.1623L41.1766 20.1497ZM41.5101 21.703C41.3698 21.6443 41.2525 21.5414 41.1759 21.4101L42.9034 20.4024C42.7611 20.1584 42.5433 19.9675 42.2828 19.8584L41.5101 21.703ZM41.1759 21.4101C41.0993 21.2787 41.0675 21.126 41.0854 20.975L43.0715 21.2104C43.1047 20.9299 43.0457 20.6463 42.9034 20.4024L41.1759 21.4101ZM41.0784 21.0927V21.2007H43.0784V21.0927H41.0784ZM41.0784 21.2007C41.0784 21.1761 41.0825 21.0079 41.2317 20.8314C41.4045 20.627 41.626 20.5807 41.7384 20.5807V22.5807C42.0829 22.5807 42.4744 22.4594 42.7592 22.1225C43.0203 21.8135 43.0784 21.4552 43.0784 21.2007H41.0784ZM41.7384 20.5807C41.8341 20.5807 42.0597 20.6183 42.2403 20.8287C42.3976 21.012 42.3984 21.1875 42.3984 21.2007H40.3984C40.3984 21.4519 40.4533 21.8174 40.7226 22.1312C41.0151 22.4721 41.4107 22.5807 41.7384 22.5807V20.5807ZM42.3984 21.2007V21.0967H40.3984V21.2007H42.3984ZM41.3984 22.0967H41.5544V20.0967H41.3984V22.0967ZM40.5544 21.0967V21.2107H42.5544V21.0967H40.5544ZM40.5544 21.2107C40.5544 21.3925 40.5882 21.7003 40.8064 21.9824C41.0586 22.3086 41.4208 22.4287 41.7304 22.4287V20.4287C41.9201 20.4287 42.1942 20.5078 42.3885 20.7589C42.5486 20.966 42.5544 21.1649 42.5544 21.2107H40.5544ZM41.7304 22.4287C42.035 22.4287 42.4092 22.3116 42.6659 21.9664C42.8806 21.6776 42.9064 21.3657 42.9064 21.1967H40.9064C40.9064 21.1797 40.9042 20.9838 41.061 20.773C41.1469 20.6574 41.2637 20.5619 41.401 20.5006C41.5323 20.442 41.6505 20.4287 41.7304 20.4287V22.4287ZM42.9064 21.1967V21.0807H40.9064V21.1967H42.9064ZM42.9064 21.0807C42.9064 20.8897 42.8697 20.5608 42.6237 20.2694C42.355 19.9514 41.9992 19.8651 41.7502 19.8572L41.6867 21.8562C41.5637 21.8523 41.3019 21.804 41.0957 21.5599C40.9121 21.3426 40.9064 21.1237 40.9064 21.0807H42.9064ZM41.7184 19.8567H41.6284V21.8567H41.7184V19.8567ZM42.6284 20.8567V20.7067H40.6284V20.8567H42.6284ZM41.6284 21.7067H41.7264V19.7067H41.6284V21.7067ZM41.7264 21.7067C42.02 21.7067 42.3528 21.5992 42.6023 21.3216C42.8399 21.0571 42.9064 20.745 42.9064 20.5067H40.9064C40.9064 20.3924 40.939 20.1803 41.1146 19.9848C41.3021 19.7761 41.5449 19.7067 41.7264 19.7067V21.7067ZM42.9064 20.5067V20.4387H40.9064V20.5067H42.9064ZM42.9064 20.4387C42.9064 20.2776 42.8843 19.9643 42.6709 19.673C42.4119 19.3194 42.0319 19.2047 41.7304 19.2047V21.2047C41.6532 21.2047 41.5349 21.1921 41.4022 21.1329C41.2626 21.0707 41.1441 20.9731 41.0574 20.8548C40.9016 20.642 40.9064 20.4458 40.9064 20.4387H42.9064ZM41.7304 19.2047C41.4159 19.2047 41.0503 19.3284 40.7992 19.6603C40.585 19.9434 40.5544 20.2497 40.5544 20.4247H42.5544C42.5544 20.4637 42.5508 20.66 42.3942 20.867C42.2005 21.123 41.923 21.2047 41.7304 21.2047V19.2047ZM40.5544 20.4247V20.5007H42.5544V20.4247H40.5544ZM41.5544 19.5007H41.3984V21.5007H41.5544V19.5007ZM42.3984 20.5007V20.4327H40.3984V20.5007H42.3984ZM42.3984 20.4327C42.3984 20.4533 42.3957 20.6224 42.2458 20.8008C42.0712 21.0085 41.8467 21.0547 41.7344 21.0547V19.0547C41.3921 19.0547 40.9997 19.1749 40.7146 19.5141C40.4542 19.824 40.3984 20.1821 40.3984 20.4327H42.3984ZM41.7344 21.0547C41.628 21.0547 41.4125 21.0124 41.2398 20.8148C41.086 20.6389 41.0784 20.4665 41.0784 20.4327H43.0784C43.0784 20.1669 43.0139 19.8055 42.7456 19.4986C42.4584 19.1699 42.0709 19.0547 41.7344 19.0547V21.0547Z" fill="#257E7E" mask="url(#path-28-inside-3_151_8660)"/>
<mask id="path-30-inside-4_151_8660" fill="white">
<path d="M42.3964 20.5469V20.7469H42.2344V20.5469H42.3964ZM42.3964 21.3649V21.5749H42.2344V21.3649H42.3964Z"/>
</mask>
<path d="M42.3964 20.5469V20.7469H42.2344V20.5469H42.3964ZM42.3964 21.3649V21.5749H42.2344V21.3649H42.3964Z" fill="white"/>
<path d="M42.3964 20.5469H43.3964V19.5469H42.3964V20.5469ZM42.3964 20.7469V21.7469H43.3964V20.7469H42.3964ZM42.2344 20.7469H41.2344V21.7469H42.2344V20.7469ZM42.2344 20.5469V19.5469H41.2344V20.5469H42.2344ZM42.3964 21.3649H43.3964V20.3649H42.3964V21.3649ZM42.3964 21.5749V22.5749H43.3964V21.5749H42.3964ZM42.2344 21.5749H41.2344V22.5749H42.2344V21.5749ZM42.2344 21.3649V20.3649H41.2344V21.3649H42.2344ZM41.3964 20.5469V20.7469H43.3964V20.5469H41.3964ZM42.3964 19.7469H42.2344V21.7469H42.3964V19.7469ZM43.2344 20.7469V20.5469H41.2344V20.7469H43.2344ZM42.2344 21.5469H42.3964V19.5469H42.2344V21.5469ZM41.3964 21.3649V21.5749H43.3964V21.3649H41.3964ZM42.3964 20.5749H42.2344V22.5749H42.3964V20.5749ZM43.2344 21.5749V21.3649H41.2344V21.5749H43.2344ZM42.2344 22.3649H42.3964V20.3649H42.2344V22.3649Z" fill="#257E7E" mask="url(#path-30-inside-4_151_8660)"/>
<mask id="path-32-inside-5_151_8660" fill="white">
<path d="M42.7463 20.6767C42.7677 20.6369 42.7999 20.604 42.8392 20.5817C42.8784 20.5594 42.9232 20.5487 42.9683 20.5507C43.1683 20.5507 43.2483 20.6927 43.2483 20.9087V21.1947C43.2483 21.4247 43.1383 21.5747 42.9083 21.5747C42.6783 21.5747 42.5703 21.4247 42.5703 21.1947V21.0927H42.7283V21.2047C42.7283 21.3407 42.7843 21.4227 42.9043 21.4227C43.0243 21.4227 43.0803 21.3407 43.0803 21.2047V20.9127C43.0803 20.7767 43.0243 20.6967 42.9043 20.6967C42.8825 20.6956 42.8608 20.6989 42.8403 20.7065C42.8199 20.714 42.8011 20.7256 42.7853 20.7405C42.7694 20.7555 42.7567 20.7734 42.7479 20.7934C42.7392 20.8134 42.7346 20.8349 42.7343 20.8567V20.8907H42.5783L42.6183 20.0547H43.2183V20.2047H42.7743L42.7463 20.6767Z"/>
</mask>
<path d="M42.7463 20.6767C42.7677 20.6369 42.7999 20.604 42.8392 20.5817C42.8784 20.5594 42.9232 20.5487 42.9683 20.5507C43.1683 20.5507 43.2483 20.6927 43.2483 20.9087V21.1947C43.2483 21.4247 43.1383 21.5747 42.9083 21.5747C42.6783 21.5747 42.5703 21.4247 42.5703 21.1947V21.0927H42.7283V21.2047C42.7283 21.3407 42.7843 21.4227 42.9043 21.4227C43.0243 21.4227 43.0803 21.3407 43.0803 21.2047V20.9127C43.0803 20.7767 43.0243 20.6967 42.9043 20.6967C42.8825 20.6956 42.8608 20.6989 42.8403 20.7065C42.8199 20.714 42.8011 20.7256 42.7853 20.7405C42.7694 20.7555 42.7567 20.7734 42.7479 20.7934C42.7392 20.8134 42.7346 20.8349 42.7343 20.8567V20.8907H42.5783L42.6183 20.0547H43.2183V20.2047H42.7743L42.7463 20.6767Z" fill="white"/>
<path d="M42.7463 20.6767L41.7481 20.6175L43.6268 21.1507L42.7463 20.6767ZM42.9683 20.5507L42.9238 21.5497L42.9461 21.5507H42.9683V20.5507ZM42.5703 21.0927V20.0927H41.5703V21.0927H42.5703ZM42.7283 21.0927H43.7283V20.0927H42.7283V21.0927ZM42.9043 20.6967L42.8549 21.6955L42.8796 21.6967H42.9043V20.6967ZM42.7343 20.8567L41.7343 20.8456V20.8567H42.7343ZM42.7343 20.8907V21.8907H43.7343V20.8907H42.7343ZM42.5783 20.8907L41.5795 20.8429L41.5293 21.8907H42.5783V20.8907ZM42.6183 20.0547V19.0547H41.665L41.6195 20.0069L42.6183 20.0547ZM43.2183 20.0547H44.2183V19.0547H43.2183V20.0547ZM43.2183 20.2047V21.2047H44.2183V20.2047H43.2183ZM42.7743 20.2047V19.2047H41.8319L41.7761 20.1455L42.7743 20.2047ZM43.6268 21.1507C43.5591 21.2766 43.4571 21.3808 43.3328 21.4514L42.3456 19.712C42.1427 19.8272 41.9764 19.9973 41.8658 20.2027L43.6268 21.1507ZM43.3328 21.4514C43.2084 21.522 43.0667 21.5561 42.9238 21.5497L43.0128 19.5517C42.7797 19.5413 42.5485 19.5969 42.3456 19.712L43.3328 21.4514ZM42.9683 21.5507C42.9001 21.5507 42.7929 21.5383 42.6722 21.4818C42.547 21.4231 42.4446 21.3341 42.3718 21.233C42.3031 21.1376 42.2737 21.05 42.261 20.9979C42.2484 20.9463 42.2483 20.9134 42.2483 20.9087H44.2483C44.2483 20.7055 44.2156 20.371 43.9948 20.0644C43.7321 19.6994 43.3352 19.5507 42.9683 19.5507V21.5507ZM42.2483 20.9087V21.1947H44.2483V20.9087H42.2483ZM42.2483 21.1947C42.2483 21.1661 42.2538 20.9986 42.4023 20.8237C42.5732 20.6223 42.7926 20.5747 42.9083 20.5747V22.5747C43.254 22.5747 43.6434 22.452 43.9269 22.1182C44.1878 21.8108 44.2483 21.4533 44.2483 21.1947H42.2483ZM42.9083 20.5747C43.0245 20.5747 43.2463 20.6228 43.4182 20.8271C43.5662 21.0029 43.5703 21.1701 43.5703 21.1947H41.5703C41.5703 21.4493 41.6284 21.8064 41.8879 22.1148C42.1713 22.4516 42.5621 22.5747 42.9083 22.5747V20.5747ZM43.5703 21.1947V21.0927H41.5703V21.1947H43.5703ZM42.5703 22.0927H42.7283V20.0927H42.5703V22.0927ZM41.7283 21.0927V21.2047H43.7283V21.0927H41.7283ZM41.7283 21.2047C41.7283 21.3865 41.7621 21.6943 41.9803 21.9764C42.2325 22.3026 42.5947 22.4227 42.9043 22.4227V20.4227C43.0939 20.4227 43.3681 20.5018 43.5624 20.7529C43.7225 20.96 43.7283 21.1589 43.7283 21.2047H41.7283ZM42.9043 22.4227C43.2139 22.4227 43.5761 22.3026 43.8284 21.9764C44.0465 21.6943 44.0803 21.3865 44.0803 21.2047H42.0803C42.0803 21.1589 42.0861 20.96 42.2463 20.7529C42.4405 20.5018 42.7147 20.4227 42.9043 20.4227V22.4227ZM44.0803 21.2047V20.9127H42.0803V21.2047H44.0803ZM44.0803 20.9127C44.0803 20.7312 44.0467 20.4204 43.8244 20.1368C43.5685 19.8103 43.2055 19.6967 42.9043 19.6967V21.6967C42.7231 21.6967 42.4481 21.623 42.2503 21.3706C42.086 21.161 42.0803 20.9581 42.0803 20.9127H44.0803ZM42.9538 19.6979C42.7976 19.6902 42.6415 19.714 42.4948 19.7681L43.1859 21.6449C43.0801 21.6838 42.9675 21.701 42.8549 21.6955L42.9538 19.6979ZM42.4948 19.7681C42.3481 19.8221 42.2138 19.9051 42.0999 20.0123L43.4706 21.4687C43.3885 21.546 43.2916 21.6059 43.1859 21.6449L42.4948 19.7681ZM42.0999 20.0123C41.986 20.1195 41.895 20.2485 41.8322 20.3917L43.6637 21.1951C43.6184 21.2984 43.5528 21.3914 43.4706 21.4687L42.0999 20.0123ZM41.8322 20.3917C41.7694 20.5348 41.7361 20.6892 41.7344 20.8456L43.7342 20.8678C43.733 20.9806 43.709 21.0919 43.6637 21.1951L41.8322 20.3917ZM41.7343 20.8567V20.8907H43.7343V20.8567H41.7343ZM42.7343 19.8907H42.5783V21.8907H42.7343V19.8907ZM43.5772 20.9385L43.6172 20.1025L41.6195 20.0069L41.5795 20.8429L43.5772 20.9385ZM42.6183 21.0547H43.2183V19.0547H42.6183V21.0547ZM42.2183 20.0547V20.2047H44.2183V20.0547H42.2183ZM43.2183 19.2047H42.7743V21.2047H43.2183V19.2047ZM41.7761 20.1455L41.7481 20.6175L43.7446 20.7359L43.7726 20.2639L41.7761 20.1455Z" fill="#257E7E" mask="url(#path-32-inside-5_151_8660)"/>
<path d="M43.9365 21.0804C43.9319 21.0834 43.9272 21.0863 43.9224 21.0891V21.0591V21.0007H43.929C43.9471 21.0137 43.9639 21.0284 43.9793 21.0446C43.9665 21.058 43.9522 21.07 43.9365 21.0804Z" fill="white" stroke="#257E7E"/>
<mask id="path-35-inside-6_151_8660" fill="white">
<path d="M60.5177 20.4922H60.0938V21.5542H60.5177V20.4922Z"/>
</mask>
<path d="M60.5177 20.4922H60.0938V21.5542H60.5177V20.4922Z" fill="white"/>
<path d="M60.0938 20.4922V19.4922H59.0938V20.4922H60.0938ZM60.5177 20.4922H61.5177V19.4922H60.5177V20.4922ZM60.5177 21.5542V22.5542H61.5177V21.5542H60.5177ZM60.0938 21.5542H59.0938V22.5542H60.0938V21.5542ZM60.0938 21.4922H60.5177V19.4922H60.0938V21.4922ZM59.5177 20.4922V21.5542H61.5177V20.4922H59.5177ZM60.5177 20.5542H60.0938V22.5542H60.5177V20.5542ZM61.0938 21.5542V20.4922H59.0938V21.5542H61.0938Z" fill="#257E7E" mask="url(#path-35-inside-6_151_8660)"/>
<mask id="path-37-inside-7_151_8660" fill="white">
<path d="M61.0823 20.2812H60.6562V21.5572H61.0823V20.2812Z"/>
</mask>
<path d="M61.0823 20.2812H60.6562V21.5572H61.0823V20.2812Z" fill="white"/>
<path d="M60.6562 20.2812V19.2812H59.6562V20.2812H60.6562ZM61.0823 20.2812H62.0823V19.2812H61.0823V20.2812ZM61.0823 21.5572V22.5572H62.0823V21.5572H61.0823ZM60.6562 21.5572H59.6562V22.5572H60.6562V21.5572ZM60.6562 21.2812H61.0823V19.2812H60.6562V21.2812ZM60.0823 20.2812V21.5572H62.0823V20.2812H60.0823ZM61.0823 20.5572H60.6562V22.5572H61.0823V20.5572ZM61.6562 21.5572V20.2812H59.6562V21.5572H61.6562Z" fill="#257E7E" mask="url(#path-37-inside-7_151_8660)"/>
<mask id="path-39-inside-8_151_8660" fill="white">
<path d="M61.6526 20.1328H61.2266V21.5588H61.6526V20.1328Z"/>
</mask>
<path d="M61.6526 20.1328H61.2266V21.5588H61.6526V20.1328Z" fill="white"/>
<path d="M61.2266 20.1328V19.1328H60.2266V20.1328H61.2266ZM61.6526 20.1328H62.6526V19.1328H61.6526V20.1328ZM61.6526 21.5588V22.5588H62.6526V21.5588H61.6526ZM61.2266 21.5588H60.2266V22.5588H61.2266V21.5588ZM61.2266 21.1328H61.6526V19.1328H61.2266V21.1328ZM60.6526 20.1328V21.5588H62.6526V20.1328H60.6526ZM61.6526 20.5588H61.2266V22.5588H61.6526V20.5588ZM62.2266 21.5588V20.1328H60.2266V21.5588H62.2266Z" fill="#257E7E" mask="url(#path-39-inside-8_151_8660)"/>
<mask id="path-41-inside-9_151_8660" fill="white">
<path d="M62.2131 19.8672H61.7891V21.5572H62.2131V19.8672Z"/>
</mask>
<path d="M62.2131 19.8672H61.7891V21.5572H62.2131V19.8672Z" fill="white"/>
<path d="M61.7891 19.8672V18.8672H60.7891V19.8672H61.7891ZM62.2131 19.8672H63.2131V18.8672H62.2131V19.8672ZM62.2131 21.5572V22.5572H63.2131V21.5572H62.2131ZM61.7891 21.5572H60.7891V22.5572H61.7891V21.5572ZM61.7891 20.8672H62.2131V18.8672H61.7891V20.8672ZM61.2131 19.8672V21.5572H63.2131V19.8672H61.2131ZM62.2131 20.5572H61.7891V22.5572H62.2131V20.5572ZM62.7891 21.5572V19.8672H60.7891V21.5572H62.7891Z" fill="#257E7E" mask="url(#path-41-inside-9_151_8660)"/>
<mask id="path-43-inside-10_151_8660" fill="white">
<path d="M67.4797 21.5288H64.9297V19.9688H67.4797V21.5288ZM65.0797 21.3868H67.3457V20.1107H65.0717L65.0797 21.3868Z"/>
</mask>
<path d="M67.4797 21.5288H64.9297V19.9688H67.4797V21.5288ZM65.0797 21.3868H67.3457V20.1107H65.0717L65.0797 21.3868Z" fill="white"/>
<path d="M67.4797 21.5288V22.5288H68.4797V21.5288H67.4797ZM64.9297 21.5288H63.9297V22.5288H64.9297V21.5288ZM64.9297 19.9688V18.9688H63.9297V19.9688H64.9297ZM67.4797 19.9688H68.4797V18.9688H67.4797V19.9688ZM65.0797 21.3868L64.0797 21.393L64.0859 22.3868H65.0797V21.3868ZM67.3457 21.3868V22.3868H68.3457V21.3868H67.3457ZM67.3457 20.1107H68.3457V19.1107H67.3457V20.1107ZM65.0717 20.1107V19.1107H64.0654L64.0717 20.117L65.0717 20.1107ZM67.4797 20.5288H64.9297V22.5288H67.4797V20.5288ZM65.9297 21.5288V19.9688H63.9297V21.5288H65.9297ZM64.9297 20.9688H67.4797V18.9688H64.9297V20.9688ZM66.4797 19.9688V21.5288H68.4797V19.9688H66.4797ZM65.0797 22.3868H67.3457V20.3868H65.0797V22.3868ZM68.3457 21.3868V20.1107H66.3457V21.3868H68.3457ZM67.3457 19.1107H65.0717V21.1107H67.3457V19.1107ZM64.0717 20.117L64.0797 21.393L66.0797 21.3805L66.0717 20.1045L64.0717 20.117Z" fill="#257E7E" mask="url(#path-43-inside-10_151_8660)"/>
<mask id="path-45-inside-11_151_8660" fill="white">
<path d="M66.6273 20.2656H65.2812V21.2316H66.6273V20.2656Z"/>
</mask>
<path d="M66.6273 20.2656H65.2812V21.2316H66.6273V20.2656Z" fill="white"/>
<path d="M65.2812 20.2656V19.2656H64.2812V20.2656H65.2812ZM66.6273 20.2656H67.6273V19.2656H66.6273V20.2656ZM66.6273 21.2316V22.2316H67.6273V21.2316H66.6273ZM65.2812 21.2316H64.2812V22.2316H65.2812V21.2316ZM65.2812 21.2656H66.6273V19.2656H65.2812V21.2656ZM65.6273 20.2656V21.2316H67.6273V20.2656H65.6273ZM66.6273 20.2316H65.2812V22.2316H66.6273V20.2316ZM66.2812 21.2316V20.2656H64.2812V21.2316H66.2812Z" fill="#257E7E" mask="url(#path-45-inside-11_151_8660)"/>
<mask id="path-47-inside-12_151_8660" fill="white">
<path d="M67.7028 20.5625H67.3828V20.9305H67.7028V20.5625Z"/>
</mask>
<path d="M67.7028 20.5625H67.3828V20.9305H67.7028V20.5625Z" fill="white"/>
<path d="M67.3828 20.5625V19.5625H66.3828V20.5625H67.3828ZM67.7028 20.5625H68.7028V19.5625H67.7028V20.5625ZM67.7028 20.9305V21.9305H68.7028V20.9305H67.7028ZM67.3828 20.9305H66.3828V21.9305H67.3828V20.9305ZM67.3828 21.5625H67.7028V19.5625H67.3828V21.5625ZM66.7028 20.5625V20.9305H68.7028V20.5625H66.7028ZM67.7028 19.9305H67.3828V21.9305H67.7028V19.9305ZM68.3828 20.9305V20.5625H66.3828V20.9305H68.3828Z" fill="#257E7E" mask="url(#path-47-inside-12_151_8660)"/>
<mask id="path-49-inside-13_151_8660" fill="white">
<path d="M64.0001 21.2001C63.9831 21.2004 63.9663 21.1955 63.9521 21.1861C63.4321 20.8781 63.0901 21.1641 63.0761 21.1861C63.0582 21.2035 63.0342 21.2133 63.0091 21.2133C62.9841 21.2133 62.9601 21.2035 62.9421 21.1861C62.9332 21.1773 62.9262 21.1669 62.9214 21.1554C62.9165 21.1439 62.9141 21.1315 62.9141 21.1191C62.9141 21.1066 62.9165 21.0943 62.9214 21.0828C62.9262 21.0713 62.9332 21.0608 62.9421 21.0521C62.9601 21.0361 63.4001 20.6521 64.0421 21.0401C64.0529 21.0466 64.0623 21.0553 64.0697 21.0654C64.0772 21.0756 64.0825 21.0872 64.0855 21.0994C64.0885 21.1117 64.089 21.1244 64.087 21.1369C64.0851 21.1494 64.0807 21.1613 64.0741 21.1721C64.0645 21.1817 64.0529 21.1892 64.0401 21.1941C64.0274 21.1989 64.0137 21.2009 64.0001 21.2001Z"/>
</mask>
<path d="M64.0001 21.2001C63.9831 21.2004 63.9663 21.1955 63.9521 21.1861C63.4321 20.8781 63.0901 21.1641 63.0761 21.1861C63.0582 21.2035 63.0342 21.2133 63.0091 21.2133C62.9841 21.2133 62.9601 21.2035 62.9421 21.1861C62.9332 21.1773 62.9262 21.1669 62.9214 21.1554C62.9165 21.1439 62.9141 21.1315 62.9141 21.1191C62.9141 21.1066 62.9165 21.0943 62.9214 21.0828C62.9262 21.0713 62.9332 21.0608 62.9421 21.0521C62.9601 21.0361 63.4001 20.6521 64.0421 21.0401C64.0529 21.0466 64.0623 21.0553 64.0697 21.0654C64.0772 21.0756 64.0825 21.0872 64.0855 21.0994C64.0885 21.1117 64.089 21.1244 64.087 21.1369C64.0851 21.1494 64.0807 21.1613 64.0741 21.1721C64.0645 21.1817 64.0529 21.1892 64.0401 21.1941C64.0274 21.1989 64.0137 21.2009 64.0001 21.2001Z" fill="white"/>
<path d="M63.9521 21.1861L64.5052 20.3529L64.4838 20.3387L64.4618 20.3257L63.9521 21.1861ZM63.0761 21.1861L63.774 21.9023L63.8573 21.8211L63.9198 21.723L63.0761 21.1861ZM63.0091 21.2133V20.2133V21.2133ZM62.9421 21.1861L62.2407 21.8989L62.2442 21.9023L62.9421 21.1861ZM62.9141 21.1191H61.9141H62.9141ZM62.9421 21.0521L62.2778 20.3047L62.2588 20.3215L62.2407 20.3393L62.9421 21.0521ZM64.0421 21.0401L64.5624 20.186L64.5594 20.1842L64.0421 21.0401ZM64.0741 21.1721L64.782 21.8784L64.8658 21.7944L64.9277 21.6931L64.0741 21.1721ZM63.9817 20.2002C64.1677 20.1968 64.3502 20.2501 64.5052 20.3529L63.3991 22.0192C63.5824 22.1409 63.7985 22.204 64.0185 22.1999L63.9817 20.2002ZM64.4618 20.3257C63.9796 20.0401 63.4995 19.994 63.0958 20.0888C62.907 20.1331 62.752 20.2041 62.6343 20.2742C62.5756 20.3092 62.5216 20.3465 62.4735 20.3849C62.4498 20.4037 62.4226 20.4268 62.3941 20.4538C62.3906 20.4571 62.3061 20.5335 62.2325 20.6492L63.9198 21.723C63.8738 21.7953 63.8288 21.8444 63.8172 21.8572C63.798 21.8783 63.7816 21.8943 63.771 21.9044C63.7494 21.9249 63.7314 21.9399 63.7195 21.9493C63.6947 21.9691 63.6739 21.9829 63.6573 21.9928C63.6239 22.0127 63.5895 22.0273 63.553 22.0358C63.5137 22.0451 63.4764 22.0461 63.4463 22.0415C63.4161 22.0369 63.4143 22.0298 63.4425 22.0465L64.4618 20.3257ZM62.3782 20.4699C62.547 20.3054 62.7734 20.2133 63.0091 20.2133V22.2133C63.2949 22.2133 63.5694 22.1017 63.774 21.9023L62.3782 20.4699ZM63.0091 20.2133C63.2448 20.2133 63.4712 20.3053 63.64 20.4699L62.2442 21.9023C62.4489 22.1018 62.7234 22.2133 63.0091 22.2133V20.2133ZM63.6435 20.4733C63.7293 20.5577 63.7973 20.6583 63.8437 20.769L61.999 21.5418C62.055 21.6755 62.1372 21.7969 62.2407 21.8988L63.6435 20.4733ZM63.8437 20.769C63.8902 20.8799 63.9141 20.9989 63.9141 21.1191H61.9141C61.9141 21.2642 61.9429 21.4079 61.999 21.5418L63.8437 20.769ZM63.9141 21.1191C63.9141 21.2392 63.8902 21.3582 63.8437 21.4691L61.999 20.6964C61.9429 20.8303 61.9141 20.974 61.9141 21.1191H63.9141ZM63.8437 21.4691C63.7973 21.5799 63.7293 21.6804 63.6435 21.7648L62.2407 20.3393C62.1372 20.4412 62.055 20.5626 61.999 20.6964L63.8437 21.4691ZM63.6065 21.7995C63.5763 21.8263 63.5568 21.8398 63.5446 21.8471C63.533 21.8541 63.5212 21.8595 63.5072 21.8631C63.4905 21.8674 63.4745 21.8679 63.4643 21.8665C63.4533 21.865 63.4729 21.8645 63.5249 21.8959L64.5594 20.1842C63.9987 19.8454 63.4506 19.8126 63.0091 19.9261C62.6031 20.0305 62.3493 20.2411 62.2778 20.3047L63.6065 21.7995ZM63.5219 21.8941C63.4205 21.8323 63.3322 21.7512 63.2621 21.6552L64.8773 20.4757C64.7923 20.3593 64.6853 20.2609 64.5624 20.1861L63.5219 21.8941ZM63.2621 21.6552C63.1921 21.5594 63.1416 21.4506 63.1136 21.335L65.0573 20.8638C65.0234 20.7238 64.9622 20.5919 64.8773 20.4757L63.2621 21.6552ZM63.1136 21.335C63.0857 21.2196 63.0807 21.0998 63.099 20.9824L65.075 21.2914C65.0973 21.1491 65.0913 21.0038 65.0573 20.8638L63.1136 21.335ZM63.099 20.9824C63.1174 20.8649 63.1588 20.7523 63.2206 20.6511L64.9277 21.6931C65.0026 21.5703 65.0528 21.4338 65.075 21.2914L63.099 20.9824ZM63.3663 20.4657C63.457 20.3748 63.5661 20.3043 63.6863 20.2588L64.394 22.1293C64.5398 22.0742 64.672 21.9886 64.782 21.8784L63.3663 20.4657ZM63.6863 20.2588C63.8064 20.2133 63.9349 20.194 64.0631 20.2021L63.9372 22.1981C64.0926 22.2079 64.2484 22.1845 64.394 22.1293L63.6863 20.2588Z" fill="#257E7E" mask="url(#path-49-inside-13_151_8660)"/>
<mask id="path-51-inside-14_151_8660" fill="white">
<path d="M64.181 20.8706C64.164 20.871 64.1472 20.8661 64.133 20.8566C63.383 20.4106 62.877 20.8426 62.873 20.8566C62.8643 20.8655 62.8538 20.8726 62.8423 20.8774C62.8308 20.8822 62.8185 20.8847 62.806 20.8847C62.7935 20.8847 62.7812 20.8822 62.7697 20.8774C62.7582 20.8726 62.7477 20.8655 62.739 20.8566C62.7301 20.8479 62.7231 20.8375 62.7182 20.826C62.7134 20.8145 62.7109 20.8021 62.7109 20.7896C62.7109 20.7772 62.7134 20.7648 62.7182 20.7533C62.7231 20.7418 62.7301 20.7314 62.739 20.7226C62.739 20.7226 63.353 20.1946 64.223 20.7106C64.2338 20.7172 64.2431 20.7258 64.2506 20.736C64.258 20.7462 64.2634 20.7577 64.2664 20.77C64.2693 20.7823 64.2699 20.795 64.2679 20.8075C64.266 20.8199 64.2616 20.8319 64.255 20.8426C64.2454 20.8523 64.2338 20.8598 64.221 20.8646C64.2083 20.8694 64.1946 20.8715 64.181 20.8706Z"/>
</mask>
<path d="M64.181 20.8706C64.164 20.871 64.1472 20.8661 64.133 20.8566C63.383 20.4106 62.877 20.8426 62.873 20.8566C62.8643 20.8655 62.8538 20.8726 62.8423 20.8774C62.8308 20.8822 62.8185 20.8847 62.806 20.8847C62.7935 20.8847 62.7812 20.8822 62.7697 20.8774C62.7582 20.8726 62.7477 20.8655 62.739 20.8566C62.7301 20.8479 62.7231 20.8375 62.7182 20.826C62.7134 20.8145 62.7109 20.8021 62.7109 20.7896C62.7109 20.7772 62.7134 20.7648 62.7182 20.7533C62.7231 20.7418 62.7301 20.7314 62.739 20.7226C62.739 20.7226 63.353 20.1946 64.223 20.7106C64.2338 20.7172 64.2431 20.7258 64.2506 20.736C64.258 20.7462 64.2634 20.7577 64.2664 20.77C64.2693 20.7823 64.2699 20.795 64.2679 20.8075C64.266 20.8199 64.2616 20.8319 64.255 20.8426C64.2454 20.8523 64.2338 20.8598 64.221 20.8646C64.2083 20.8694 64.1946 20.8715 64.181 20.8706Z" fill="white"/>
<path d="M64.181 20.8706L64.244 19.8726L64.2033 19.8701L64.1626 19.8708L64.181 20.8706ZM64.133 20.8566L64.686 20.0235L64.6654 20.0098L64.6441 19.9971L64.133 20.8566ZM62.873 20.8566L63.5858 21.558L63.7645 21.3764L63.8345 21.1314L62.873 20.8566ZM62.739 20.8566L63.4518 20.1552L63.4461 20.1495L63.4404 20.1439L62.739 20.8566ZM62.7109 20.7896H61.7109H62.7109ZM62.739 20.7226L63.4404 21.4354L63.739 21.1416V20.7226H62.739ZM64.223 20.7106L64.7433 19.8566L64.7331 19.8505L64.223 20.7106ZM64.255 20.8426L64.9629 21.549L65.0467 21.4649L65.1086 21.3636L64.255 20.8426ZM64.1626 19.8708C64.3485 19.8674 64.5311 19.9206 64.686 20.0235L63.58 21.6898C63.7634 21.8115 63.9794 21.8745 64.1994 21.8705L64.1626 19.8708ZM64.6441 19.9971C64.0371 19.6362 63.4533 19.5984 62.9856 19.7128C62.765 19.7667 62.5865 19.8503 62.4551 19.9284C62.3895 19.9674 62.3311 20.0077 62.281 20.047C62.2569 20.0659 62.2282 20.0896 62.1983 20.1174C62.1847 20.1301 62.1605 20.1532 62.133 20.1836C62.1201 20.1979 62.0952 20.2261 62.0673 20.2641C62.0624 20.2708 61.9648 20.3955 61.9115 20.5819L63.8345 21.1314C63.8025 21.2434 63.758 21.3238 63.7388 21.3569C63.7154 21.3975 63.6935 21.4286 63.6798 21.4473C63.6525 21.4844 63.6285 21.5116 63.6167 21.5247C63.5914 21.5527 63.5704 21.5726 63.5609 21.5814C63.5392 21.6016 63.5225 21.615 63.5141 21.6217C63.4953 21.6364 63.483 21.6441 63.4771 21.6476C63.4705 21.6515 63.4664 21.6534 63.4645 21.6542C63.4623 21.6551 63.4612 21.6554 63.4609 21.6555C63.4583 21.6561 63.4627 21.6541 63.4779 21.6563C63.4925 21.6584 63.5403 21.6676 63.6219 21.7161L64.6441 19.9971ZM62.1602 20.1552C62.2446 20.0695 62.3452 20.0015 62.4559 19.9551L63.2287 21.7997C63.3625 21.7437 63.4839 21.6616 63.5858 21.558L62.1602 20.1552ZM62.4559 19.9551C62.5667 19.9087 62.6857 19.8847 62.806 19.8847V21.8847C62.9512 21.8847 63.0949 21.8558 63.2287 21.7997L62.4559 19.9551ZM62.806 19.8847C62.9262 19.8847 63.0452 19.9086 63.1561 19.9551L62.3833 21.7997C62.5171 21.8558 62.6608 21.8847 62.806 21.8847V19.8847ZM63.1561 19.9551C63.2668 20.0015 63.3674 20.0695 63.4518 20.1552L62.0262 21.558C62.1281 21.6616 62.2495 21.7437 62.3833 21.7997L63.1561 19.9551ZM63.4404 20.1439C63.5262 20.2283 63.5942 20.3289 63.6406 20.4396L61.7959 21.2124C61.8519 21.3461 61.934 21.4675 62.0376 21.5694L63.4404 20.1439ZM63.6406 20.4396C63.687 20.5505 63.7109 20.6695 63.7109 20.7896H61.7109C61.7109 20.9347 61.7398 21.0784 61.7959 21.2124L63.6406 20.4396ZM63.7109 20.7896C63.7109 20.9098 63.687 21.0288 63.6406 21.1397L61.7959 20.3669C61.7398 20.5008 61.7109 20.6445 61.7109 20.7896H63.7109ZM63.6406 21.1397C63.5942 21.2504 63.5262 21.351 63.4404 21.4354L62.0376 20.0099C61.934 20.1118 61.8519 20.2332 61.7959 20.3669L63.6406 21.1397ZM62.739 20.7226C63.391 21.4808 63.3906 21.4812 63.3901 21.4816C63.39 21.4817 63.3896 21.4821 63.3893 21.4823C63.3887 21.4828 63.3881 21.4833 63.3876 21.4838C63.3865 21.4847 63.3854 21.4856 63.3843 21.4865C63.3822 21.4883 63.3802 21.49 63.3783 21.4916C63.3745 21.4947 63.3711 21.4975 63.3681 21.4998C63.3622 21.5046 63.3578 21.5079 63.3548 21.51C63.349 21.5143 63.3482 21.5144 63.3518 21.5124C63.36 21.5076 63.3787 21.4981 63.404 21.4916C63.429 21.4851 63.5239 21.4586 63.7129 21.5707L64.7331 19.8505C64.0521 19.4466 63.405 19.4261 62.9055 19.5547C62.6685 19.6157 62.4794 19.7059 62.3453 19.784C62.2777 19.8234 62.2222 19.8608 62.1794 19.8919C62.1579 19.9075 62.1395 19.9216 62.1241 19.9338C62.1164 19.9399 62.1095 19.9456 62.1033 19.9507C62.1002 19.9533 62.0973 19.9557 62.0946 19.958C62.0932 19.9591 62.0919 19.9602 62.0906 19.9613C62.09 19.9618 62.0894 19.9624 62.0888 19.9629C62.0885 19.9632 62.088 19.9635 62.0879 19.9637C62.0874 19.964 62.087 19.9644 62.739 20.7226ZM63.7028 21.5647C63.6012 21.5028 63.513 21.4216 63.443 21.3258L65.0582 20.1463C64.9733 20.03 64.8663 19.9316 64.7432 19.8566L63.7028 21.5647ZM63.443 21.3258C63.373 21.2299 63.3225 21.1211 63.2945 21.0056L65.2382 20.5344C65.2043 20.3943 65.143 20.2625 65.0582 20.1463L63.443 21.3258ZM63.2945 21.0056C63.2665 20.8902 63.2616 20.7703 63.2799 20.653L65.2559 20.9619C65.2781 20.8196 65.2721 20.6744 65.2382 20.5344L63.2945 21.0056ZM63.2799 20.653C63.2982 20.5357 63.3395 20.4231 63.4014 20.3217L65.1086 21.3636C65.1837 21.2406 65.2337 21.1041 65.2559 20.9619L63.2799 20.653ZM63.5471 20.1363C63.6379 20.0453 63.747 19.9748 63.8671 19.9293L64.5749 21.7999C64.7205 21.7448 64.8528 21.6593 64.9629 21.549L63.5471 20.1363ZM63.8671 19.9293C63.9873 19.8839 64.1158 19.8645 64.244 19.8726L64.118 21.8687C64.2735 21.8785 64.4292 21.855 64.5749 21.7999L63.8671 19.9293Z" fill="#257E7E" mask="url(#path-51-inside-14_151_8660)"/>
<path d="M64.3734 20.4059L64.373 20.4046L64.3734 20.4059ZM64.3734 20.4059L64.3735 20.4065L64.3734 20.4059ZM64.4563 20.438L64.3981 20.4289M64.4563 20.438L64.373 20.4046L64.3737 20.4053L64.374 20.4057L64.3799 20.4113L64.3866 20.4178L64.3981 20.4289M64.4563 20.438L64.3981 20.4289M64.4563 20.438L64.3981 20.4289" fill="white" stroke="#257E7E"/>
<mask id="path-54-inside-15_151_8660" fill="white">
<path d="M63.7066 21.3494C63.7066 21.3969 63.6925 21.4433 63.6661 21.4827C63.6397 21.5222 63.6023 21.5529 63.5584 21.5711C63.5146 21.5893 63.4663 21.594 63.4197 21.5848C63.3732 21.5755 63.3304 21.5527 63.2969 21.5191C63.2633 21.4855 63.2404 21.4428 63.2312 21.3962C63.2219 21.3496 63.2267 21.3014 63.2448 21.2575C63.263 21.2137 63.2938 21.1762 63.3332 21.1498C63.3727 21.1235 63.4191 21.1094 63.4666 21.1094C63.4982 21.1091 63.5295 21.1151 63.5587 21.1271C63.588 21.1391 63.6145 21.1567 63.6369 21.1791C63.6592 21.2014 63.6769 21.228 63.6888 21.2572C63.7008 21.2865 63.7068 21.3178 63.7066 21.3494Z"/>
</mask>
<path d="M63.7066 21.3494C63.7066 21.3969 63.6925 21.4433 63.6661 21.4827C63.6397 21.5222 63.6023 21.5529 63.5584 21.5711C63.5146 21.5893 63.4663 21.594 63.4197 21.5848C63.3732 21.5755 63.3304 21.5527 63.2969 21.5191C63.2633 21.4855 63.2404 21.4428 63.2312 21.3962C63.2219 21.3496 63.2267 21.3014 63.2448 21.2575C63.263 21.2137 63.2938 21.1762 63.3332 21.1498C63.3727 21.1235 63.4191 21.1094 63.4666 21.1094C63.4982 21.1091 63.5295 21.1151 63.5587 21.1271C63.588 21.1391 63.6145 21.1567 63.6369 21.1791C63.6592 21.2014 63.6769 21.228 63.6888 21.2572C63.7008 21.2865 63.7068 21.3178 63.7066 21.3494Z" fill="white"/>
<path d="M63.4666 21.1094V22.1094L63.475 22.1093L63.4666 21.1094ZM62.7066 21.3494C62.7066 21.1991 62.7511 21.0521 62.8346 20.9272L64.4976 22.0383C64.6338 21.8344 64.7066 21.5946 64.7066 21.3494H62.7066ZM62.8346 20.9272C62.9182 20.8022 63.0369 20.7048 63.1757 20.6472L63.9411 22.495C64.1677 22.4011 64.3613 22.2422 64.4976 22.0383L62.8346 20.9272ZM63.1757 20.6472C63.3146 20.5897 63.4674 20.5747 63.6148 20.604L63.2247 22.5656C63.4652 22.6134 63.7145 22.5889 63.9411 22.495L63.1757 20.6472ZM63.6148 20.604C63.7623 20.6333 63.8977 20.7057 64.004 20.812L62.5898 22.2262C62.7632 22.3996 62.9841 22.5177 63.2247 22.5656L63.6148 20.604ZM64.004 20.812C64.1102 20.9182 64.1826 21.0536 64.212 21.2011L62.2504 21.5913C62.2982 21.8319 62.4164 22.0528 62.5898 22.2262L64.004 20.812ZM64.212 21.2011C64.2413 21.3486 64.2262 21.5014 64.1687 21.6402L62.321 20.8749C62.2271 21.1014 62.2025 21.3507 62.2504 21.5913L64.212 21.2011ZM64.1687 21.6402C64.1112 21.7791 64.0138 21.8978 63.8888 21.9813L62.7777 20.3184C62.5738 20.4546 62.4148 20.6482 62.321 20.8749L64.1687 21.6402ZM63.8888 21.9813C63.7638 22.0648 63.6169 22.1094 63.4666 22.1094V20.1094C63.2213 20.1094 62.9816 20.1821 62.7777 20.3184L63.8888 21.9813ZM63.475 22.1093C63.3739 22.1102 63.2736 22.0909 63.1799 22.0526L63.9375 20.2016C63.7854 20.1394 63.6224 20.108 63.4581 20.1094L63.475 22.1093ZM63.1799 22.0526C63.0863 22.0143 63.0012 21.9577 62.9298 21.8862L64.344 20.472C64.2278 20.3558 64.0896 20.2639 63.9375 20.2016L63.1799 22.0526ZM62.9298 21.8862C62.8583 21.8147 62.8017 21.7297 62.7634 21.636L64.6143 20.8784C64.5521 20.7263 64.4601 20.5881 64.344 20.472L62.9298 21.8862ZM62.7634 21.636C62.725 21.5424 62.7057 21.4421 62.7066 21.3409L64.7065 21.3578C64.7079 21.1935 64.6766 21.0306 64.6143 20.8784L62.7634 21.636Z" fill="#257E7E" mask="url(#path-54-inside-15_151_8660)"/>
<path d="M66.7621 50.1484H42.3481C41.5561 50.1484 40.9141 50.7905 40.9141 51.5824V65.6404C40.9141 66.4324 41.5561 67.0744 42.3481 67.0744H66.7621C67.554 67.0744 68.1961 66.4324 68.1961 65.6404V51.5824C68.1961 50.7905 67.554 50.1484 66.7621 50.1484Z" fill="#3ACAAF" stroke="#257E7E" stroke-linecap="round" stroke-linejoin="round"/>
<path d="M45.8958 63.4922H43.0078V64.6862H45.8958V63.4922Z" fill="#257E7E"/>
<path d="M49.7318 63.4922H46.8438V64.6862H49.7318V63.4922Z" fill="#257E7E"/>
<path d="M53.5599 63.4922H50.6719V64.6862H53.5599V63.4922Z" fill="#257E7E"/>
<path d="M57.3958 63.4922H54.5078V64.6862H57.3958V63.4922Z" fill="#257E7E"/>
<path d="M61.2318 63.4922H58.3438V64.6862H61.2318V63.4922Z" fill="#257E7E"/>
<path d="M65.0599 63.4922H62.1719V64.6862H65.0599V63.4922Z" fill="#257E7E"/>
<path d="M48.6178 56.0234H43.6698C43.3042 56.0234 43.0078 56.3198 43.0078 56.6854V60.0414C43.0078 60.407 43.3042 60.7034 43.6698 60.7034H48.6178C48.9834 60.7034 49.2798 60.407 49.2798 60.0414V56.6854C49.2798 56.3198 48.9834 56.0234 48.6178 56.0234Z" fill="white" stroke="#257E7E" stroke-linecap="round" stroke-linejoin="round"/>
<path d="M56.7478 52.1406H43.0078V52.8366H56.7478V52.1406Z" fill="#257E7E"/>
<path d="M55.307 30.7513C58.71 31.5426 60.8272 34.9427 60.0359 38.3457C59.2446 41.7486 55.8445 43.8658 52.4416 43.0746C49.0386 42.2833 46.9214 38.8832 47.7127 35.4802C48.5039 32.0773 51.904 29.9601 55.307 30.7513Z" fill="#828282" stroke="#828282"/>
<path d="M53.9498 43.2811V42.1711C53.1298 42.1391 52.5165 41.8725 52.1098 41.3711C51.7031 40.8698 51.4845 40.1365 51.4538 39.1711L53.1378 38.8851C53.1456 39.2219 53.1878 39.557 53.2638 39.8851C53.3074 40.1095 53.4127 40.3173 53.5678 40.4851C53.6376 40.552 53.7201 40.6041 53.8105 40.6385C53.9009 40.6728 53.9972 40.6887 54.0938 40.6851C54.1924 40.696 54.2921 40.6794 54.3818 40.637C54.4714 40.5946 54.5476 40.5282 54.6018 40.4451C54.696 40.2781 54.7436 40.0888 54.7398 39.8971C54.7525 39.5356 54.6541 39.1789 54.4578 38.8751C54.239 38.5656 53.9801 38.2865 53.6878 38.0451L52.6718 37.1731C52.4506 36.9679 52.2435 36.7481 52.0518 36.5151C51.8643 36.2869 51.7169 36.0286 51.6158 35.7511C51.5012 35.4249 51.4464 35.0808 51.4538 34.7351C51.4538 33.9871 51.6665 33.4038 52.0918 32.9851C52.5598 32.5498 53.169 32.2978 53.8078 32.2751V31.2031H54.3798V32.2671C54.7515 32.2735 55.1155 32.374 55.4378 32.5591C55.6991 32.717 55.9154 32.9394 56.0658 33.2051C56.211 33.4707 56.3155 33.7565 56.3758 34.0531C56.4381 34.3464 56.4782 34.6439 56.4958 34.9431L54.7858 35.2031C54.7815 34.9411 54.7581 34.6797 54.7158 34.4211C54.6902 34.2283 54.6158 34.0452 54.4998 33.8891C54.4403 33.8231 54.3659 33.7723 54.2827 33.741C54.1995 33.7097 54.11 33.6987 54.0218 33.7091C53.9218 33.7073 53.823 33.7305 53.7343 33.7766C53.6456 33.8227 53.5698 33.8903 53.5138 33.9731C53.4001 34.1383 53.34 34.3346 53.3418 34.5351C53.3278 34.8449 53.4179 35.1505 53.5978 35.4031C53.7806 35.6332 53.9812 35.8485 54.1978 36.0471L55.1978 36.9071C55.4614 37.1467 55.7055 37.4069 55.9278 37.6851C56.1513 37.9652 56.3326 38.2765 56.4658 38.6091C56.6053 38.9817 56.6732 39.3773 56.6658 39.7751C56.6707 40.1738 56.583 40.5681 56.4098 40.9271C56.2431 41.2691 55.9875 41.5599 55.6698 41.7691C55.3276 41.9914 54.9348 42.1235 54.5278 42.1531V43.2751L53.9498 43.2811Z" fill="white" stroke="#828282" stroke-linecap="round" stroke-linejoin="round"/>
<path d="M59.2309 35.1649C60.299 35.1649 61.1649 34.299 61.1649 33.2309C61.1649 32.1628 60.299 31.2969 59.2309 31.2969C58.1628 31.2969 57.2969 32.1628 57.2969 33.2309C57.2969 34.299 58.1628 35.1649 59.2309 35.1649Z" fill="#3ACAAF" stroke="#828282" stroke-linecap="round" stroke-linejoin="round"/>
<mask id="path-68-inside-16_151_8660" fill="white">
<path d="M59.2253 34.0727C59.1863 34.0711 59.1483 34.0609 59.1137 34.043C59.0791 34.025 59.0489 33.9996 59.0253 33.9687L58.0713 32.7347C58.028 32.6788 58.0088 32.6079 58.0178 32.5378C58.0268 32.4676 58.0633 32.4039 58.1193 32.3607C58.1752 32.3175 58.2461 32.2983 58.3162 32.3073C58.3863 32.3163 58.45 32.3528 58.4933 32.4087L59.2473 33.3867L61.2253 31.1067C61.2731 31.0601 61.3366 31.0332 61.4034 31.0314C61.4701 31.0295 61.5351 31.0528 61.5855 31.0966C61.6358 31.1404 61.6679 31.2015 61.6752 31.2679C61.6826 31.3342 61.6648 31.4009 61.6253 31.4547L59.4353 33.9807C59.4093 34.0107 59.377 34.0346 59.3407 34.0505C59.3043 34.0664 59.2649 34.074 59.2253 34.0727Z"/>
</mask>
<path d="M59.2253 34.0727C59.1863 34.0711 59.1483 34.0609 59.1137 34.043C59.0791 34.025 59.0489 33.9996 59.0253 33.9687L58.0713 32.7347C58.028 32.6788 58.0088 32.6079 58.0178 32.5378C58.0268 32.4676 58.0633 32.4039 58.1193 32.3607C58.1752 32.3175 58.2461 32.2983 58.3162 32.3073C58.3863 32.3163 58.45 32.3528 58.4933 32.4087L59.2473 33.3867L61.2253 31.1067C61.2731 31.0601 61.3366 31.0332 61.4034 31.0314C61.4701 31.0295 61.5351 31.0528 61.5855 31.0966C61.6358 31.1404 61.6679 31.2015 61.6752 31.2679C61.6826 31.3342 61.6648 31.4009 61.6253 31.4547L59.4353 33.9807C59.4093 34.0107 59.377 34.0346 59.3407 34.0505C59.3043 34.0664 59.2649 34.074 59.2253 34.0727Z" fill="#828282"/>
<path d="M59.0253 33.9687L59.8191 33.3606L59.8164 33.3571L59.0253 33.9687ZM58.0713 32.7347L57.2799 33.3461L57.2801 33.3463L58.0713 32.7347ZM58.4933 32.4087L59.2852 31.7981L59.2846 31.7974L58.4933 32.4087ZM59.2473 33.3867L58.4553 33.9973L59.2016 34.9653L60.0026 34.042L59.2473 33.3867ZM61.2253 31.1067L60.5274 30.3904L60.4974 30.4197L60.4699 30.4514L61.2253 31.1067ZM61.6253 31.4547L62.3808 32.1098L62.4073 32.0793L62.4312 32.0467L61.6253 31.4547ZM59.4353 33.9807L58.6797 33.3257L58.6784 33.3271L59.4353 33.9807ZM59.2672 33.0736C59.3746 33.0781 59.4797 33.1061 59.575 33.1557L58.6523 34.9302C58.8169 35.0157 58.9981 35.0641 59.1833 35.0718L59.2672 33.0736ZM59.575 33.1557C59.6704 33.2053 59.7537 33.2752 59.8191 33.3606L58.2314 34.5769C58.3442 34.724 58.4879 34.8446 58.6523 34.9302L59.575 33.1557ZM59.8164 33.3571L58.8624 32.1231L57.2801 33.3463L58.2341 34.5803L59.8164 33.3571ZM58.8626 32.1234C58.9815 32.2773 59.0344 32.4721 59.0097 32.6651L57.0259 32.4105C56.9832 32.7437 57.0745 33.0802 57.2799 33.3461L58.8626 32.1234ZM59.0097 32.6651C58.9849 32.858 58.8845 33.0332 58.7306 33.1521L57.5079 31.5694C57.2421 31.7747 57.0687 32.0773 57.0259 32.4105L59.0097 32.6651ZM58.7306 33.1521C58.5767 33.271 58.3818 33.3239 58.1889 33.2991L58.4435 31.3154C58.1103 31.2726 57.7738 31.364 57.5079 31.5694L58.7306 33.1521ZM58.1889 33.2991C57.996 33.2744 57.8208 33.174 57.7019 33.0201L59.2846 31.7974C59.0793 31.5315 58.7767 31.3582 58.4435 31.3154L58.1889 33.2991ZM57.7013 33.0193L58.4553 33.9973L60.0392 32.7761L59.2852 31.7981L57.7013 33.0193ZM60.0026 34.042L61.9806 31.762L60.4699 30.4514L58.4919 32.7314L60.0026 34.042ZM61.9231 31.823C61.7911 31.9515 61.6157 32.0258 61.4316 32.031L61.3752 30.0318C61.0576 30.0407 60.755 30.1687 60.5274 30.3904L61.9231 31.823ZM61.4316 32.031C61.2474 32.0361 61.0681 31.9719 60.9291 31.851L62.2418 30.3421C62.0021 30.1336 61.6928 30.0228 61.3752 30.0318L61.4316 32.031ZM60.9291 31.851C60.7902 31.7301 60.7017 31.5614 60.6814 31.3783L62.6691 31.1575C62.6341 30.8417 62.4815 30.5506 62.2418 30.3421L60.9291 31.851ZM60.6814 31.3783C60.661 31.1952 60.7103 31.0112 60.8193 30.8627L62.4312 32.0467C62.6193 31.7907 62.7042 31.4732 62.6691 31.1575L60.6814 31.3783ZM60.8697 30.7997L58.6797 33.3257L60.1908 34.6358L62.3808 32.1098L60.8697 30.7997ZM58.6784 33.3271C58.75 33.2442 58.8392 33.1785 58.9394 33.1345L59.742 34.9665C59.9149 34.8907 60.0687 34.7772 60.1921 34.6343L58.6784 33.3271ZM58.9394 33.1345C59.0397 33.0906 59.1485 33.0697 59.2579 33.0733L59.1926 35.0722C59.3813 35.0783 59.569 35.0422 59.742 34.9665L58.9394 33.1345Z" fill="#828282" mask="url(#path-68-inside-16_151_8660)"/>
</svg>
