<svg width="100" height="100" viewBox="0 0 100 100" fill="none" xmlns="http://www.w3.org/2000/svg">
<path d="M100 76.4766H0V76.5266H100V76.4766Z" fill="#CDCDCD"/>
<path d="M47.3986 67.56H8.78262C8.47975 67.56 8.18928 67.4397 7.97511 67.2255C7.76094 67.0114 7.64063 66.7209 7.64062 66.418V12.132C7.64326 11.8309 7.76474 11.5429 7.97862 11.3309C8.19251 11.1189 8.48147 11 8.78262 11H47.3986C47.7015 11 47.992 11.1203 48.2061 11.3345C48.4203 11.5487 48.5406 11.8391 48.5406 12.142V66.418C48.5406 66.7209 48.4203 67.0114 48.2061 67.2255C47.992 67.4397 47.7015 67.56 47.3986 67.56ZM8.78262 11.04C8.49317 11.0405 8.21572 11.1557 8.01105 11.3604C7.80637 11.5651 7.69115 11.8425 7.69062 12.132V66.418C7.69115 66.7075 7.80637 66.9849 8.01105 67.1896C8.21572 67.3943 8.49317 67.5095 8.78262 67.51H47.3986C47.6881 67.5095 47.9655 67.3943 48.1702 67.1896C48.3749 66.9849 48.4901 66.7075 48.4906 66.418V12.132C48.4901 11.8425 48.3749 11.5651 48.1702 11.3604C47.9655 11.1557 47.6881 11.0405 47.3986 11.04H8.78262Z" fill="#CDCDCD"/>
<path d="M90.6604 67.56H52.0404C51.7377 67.5595 51.4476 67.439 51.2335 67.2249C51.0195 67.0109 50.899 66.7207 50.8984 66.418V12.132C50.9016 11.831 51.0232 11.5434 51.237 11.3315C51.4508 11.1196 51.7394 11.0005 52.0404 11H90.6604C90.9609 11.001 91.2488 11.1204 91.4619 11.3323C91.6749 11.5442 91.7958 11.8316 91.7984 12.132V66.418C91.7984 66.7202 91.6787 67.0101 91.4654 67.2241C91.2521 67.4382 90.9626 67.5589 90.6604 67.56ZM52.0404 11.04C51.751 11.0405 51.4735 11.1557 51.2689 11.3604C51.0642 11.5651 50.949 11.8425 50.9484 12.132V66.418C50.949 66.7075 51.0642 66.9849 51.2689 67.1896C51.4735 67.3943 51.751 67.5095 52.0404 67.51H90.6604C90.9499 67.5095 91.2273 67.3943 91.432 67.1896C91.6367 66.9849 91.7519 66.7075 91.7524 66.418V12.132C91.7519 11.8425 91.6367 11.5651 91.432 11.3604C91.2273 11.1557 90.9499 11.0405 90.6604 11.04H52.0404Z" fill="#CDCDCD"/>
<path d="M15.4578 78.3828H10.2578V78.4328H15.4578V78.3828Z" fill="#CDCDCD"/>
<path d="M38.0372 77.8438H29.0312V77.8938H38.0372V77.8438Z" fill="#CDCDCD"/>
<path d="M27.8143 80.2422H15.6562V80.2922H27.8143V80.2422Z" fill="#CDCDCD"/>
<path d="M89.7444 79.9062H85.8984V79.9563H89.7444V79.9062Z" fill="#CDCDCD"/>
<path d="M84.1127 79.9062H73.0547V79.9563H84.1127V79.9062Z" fill="#CDCDCD"/>
<path d="M66.3003 79.0625H51.4062V79.1125H66.3003V79.0625Z" fill="#CDCDCD"/>
<path d="M33.9296 59.1304H23.0136L22.3516 51.4844H33.2676L33.9296 59.1304Z" fill="#B6B3B3"/>
<path d="M34.4941 59.1304H23.5781L22.9141 51.4844H33.8301L34.4941 59.1304Z" fill="#B6B3B3"/>
<path d="M25.0671 57.4948L24.7031 53.1328H32.3351L32.6991 57.4948H25.0671Z" fill="white"/>
<path d="M40.9252 59.1328H39.3672V76.4788H40.9252V59.1328Z" fill="#B6B3B3"/>
<path d="M41.4101 59.1328H40.3281V76.4788H41.4101V59.1328Z" fill="#B6B3B3"/>
<path d="M26.3321 61.0469H41.4141V59.1329H26.3321V61.0469Z" fill="#B6B3B3"/>
<path d="M26.8627 61.0469H25.3047V76.4789H26.8627V61.0469Z" fill="#B6B3B3"/>
<path d="M27.3554 61.0469H26.2734V76.4789H27.3554V61.0469Z" fill="#B6B3B3"/>
<path d="M15.7689 61.0469H14.2109V76.4789H15.7689V61.0469Z" fill="#B6B3B3"/>
<path d="M16.2617 61.0469H15.1797V76.4789H16.2617V61.0469Z" fill="#B6B3B3"/>
<path d="M31.058 61.0469H29.5V76.4789H31.058V61.0469Z" fill="#B6B3B3"/>
<path d="M31.5507 61.0469H30.4688V76.4789H31.5507V61.0469Z" fill="#B6B3B3"/>
<path d="M26.3269 59.1328H14.2109V61.0468H26.3269V59.1328Z" fill="#B6B3B3"/>
<path d="M59.0507 16.4844H13.8047V42.4404H59.0507V16.4844Z" fill="#B6B3B3"/>
<path d="M60.2572 16.4844H14.3672V42.4404H60.2572V16.4844Z" fill="#B6B3B3"/>
<path d="M59.0507 42.4375H13.8047V44.6855H59.0507V42.4375Z" fill="#B6B3B3"/>
<path d="M62.2728 42.4375H16.3828V44.6855H62.2728V42.4375Z" fill="#B6B3B3"/>
<path d="M58.5625 40.7497V18.1797L16.0585 18.1797V40.7497H58.5625Z" fill="#FAFAFA"/>
<path d="M19.1797 40.7497L29.1157 18.1797H33.8077L23.8697 40.7497H19.1797Z" fill="white"/>
<path d="M16.8408 39.0623C16.8247 39.0623 16.8089 39.0591 16.7941 39.053C16.7793 39.0469 16.7658 39.0379 16.7545 39.0266C16.7432 39.0152 16.7342 39.0018 16.728 38.987C16.7219 38.9722 16.7187 38.9563 16.7188 38.9403V19.2783C16.7225 19.2489 16.7369 19.2218 16.7592 19.2023C16.7815 19.1827 16.8101 19.1719 16.8397 19.1719C16.8694 19.1719 16.898 19.1827 16.9203 19.2023C16.9426 19.2218 16.957 19.2489 16.9607 19.2783V38.9403C16.9608 38.9723 16.9482 39.003 16.9257 39.0259C16.9033 39.0487 16.8728 39.0618 16.8408 39.0623Z" fill="#B6B3B3"/>
<path d="M24.8828 40.7497L34.8208 18.1797H36.6488L26.7128 40.7497H24.8828Z" fill="white"/>
<path d="M58.5625 40.7497V18.1797H58.3465V40.7497H58.5625Z" fill="#B6B3B3"/>
<path opacity="0.6" d="M60.6578 20.7319H15.4118L15.2578 18.8359H60.5018L60.6578 20.7319Z" fill="#CDCDCD"/>
<path opacity="0.6" d="M60.6578 23.8393H15.4118L15.2578 21.9453H60.5018L60.6578 23.8393Z" fill="#CDCDCD"/>
<path opacity="0.6" d="M60.6578 26.9409H15.4118L15.2578 25.0469H60.5018L60.6578 26.9409Z" fill="#CDCDCD"/>
<path opacity="0.6" d="M60.6578 30.0522H15.4118L15.2578 28.1562H60.5018L60.6578 30.0522Z" fill="#CDCDCD"/>
<path opacity="0.6" d="M60.6578 33.1616H15.4118L15.2578 31.2656H60.5018L60.6578 33.1616Z" fill="#CDCDCD"/>
<path opacity="0.6" d="M60.6578 36.269H15.4118L15.2578 34.375H60.5018L60.6578 36.269Z" fill="#CDCDCD"/>
<path d="M73.0816 28.6641H85.2656V16.4801H73.0816V28.6641Z" fill="#CDCDCD"/>
<path d="M73.0869 16.4844H72.5469V28.6684H73.0869V16.4844Z" fill="#E0E0E0"/>
<path d="M74.7352 27.0156H83.6172V18.1336H74.7352V27.0156Z" fill="white"/>
<path d="M79.1758 25.5508L82.1484 22.5781L79.1758 19.6054L76.2031 22.5781L79.1758 25.5508Z" fill="#F5F5F5"/>
<path d="M68.8863 44.6875H81.0703V32.5035H68.8863V44.6875Z" fill="#CDCDCD"/>
<path d="M68.8837 32.5078H68.3438V44.6918H68.8837V32.5078Z" fill="#E0E0E0"/>
<path d="M70.5399 43.0391H79.4219V34.1571H70.5399V43.0391Z" fill="white"/>
<path d="M74.349 40.4844H75.613C76.31 40.4844 76.875 39.9194 76.875 39.2224V37.9584C76.875 37.2614 76.31 36.6964 75.613 36.6964H74.349C73.652 36.6964 73.087 37.2614 73.087 37.9584V39.2224C73.087 39.9194 73.652 40.4844 74.349 40.4844Z" fill="#F5F5F5"/>
<path d="M61.5458 50.6094H58.5078V75.6654H61.5458V50.6094Z" fill="#B6B3B3"/>
<path d="M88.1017 75.6641H58.9297V76.4821H88.1017V75.6641Z" fill="#B6B3B3"/>
<path d="M61.5474 75.6641H88.5234V50.6081H61.5474V75.6641Z" fill="#FAFAFA"/>
<path d="M83.2423 65.2503H66.8283C66.0533 65.2503 65.3101 64.9424 64.7621 64.3944C64.2141 63.8464 63.9062 63.1032 63.9062 62.3283C63.9062 61.5533 64.2141 60.8101 64.7621 60.2621C65.3101 59.7141 66.0533 59.4062 66.8283 59.4062H83.2423C84.0172 59.4062 84.7604 59.7141 85.3084 60.2621C85.8564 60.8101 86.1643 61.5533 86.1643 62.3283C86.1643 63.1032 85.8564 63.8464 85.3084 64.3944C84.7604 64.9424 84.0172 65.2503 83.2423 65.2503ZM66.8283 59.6023C66.1053 59.6023 65.4119 59.8895 64.9007 60.4007C64.3895 60.9119 64.1023 61.6053 64.1023 62.3283C64.1023 63.0512 64.3895 63.7446 64.9007 64.2558C65.4119 64.767 66.1053 65.0543 66.8283 65.0543H83.2423C83.9652 65.0543 84.6586 64.767 85.1698 64.2558C85.681 63.7446 85.9683 63.0512 85.9683 62.3283C85.9683 61.6053 85.681 60.9119 85.1698 60.4007C84.6586 59.8895 83.9652 59.6023 83.2423 59.6023H66.8283Z" fill="#B6B3B3"/>
<path d="M83.2423 72.5159H66.8283C66.0533 72.5159 65.3101 72.208 64.7621 71.66C64.2141 71.1121 63.9062 70.3688 63.9062 69.5939C63.9062 68.8189 64.2141 68.0757 64.7621 67.5277C65.3101 66.9797 66.0533 66.6719 66.8283 66.6719H83.2423C84.0172 66.6719 84.7604 66.9797 85.3084 67.5277C85.8564 68.0757 86.1643 68.8189 86.1643 69.5939C86.1643 70.3688 85.8564 71.1121 85.3084 71.66C84.7604 72.208 84.0172 72.5159 83.2423 72.5159ZM66.8283 66.8679C66.4642 66.858 66.1018 66.9212 65.7626 67.0537C65.4234 67.1862 65.1141 67.3854 64.8531 67.6394C64.5921 67.8934 64.3847 68.1971 64.243 68.5326C64.1014 68.8682 64.0284 69.2287 64.0284 69.5929C64.0284 69.9571 64.1014 70.3176 64.243 70.6531C64.3847 70.9886 64.5921 71.2924 64.8531 71.5464C65.1141 71.8004 65.4234 71.9995 65.7626 72.132C66.1018 72.2646 66.4642 72.3277 66.8283 72.3179H83.2423C83.6063 72.3277 83.9687 72.2646 84.3079 72.132C84.6471 71.9995 84.9564 71.8004 85.2174 71.5464C85.4784 71.2924 85.6858 70.9886 85.8275 70.6531C85.9691 70.3176 86.0421 69.9571 86.0421 69.5929C86.0421 69.2287 85.9691 68.8682 85.8275 68.5326C85.6858 68.1971 85.4784 67.8934 85.2174 67.6394C84.9564 67.3854 84.6471 67.1862 84.3079 67.0537C83.9687 66.9212 83.6063 66.858 83.2423 66.8679H66.8283Z" fill="#B6B3B3"/>
<path d="M77.5071 61.6966H72.5531C72.3932 61.6934 72.2409 61.6278 72.1288 61.5138C72.0167 61.3998 71.9536 61.2465 71.9531 61.0866C71.9536 60.9267 72.0167 60.7733 72.1288 60.6593C72.2409 60.5453 72.3932 60.4797 72.5531 60.4766H77.5071C77.6687 60.4771 77.8236 60.5415 77.9379 60.6558C78.0522 60.7701 78.1166 60.9249 78.1171 61.0866C78.1166 61.2482 78.0522 61.403 77.9379 61.5173C77.8236 61.6316 77.6687 61.696 77.5071 61.6966Z" fill="#CDCDCD"/>
<path d="M83.2423 57.9768H66.8283C66.0533 57.9768 65.3101 57.669 64.7621 57.121C64.2141 56.573 63.9062 55.8298 63.9062 55.0548C63.9062 54.2798 64.2141 53.5366 64.7621 52.9886C65.3101 52.4407 66.0533 52.1328 66.8283 52.1328H83.2423C84.0172 52.1328 84.7604 52.4407 85.3084 52.9886C85.8564 53.5366 86.1643 54.2798 86.1643 55.0548C86.1643 55.8298 85.8564 56.573 85.3084 57.121C84.7604 57.669 84.0172 57.9768 83.2423 57.9768ZM66.8283 52.3288C66.1053 52.3288 65.4119 52.616 64.9007 53.1272C64.3895 53.6385 64.1023 54.3318 64.1023 55.0548C64.1023 55.7778 64.3895 56.4712 64.9007 56.9824C65.4119 57.4936 66.1053 57.7808 66.8283 57.7808H83.2423C83.9652 57.7808 84.6586 57.4936 85.1698 56.9824C85.681 56.4712 85.9683 55.7778 85.9683 55.0548C85.9683 54.3318 85.681 53.6385 85.1698 53.1272C84.6586 52.616 83.9652 52.3288 83.2423 52.3288H66.8283Z" fill="#B6B3B3"/>
<path d="M77.5071 54.4288H72.5531C72.3932 54.4256 72.2409 54.36 72.1288 54.246C72.0167 54.132 71.9536 53.9787 71.9531 53.8187C71.9557 53.6604 72.0197 53.5093 72.1317 53.3973C72.2437 53.2854 72.3948 53.2213 72.5531 53.2188H77.5071C77.667 53.2192 77.8204 53.2823 77.9344 53.3944C78.0484 53.5066 78.114 53.6589 78.1171 53.8187C78.1166 53.9804 78.0522 54.1352 77.9379 54.2495C77.8236 54.3638 77.6687 54.4282 77.5071 54.4288Z" fill="#CDCDCD"/>
<path d="M77.5071 68.9656H72.5531C72.3948 68.9631 72.2437 68.899 72.1317 68.787C72.0197 68.6751 71.9557 68.524 71.9531 68.3656C71.9562 68.2075 72.0204 68.0566 72.1323 67.9448C72.2441 67.8329 72.395 67.7687 72.5531 67.7656H77.5071C77.667 67.7661 77.8204 67.8292 77.9344 67.9413C78.0484 68.0534 78.114 68.2057 78.1171 68.3656C78.114 68.5255 78.0484 68.6778 77.9344 68.7899C77.8204 68.9021 77.667 68.9651 77.5071 68.9656Z" fill="#CDCDCD"/>
<path d="M89.0769 49.3359H61.5469V50.6099H89.0769V49.3359Z" fill="#B6B3B3"/>
<path d="M57.9129 50.6094H61.5469V49.3354H57.9129V50.6094Z" fill="#B6B3B3"/>
<path d="M49.9967 85.5124C71.4132 85.5124 88.7748 84.4987 88.7748 83.2484C88.7748 81.998 71.4132 80.9844 49.9967 80.9844C28.5803 80.9844 11.2188 81.998 11.2188 83.2484C11.2188 84.4987 28.5803 85.5124 49.9967 85.5124Z" fill="#F5F5F5"/>
<path d="M82.7273 29.6484H52.5833C52.5833 29.6484 47.1533 34.6484 47.1533 46.8044C47.1533 57.2584 51.2713 71.4324 49.7253 77.2344C48.5593 81.6124 42.9053 82.3644 40.1953 82.4684H68.8873C68.8873 82.4684 78.3233 83.0384 79.8693 77.2344C81.4153 71.4304 77.2973 57.2584 77.2973 46.8024C77.2973 34.6404 82.7273 29.6484 82.7273 29.6484Z" fill="#07B998"/>
<path opacity="0.7" d="M82.7273 29.6484H52.5833C52.5833 29.6484 47.1533 34.6484 47.1533 46.8044C47.1533 57.2584 51.2713 71.4324 49.7253 77.2344C48.5593 81.6124 42.9053 82.3644 40.1953 82.4684H68.8873C68.8873 82.4684 78.3233 83.0384 79.8693 77.2344C81.4153 71.4304 77.2973 57.2584 77.2973 46.8024C77.2973 34.6404 82.7273 29.6484 82.7273 29.6484Z" fill="white"/>
<g opacity="0.8">
<path opacity="0.8" d="M74.5299 42.4684H50.4219C51.1039 37.1204 52.9419 34.0084 53.9559 32.6484H77.2019C76.0619 35.0284 74.9859 38.2704 74.5299 42.4684Z" fill="#07B998"/>
<path opacity="0.3" d="M74.3295 45.3046H50.1875C50.2075 44.8186 50.2355 44.3466 50.2755 43.8906H74.4035C74.3702 44.3506 74.3455 44.822 74.3295 45.3046Z" fill="#07B998"/>
<path opacity="0.3" d="M57.7562 48.1386H50.1783C50.1649 47.6866 50.1576 47.2419 50.1562 46.8046V46.7266H57.7363V46.8026C57.7363 47.2446 57.7422 47.6906 57.7562 48.1386Z" fill="#07B998"/>
<path opacity="0.3" d="M74.476 50.9745H50.352C50.31 50.4985 50.276 50.0265 50.25 49.5625H74.384C74.408 50.0305 74.4387 50.5012 74.476 50.9745Z" fill="#07B998"/>
<path opacity="0.3" d="M74.7366 53.8046H50.6326C50.5766 53.3313 50.5246 52.86 50.4766 52.3906H74.6006C74.6346 52.8666 74.6846 53.3386 74.7366 53.8046Z" fill="#07B998"/>
<path opacity="0.3" d="M75.0845 56.6386H51.0005C50.9345 56.1666 50.8725 55.6946 50.8125 55.2266H74.9045C74.9605 55.6972 75.0205 56.1679 75.0845 56.6386Z" fill="#07B998"/>
<path opacity="0.3" d="M75.4851 59.4745H51.4031C51.3338 59.0025 51.2671 58.5318 51.2031 58.0625H75.2831C75.3491 58.5325 75.4171 59.0005 75.4851 59.4745Z" fill="#07B998"/>
<path opacity="0.3" d="M75.913 62.3124H51.839C51.801 62.0544 51.761 61.7924 51.721 61.5304L51.625 60.8984H75.699C75.771 61.3704 75.841 61.8424 75.913 62.3124Z" fill="#07B998"/>
<path opacity="0.3" d="M52.2547 65.1464C52.188 64.6797 52.1214 64.209 52.0547 63.7344H76.1247C76.1947 64.2064 76.2667 64.6764 76.3347 65.1464H52.2547Z" fill="#07B998"/>
<path opacity="0.3" d="M52.6351 67.9823C52.5791 67.5203 52.5171 67.0483 52.4531 66.5703H72.5331C72.6011 67.0463 72.6651 67.5183 72.7331 67.9823H52.6351Z" fill="#07B998"/>
<path opacity="0.3" d="M52.9367 70.8203C52.898 70.3589 52.854 69.8876 52.8047 69.4062H76.9087C76.9627 69.8903 77.0127 70.3623 77.0547 70.8203H52.9367Z" fill="#07B998"/>
<path opacity="0.3" d="M53.0753 73.6542C53.0753 73.1982 53.0572 72.7262 53.0312 72.2422H65.7492C65.7812 72.7362 65.7992 73.2082 65.8052 73.6542H53.0753Z" fill="#07B998"/>
</g>
<path d="M71.2001 80.9411C69.6701 81.2191 68.1201 81.0071 66.5821 80.9411C65.8446 80.8934 65.1042 80.9128 64.3701 80.9991C63.6501 81.0951 62.9341 81.2831 62.2081 81.2191C62.4481 81.0903 62.674 80.9368 62.8821 80.7611C62.8914 80.752 62.8981 80.7406 62.9015 80.7281C62.905 80.7156 62.9051 80.7025 62.9019 80.6899C62.8986 80.6773 62.8921 80.6658 62.8831 80.6566C62.874 80.6473 62.8626 80.6406 62.8501 80.6371C60.5921 79.8371 58.5361 82.0011 56.2861 81.4971C56.9241 81.0251 57.8221 81.0151 58.3661 80.3951C58.3762 80.3844 58.3829 80.371 58.3855 80.3565C58.3881 80.342 58.3865 80.3271 58.3807 80.3136C58.375 80.3 58.3655 80.2884 58.3533 80.2802C58.3411 80.2719 58.3268 80.2674 58.3121 80.2671C56.3001 80.2271 54.4001 81.0051 52.4001 81.1831C52.3041 81.1831 52.3041 81.3411 52.4001 81.3331C54.3301 81.1651 56.1801 80.4271 58.1261 80.4111C57.5441 80.9311 56.6561 80.9491 56.0641 81.4731C56.055 81.4824 56.0484 81.494 56.0449 81.5066C56.0415 81.5192 56.0414 81.5325 56.0446 81.5451C56.0478 81.5578 56.0543 81.5694 56.0633 81.5789C56.0723 81.5883 56.0836 81.5953 56.0961 81.5991C58.3641 82.2251 60.4281 80.0611 62.6681 80.7291C62.4345 80.9124 62.1801 81.0675 61.9101 81.1911C61.8975 81.1987 61.8874 81.2099 61.881 81.2232C61.8746 81.2365 61.8722 81.2514 61.8741 81.266C61.876 81.2806 61.8821 81.2944 61.8917 81.3056C61.9013 81.3168 61.914 81.325 61.9281 81.3291C62.6661 81.4531 63.3881 81.2951 64.1161 81.1791C64.9313 81.0622 65.7563 81.03 66.5781 81.0831C68.1321 81.1571 69.6921 81.3671 71.2361 81.0831C71.3381 81.0691 71.2981 80.9231 71.2001 80.9411Z" fill="#07B998"/>
</svg>
