<svg width="23" height="22" viewBox="0 0 23 22" fill="none" xmlns="http://www.w3.org/2000/svg">
<path fill-rule="evenodd" clip-rule="evenodd" d="M0.15625 1.838C0.15625 1.35053 0.349896 0.883032 0.694588 0.53834C1.03928 0.193648 1.50678 2.45031e-06 1.99425 2.45031e-06H20.3162C20.5578 -0.000392101 20.7971 0.0468654 21.0204 0.139069C21.2437 0.231273 21.4466 0.366612 21.6175 0.537339C21.7884 0.708065 21.924 0.910826 22.0164 1.13401C22.1089 1.3572 22.1564 1.59643 22.1562 1.838V20.16C22.1565 20.4016 22.1091 20.6409 22.0168 20.8642C21.9245 21.0875 21.7891 21.2904 21.6183 21.4613C21.4475 21.6322 21.2446 21.7678 21.0214 21.8602C20.7981 21.9526 20.5589 22.0001 20.3172 22H1.99425C1.7528 22 1.51371 21.9524 1.29065 21.86C1.06759 21.7676 0.864921 21.6321 0.694234 21.4613C0.523547 21.2905 0.388182 21.0878 0.295873 20.8647C0.203563 20.6416 0.156119 20.4025 0.15625 20.161V1.838ZM8.86425 8.388H11.8433V9.884C12.2733 9.024 13.3733 8.25 15.0262 8.25C18.1952 8.25 18.9463 9.963 18.9463 13.106V18.928H15.7393V13.822C15.7393 12.032 15.3092 11.022 14.2172 11.022C12.7022 11.022 12.0723 12.111 12.0723 13.822V18.928H8.86425V8.388ZM3.36425 18.791H6.57225V8.25H3.36425V18.79V18.791ZM7.03125 4.812C7.0373 5.08668 6.98842 5.35979 6.88749 5.61532C6.78656 5.87084 6.6356 6.10364 6.44348 6.30003C6.25136 6.49643 6.02195 6.65248 5.76871 6.75901C5.51546 6.86554 5.24349 6.92042 4.96875 6.92042C4.69401 6.92042 4.42204 6.86554 4.1688 6.75901C3.91555 6.65248 3.68614 6.49643 3.49402 6.30003C3.3019 6.10364 3.15094 5.87084 3.05001 5.61532C2.94908 5.35979 2.9002 5.08668 2.90625 4.812C2.91812 4.27286 3.14064 3.75979 3.52614 3.38269C3.91164 3.00558 4.42947 2.79442 4.96875 2.79442C5.50803 2.79442 6.02586 3.00558 6.41137 3.38269C6.79687 3.75979 7.01938 4.27286 7.03125 4.812Z" fill="#257E7E"/>
</svg>
