<svg width="25" height="23" viewBox="0 0 25 23" fill="none" xmlns="http://www.w3.org/2000/svg">
<path d="M12.3125 0C18.929 0 24.3125 4.368 24.3125 9.738C24.3125 11.8875 23.48 13.8225 21.74 15.729C19.223 18.627 13.5935 22.1565 12.3125 22.6965C11.0675 23.2215 11.2115 22.401 11.2685 22.077L11.273 22.05L11.444 21.0225C11.4845 20.7165 11.5265 20.241 11.405 19.938C11.27 19.6035 10.739 19.4295 10.349 19.3455C4.5815 18.585 0.3125 14.5515 0.3125 9.738C0.3125 4.368 5.6975 0 12.3125 0ZM7.8455 11.529H5.558V7.377C5.558 7.3152 5.53355 7.25591 5.48999 7.21207C5.44643 7.16822 5.3873 7.1434 5.3255 7.143H4.4825C4.45177 7.143 4.42134 7.14905 4.39295 7.16081C4.36456 7.17257 4.33877 7.18981 4.31704 7.21154C4.29531 7.23327 4.27807 7.25906 4.26631 7.28745C4.25455 7.31584 4.2485 7.34627 4.2485 7.377V12.606C4.2485 12.6675 4.274 12.726 4.3145 12.7665V12.768L4.3175 12.771L4.3205 12.774C4.364 12.8158 4.42215 12.839 4.4825 12.8385H7.8455C7.9745 12.8385 8.078 12.7335 8.078 12.6045V11.7645C8.0782 11.7338 8.07234 11.7033 8.06076 11.6748C8.04919 11.6464 8.03211 11.6205 8.01052 11.5986C7.98894 11.5767 7.96325 11.5593 7.93493 11.5474C7.90662 11.5354 7.87623 11.5292 7.8455 11.529ZM9.032 7.143C8.96994 7.143 8.91042 7.16765 8.86654 7.21154C8.82265 7.25542 8.798 7.31494 8.798 7.377V12.606C8.798 12.735 8.903 12.8385 9.032 12.8385H9.875C10.004 12.8385 10.1075 12.7335 10.1075 12.606V7.377C10.1075 7.3152 10.0831 7.25591 10.0395 7.21207C9.99593 7.16822 9.9368 7.1434 9.875 7.143H9.032ZM14.8265 7.143C14.7644 7.143 14.7049 7.16765 14.661 7.21154C14.6172 7.25542 14.5925 7.31494 14.5925 7.377V10.482L12.197 7.248C12.1909 7.24013 12.1844 7.23261 12.1775 7.2255V7.224C12.1728 7.21875 12.1678 7.21374 12.1625 7.209L12.158 7.2045C12.1529 7.19958 12.1473 7.19507 12.1415 7.191H12.14L12.1325 7.185L12.128 7.182C12.1257 7.18025 12.1231 7.17874 12.1205 7.1775L12.1085 7.17H12.1055L12.101 7.167L12.086 7.161L12.08 7.158C12.0751 7.15622 12.0701 7.15472 12.065 7.1535H12.062L12.0575 7.152L12.044 7.149H12.035L12.0305 7.1475H12.0245L12.0215 7.146H11.1605C11.0987 7.146 11.0394 7.17045 10.9956 7.21401C10.9517 7.25757 10.9269 7.3167 10.9265 7.3785V12.6075C10.9265 12.7365 11.0315 12.84 11.1605 12.84H12.0005C12.131 12.84 12.236 12.735 12.236 12.6075V9.5025L14.636 12.7425C14.652 12.7648 14.6718 12.7841 14.6945 12.7995L14.696 12.801L14.711 12.81L14.717 12.813C14.7209 12.8153 14.7249 12.8173 14.729 12.819L14.7395 12.8235L14.747 12.8265C14.752 12.8282 14.757 12.8297 14.762 12.831H14.7665C14.786 12.8366 14.8062 12.8396 14.8265 12.84H15.6665C15.797 12.84 15.902 12.735 15.902 12.6075V7.377C15.902 7.31494 15.8773 7.25542 15.8335 7.21154C15.7896 7.16765 15.7301 7.143 15.668 7.143H14.8265ZM20.549 8.2185V7.3785C20.5492 7.34777 20.5433 7.3173 20.5318 7.28884C20.5202 7.26037 20.5031 7.23446 20.4815 7.2126C20.4599 7.19073 20.4342 7.17333 20.4059 7.16139C20.3776 7.14944 20.3472 7.1432 20.3165 7.143H16.9535C16.893 7.14307 16.8348 7.16675 16.7915 7.209H16.79L16.7885 7.212L16.7855 7.2165C16.7436 7.25948 16.72 7.31699 16.7195 7.377V12.606C16.7195 12.6675 16.745 12.726 16.7855 12.7665L16.7885 12.771L16.7915 12.774C16.8351 12.8157 16.8932 12.8388 16.9535 12.8385H20.3165C20.4455 12.8385 20.549 12.7335 20.549 12.6045V11.7645C20.5492 11.7338 20.5433 11.7033 20.5318 11.6748C20.5202 11.6464 20.5031 11.6205 20.4815 11.5986C20.4599 11.5767 20.4342 11.5593 20.4059 11.5474C20.3776 11.5354 20.3472 11.5292 20.3165 11.529H18.0275V10.6455H20.315C20.444 10.6455 20.5475 10.5405 20.5475 10.4115V9.5715C20.5477 9.54077 20.5418 9.5103 20.5303 9.48184C20.5187 9.45337 20.5016 9.42746 20.48 9.4056C20.4584 9.38373 20.4327 9.36633 20.4044 9.35439C20.3761 9.34244 20.3457 9.3362 20.315 9.336H18.0275V8.4525H20.315C20.444 8.4525 20.5475 8.3475 20.5475 8.2185H20.549Z" fill="#257E7E"/>
</svg>
