<svg width="36" height="35" viewBox="0 0 36 35" fill="none" xmlns="http://www.w3.org/2000/svg">
<path d="M18 0C27.9247 0 36 6.552 36 14.607C36 17.8312 34.7513 20.7337 32.1413 23.5935C28.3657 27.9405 19.9215 33.2347 18 34.0448C16.1325 34.8322 16.3485 33.6015 16.434 33.1155L16.4408 33.075L16.6973 31.5338C16.758 31.0748 16.821 30.3615 16.6388 29.907C16.4363 29.4052 15.6397 29.1443 15.0548 29.0183C6.4035 27.8775 0 21.8273 0 14.607C0 6.552 8.0775 0 18 0ZM11.2995 17.2935H7.86825V11.0655C7.86825 10.9728 7.83158 10.8839 7.76624 10.8181C7.7009 10.7523 7.6122 10.7151 7.5195 10.7145H6.255C6.20891 10.7145 6.16326 10.7236 6.12068 10.7412C6.07809 10.7589 6.0394 10.7847 6.00681 10.8173C5.97421 10.8499 5.94836 10.8886 5.93072 10.9312C5.91308 10.9738 5.904 11.0194 5.904 11.0655V18.909C5.904 19.0013 5.94225 19.089 6.003 19.1497V19.152L6.0075 19.1565L6.012 19.161C6.07725 19.2238 6.16447 19.2585 6.255 19.2577H11.2995C11.493 19.2577 11.6483 19.1003 11.6483 18.9067V17.6467C11.6485 17.6007 11.6398 17.555 11.6224 17.5123C11.605 17.4696 11.5794 17.4307 11.547 17.3979C11.5147 17.3651 11.4761 17.339 11.4337 17.3211C11.3912 17.3032 11.3456 17.2938 11.2995 17.2935ZM13.0793 10.7145C12.9862 10.7145 12.8969 10.7515 12.8311 10.8173C12.7652 10.8831 12.7283 10.9724 12.7283 11.0655V18.909C12.7283 19.1025 12.8858 19.2577 13.0793 19.2577H14.3438C14.5372 19.2577 14.6925 19.1003 14.6925 18.909V11.0655C14.6925 10.9728 14.6558 10.8839 14.5905 10.8181C14.5252 10.7523 14.4365 10.7151 14.3438 10.7145H13.0793ZM21.771 10.7145C21.6779 10.7145 21.5886 10.7515 21.5228 10.8173C21.457 10.8831 21.42 10.9724 21.42 11.0655V15.723L17.8267 10.872C17.8177 10.8602 17.8079 10.8489 17.7975 10.8383V10.836C17.7904 10.8281 17.7829 10.8206 17.775 10.8135L17.7682 10.8068C17.7605 10.7994 17.7523 10.7926 17.7435 10.7865H17.7413L17.73 10.7775L17.7232 10.773C17.7197 10.7704 17.716 10.7681 17.712 10.7662L17.694 10.755H17.6895L17.6828 10.7505L17.6602 10.7415L17.6512 10.737C17.6439 10.7343 17.6364 10.7321 17.6287 10.7303H17.6243L17.6175 10.728L17.5972 10.7235H17.5837L17.577 10.7212H17.568L17.5635 10.719H16.272C16.1793 10.719 16.0904 10.7557 16.0246 10.821C15.9588 10.8863 15.9216 10.975 15.921 11.0677V18.9112C15.921 19.1047 16.0785 19.26 16.272 19.26H17.532C17.7277 19.26 17.8853 19.1025 17.8853 18.9112V14.2537L21.4852 19.1138C21.5092 19.1472 21.5389 19.1762 21.573 19.1992L21.5752 19.2015L21.5977 19.215L21.6067 19.2195C21.6125 19.2229 21.6186 19.2259 21.6248 19.2285L21.6405 19.2352L21.6518 19.2397C21.6592 19.2422 21.6667 19.2445 21.6743 19.2465H21.681C21.7103 19.2549 21.7405 19.2595 21.771 19.26H23.031C23.2267 19.26 23.3842 19.1025 23.3842 18.9112V11.0655C23.3842 10.9724 23.3473 10.8831 23.2814 10.8173C23.2156 10.7515 23.1263 10.7145 23.0333 10.7145H21.771ZM30.3547 12.3278V11.0677C30.355 11.0217 30.3463 10.976 30.3289 10.9333C30.3115 10.8906 30.2859 10.8517 30.2535 10.8189C30.2212 10.7861 30.1826 10.76 30.1402 10.7421C30.0977 10.7242 30.0521 10.7148 30.006 10.7145H24.9615C24.8707 10.7146 24.7835 10.7501 24.7185 10.8135H24.7162L24.714 10.818L24.7095 10.8247C24.6467 10.8892 24.6112 10.9755 24.6105 11.0655V18.909C24.6105 19.0013 24.6488 19.089 24.7095 19.1497L24.714 19.1565L24.7185 19.161C24.7839 19.2236 24.871 19.2582 24.9615 19.2577H30.006C30.1995 19.2577 30.3547 19.1003 30.3547 18.9067V17.6467C30.355 17.6007 30.3463 17.555 30.3289 17.5123C30.3115 17.4696 30.2859 17.4307 30.2535 17.3979C30.2212 17.3651 30.1826 17.339 30.1402 17.3211C30.0977 17.3032 30.0521 17.2938 30.006 17.2935H26.5725V15.9683H30.0037C30.1973 15.9683 30.3525 15.8108 30.3525 15.6173V14.3573C30.3528 14.3112 30.344 14.2655 30.3266 14.2228C30.3093 14.1801 30.2837 14.1412 30.2513 14.1084C30.2189 14.0756 30.1804 14.0495 30.1379 14.0316C30.0954 14.0137 30.0498 14.0043 30.0037 14.004H26.5725V12.6788H30.0037C30.1973 12.6788 30.3525 12.5212 30.3525 12.3278H30.3547Z" fill="#23597B"/>
</svg>
