<svg width="135" height="100" viewBox="0 0 135 100" fill="none" xmlns="http://www.w3.org/2000/svg">
<path d="M120.934 92.3359H112.031V92.4031H120.934V92.3359Z" fill="#EBEBEB"/>
<path d="M89.0391 93.0625H86.7031V93.1297H89.0391V93.0625Z" fill="#EBEBEB"/>
<path d="M111.768 89.8359H106.609V89.9031H111.768V89.8359Z" fill="#EBEBEB"/>
<path d="M25.7115 90.2891H14.1016V90.3563H25.7115V90.2891Z" fill="#EBEBEB"/>
<path d="M29.8109 90.2891H28.1094V90.3563H29.8109V90.2891Z" fill="#EBEBEB"/>
<path d="M60.5259 91.4219H35.3438V91.4891H60.5259V91.4219Z" fill="#EBEBEB"/>
<path d="M64.0827 76.0195H12.1755C11.7684 76.0195 11.378 75.8578 11.0902 75.5699C10.8023 75.2821 10.6406 74.8916 10.6406 74.4846V1.52146C10.6442 1.11672 10.8074 0.729751 11.0949 0.444801C11.3824 0.159851 11.7708 -1.55173e-05 12.1755 1.12969e-09H64.0827C64.2843 1.12969e-09 64.4839 0.0397011 64.6701 0.116837C64.8563 0.193974 65.0255 0.307034 65.1681 0.449563C65.3106 0.592092 65.4237 0.7613 65.5008 0.947523C65.5779 1.13375 65.6176 1.33334 65.6176 1.5349V74.4846C65.6176 74.6861 65.5779 74.8857 65.5008 75.0719C65.4237 75.2582 65.3106 75.4274 65.1681 75.5699C65.0255 75.7124 64.8563 75.8255 64.6701 75.9026C64.4839 75.9798 64.2843 76.0195 64.0827 76.0195V76.0195ZM12.1755 0.0537622C11.7865 0.0544728 11.4136 0.209333 11.1385 0.484427C10.8634 0.759521 10.7085 1.13242 10.7078 1.52146V74.4846C10.7085 74.8736 10.8634 75.2465 11.1385 75.5216C11.4136 75.7967 11.7865 75.9515 12.1755 75.9523H64.0827C64.4718 75.9515 64.8447 75.7967 65.1198 75.5216C65.3949 75.2465 65.5497 74.8736 65.5504 74.4846V1.52146C65.5497 1.13242 65.3949 0.759521 65.1198 0.484427C64.8447 0.209333 64.4718 0.0544728 64.0827 0.0537622H12.1755Z" fill="#EBEBEB"/>
<path d="M122.231 76.0195H70.324C69.9169 76.0195 69.5265 75.8578 69.2386 75.5699C68.9508 75.2821 68.7891 74.8916 68.7891 74.4846V1.52146C68.7926 1.11672 68.9559 0.729751 69.2433 0.444801C69.5308 0.159851 69.9192 -1.55173e-05 70.324 1.12969e-09H122.231C122.638 1.12969e-09 123.029 0.161713 123.317 0.449563C123.604 0.737414 123.766 1.12782 123.766 1.5349V74.4846C123.766 74.8916 123.604 75.2821 123.317 75.5699C123.029 75.8578 122.638 76.0195 122.231 76.0195V76.0195ZM70.324 0.0537622C69.9349 0.0544728 69.562 0.209333 69.2869 0.484427C69.0118 0.759521 68.857 1.13242 68.8563 1.52146V74.4846C68.857 74.8736 69.0118 75.2465 69.2869 75.5216C69.562 75.7967 69.9349 75.9515 70.324 75.9523H122.231C122.62 75.9515 122.993 75.7967 123.268 75.5216C123.543 75.2465 123.698 74.8736 123.699 74.4846V1.52146C123.698 1.13242 123.543 0.759521 123.268 0.484427C122.993 0.209333 122.62 0.0544728 122.231 0.0537622H70.324Z" fill="#EBEBEB"/>
<path d="M134.405 88.0078H0V88.075H134.405V88.0078Z" fill="#EBEBEB"/>
<path d="M100.802 86.1443L93.2543 84.5637V45.4922H90.835V84.5637L83.2868 86.1443C82.8588 86.2344 82.4748 86.4689 82.1992 86.8086C81.9237 87.1483 81.7733 87.5725 81.7734 88.0099H102.305C102.306 87.5739 102.157 87.151 101.884 86.8115C101.61 86.472 101.229 86.2365 100.802 86.1443V86.1443Z" fill="#E0E0E0"/>
<path d="M91.8672 22.1328H96.1681C98.0888 22.1328 99.9307 22.8958 101.289 24.2539C102.647 25.612 103.41 27.4539 103.41 29.3745V39.3017C103.41 40.2527 103.223 41.1944 102.859 42.073C102.495 42.9516 101.961 43.7499 101.289 44.4224C100.616 45.0948 99.818 45.6283 98.9394 45.9922C98.0608 46.3561 97.1191 46.5434 96.1681 46.5434H91.8672V22.1355V22.1328Z" fill="#E6E6E6"/>
<path d="M96.1816 43.6011H91.8672V46.558H96.1816C98.1017 46.5573 99.943 45.794 101.301 44.436C102.658 43.078 103.421 41.2364 103.421 39.3163V36.3594C103.421 38.2795 102.658 40.1211 101.301 41.4791C99.943 42.8371 98.1017 43.6004 96.1816 43.6011V43.6011Z" fill="#E0E0E0"/>
<path d="M92.3774 22.1328H85.9018C83.6779 22.1328 81.875 23.9357 81.875 26.1596V42.514C81.875 44.7379 83.6779 46.5408 85.9018 46.5408H92.3774C94.6013 46.5408 96.4042 44.7379 96.4042 42.514V26.1596C96.4042 23.9357 94.6013 22.1328 92.3774 22.1328Z" fill="#F0F0F0"/>
<path d="M89.1425 33.2303C91.8014 33.2303 93.9569 31.0749 93.9569 28.416C93.9569 25.757 91.8014 23.6016 89.1425 23.6016C86.4836 23.6016 84.3281 25.757 84.3281 28.416C84.3281 31.0749 86.4836 33.2303 89.1425 33.2303Z" fill="#E0E0E0"/>
<path d="M89.1425 44.746C91.8014 44.746 93.9569 42.5905 93.9569 39.9316C93.9569 37.2727 91.8014 35.1172 89.1425 35.1172C86.4836 35.1172 84.3281 37.2727 84.3281 39.9316C84.3281 42.5905 86.4836 44.746 89.1425 44.746Z" fill="#E0E0E0"/>
<path d="M89.1461 32.4329C91.3626 32.4329 93.1595 30.6361 93.1595 28.4196C93.1595 26.2031 91.3626 24.4062 89.1461 24.4062C86.9296 24.4062 85.1328 26.2031 85.1328 28.4196C85.1328 30.6361 86.9296 32.4329 89.1461 32.4329Z" fill="#EBEBEB"/>
<path d="M90.7492 28.4175C90.7492 28.7365 90.6546 29.0484 90.4773 29.3136C90.3001 29.5788 90.0482 29.7856 89.7535 29.9076C89.4588 30.0297 89.1345 30.0616 88.8216 29.9994C88.5088 29.9372 88.2214 29.7836 87.9958 29.558C87.7703 29.3324 87.6167 29.0451 87.5544 28.7322C87.4922 28.4193 87.5241 28.095 87.6462 27.8003C87.7683 27.5056 87.975 27.2537 88.2402 27.0765C88.5055 26.8993 88.8173 26.8047 89.1363 26.8047C89.5641 26.8047 89.9743 26.9746 90.2768 27.2771C90.5792 27.5796 90.7492 27.9898 90.7492 28.4175Z" fill="#E0E0E0"/>
<path d="M89.1461 43.9485C91.3626 43.9485 93.1595 42.1517 93.1595 39.9352C93.1595 37.7187 91.3626 35.9219 89.1461 35.9219C86.9296 35.9219 85.1328 37.7187 85.1328 39.9352C85.1328 42.1517 86.9296 43.9485 89.1461 43.9485Z" fill="#EBEBEB"/>
<path d="M90.7492 39.9332C90.7492 40.2522 90.6546 40.564 90.4773 40.8292C90.3001 41.0945 90.0482 41.3012 89.7535 41.4233C89.4588 41.5453 89.1345 41.5773 88.8216 41.515C88.5088 41.4528 88.2214 41.2992 87.9958 41.0736C87.7703 40.8481 87.6167 40.5607 87.5544 40.2478C87.4922 39.935 87.5241 39.6107 87.6462 39.316C87.7683 39.0212 87.975 38.7694 88.2402 38.5921C88.5055 38.4149 88.8173 38.3203 89.1363 38.3203C89.5641 38.3203 89.9743 38.4902 90.2768 38.7927C90.5792 39.0952 90.7492 39.5054 90.7492 39.9332V39.9332Z" fill="#E0E0E0"/>
<path d="M115.74 7.40596H18.4895C18.3915 7.40632 18.2944 7.38732 18.2037 7.35006C18.1131 7.3128 18.0307 7.25801 17.9612 7.18883C17.8918 7.11965 17.8367 7.03744 17.7991 6.94693C17.7615 6.85641 17.7422 6.75937 17.7422 6.66136V6.66136C17.7418 6.56312 17.7609 6.46579 17.7984 6.37496C17.8358 6.28414 17.8908 6.20161 17.9603 6.13215C18.0297 6.06269 18.1123 6.00766 18.2031 5.97023C18.2939 5.9328 18.3912 5.91371 18.4895 5.91407H115.74C115.838 5.91371 115.935 5.9328 116.026 5.97023C116.117 6.00766 116.199 6.06269 116.269 6.13215C116.338 6.20161 116.393 6.28414 116.431 6.37496C116.468 6.46579 116.487 6.56312 116.487 6.66136V6.66136C116.487 6.75937 116.468 6.85641 116.43 6.94693C116.392 7.03744 116.337 7.11965 116.268 7.18883C116.198 7.25801 116.116 7.3128 116.025 7.35006C115.935 7.38732 115.838 7.40632 115.74 7.40596V7.40596Z" fill="#E6E6E6"/>
<path d="M34.725 16.4268C34.4817 16.6702 34.1927 16.8633 33.8747 16.9951C33.5567 17.1268 33.2158 17.1946 32.8716 17.1946C32.5274 17.1946 32.1865 17.1268 31.8685 16.9951C31.5505 16.8633 31.2615 16.6702 31.0181 16.4268L30.0477 15.4564C29.5569 14.965 29.2812 14.2988 29.2812 13.6043C29.2812 12.9098 29.5569 12.2436 30.0477 11.7522V11.7522C30.2911 11.5088 30.5801 11.3157 30.8981 11.1839C31.2161 11.0522 31.557 10.9844 31.9012 10.9844C32.2454 10.9844 32.5863 11.0522 32.9043 11.1839C33.2223 11.3157 33.5112 11.5088 33.7546 11.7522L34.725 12.7199C34.9685 12.9633 35.1616 13.2523 35.2933 13.5703C35.4251 13.8883 35.4929 14.2291 35.4929 14.5734C35.4929 14.9176 35.4251 15.2585 35.2933 15.5765C35.1616 15.8945 34.9685 16.1834 34.725 16.4268V16.4268Z" fill="#E0E0E0"/>
<path d="M32.0321 15.3725C31.9065 15.4956 31.8065 15.6424 31.738 15.8044C31.6695 15.9663 31.6337 16.1403 31.6328 16.3161C31.6319 16.492 31.6659 16.6663 31.7328 16.829C31.7997 16.9916 31.8982 17.1394 32.0225 17.2637C32.1469 17.3881 32.2947 17.4866 32.4573 17.5535C32.62 17.6204 32.7943 17.6543 32.9701 17.6535C33.146 17.6526 33.32 17.6168 33.4819 17.5483C33.6439 17.4798 33.7907 17.3798 33.9138 17.2542L35.5589 15.6091C35.6845 15.486 35.7844 15.3392 35.853 15.1772C35.9215 15.0153 35.9573 14.8413 35.9581 14.6655C35.959 14.4896 35.925 14.3153 35.8582 14.1526C35.7913 13.99 35.6928 13.8422 35.5684 13.7179C35.4441 13.5935 35.2963 13.495 35.1336 13.4281C34.971 13.3612 34.7967 13.3273 34.6208 13.3281C34.445 13.329 34.271 13.3648 34.109 13.4333C33.9471 13.5018 33.8003 13.6018 33.6772 13.7274L32.0321 15.3725Z" fill="#F5F5F5"/>
<path d="M32.2296 12.0977C32.2296 12.3871 32.1146 12.6647 31.91 12.8694C31.7053 13.074 31.4277 13.189 31.1382 13.189C30.8488 13.189 30.5712 13.074 30.3665 12.8694C30.1619 12.6647 30.0469 12.3871 30.0469 12.0977V7.21875H32.2296V12.0977Z" fill="#F0F0F0"/>
<path d="M31.738 12.0994C31.738 12.218 31.7028 12.3339 31.6369 12.4325C31.5711 12.5311 31.4774 12.6079 31.3679 12.6533C31.2584 12.6986 31.1378 12.7105 31.0216 12.6874C30.9053 12.6642 30.7985 12.6072 30.7146 12.5233C30.6308 12.4395 30.5737 12.3327 30.5506 12.2164C30.5275 12.1001 30.5393 11.9796 30.5847 11.87C30.6301 11.7605 30.7069 11.6669 30.8055 11.601C30.9041 11.5352 31.0199 11.5 31.1385 11.5C31.2172 11.5 31.2952 11.5155 31.3679 11.5456C31.4406 11.5758 31.5067 11.6199 31.5624 11.6756C31.618 11.7312 31.6622 11.7973 31.6923 11.87C31.7224 11.9428 31.738 12.0207 31.738 12.0994V12.0994Z" fill="#E0E0E0"/>
<path d="M58.561 16.4268C58.3176 16.6702 58.0286 16.8633 57.7106 16.9951C57.3926 17.1268 57.0518 17.1946 56.7075 17.1946C56.3633 17.1946 56.0224 17.1268 55.7044 16.9951C55.3864 16.8633 55.0975 16.6702 54.8541 16.4268L53.8837 15.4564C53.3929 14.965 53.1172 14.2988 53.1172 13.6043C53.1172 12.9098 53.3929 12.2436 53.8837 11.7522V11.7522C54.1271 11.5088 54.416 11.3157 54.734 11.1839C55.052 11.0522 55.3929 10.9844 55.7371 10.9844C56.0813 10.9844 56.4222 11.0522 56.7402 11.1839C57.0582 11.3157 57.3472 11.5088 57.5906 11.7522L58.561 12.7199C58.8044 12.9633 58.9975 13.2523 59.1292 13.5703C59.261 13.8883 59.3288 14.2291 59.3288 14.5734C59.3288 14.9176 59.261 15.2585 59.1292 15.5765C58.9975 15.8945 58.8044 16.1834 58.561 16.4268V16.4268Z" fill="#E0E0E0"/>
<path d="M55.868 15.3725C55.7424 15.4956 55.6425 15.6424 55.5739 15.8044C55.5054 15.9663 55.4697 16.1403 55.4688 16.3161C55.4679 16.492 55.5019 16.6663 55.5688 16.829C55.6356 16.9916 55.7341 17.1394 55.8585 17.2637C55.9828 17.3881 56.1306 17.4866 56.2933 17.5535C56.4559 17.6204 56.6302 17.6543 56.8061 17.6535C56.9819 17.6526 57.1559 17.6168 57.3179 17.5483C57.4798 17.4798 57.6266 17.3798 57.7497 17.2542L59.3948 15.6091C59.5204 15.486 59.6204 15.3392 59.6889 15.1772C59.7574 15.0153 59.7932 14.8413 59.7941 14.6655C59.795 14.4896 59.761 14.3153 59.6941 14.1526C59.6272 13.99 59.5287 13.8422 59.4044 13.7179C59.28 13.5935 59.1322 13.495 58.9696 13.4281C58.8069 13.3612 58.6326 13.3273 58.4568 13.3281C58.2809 13.329 58.107 13.3648 57.945 13.4333C57.783 13.5018 57.6362 13.6018 57.5131 13.7274L55.868 15.3725Z" fill="#F5F5F5"/>
<path d="M56.0734 12.0977C56.0734 12.3871 55.9584 12.6647 55.7537 12.8694C55.549 13.074 55.2714 13.189 54.982 13.189C54.6925 13.189 54.415 13.074 54.2103 12.8694C54.0056 12.6647 53.8906 12.3871 53.8906 12.0977V7.21875H56.0734V12.0977Z" fill="#F0F0F0"/>
<path d="M55.5817 12.0994C55.5817 12.218 55.5465 12.3339 55.4807 12.4325C55.4148 12.5311 55.3212 12.6079 55.2117 12.6533C55.1021 12.6986 54.9816 12.7105 54.8653 12.6874C54.749 12.6642 54.6422 12.6072 54.5584 12.5233C54.4746 12.4395 54.4175 12.3327 54.3943 12.2164C54.3712 12.1001 54.3831 11.9796 54.4284 11.87C54.4738 11.7605 54.5506 11.6669 54.6492 11.601C54.7478 11.5352 54.8637 11.5 54.9823 11.5C55.1412 11.5 55.2937 11.5632 55.4061 11.6756C55.5185 11.788 55.5817 11.9405 55.5817 12.0994V12.0994Z" fill="#E0E0E0"/>
<path d="M101.908 16.4266C102.152 16.67 102.441 16.8631 102.759 16.9949C103.077 17.1266 103.418 17.1944 103.762 17.1944C104.106 17.1944 104.447 17.1266 104.765 16.9949C105.083 16.8631 105.372 16.67 105.615 16.4266L106.583 15.4562C106.826 15.213 107.019 14.9243 107.151 14.6065C107.283 14.2887 107.351 13.9481 107.351 13.6041C107.351 13.2601 107.283 12.9194 107.151 12.6016C107.019 12.2839 106.826 11.9951 106.583 11.752V11.752C106.34 11.5086 106.051 11.3156 105.733 11.1839C105.416 11.0522 105.075 10.9844 104.731 10.9844C104.387 10.9844 104.046 11.0522 103.729 11.1839C103.411 11.3156 103.122 11.5086 102.879 11.752L101.908 12.7197C101.665 12.9631 101.472 13.252 101.34 13.57C101.208 13.8881 101.141 14.2289 101.141 14.5731C101.141 14.9174 101.208 15.2582 101.34 15.5762C101.472 15.8943 101.665 16.1832 101.908 16.4266V16.4266Z" fill="#E0E0E0"/>
<path d="M104.603 15.3757C104.728 15.4988 104.828 15.6456 104.897 15.8075C104.965 15.9695 105.001 16.1435 105.002 16.3193C105.003 16.4952 104.969 16.6695 104.902 16.8321C104.835 16.9948 104.737 17.1426 104.612 17.2669C104.488 17.3913 104.34 17.4898 104.178 17.5567C104.015 17.6235 103.841 17.6575 103.665 17.6566C103.489 17.6558 103.315 17.62 103.153 17.5515C102.991 17.4829 102.844 17.383 102.721 17.2574L101.087 15.5934C100.961 15.4704 100.861 15.3236 100.793 15.1616C100.724 14.9996 100.688 14.8257 100.688 14.6498C100.687 14.474 100.721 14.2997 100.788 14.137C100.854 13.9744 100.953 13.8266 101.077 13.7022C101.202 13.5779 101.349 13.4794 101.512 13.4125C101.675 13.3456 101.849 13.3116 102.025 13.3125C102.201 13.3134 102.375 13.3491 102.537 13.4177C102.699 13.4862 102.845 13.5862 102.968 13.7118L104.603 15.3757Z" fill="#F5F5F5"/>
<path d="M104.398 12.0977C104.398 12.3871 104.513 12.6647 104.718 12.8694C104.923 13.074 105.2 13.189 105.49 13.189C105.779 13.189 106.057 13.074 106.262 12.8694C106.466 12.6647 106.581 12.3871 106.581 12.0977V7.21875H104.398V12.0977Z" fill="#F0F0F0"/>
<path d="M104.891 12.0994C104.891 12.218 104.926 12.3339 104.992 12.4325C105.058 12.5311 105.151 12.6079 105.261 12.6533C105.37 12.6986 105.491 12.7105 105.607 12.6874C105.723 12.6642 105.83 12.6072 105.914 12.5233C105.998 12.4395 106.055 12.3327 106.078 12.2164C106.101 12.1001 106.089 11.9796 106.044 11.87C105.999 11.7605 105.922 11.6669 105.823 11.601C105.725 11.5352 105.609 11.5 105.49 11.5C105.411 11.5 105.333 11.5155 105.261 11.5456C105.188 11.5758 105.122 11.6199 105.066 11.6756C105.011 11.7312 104.966 11.7973 104.936 11.87C104.906 11.9428 104.891 12.0207 104.891 12.0994V12.0994Z" fill="#E0E0E0"/>
<path d="M78.0725 16.4266C78.3159 16.67 78.6049 16.8631 78.9229 16.9949C79.2409 17.1266 79.5817 17.1944 79.926 17.1944C80.2702 17.1944 80.6111 17.1266 80.9291 16.9949C81.2471 16.8631 81.536 16.67 81.7794 16.4266L82.7471 15.4562C82.9905 15.213 83.1835 14.9243 83.3152 14.6065C83.4469 14.2887 83.5147 13.9481 83.5147 13.6041C83.5147 13.2601 83.4469 12.9194 83.3152 12.6016C83.1835 12.2839 82.9905 11.9951 82.7471 11.752C82.504 11.5086 82.2153 11.3156 81.8975 11.1839C81.5797 11.0522 81.239 10.9844 80.895 10.9844C80.551 10.9844 80.2104 11.0522 79.8926 11.1839C79.5748 11.3156 79.2861 11.5086 79.0429 11.752L78.0725 12.7197C77.8291 12.9631 77.636 13.252 77.5042 13.57C77.3725 13.8881 77.3047 14.2289 77.3047 14.5731C77.3047 14.9174 77.3725 15.2582 77.5042 15.5762C77.636 15.8943 77.8291 16.1832 78.0725 16.4266V16.4266Z" fill="#E0E0E0"/>
<path d="M80.7669 15.3757C80.8925 15.4988 80.9924 15.6456 81.061 15.8075C81.1295 15.9695 81.1653 16.1435 81.1661 16.3193C81.167 16.4952 81.133 16.6695 81.0661 16.8321C80.9993 16.9948 80.9008 17.1426 80.7764 17.2669C80.6521 17.3913 80.5043 17.4898 80.3416 17.5567C80.179 17.6235 80.0047 17.6575 79.8288 17.6566C79.653 17.6558 79.479 17.62 79.317 17.5515C79.1551 17.4829 79.0083 17.383 78.8852 17.2574L77.2508 15.5934C77.1252 15.4704 77.0253 15.3236 76.9567 15.1616C76.8882 14.9996 76.8525 14.8257 76.8516 14.6498C76.8507 14.474 76.8847 14.2997 76.9516 14.137C77.0185 13.9744 77.1169 13.8266 77.2413 13.7022C77.3656 13.5779 77.5134 13.4794 77.6761 13.4125C77.8387 13.3456 78.013 13.3116 78.1889 13.3125C78.3648 13.3134 78.5387 13.3491 78.7007 13.4177C78.8626 13.4862 79.0094 13.5862 79.1325 13.7118L80.7669 15.3757Z" fill="#F5F5F5"/>
<path d="M80.5625 12.0977C80.5625 12.3871 80.6775 12.6647 80.8822 12.8694C81.0868 13.074 81.3644 13.189 81.6539 13.189C81.9433 13.189 82.2209 13.074 82.4256 12.8694C82.6303 12.6647 82.7452 12.3871 82.7452 12.0977V7.21875H80.5625V12.0977Z" fill="#F0F0F0"/>
<path d="M81.0547 12.0994C81.0547 12.218 81.0898 12.3339 81.1557 12.4325C81.2216 12.5311 81.3152 12.6079 81.4247 12.6533C81.5343 12.6986 81.6548 12.7105 81.7711 12.6874C81.8874 12.6642 81.9942 12.6072 82.078 12.5233C82.1618 12.4395 82.2189 12.3327 82.2421 12.2164C82.2652 12.1001 82.2533 11.9796 82.208 11.87C82.1626 11.7605 82.0857 11.6669 81.9872 11.601C81.8886 11.5352 81.7727 11.5 81.6541 11.5C81.4952 11.5 81.3427 11.5632 81.2303 11.6756C81.1178 11.788 81.0547 11.9405 81.0547 12.0994V12.0994Z" fill="#E0E0E0"/>
<path d="M67.424 99.9999C99.613 99.9999 125.707 98.6376 125.707 96.957C125.707 95.2764 99.613 93.9141 67.424 93.9141C35.235 93.9141 9.14062 95.2764 9.14062 96.957C9.14062 98.6376 35.235 99.9999 67.424 99.9999Z" fill="#F5F5F5"/>
<path opacity="0.3" d="M114.367 65.9375C117.805 65.9375 120.254 68.4993 120.073 71.9131L119.678 79.3753C119.649 79.9274 119.411 80.4475 119.011 80.8293C118.611 81.2111 118.081 81.4257 117.528 81.429H103.711L106.566 71.9131C107.574 68.4993 110.926 65.9375 114.367 65.9375Z" fill="white"/>
<path d="M43.5971 93.8125H11.7969V96.9065H43.5971V93.8125Z" fill="#3ACAAF"/>
<path opacity="0.3" d="M43.5971 93.8125H11.7969V96.9065H43.5971V93.8125Z" fill="white"/>
<path d="M92.4718 93.8125H40.9141V96.9065H92.4718V93.8125Z" fill="#3ACAAF"/>
<path opacity="0.7" d="M92.4718 93.8125H40.9141V96.9065H92.4718V93.8125Z" fill="white"/>
<path d="M23.4253 93.7408C23.3544 93.7346 23.2888 93.7006 23.2429 93.6462C23.1971 93.5918 23.1747 93.5214 23.1806 93.4505L28.5891 28.6484H29.1267V29.1861H29.0837L23.7075 93.4962C23.7013 93.5656 23.6685 93.6299 23.6158 93.6755C23.5631 93.7211 23.4948 93.7445 23.4253 93.7408Z" fill="#263238"/>
<path d="M47.4643 93.7408C47.4997 93.7381 47.5341 93.7284 47.5657 93.7123C47.5973 93.6962 47.6254 93.674 47.6484 93.6471C47.6714 93.6201 47.6888 93.5888 47.6997 93.5551C47.7105 93.5213 47.7146 93.4858 47.7116 93.4505L42.3032 28.6484H41.7656V29.1861H41.8113L45.2682 70.6258H27.8681L24.3736 28.6484H23.8359V29.1861H23.8789L29.2551 93.4962C29.2613 93.5671 29.2953 93.6326 29.3497 93.6785C29.4042 93.7243 29.4745 93.7467 29.5455 93.7408V93.7408C29.6164 93.7346 29.6819 93.7006 29.7278 93.6462C29.7736 93.5918 29.796 93.5214 29.7901 93.4505L27.9299 71.1634H45.33L47.1928 93.4962C47.1989 93.5636 47.2303 93.6263 47.2806 93.6717C47.331 93.717 47.3966 93.7417 47.4643 93.7408Z" fill="#263238"/>
<path d="M48.7057 62.0628H23.0102L19.7656 23.1875H45.4612L48.7057 62.0628Z" fill="#3ACAAF"/>
<path opacity="0.8" d="M48.7057 62.0628H23.0102L19.7656 23.1875H45.4612L48.7057 62.0628Z" fill="white"/>
<path d="M45.4415 24.1027H19.7271C19.5011 24.1027 19.2844 24.0129 19.1246 23.8531C18.9648 23.6933 18.875 23.4766 18.875 23.2506V23.2506C18.875 23.0246 18.9648 22.8078 19.1246 22.648C19.2844 22.4882 19.5011 22.3984 19.7271 22.3984H45.4415C45.6675 22.3984 45.8842 22.4882 46.044 22.648C46.2038 22.8078 46.2936 23.0246 46.2936 23.2506V23.2506C46.2936 23.4766 46.2038 23.6933 46.044 23.8531C45.8842 24.0129 45.6675 24.1027 45.4415 24.1027V24.1027Z" fill="#3ACAAF"/>
<path opacity="0.5" d="M45.4415 24.1027H19.7271C19.5011 24.1027 19.2844 24.0129 19.1246 23.8531C18.9648 23.6933 18.875 23.4766 18.875 23.2506V23.2506C18.875 23.0246 18.9648 22.8078 19.1246 22.648C19.2844 22.4882 19.5011 22.3984 19.7271 22.3984H45.4415C45.6675 22.3984 45.8842 22.4882 46.044 22.648C46.2038 22.8078 46.2936 23.0246 46.2936 23.2506V23.2506C46.2936 23.4766 46.2038 23.6933 46.044 23.8531C45.8842 24.0129 45.6675 24.1027 45.4415 24.1027V24.1027Z" fill="white"/>
<path d="M34.867 47.4203L34.4853 42.8694C34.4824 42.8341 34.4864 42.7985 34.4973 42.7648C34.5082 42.731 34.5256 42.6998 34.5486 42.6728C34.5715 42.6458 34.5996 42.6236 34.6312 42.6075C34.6628 42.5915 34.6973 42.5818 34.7326 42.5791V42.5791C34.8035 42.5731 34.8739 42.5955 34.9283 42.6414C34.9827 42.6872 35.0168 42.7528 35.0229 42.8237L35.4019 47.3746C35.4079 47.4456 35.3855 47.5159 35.3396 47.5704C35.2938 47.6248 35.2282 47.6588 35.1573 47.665V47.665C35.0864 47.6709 35.016 47.6485 34.9616 47.6027C34.9072 47.5568 34.8732 47.4912 34.867 47.4203V47.4203Z" fill="#3ACAAF"/>
<path d="M30.5609 42.9808C27.2196 42.9808 24.2627 40.2605 23.9697 36.9192C23.8856 36.1478 23.9667 35.3674 24.2076 34.6299C24.4484 33.8923 24.8434 33.2144 25.3665 32.6413C25.8895 32.0682 26.5285 31.613 27.241 31.3059C27.9536 30.9988 28.7233 30.8468 29.4991 30.8602C31.148 30.8915 32.7285 31.5249 33.9426 32.6409C35.1567 33.757 35.9206 35.2787 36.0903 36.9192C36.1739 37.6905 36.0925 38.4709 35.8515 39.2084C35.6105 39.9459 35.2155 40.6237 34.6926 41.197C34.1697 41.7702 33.5309 42.2257 32.8186 42.5332C32.1062 42.8408 31.3367 42.9933 30.5609 42.9808V42.9808ZM29.5233 31.129C28.782 31.1167 28.0466 31.2622 27.3659 31.5558C26.6851 31.8494 26.0746 32.2844 25.5748 32.832C25.075 33.3796 24.6974 34.0272 24.467 34.7318C24.2366 35.4365 24.1587 36.1821 24.2385 36.9192C24.3991 38.4875 25.1286 39.9428 26.2889 41.0101C27.4493 42.0773 28.9604 42.6828 30.5367 42.712C31.2782 42.7244 32.0139 42.5788 32.6948 42.2851C33.3758 41.9913 33.9865 41.556 34.4863 41.0081C34.9861 40.4603 35.3637 39.8123 35.5939 39.1073C35.8241 38.4023 35.9017 37.6564 35.8215 36.9192C35.6602 35.3513 34.9305 33.8967 33.7702 32.8299C32.6099 31.7632 31.0992 31.1582 29.5233 31.129V31.129Z" fill="#3ACAAF"/>
<path d="M38.9746 42.9808C35.6333 42.9808 32.6764 40.2604 32.3834 36.9191C32.2998 36.1479 32.3812 35.3677 32.6222 34.6303C32.8632 33.8929 33.2583 33.2152 33.7812 32.6422C34.3042 32.0692 34.943 31.6139 35.6553 31.3067C36.3676 30.9995 37.1372 30.8472 37.9128 30.8601C39.5617 30.8914 41.1422 31.5248 42.3563 32.6409C43.5705 33.757 44.3344 35.2787 44.5041 36.9191C44.5881 37.6906 44.507 38.4711 44.2661 39.2088C44.0253 39.9465 43.6303 40.6245 43.1073 41.1978C42.5844 41.7711 41.9454 42.2266 41.2329 42.534C40.5203 42.8414 39.7505 42.9937 38.9746 42.9808V42.9808ZM37.937 31.1289C37.1958 31.1166 36.4604 31.2621 35.7796 31.5557C35.0989 31.8493 34.4883 32.2844 33.9885 32.8319C33.4888 33.3795 33.1111 34.0271 32.8807 34.7318C32.6504 35.4364 32.5725 36.182 32.6522 36.9191C32.8129 38.4875 33.5423 39.9427 34.7027 41.01C35.8631 42.0773 37.3741 42.6827 38.9504 42.712C39.692 42.7243 40.4276 42.5788 41.1086 42.285C41.7895 41.9912 42.4002 41.556 42.9 41.0081C43.3999 40.4602 43.7774 39.8123 44.0076 39.1073C44.2378 38.4023 44.3154 37.6564 44.2352 36.9191C44.074 35.3517 43.3447 33.8974 42.185 32.8308C41.0252 31.7641 39.5151 31.1588 37.9397 31.1289H37.937Z" fill="#3ACAAF"/>
<path d="M32.5218 37.0322L35.0647 34.2473C35.0163 34.164 34.9626 34.0806 34.9115 34L32.4922 36.6478C32.4922 36.7392 32.4922 36.8306 32.5083 36.9166C32.5218 36.9569 32.5218 36.9945 32.5218 37.0322Z" fill="#3ACAAF"/>
<path d="M35.3972 34.8547C35.3542 34.7634 35.3112 34.672 35.2628 34.5859L32.6016 37.5025C32.6204 37.6181 32.6446 37.731 32.6715 37.8412L35.3972 34.8547Z" fill="#3ACAAF"/>
<path d="M35.6624 35.5198C35.6301 35.4177 35.5952 35.3182 35.5576 35.2188L32.7969 38.2482C32.8291 38.3504 32.8641 38.4498 32.899 38.5493L35.6624 35.5198Z" fill="#3ACAAF"/>
<path d="M34.7121 33.6946L34.5373 33.4688L32.5508 35.6461C32.5293 35.7993 32.5159 35.9526 32.5078 36.1085L34.7121 33.6946Z" fill="#3ACAAF"/>
<path d="M34.303 33.1887C34.2412 33.1188 34.1767 33.0516 34.1095 32.9844L32.9052 34.3069C32.8186 34.5197 32.7459 34.7379 32.6875 34.9601L34.303 33.1887Z" fill="#3ACAAF"/>
<path d="M35.6433 39.3605C35.7168 39.158 35.7787 38.9516 35.8288 38.7422L34.1406 40.5916C34.2025 40.6615 34.267 40.7314 34.3315 40.7986L35.6433 39.3605Z" fill="#3ACAAF"/>
<path d="M34.9706 40.6328L34.5781 41.0629L34.605 41.0898C34.735 40.9441 34.857 40.7916 34.9706 40.6328V40.6328Z" fill="#3ACAAF"/>
<path d="M35.8559 36.2552C35.8344 36.1423 35.8076 36.0321 35.7807 35.9219L33.0469 38.9191C33.0881 39.0105 33.1311 39.1001 33.1759 39.1879L35.8559 36.2552Z" fill="#3ACAAF"/>
<path d="M35.9364 38.0739C35.9526 37.9261 35.9633 37.7755 35.966 37.625L33.7188 40.0873C33.7752 40.1653 33.8317 40.2405 33.8908 40.3158L35.9364 38.0739Z" fill="#3ACAAF"/>
<path d="M35.9612 37.0926C35.9612 37.0335 35.9612 36.9744 35.9612 36.9152L35.937 36.7109L33.3672 39.5281C33.4156 39.6123 33.4666 39.6956 33.5204 39.7781L35.9612 37.0926Z" fill="#3ACAAF"/>
<path d="M43.8816 50.1279H26.968C26.7284 50.1232 26.4987 50.0309 26.3224 49.8685C26.1461 49.7061 26.0353 49.4847 26.0111 49.2462V49.2462C26.001 49.1344 26.0143 49.0216 26.0503 48.9153C26.0863 48.8089 26.1441 48.7112 26.22 48.6284C26.2959 48.5457 26.3883 48.4797 26.4912 48.4347C26.5941 48.3897 26.7052 48.3667 26.8175 48.3672H43.731C43.9703 48.3718 44.1996 48.4637 44.3759 48.6256C44.5521 48.7875 44.6631 49.0082 44.688 49.2462V49.2462C44.6985 49.3583 44.6854 49.4713 44.6496 49.578C44.6139 49.6847 44.5561 49.7827 44.4802 49.8657C44.4042 49.9488 44.3117 50.015 44.2086 50.0602C44.1055 50.1053 43.9941 50.1284 43.8816 50.1279V50.1279Z" fill="#3ACAAF"/>
<path d="M42.0867 53.6982H30.2806C30.0409 53.6935 29.8112 53.6013 29.6349 53.4388C29.4586 53.2764 29.3478 53.055 29.3236 52.8165V52.8165C29.3135 52.7047 29.3268 52.592 29.3628 52.4856C29.3988 52.3792 29.4566 52.2815 29.5325 52.1988C29.6084 52.116 29.7008 52.05 29.8037 52.005C29.9066 51.9601 30.0177 51.9371 30.13 51.9375H41.9308C42.1702 51.9415 42.3999 52.0332 42.5762 52.1952C42.7526 52.3572 42.8634 52.5783 42.8877 52.8165V52.8165C42.8982 52.9281 42.8853 53.0407 42.8498 53.147C42.8143 53.2533 42.7571 53.3511 42.6817 53.4341C42.6063 53.517 42.5145 53.5834 42.412 53.6288C42.3096 53.6743 42.1988 53.698 42.0867 53.6982V53.6982Z" fill="#3ACAAF"/>
<path d="M43.8816 50.1279H26.968C26.7284 50.1232 26.4987 50.0309 26.3224 49.8685C26.1461 49.7061 26.0353 49.4847 26.0111 49.2462V49.2462C26.001 49.1344 26.0143 49.0216 26.0503 48.9153C26.0863 48.8089 26.1441 48.7112 26.22 48.6284C26.2959 48.5457 26.3883 48.4797 26.4912 48.4347C26.5941 48.3897 26.7052 48.3667 26.8175 48.3672H43.731C43.9703 48.3718 44.1996 48.4637 44.3759 48.6256C44.5521 48.7875 44.6631 49.0082 44.688 49.2462V49.2462C44.6985 49.3583 44.6854 49.4713 44.6496 49.578C44.6139 49.6847 44.5561 49.7827 44.4802 49.8657C44.4042 49.9488 44.3117 50.015 44.2086 50.0602C44.1055 50.1053 43.9941 50.1284 43.8816 50.1279V50.1279Z" fill="#3ACAAF"/>
<path d="M42.0867 53.6982H30.2806C30.0409 53.6935 29.8112 53.6013 29.6349 53.4388C29.4586 53.2764 29.3478 53.055 29.3236 52.8165V52.8165C29.3135 52.7047 29.3268 52.592 29.3628 52.4856C29.3988 52.3792 29.4566 52.2815 29.5325 52.1988C29.6084 52.116 29.7008 52.05 29.8037 52.005C29.9066 51.9601 30.0177 51.9371 30.13 51.9375H41.9308C42.1702 51.9415 42.3999 52.0332 42.5762 52.1952C42.7526 52.3572 42.8634 52.5783 42.8877 52.8165V52.8165C42.8982 52.9281 42.8853 53.0407 42.8498 53.147C42.8143 53.2533 42.7571 53.3511 42.6817 53.4341C42.6063 53.517 42.5145 53.5834 42.412 53.6288C42.3096 53.6743 42.1988 53.698 42.0867 53.6982V53.6982Z" fill="#3ACAAF"/>
<path d="M63.0629 91.2175L64.7403 90.688L64.0629 86.8359L62.3828 87.3655L63.0629 91.2175Z" fill="#CE7A63"/>
<path d="M64.7767 90.4694L62.8951 91.0635C62.8634 91.0734 62.8362 91.0942 62.8185 91.1223C62.8007 91.1504 62.7936 91.1839 62.7983 91.2167L63.051 92.6952C63.0585 92.734 63.0744 92.7706 63.0977 92.8026C63.121 92.8345 63.151 92.8609 63.1857 92.8799C63.2203 92.8989 63.2587 92.91 63.2982 92.9125C63.3376 92.9149 63.3771 92.9087 63.4139 92.8941C64.0671 92.6764 64.3735 92.5393 65.2041 92.2785C65.7149 92.1172 67.8922 91.4721 68.6019 91.2597C69.3115 91.0474 69.1395 90.3673 68.8116 90.3995C67.4084 90.5474 65.6557 90.6899 65.0966 90.4775C64.9941 90.4382 64.8811 90.4353 64.7767 90.4694Z" fill="#263238"/>
<path opacity="0.2" d="M62.3828 87.3655L64.0629 86.8359L64.4123 88.8224L62.7323 89.352L62.3828 87.3655Z" fill="black"/>
<path d="M61.8191 48.3828C61.8191 48.3828 62.9158 62.3609 63.1765 67.2371C63.4615 72.5784 65.0582 88.2043 65.0582 88.2043L61.9535 89.043C61.9535 89.043 58.9455 73.909 58.174 68.7183C57.3353 63.0733 55.6875 48.3936 55.6875 48.3936L61.8191 48.3828Z" fill="#263238"/>
<path d="M61.8558 89.0849L65.181 88.1897L65.2348 86.8672L61.4688 88.1333L61.8558 89.0849Z" fill="#263238"/>
<path d="M65.4494 90.565C65.2985 90.6086 65.1436 90.6365 64.987 90.6483C64.9797 90.6485 64.9725 90.6465 64.9663 90.6427C64.9601 90.6389 64.9552 90.6334 64.9521 90.6268C64.9477 90.6205 64.9453 90.613 64.9453 90.6053C64.9453 90.5976 64.9477 90.5901 64.9521 90.5838C64.9978 90.53 65.3983 90.065 65.6214 90.0784C65.6464 90.0791 65.6707 90.0868 65.6916 90.1005C65.7125 90.1143 65.7292 90.1337 65.7397 90.1564C65.7595 90.1902 65.77 90.2287 65.77 90.2679C65.77 90.3071 65.7595 90.3457 65.7397 90.3795C65.6675 90.4732 65.5648 90.5388 65.4494 90.565V90.565ZM65.0838 90.565C65.3983 90.5273 65.6214 90.4494 65.6778 90.3472C65.6903 90.3251 65.6969 90.3001 65.6969 90.2746C65.6969 90.2492 65.6903 90.2242 65.6778 90.2021C65.6729 90.1912 65.6649 90.1819 65.655 90.1752C65.645 90.1686 65.6334 90.1648 65.6214 90.1644C65.4951 90.151 65.2478 90.3768 65.0838 90.5596V90.565Z" fill="#3ACAAF"/>
<path d="M65.0004 90.6473H64.9816C64.9752 90.6456 64.9693 90.6426 64.9642 90.6384C64.9591 90.6342 64.955 90.629 64.9521 90.6231C64.9521 90.6016 64.7961 90.1446 64.9279 89.9322C64.9453 89.905 64.9682 89.8817 64.995 89.8637C65.0218 89.8456 65.052 89.8333 65.0838 89.8274C65.1153 89.8168 65.1496 89.8181 65.1803 89.831C65.2109 89.8438 65.2359 89.8674 65.2504 89.8973C65.3338 90.0639 65.1617 90.4833 65.0193 90.6338L65.0004 90.6473ZM65.073 89.9134C65.0409 89.9233 65.0133 89.9442 64.9951 89.9725C64.9405 90.1539 64.9452 90.3478 65.0085 90.5263C65.1356 90.3587 65.1959 90.1498 65.1779 89.9403C65.1779 89.9188 65.151 89.8973 65.0918 89.908L65.073 89.9134Z" fill="#3ACAAF"/>
<path opacity="0.6" d="M57.9611 52.71C57.3214 50.2155 56.6682 50.8122 56.2031 51.9036C56.2515 52.6697 56.3026 53.4761 56.359 54.3229C56.7407 57.5997 57.2246 61.656 57.6466 64.9355C58.4369 61.6507 58.867 56.1831 57.9611 52.71Z" fill="black"/>
<path d="M50.4062 91.9679H52.1239L52.6938 87.9922H50.9788L50.4062 91.9679Z" fill="#CE7A63"/>
<path d="M52.2327 91.7656H50.3027C50.2695 91.7659 50.2375 91.7779 50.2124 91.7996C50.1873 91.8212 50.1707 91.8511 50.1656 91.8839L49.9398 93.4107C49.9348 93.4489 49.938 93.4876 49.9493 93.5244C49.9605 93.5611 49.9795 93.5951 50.005 93.6238C50.0305 93.6526 50.0618 93.6756 50.097 93.6913C50.1321 93.7069 50.1701 93.7148 50.2086 93.7145C50.8806 93.7145 51.2032 93.6634 52.0526 93.6634C52.5741 93.6634 54.7891 93.7199 55.5095 93.7199C56.2299 93.7199 56.2729 93.0075 55.9719 92.9403C54.6278 92.6527 52.9666 92.2522 52.515 91.8651C52.435 91.8006 52.3354 91.7655 52.2327 91.7656Z" fill="#263238"/>
<path opacity="0.2" d="M50.9727 87.9922H52.6904L52.3974 90.0432H50.6797L50.9727 87.9922Z" fill="black"/>
<path d="M58.7326 48.2812C58.7326 48.2812 57.7488 61.4046 57.0391 66.3211C56.265 71.6973 53.1763 89.5436 53.1763 89.5436H50.0312C50.0312 89.5436 51.6441 72.1408 51.9129 66.8103C52.214 61.0255 52.7946 48.2812 52.7946 48.2812H58.7326Z" fill="#263238"/>
<path d="M49.9061 89.5451H53.3038L53.5968 88.3516L49.8281 88.537L49.9061 89.5451Z" fill="#263238"/>
<path d="M52.8171 92.0682C52.6647 92.0647 52.5132 92.044 52.3655 92.0063C52.3578 92.0047 52.3509 92.0007 52.3456 91.995C52.3403 91.9892 52.3369 91.9819 52.3359 91.9741C52.3361 91.9662 52.3382 91.9584 52.3419 91.9514C52.3457 91.9444 52.351 91.9384 52.3574 91.9338C52.4139 91.8961 52.93 91.5628 53.1316 91.6461C53.1549 91.6549 53.1752 91.6702 53.19 91.6903C53.2048 91.7103 53.2134 91.7342 53.2149 91.759C53.223 91.7981 53.221 91.8385 53.2093 91.8765C53.1975 91.9146 53.1764 91.9491 53.1477 91.9768C53.0517 92.0451 52.9346 92.0774 52.8171 92.0682ZM52.4784 91.9472C52.6803 92.0179 52.9017 92.0083 53.0967 91.9203C53.1147 91.9018 53.1278 91.8791 53.1348 91.8542C53.1419 91.8293 53.1426 91.8031 53.137 91.7779C53.1367 91.7655 53.1327 91.7535 53.1255 91.7434C53.1183 91.7334 53.1083 91.7257 53.0967 91.7214C52.9891 91.665 52.6854 91.8209 52.4784 91.9472V91.9472Z" fill="#3ACAAF"/>
<path d="M52.3736 92.0078H52.3548C52.3493 92.0043 52.3447 91.9996 52.3414 91.994C52.3381 91.9883 52.3362 91.982 52.3359 91.9755C52.3359 91.954 52.3359 91.4594 52.5295 91.2927C52.5525 91.2709 52.5802 91.2544 52.6104 91.2447C52.6407 91.2349 52.6727 91.232 52.7042 91.2363C52.7373 91.2373 52.769 91.25 52.7936 91.2721C52.8182 91.2943 52.8342 91.3244 52.8386 91.3573C52.8601 91.5454 52.5698 91.8949 52.3951 92.0051C52.3884 92.0082 52.3808 92.0092 52.3736 92.0078V92.0078ZM52.6693 91.3116C52.6365 91.3122 52.605 91.3246 52.5806 91.3465C52.4741 91.5055 52.4179 91.6928 52.4193 91.8841C52.5806 91.7578 52.7741 91.4863 52.758 91.3626C52.758 91.3411 52.7445 91.3116 52.6881 91.3062L52.6693 91.3116Z" fill="#3ACAAF"/>
<path d="M62.5307 34.3125C62.95 35.2829 63.4258 36.2936 63.9285 37.2291C64.1785 37.7022 64.4473 38.1565 64.7349 38.5731C64.9779 38.9652 65.2676 39.3263 65.5978 39.6484C65.6542 39.7011 65.7144 39.7496 65.7779 39.7935C65.8263 39.8285 65.8586 39.8419 65.8586 39.8446C65.8586 39.8473 65.8263 39.858 65.8586 39.8607C65.9011 39.8626 65.9435 39.8543 65.9822 39.8365C66.1539 39.7662 66.3128 39.6682 66.4526 39.5462C66.6424 39.3971 66.822 39.2355 66.9902 39.0624C67.7069 38.2679 68.3603 37.4185 68.9445 36.5221L70.0197 37.0275C69.6521 38.1727 69.1216 39.2591 68.4445 40.2532C68.2576 40.521 68.051 40.7744 67.8262 41.0112C67.5625 41.2889 67.2601 41.527 66.9284 41.7182C66.7192 41.841 66.4926 41.9316 66.2564 41.987C65.9762 42.0451 65.6871 42.0451 65.407 41.987C64.9598 41.8886 64.5419 41.687 64.1866 41.3983C63.666 40.9734 63.2057 40.4797 62.8183 39.9306C62.4617 39.4402 62.1323 38.9305 61.8318 38.4038C61.5388 37.885 61.2619 37.3662 61.0119 36.8366C60.7619 36.3071 60.52 35.7883 60.2969 35.2238L62.5307 34.3125Z" fill="#CE7A63"/>
<path d="M65.377 38.4418L62.6647 40.466C62.6647 40.466 62.5599 40.3531 62.3959 40.1542C62.2696 40.0063 62.1083 39.8128 61.9201 39.587C60.8664 38.3021 59.3261 35.958 59.3126 34.8102C59.2938 33.0979 61.0707 32.8452 63.076 34.5952C63.9362 35.3505 64.3878 36.6059 64.8233 37.3827C64.9684 37.6381 65.0921 37.8639 65.1861 38.0386C65.3017 38.2832 65.377 38.4418 65.377 38.4418Z" fill="#3ACAAF"/>
<path opacity="0.6" d="M65.377 38.4418L62.6647 40.466C62.6647 40.466 62.5599 40.3531 62.3959 40.1542C62.2696 40.0063 62.1083 39.8128 61.9201 39.587C60.8664 38.3021 59.3261 35.958 59.3126 34.8102C59.2938 33.0979 61.0707 32.8452 63.076 34.5952C63.9362 35.3505 64.3878 36.6059 64.8233 37.3827C64.9684 37.6381 65.0921 37.8639 65.1861 38.0386C65.3017 38.2832 65.377 38.4418 65.377 38.4418Z" fill="white"/>
<path opacity="0.3" d="M59.2813 34.9961C59.8942 34.5902 60.3431 35.6412 61.5554 36.5256C62.093 36.9207 63.2785 39.4986 63.1817 40.0658L62.6575 40.4556C62.6575 40.4556 59.2678 36.703 59.2813 34.9961Z" fill="black"/>
<path d="M68.7969 36.5926L69.3883 34.7109L70.9205 35.8373C70.9205 35.8373 70.0845 37.52 69.5173 37.3668L68.7969 36.5926Z" fill="#CE7A63"/>
<path d="M65.3712 38.1719L62.4062 40.3896L62.7745 40.7766L65.597 38.6934L65.3712 38.1719Z" fill="#3ACAAF"/>
<path opacity="0.8" d="M65.3712 38.1719L62.4062 40.3896L62.7745 40.7766L65.597 38.6934L65.3712 38.1719Z" fill="white"/>
<path d="M61.9839 48.3845H52.7986C52.7341 47.578 52.9223 44.8899 52.7825 41.4975C52.694 38.9786 52.3882 36.4721 51.8685 34.0058C51.8282 33.8203 51.7852 33.6375 51.7422 33.4521C51.7422 33.4521 52.2072 33.358 52.8739 33.2612C53.4276 33.1806 54.1238 33.0945 54.8039 33.0623C56.104 32.9897 57.407 32.9897 58.7071 33.0623C59.3065 33.1187 59.8925 33.2182 60.3602 33.3096C60.9597 33.4306 61.3118 33.5327 61.3118 33.5327C61.3118 33.5327 63.5752 38.7073 61.9839 48.3845Z" fill="#3ACAAF"/>
<path opacity="0.6" d="M61.9839 48.3845H52.7986C52.7341 47.578 52.9223 44.8899 52.7825 41.4975C52.694 38.9786 52.3882 36.4721 51.8685 34.0058C51.8282 33.8203 51.7852 33.6375 51.7422 33.4521C51.7422 33.4521 52.2072 33.358 52.8739 33.2612C53.4276 33.1806 54.1238 33.0945 54.8039 33.0623C56.104 32.9897 57.407 32.9897 58.7071 33.0623C59.3065 33.1187 59.8925 33.2182 60.3602 33.3096C60.9597 33.4306 61.3118 33.5327 61.3118 33.5327C61.3118 33.5327 63.5752 38.7073 61.9839 48.3845Z" fill="white"/>
<path d="M70.9984 33.9766L71.8612 35.0357L70.915 35.8233L69.3828 34.6997L70.9984 33.9766Z" fill="#CE7A63"/>
<path d="M53.1071 35.2308C53.0157 35.8142 52.8974 36.3491 52.7711 36.9028C52.6447 37.4566 52.5022 37.9969 52.3248 38.5453C52.1532 39.1008 51.9531 39.6472 51.7254 40.1823C51.4814 40.7678 51.1712 41.3234 50.8007 41.8382C50.5619 42.1633 50.2691 42.4452 49.9351 42.6715C49.711 42.8189 49.4626 42.9254 49.2013 42.986C48.9085 43.0532 48.6043 43.0532 48.3115 42.986C47.8587 42.8601 47.4524 42.6051 47.1422 42.2522C46.9104 41.9961 46.7109 41.7127 46.5481 41.4081C46.2623 40.8798 46.0352 40.3218 45.8707 39.7442C45.7874 39.4753 45.7202 39.1877 45.661 38.9082C45.6019 38.6286 45.5454 38.3705 45.5078 38.0587L46.6637 37.7415C47.0726 38.6657 47.5733 39.5464 48.1583 40.3705C48.2796 40.529 48.4175 40.674 48.5696 40.8033C48.6959 40.9081 48.8061 40.9296 48.7739 40.9C48.7481 40.8866 48.7196 40.8793 48.6905 40.8785C48.669 40.8785 48.669 40.8785 48.6905 40.857C48.7932 40.7581 48.8835 40.6471 48.9593 40.5264C49.1979 40.1418 49.3944 39.7327 49.5453 39.306C49.7201 38.849 49.8706 38.3625 50.0104 37.8679C50.2792 36.884 50.5265 35.8383 50.72 34.8438L53.1071 35.2308Z" fill="#CE7A63"/>
<path d="M46.8033 37.8426L46.2146 35.9609L44.6797 37.0873C44.6797 37.0873 45.5184 38.77 46.0856 38.6168L46.8033 37.8426Z" fill="#CE7A63"/>
<path d="M44.5973 35.2266L43.7344 36.2857L44.6806 37.076L46.2155 35.9497L44.5973 35.2266Z" fill="#CE7A63"/>
<path opacity="0.3" d="M52.7811 41.4893C52.6927 38.9704 52.3869 36.4639 51.8672 33.9976C52.4828 33.9465 53.5311 33.9976 53.7059 34.9976C53.8913 36.0621 53.6575 38.5701 52.7811 41.4893Z" fill="black"/>
<path d="M53.9337 36.3893C53.5593 37.5579 53.1159 38.7032 52.6058 39.8193C52.4956 40.072 52.3935 40.2951 52.3101 40.4752L52.0709 40.9859L48.6328 39.2467C48.6328 39.2467 48.6704 39.1043 48.7403 38.8623C48.7914 38.6795 48.8586 38.443 48.9446 38.1661C49.45 36.5533 50.501 33.6501 51.6327 33.4485C53.294 33.1313 54.5466 34.3463 53.9337 36.3893Z" fill="#3ACAAF"/>
<path opacity="0.6" d="M53.9337 36.3893C53.5593 37.5579 53.1159 38.7032 52.6058 39.8193C52.4956 40.072 52.3935 40.2951 52.3101 40.4752L52.0709 40.9859L48.6328 39.2467C48.6328 39.2467 48.6704 39.1043 48.7403 38.8623C48.7914 38.6795 48.8586 38.443 48.9446 38.1661C49.45 36.5533 50.501 33.6501 51.6327 33.4485C53.294 33.1313 54.5466 34.3463 53.9337 36.3893Z" fill="white"/>
<path d="M57.0533 34.3369C54.7845 34.2751 54.4431 33.1676 54.4297 33.1192V33.0709L54.8168 33.0467C56.1168 32.974 57.4199 32.974 58.7199 33.0467L58.9403 33.0709C59.035 33.1501 59.1082 33.2521 59.1528 33.3673C59.1975 33.4824 59.2122 33.607 59.1957 33.7294C59.0962 34.1165 58.564 34.2456 58.0989 34.2993L57.0533 34.3369Z" fill="white"/>
<path d="M48.716 38.6172L52.4739 40.5392L52.0492 41.0607L48.5547 39.2462L48.716 38.6172Z" fill="#3ACAAF"/>
<path opacity="0.8" d="M48.716 38.6172L52.4739 40.5392L52.0492 41.0607L48.5547 39.2462L48.716 38.6172Z" fill="white"/>
<path d="M56.8689 34.5131L58.3904 34.3438L58.0544 35.3652C58.0544 35.3652 59.1001 40.8113 59.3044 42.6446C59.4253 43.744 59.5329 47.0585 59.5329 47.0585L58.7399 47.9321L57.5625 47.373C57.5625 47.373 57.5894 43.6419 57.584 42.4C57.584 40.6393 57.4953 35.3652 57.4953 35.3652L56.8125 34.7066L56.8689 34.5131Z" fill="#263238"/>
<path d="M56.4946 35.509L57.6021 34.5009L58.9676 35.4418C58.9676 35.4418 60.3815 34.0977 59.3305 33.1219C59.1289 33.0924 58.9219 33.0682 58.7096 33.0467C57.4095 32.974 56.1065 32.974 54.8064 33.0467C54.5376 33.0601 54.2688 33.0816 54 33.1085C54.0887 33.4875 54.4892 34.7321 56.4946 35.509Z" fill="#3ACAAF"/>
<path opacity="0.8" d="M56.4946 35.509L57.6021 34.5009L58.9676 35.4418C58.9676 35.4418 60.3815 34.0977 59.3305 33.1219C59.1289 33.0924 58.9219 33.0682 58.7096 33.0467C57.4095 32.974 56.1065 32.974 54.8064 33.0467C54.5376 33.0601 54.2688 33.0816 54 33.1085C54.0887 33.4875 54.4892 34.7321 56.4946 35.509Z" fill="white"/>
<path d="M57.1293 34.1099C54.9439 34.0723 54.6562 33.0589 54.6562 33.0589C55.5057 32.2202 55.1804 29.9299 54.8901 28.6719L55.9358 29.5374L57.3578 30.7202C57.3145 30.9088 57.2839 31.1001 57.2664 31.2928C57.1911 32.0643 57.39 32.7658 58.5244 33.0347C58.5244 33.0347 59.8685 33.9271 57.8739 34.0884L57.1293 34.1099Z" fill="#CE7A63"/>
<path opacity="0.2" d="M57.3589 30.7243C57.3156 30.9128 57.285 31.1041 57.2675 31.2968C56.7299 31.192 56.0283 30.6248 55.9557 30.0845C55.9293 29.9066 55.923 29.7262 55.9369 29.5469L57.3589 30.7243Z" fill="black"/>
<path d="M54.4625 26.8658C54.8254 28.5351 54.9517 29.527 55.9382 30.2904C56.2572 30.5415 56.6387 30.7004 57.0415 30.75C57.4444 30.7996 57.8531 30.738 58.2234 30.5718C58.5937 30.4056 58.9114 30.1412 59.1421 29.8073C59.3729 29.4734 59.5078 29.0827 59.5322 28.6776C59.6639 27.1239 59.0484 24.6454 57.2903 24.1804C56.9112 24.0669 56.5089 24.0555 56.124 24.1473C55.739 24.2392 55.3852 24.4311 55.0982 24.7036C54.8113 24.9761 54.6013 25.3196 54.4897 25.6993C54.3781 26.0789 54.3687 26.4813 54.4625 26.8658V26.8658Z" fill="#CE7A63"/>
<path d="M57.0907 27.0274C57.1122 27.1645 57.2009 27.2667 57.2923 27.2559C57.3837 27.2452 57.4374 27.1269 57.4159 26.9871C57.3944 26.8473 57.3057 26.7479 57.2143 26.7586C57.1229 26.7694 57.0692 26.8796 57.0907 27.0274Z" fill="#263238"/>
<path d="M58.6442 26.8477C58.6657 26.9848 58.7571 27.087 58.8458 27.0762C58.9346 27.0654 58.991 26.9445 58.9722 26.8074C58.9534 26.6703 58.8593 26.5681 58.7706 26.5789C58.6819 26.5897 58.6254 26.7106 58.6442 26.8477Z" fill="#263238"/>
<path d="M58.1641 26.9688C58.394 27.3689 58.6761 27.7368 59.0027 28.0628C58.9179 28.1411 58.8167 28.1995 58.7066 28.2339C58.5964 28.2683 58.48 28.2778 58.3657 28.2617L58.1641 26.9688Z" fill="#BA4D3C"/>
<path d="M56.5332 26.5844C56.5209 26.5883 56.5078 26.5883 56.4956 26.5844C56.4861 26.5794 56.4778 26.5725 56.4711 26.5642C56.4644 26.5559 56.4594 26.5463 56.4564 26.5361C56.4534 26.5258 56.4524 26.515 56.4536 26.5044C56.4548 26.4938 56.4581 26.4835 56.4633 26.4742C56.5225 26.3606 56.609 26.2635 56.715 26.1917C56.8211 26.1199 56.9434 26.0757 57.0708 26.0629C57.0815 26.0618 57.0923 26.0629 57.1025 26.0662C57.1127 26.0694 57.1222 26.0747 57.1302 26.0818C57.1383 26.0889 57.1448 26.0975 57.1494 26.1072C57.154 26.1169 57.1565 26.1275 57.1568 26.1382C57.1576 26.149 57.1561 26.1598 57.1525 26.1701C57.149 26.1803 57.1434 26.1897 57.1361 26.1978C57.1288 26.2058 57.12 26.2123 57.1102 26.2168C57.1004 26.2214 57.0897 26.2239 57.0789 26.2242C56.9794 26.2366 56.8844 26.2729 56.802 26.33C56.7196 26.3872 56.6523 26.4634 56.6058 26.5522C56.5972 26.563 56.5861 26.5715 56.5734 26.5772C56.5608 26.5828 56.547 26.5853 56.5332 26.5844V26.5844Z" fill="#263238"/>
<path d="M59.2316 26.2346C59.2185 26.2341 59.2057 26.2307 59.1941 26.2247C59.1824 26.2186 59.1723 26.2101 59.1644 26.1997C59.1085 26.1117 59.0332 26.0378 58.9441 25.9837C58.8551 25.9297 58.7548 25.8968 58.651 25.8879C58.6296 25.8879 58.6091 25.8794 58.5939 25.8642C58.5788 25.8491 58.5703 25.8286 58.5703 25.8072C58.5703 25.7858 58.5788 25.7653 58.5939 25.7502C58.6091 25.7351 58.6296 25.7266 58.651 25.7266V25.7266C58.7809 25.7352 58.907 25.7742 59.019 25.8405C59.1311 25.9068 59.226 25.9985 59.2961 26.1083C59.3022 26.1171 59.3065 26.127 59.3087 26.1375C59.3109 26.1479 59.311 26.1587 59.309 26.1692C59.307 26.1797 59.3029 26.1897 59.297 26.1987C59.2911 26.2076 59.2835 26.2152 59.2746 26.2212C59.2616 26.2292 59.2468 26.2338 59.2316 26.2346Z" fill="#263238"/>
<path d="M55.0691 28.2251C55.0691 28.2251 55.8083 28.7117 55.7411 28.123C55.6739 27.5343 55.4051 25.5532 55.4051 25.5532L56.2276 24.8811C56.2276 24.8811 59.7222 24.9053 59.5071 23.1285C59.2921 21.3517 57.655 22.7575 57.655 22.7575C57.655 22.7575 57.9883 21.7549 56.8136 21.7737C56.4958 21.7688 56.1872 21.8803 55.9461 22.0873C55.7049 22.2943 55.5478 22.5825 55.5045 22.8973C55.5045 22.8973 54.397 22.2441 53.8514 22.8301C53.6866 23.0329 53.5649 23.2672 53.4937 23.5186C53.4225 23.7701 53.4034 24.0334 53.4374 24.2924C53.4374 24.2924 50.7493 24.6715 52.4966 27.2494C54.2438 29.8272 55.5395 30.1364 55.0691 28.2251Z" fill="#263238"/>
<path d="M54.071 28.6065C54.3409 28.9325 54.715 29.1556 55.1301 29.2382C55.6677 29.3269 55.7753 28.8376 55.5064 28.3672C55.2672 27.9425 54.7 27.3861 54.2323 27.5097C53.7646 27.6334 53.7296 28.1952 54.071 28.6065Z" fill="#CE7A63"/>
<path d="M56.5277 30.4177C56.2885 29.8102 55.9578 28.7403 56.31 27.8183C56.6621 26.8963 57.9578 28.4903 58.4094 28.4903C58.861 28.4903 59.2454 27.7834 59.5169 28.2699C59.7884 28.7564 58.6298 31.5548 58.3852 30.8209C58.3852 30.8209 58.0572 31.3236 57.7562 30.8639C57.7562 30.8639 57.5519 31.251 57.2347 30.8639C57.2347 30.8639 56.7831 31.0628 56.5277 30.4177Z" fill="#263238"/>
<path opacity="0.3" d="M56.5277 30.4177C56.2885 29.8102 55.9578 28.7403 56.31 27.8183C56.6621 26.8963 57.9578 28.4903 58.4094 28.4903C58.861 28.4903 59.2454 27.7834 59.5169 28.2699C59.7884 28.7564 58.6298 31.5548 58.3852 30.8209C58.3852 30.8209 58.0572 31.3236 57.7562 30.8639C57.7562 30.8639 57.5519 31.251 57.2347 30.8639C57.2347 30.8639 56.7831 31.0628 56.5277 30.4177Z" fill="white"/>
<path d="M58.829 28.7166C58.1872 28.5982 57.5355 28.5415 56.8828 28.5473C57.0387 28.9827 57.3425 29.3537 58.079 29.3537C58.1707 29.3645 58.2637 29.3563 58.352 29.3296C58.4404 29.3029 58.5224 29.2582 58.5927 29.1985C58.6631 29.1387 58.7204 29.0651 58.761 28.9822C58.8017 28.8992 58.8248 28.8089 58.829 28.7166V28.7166Z" fill="#263238"/>
<path d="M57.7463 29.0093C58.0328 28.9993 58.3151 29.0802 58.5527 29.2405C58.4133 29.3262 58.2511 29.3674 58.0877 29.3588C57.8008 29.3724 57.5173 29.2912 57.2812 29.1276C57.4201 29.0406 57.5827 28.9992 57.7463 29.0093V29.0093Z" fill="#A02724"/>
<path d="M58.7654 28.703C58.7501 28.7557 58.7203 28.8031 58.6795 28.8396C58.6386 28.8762 58.5883 28.9006 58.5342 28.91C58.1042 28.8962 57.6762 28.8459 57.2547 28.7595C57.1875 28.7525 57.1232 28.7286 57.0678 28.69C57.0123 28.6515 56.9675 28.5996 56.9375 28.5391C57.5502 28.545 58.1614 28.5998 58.7654 28.703V28.703Z" fill="white"/>
<path d="M109.678 49.082C109.576 49.0578 109.449 49.1492 109.409 49.3024C109.369 49.4556 109.393 49.6142 109.495 49.6384C109.597 49.6626 109.724 49.5712 109.764 49.418C109.804 49.2648 109.767 49.1062 109.678 49.082Z" fill="#2E353A"/>
<path d="M109.112 50.7409C108.997 50.7292 108.886 50.6923 108.787 50.6328C108.688 50.5733 108.603 50.4928 108.539 50.3968C108.934 50.1575 109.296 49.8664 109.614 49.5312L109.112 50.7409Z" fill="#A02724"/>
<path d="M110.35 48.8441C110.33 48.7295 110.283 48.6212 110.214 48.5278C110.144 48.4345 110.054 48.3587 109.95 48.3065C109.938 48.3019 109.928 48.2951 109.919 48.2864C109.91 48.2778 109.903 48.2675 109.898 48.2562C109.888 48.2332 109.888 48.2073 109.897 48.1841C109.907 48.161 109.925 48.1424 109.948 48.1326C109.971 48.1228 109.996 48.1225 110.02 48.1317C110.156 48.1951 110.274 48.291 110.364 48.4111C110.454 48.5311 110.513 48.6716 110.536 48.8199V48.8199C110.54 48.8441 110.534 48.8689 110.52 48.8889C110.506 48.909 110.485 48.9228 110.461 48.9274H110.409C110.393 48.9202 110.379 48.9086 110.368 48.8939C110.358 48.8792 110.352 48.862 110.35 48.8441V48.8441Z" fill="#2E353A"/>
<path d="M114.146 56.3097C114.251 56.7747 114.321 56.9952 113.904 57.1968C113.044 57.648 112.062 57.811 111.103 57.6618C110.111 57.4925 109.934 57.1376 109.974 56.8554C110.008 56.7462 110.067 56.6464 110.147 56.5639C110.226 56.4814 110.323 56.4183 110.431 56.3796C110.651 56.2842 110.838 56.126 110.969 55.9246C111.099 55.7233 111.168 55.4878 111.165 55.2479C111.205 54.9927 111.2 54.7324 111.149 54.4791L112.923 53.3044L114.267 51.8125C113.932 53.2891 113.891 54.8172 114.146 56.3097V56.3097Z" fill="#B55B52"/>
<path d="M108.562 57.3449C108.562 57.3449 109.218 55.5358 110.283 55.1165C111.347 54.6971 114.538 54.9337 114.538 54.9337C114.688 55.5867 114.888 56.2274 115.135 56.8503L108.562 57.3449Z" fill="#3ACAAF"/>
<path d="M115.079 49.8074C115.07 49.4522 114.99 49.1024 114.845 48.7781C114.7 48.4538 114.492 48.1615 114.234 47.918C113.975 47.6746 113.671 47.4848 113.338 47.3597C113.006 47.2346 112.652 47.1766 112.297 47.1892C110.243 47.2644 109.041 49.9015 108.858 51.6998C108.654 53.6944 110.619 55.3691 112.503 54.4605C113.756 53.8557 114.116 52.7643 114.858 50.966C115.017 50.6008 115.092 50.2051 115.079 49.8074Z" fill="#B55B52"/>
<path opacity="0.2" d="M114.748 55.7205C114.861 56.1022 114.99 56.4786 115.135 56.8495L109.062 57.3065C109.213 56.9478 109.401 56.6062 109.624 56.2877C111.092 55.6936 113.656 55.6909 114.748 55.7205Z" fill="black"/>
<path d="M113.641 53.6831C113.317 53.615 112.983 53.615 112.66 53.6831C112.501 53.7172 112.336 53.6974 112.189 53.6268C112.043 53.5562 111.925 53.4388 111.853 53.2933L110.894 51.2988C110.894 51.2988 109.517 50.8418 111.203 48.0919C111.203 48.0919 107.996 47.0301 110.364 44.85C112.732 42.67 111.203 45.6188 111.203 45.6188C111.203 45.6188 114.197 44.006 112.7 46.0489C112.7 46.0489 117.27 46.2801 116.143 48.7585C116.143 48.7585 118.025 48.7961 114.34 53.4197C114.259 53.5242 114.151 53.6042 114.028 53.6508C113.904 53.6973 113.77 53.7085 113.641 53.6831V53.6831Z" fill="#263238"/>
<path d="M111.609 50.0151C111.093 49.9399 110.534 50.4587 110.357 50.921C110.155 51.4586 110.418 52.05 110.961 51.9049C111.381 51.7845 111.741 51.5148 111.975 51.1468C112.265 50.6872 112.125 50.0904 111.609 50.0151Z" fill="#B55B52"/>
<path d="M114.348 58.6583C114.582 59.126 114.843 59.6395 115.077 60.1341C115.311 60.6287 115.547 61.1367 115.76 61.6394C115.972 62.1421 116.182 62.6421 116.354 63.1367C116.522 63.5934 116.651 64.0638 116.738 64.5426C116.769 64.7048 116.784 64.8694 116.784 65.0345C116.783 65.0488 116.783 65.0632 116.784 65.0775C116.784 65.0775 116.784 65.0775 116.784 65.0775L116.797 65.0533C116.671 65.1844 116.537 65.3082 116.397 65.4243C116.206 65.5533 115.991 65.6931 115.765 65.8167C114.851 66.3301 113.797 66.7898 112.781 67.2575L113.123 68.6769C113.726 68.6318 114.326 68.5483 114.918 68.4269C115.524 68.3098 116.121 68.1517 116.706 67.9538C117.019 67.8484 117.325 67.7227 117.623 67.5774C117.979 67.4091 118.313 67.1949 118.614 66.9403C118.831 66.7493 119.013 66.5219 119.152 66.2683C119.175 66.2291 119.195 66.1887 119.214 66.1474L119.26 66.0425C119.289 65.9726 119.311 65.9081 119.332 65.8409C119.372 65.7168 119.403 65.5902 119.426 65.4619C119.495 65.0543 119.51 64.6394 119.469 64.2281C119.399 63.5648 119.267 62.9096 119.074 62.2711C118.897 61.6663 118.69 61.0884 118.469 60.5212C118.249 59.954 118.012 59.4083 117.76 58.8707C117.507 58.3331 117.243 57.7954 116.934 57.2578L114.348 58.6583Z" fill="#B55B52"/>
<path d="M113.436 67.3118L111.25 66.75L111.07 68.715C111.07 68.715 112.543 69.3225 113.452 68.3709L113.436 67.3118Z" fill="#B55B52"/>
<path d="M110.387 67.0376L109.922 68.6236L111.086 68.715L111.266 66.75L110.387 67.0376Z" fill="#B55B52"/>
<path d="M118.982 60.9702L115.259 62.817C115.259 62.817 115.063 62.7659 113.59 60.4111C111.883 57.6719 112.819 56.1317 114.878 56.0564C116.982 55.9784 117.738 58.5832 118.982 60.9702Z" fill="#3ACAAF"/>
<path opacity="0.2" d="M117.829 61.5451L116.047 62.4295L115.141 61.3596L116.146 58.6742L116.426 58.3678L117.124 58.2656L117.829 61.5451Z" fill="black"/>
<path d="M94.7143 90.1006L92.8622 89.2969L91.4375 93.7591L93.2923 94.5629L94.7143 90.1006Z" fill="#B55B52"/>
<path opacity="0.2" d="M94.718 90.1006L92.8659 89.2969L92.1562 91.528L94.0272 92.2618L94.718 90.1006Z" fill="black"/>
<path d="M91.2301 92.9754C90.6764 93.4405 89.5474 93.7818 88.6791 93.8275C88.0125 93.8598 87.956 94.634 88.792 94.7684C89.628 94.9028 91.085 94.8436 91.6978 94.8678C92.6924 94.9055 93.0419 95.0694 93.8161 95.056C93.9102 95.0511 93.9987 95.0096 94.0625 94.9402C94.1263 94.8709 94.1604 94.7792 94.1575 94.685L93.9908 92.9002C93.9874 92.8624 93.9696 92.8273 93.9411 92.8023C93.9125 92.7773 93.8755 92.7642 93.8376 92.7657L91.5715 92.8383C91.4461 92.8469 91.3266 92.8949 91.2301 92.9754Z" fill="#263238"/>
<path d="M111.632 71.6875C111.632 71.6875 113.186 73.5315 111.933 76.4508C110.517 79.7599 103.003 78.3056 98.9013 79.3593C98.3153 85.2033 94.9068 91.187 94.9068 91.187L92.0547 90.0687C92.0547 90.0687 93.2912 85.4156 94.2186 77.1658C94.6729 73.1095 104.971 72.6633 104.971 72.6633L111.632 71.6875Z" fill="#263238"/>
<path d="M95.477 90.6777L91.8454 89.4062L91.625 90.7369L94.9341 91.9384L95.477 90.6777Z" fill="#263238"/>
<path d="M103.484 92.0108L101.484 91.9141L101.812 96.6344L103.812 96.7311L103.484 92.0108Z" fill="#B55B52"/>
<path d="M101.266 96.1452C100.712 96.6075 99.7766 97.25 98.9191 97.3736C98.368 97.4516 97.954 98.2849 98.9836 98.2849C100.013 98.2849 101.134 98.1881 101.736 98.1693C102.731 98.1371 103.061 98.2258 103.849 98.2258C103.896 98.2237 103.943 98.2123 103.985 98.1922C104.028 98.1722 104.066 98.1438 104.098 98.1088C104.13 98.0738 104.154 98.0329 104.17 97.9884C104.186 97.9438 104.193 97.8966 104.19 97.8494L104.026 96.0619C104.023 96.0238 104.005 95.9886 103.976 95.964C103.946 95.9393 103.909 95.9271 103.871 95.9301L101.61 96.0027C101.482 96.0099 101.361 96.0601 101.266 96.1452V96.1452Z" fill="#263238"/>
<path opacity="0.2" d="M103.667 94.618L101.675 94.6207L101.484 91.9219L103.484 92.0186L103.667 94.618Z" fill="black"/>
<path d="M116.632 72.0078C116.632 72.0078 118.271 75.3491 116.677 77.4754C115.234 79.4055 107.866 79.5345 104.121 79.5345C104.492 84.1043 104.081 93.4857 104.081 93.4857L101.073 93.4454C101.073 93.4454 98.9546 84.4214 98.5191 78.1071C98.2772 74.6126 110.761 72.2766 110.761 72.2766L116.632 72.0078Z" fill="#263238"/>
<path d="M104.493 92.871L100.375 92.75L100.552 93.9811L104.337 94.0349L104.493 92.871Z" fill="#263238"/>
<path d="M116.991 72.1872L104.672 72.7006L105.83 58.8703C105.894 58.1154 106.238 57.4118 106.796 56.899C107.354 56.3862 108.084 56.1016 108.841 56.1016H114.981C115.549 56.1051 116.092 56.3332 116.493 56.7362C116.893 57.1391 117.118 57.684 117.118 58.252L116.991 72.1872Z" fill="#3ACAAF"/>
<path d="M106.5 58.1797L106.178 58.9082C106.059 59.1582 105.938 59.4082 105.812 59.6555C105.559 60.1474 105.309 60.6393 105.038 61.1151C104.766 61.5909 104.5 62.0613 104.197 62.5102C103.914 62.9531 103.605 63.3785 103.272 63.7844C103.117 63.9801 102.952 64.1676 102.777 64.3462C102.736 64.3756 102.687 64.3945 102.637 64.4016C102.586 64.4086 102.535 64.4034 102.487 64.3865C102.265 64.3279 102.048 64.2543 101.836 64.1661C100.846 63.7087 99.8898 63.1795 98.9763 62.5828L97.9844 63.658C98.371 64.1389 98.7905 64.5925 99.2397 65.0155C99.7008 65.4551 100.2 65.8527 100.732 66.2037C101.028 66.3995 101.341 66.5686 101.667 66.709C102.085 66.8938 102.536 66.9908 102.992 66.994C103.324 66.9914 103.65 66.9162 103.949 66.7735C104.115 66.6929 104.271 66.5918 104.412 66.4725L104.605 66.3085C104.858 66.0854 105.1 65.8569 105.323 65.6203C106.18 64.6971 106.936 63.6852 107.578 62.6016C107.893 62.064 108.194 61.5398 108.465 60.9888C108.602 60.7199 108.734 60.4511 108.866 60.1662C108.998 59.8813 109.11 59.6286 109.239 59.3006L106.5 58.1797Z" fill="#B55B52"/>
<path d="M99.2891 63.0766L98.316 61.0391L96.7031 62.1654C96.7031 62.1654 97.1843 63.6842 98.4961 63.7782L99.2891 63.0766Z" fill="#B55B52"/>
<path d="M97.529 60.5547L96.0156 61.2186L96.693 62.1702L98.314 61.0439L97.529 60.5547Z" fill="#B55B52"/>
<path d="M107.823 63.4387L104.344 61.1645C104.344 61.1645 104.288 60.9656 105.573 58.5087C107.067 55.6486 108.868 55.6727 109.976 57.4066C111.113 59.1861 109.247 61.1565 107.823 63.4387Z" fill="#3ACAAF"/>
<path d="M122.847 98.2069C122.876 98.1916 122.901 98.1709 122.922 98.1459C122.942 98.1208 122.957 98.092 122.967 98.061C122.976 98.03 122.979 97.9974 122.975 97.9653C122.972 97.9331 122.962 97.9019 122.947 97.8735L113.447 80.4009C113.432 80.3726 113.411 80.3476 113.386 80.3274C113.36 80.3072 113.332 80.2921 113.301 80.2831C113.27 80.2741 113.237 80.2714 113.205 80.275C113.173 80.2786 113.142 80.2885 113.114 80.3041V80.3041C113.085 80.3191 113.06 80.3395 113.04 80.3643C113.019 80.3892 113.004 80.4178 112.995 80.4486C112.985 80.4793 112.982 80.5117 112.986 80.5436C112.989 80.5756 112.999 80.6066 113.014 80.6348L122.517 98.1074C122.532 98.1359 122.552 98.161 122.577 98.1815C122.602 98.2019 122.63 98.2172 122.661 98.2265C122.692 98.2358 122.724 98.2388 122.756 98.2354C122.788 98.232 122.819 98.2223 122.847 98.2069V98.2069Z" fill="#3ACAAF"/>
<g opacity="0.2">
<path d="M122.847 98.2069C122.876 98.1916 122.901 98.1709 122.922 98.1459C122.942 98.1208 122.957 98.092 122.967 98.061C122.976 98.03 122.979 97.9974 122.975 97.9653C122.972 97.9331 122.962 97.9019 122.947 97.8735L113.447 80.4009C113.432 80.3726 113.411 80.3476 113.386 80.3274C113.36 80.3072 113.332 80.2921 113.301 80.2831C113.27 80.2741 113.237 80.2714 113.205 80.275C113.173 80.2786 113.142 80.2885 113.114 80.3041V80.3041C113.085 80.3191 113.06 80.3395 113.04 80.3643C113.019 80.3892 113.004 80.4178 112.995 80.4486C112.985 80.4793 112.982 80.5117 112.986 80.5436C112.989 80.5756 112.999 80.6066 113.014 80.6348L122.517 98.1074C122.532 98.1359 122.552 98.161 122.577 98.1815C122.602 98.2019 122.63 98.2172 122.661 98.2265C122.692 98.2358 122.724 98.2388 122.756 98.2354C122.788 98.232 122.819 98.2223 122.847 98.2069V98.2069Z" fill="black"/>
</g>
<path opacity="0.2" d="M118.25 90.2778L117.414 88.7349L117.694 88.2188L118.53 89.7617L118.25 90.2778Z" fill="black"/>
<path d="M109.261 98.2069C109.29 98.1916 109.315 98.1709 109.336 98.1459C109.356 98.1208 109.371 98.092 109.381 98.061C109.39 98.03 109.393 97.9974 109.39 97.9653C109.386 97.9331 109.376 97.9019 109.361 97.8735L99.8611 80.4009C99.8457 80.3726 99.8248 80.3476 99.7996 80.3274C99.7745 80.3072 99.7456 80.2921 99.7146 80.2831C99.6836 80.2741 99.6512 80.2714 99.6191 80.275C99.587 80.2786 99.556 80.2885 99.5278 80.3041V80.3041C99.4993 80.3191 99.4742 80.3395 99.4537 80.3643C99.4333 80.3892 99.418 80.4178 99.4087 80.4486C99.3994 80.4793 99.3964 80.5117 99.3998 80.5436C99.4031 80.5756 99.4129 80.6066 99.4283 80.6348L108.931 98.1074C108.946 98.1359 108.966 98.161 108.991 98.1815C109.016 98.2019 109.044 98.2172 109.075 98.2265C109.106 98.2358 109.138 98.2388 109.17 98.2354C109.202 98.232 109.233 98.2223 109.261 98.2069Z" fill="#3ACAAF"/>
<g opacity="0.2">
<path d="M109.261 98.2069C109.29 98.1916 109.315 98.1709 109.336 98.1459C109.356 98.1208 109.371 98.092 109.381 98.061C109.39 98.03 109.393 97.9974 109.39 97.9653C109.386 97.9331 109.376 97.9019 109.361 97.8735L99.8611 80.4009C99.8457 80.3726 99.8248 80.3476 99.7996 80.3274C99.7745 80.3072 99.7456 80.2921 99.7146 80.2831C99.6836 80.2741 99.6512 80.2714 99.6191 80.275C99.587 80.2786 99.556 80.2885 99.5278 80.3041V80.3041C99.4993 80.3191 99.4742 80.3395 99.4537 80.3643C99.4333 80.3892 99.418 80.4178 99.4087 80.4486C99.3994 80.4793 99.3964 80.5117 99.3998 80.5436C99.4031 80.5756 99.4129 80.6066 99.4283 80.6348L108.931 98.1074C108.946 98.1359 108.966 98.161 108.991 98.1815C109.016 98.2019 109.044 98.2172 109.075 98.2265C109.106 98.2358 109.138 98.2388 109.17 98.2354C109.202 98.232 109.233 98.2223 109.261 98.2069Z" fill="black"/>
</g>
<path opacity="0.2" d="M104.675 90.2778L103.836 88.7349L104.116 88.2188L104.954 89.7617L104.675 90.2778Z" fill="black"/>
<path d="M99.8613 98.115L109.361 80.6424C109.376 80.6142 109.386 80.5832 109.39 80.5513C109.393 80.5193 109.39 80.487 109.381 80.4562C109.371 80.4254 109.356 80.3968 109.336 80.372C109.315 80.3472 109.29 80.3267 109.262 80.3118V80.3118C109.234 80.2962 109.203 80.2863 109.171 80.2828C109.139 80.2792 109.107 80.282 109.076 80.291C109.045 80.3 109.017 80.315 108.992 80.3352C108.967 80.3554 108.946 80.3803 108.931 80.4085L99.4285 97.8812C99.413 97.9096 99.4032 97.9407 99.3998 97.9729C99.3964 98.0051 99.3994 98.0376 99.4086 98.0686C99.4179 98.0996 99.4332 98.1285 99.4537 98.1535C99.4742 98.1785 99.4994 98.1993 99.528 98.2145V98.2145C99.5563 98.23 99.5875 98.2398 99.6197 98.2432C99.6518 98.2466 99.6844 98.2436 99.7154 98.2343C99.7464 98.2251 99.7752 98.2098 99.8003 98.1893C99.8253 98.1688 99.8461 98.1436 99.8613 98.115Z" fill="#3ACAAF"/>
<g opacity="0.2">
<path d="M99.8613 98.115L109.361 80.6424C109.376 80.6142 109.386 80.5832 109.39 80.5513C109.393 80.5193 109.39 80.487 109.381 80.4562C109.371 80.4254 109.356 80.3968 109.336 80.372C109.315 80.3472 109.29 80.3267 109.262 80.3118V80.3118C109.234 80.2962 109.203 80.2863 109.171 80.2828C109.139 80.2792 109.107 80.282 109.076 80.291C109.045 80.3 109.017 80.315 108.992 80.3352C108.967 80.3554 108.946 80.3803 108.931 80.4085L99.4285 97.8812C99.413 97.9096 99.4032 97.9407 99.3998 97.9729C99.3964 98.0051 99.3994 98.0376 99.4086 98.0686C99.4179 98.0996 99.4332 98.1285 99.4537 98.1535C99.4742 98.1785 99.4994 98.1993 99.528 98.2145V98.2145C99.5563 98.23 99.5875 98.2398 99.6197 98.2432C99.6518 98.2466 99.6844 98.2436 99.7154 98.2343C99.7464 98.2251 99.7752 98.2098 99.8003 98.1893C99.8253 98.1688 99.8461 98.1436 99.8613 98.115Z" fill="black"/>
</g>
<path d="M113.439 98.115L122.939 80.6424C122.955 80.6142 122.964 80.5832 122.968 80.5513C122.971 80.5193 122.968 80.487 122.959 80.4562C122.95 80.4254 122.934 80.3968 122.914 80.372C122.893 80.3472 122.868 80.3267 122.84 80.3118V80.3118C122.812 80.2962 122.781 80.2863 122.749 80.2828C122.717 80.2792 122.685 80.282 122.654 80.291C122.623 80.3 122.595 80.315 122.57 80.3352C122.545 80.3554 122.524 80.3803 122.509 80.4085L113.007 97.8812C112.991 97.9096 112.981 97.9407 112.978 97.9729C112.975 98.0051 112.978 98.0376 112.987 98.0686C112.996 98.0996 113.011 98.1285 113.032 98.1535C113.052 98.1785 113.078 98.1993 113.106 98.2145V98.2145C113.134 98.23 113.166 98.2398 113.198 98.2432C113.23 98.2466 113.262 98.2436 113.293 98.2343C113.324 98.2251 113.353 98.2098 113.378 98.1893C113.403 98.1688 113.424 98.1436 113.439 98.115Z" fill="#3ACAAF"/>
<g opacity="0.2">
<path d="M113.439 98.115L122.939 80.6424C122.955 80.6142 122.964 80.5832 122.968 80.5513C122.971 80.5193 122.968 80.487 122.959 80.4562C122.95 80.4254 122.934 80.3968 122.914 80.372C122.893 80.3472 122.868 80.3267 122.84 80.3118V80.3118C122.812 80.2962 122.781 80.2863 122.749 80.2828C122.717 80.2792 122.685 80.282 122.654 80.291C122.623 80.3 122.595 80.315 122.57 80.3352C122.545 80.3554 122.524 80.3803 122.509 80.4085L113.007 97.8812C112.991 97.9096 112.981 97.9407 112.978 97.9729C112.975 98.0051 112.978 98.0376 112.987 98.0686C112.996 98.0996 113.011 98.1285 113.032 98.1535C113.052 98.1785 113.078 98.1993 113.106 98.2145V98.2145C113.134 98.23 113.166 98.2398 113.198 98.2432C113.23 98.2466 113.262 98.2436 113.293 98.2343C113.324 98.2251 113.353 98.2098 113.378 98.1893C113.403 98.1688 113.424 98.1436 113.439 98.115Z" fill="black"/>
</g>
<path d="M111.428 79.5156H100.407C100.071 79.5156 99.7489 79.649 99.5115 79.8865C99.274 80.1239 99.1406 80.4459 99.1406 80.7817H111.441L111.428 79.5156Z" fill="#3ACAAF"/>
<path d="M119.261 63.3125C123.14 63.3125 125.901 66.2022 125.712 70.0516L125.269 78.468C125.236 79.0937 124.964 79.6828 124.509 80.114C124.055 80.5451 123.452 80.7853 122.825 80.7851H107.234L110.46 70.0516C111.603 66.2022 115.382 63.3125 119.261 63.3125Z" fill="#3ACAAF"/>
<path opacity="0.3" d="M119.261 63.3125C123.14 63.3125 125.901 66.2022 125.712 70.0516L125.269 78.468C125.236 79.0937 124.964 79.6828 124.509 80.114C124.055 80.5451 123.452 80.7853 122.825 80.7851H107.234L110.46 70.0516C111.603 66.2022 115.382 63.3125 119.261 63.3125Z" fill="white"/>
<path d="M86.1158 56.8045C86.3846 57.7561 86.4491 58.7748 85.0835 59.1431C85.0835 59.1431 83.8094 60.9388 85.3389 62.1403C86.3066 60.8664 87.5275 59.8065 88.9248 59.0275C88.0377 58.2345 88.2098 55.9658 88.4141 54.7266L86.1158 56.8045Z" fill="#CE7A63"/>
<path d="M84.4223 51.8795C84.3174 51.8526 84.1884 51.9494 84.1373 52.108C84.0863 52.2666 84.1373 52.4305 84.2341 52.4574C84.3309 52.4843 84.468 52.3875 84.519 52.2289C84.5701 52.0703 84.5244 51.8956 84.4223 51.8795Z" fill="#2E353A"/>
<path d="M84.1172 51.6562L84.4639 51.8901C84.2166 52.0218 84.1172 51.6562 84.1172 51.6562Z" fill="#2E353A"/>
<path d="M84.0532 53.5846C83.9477 53.5793 83.8446 53.5505 83.7516 53.5002C83.6586 53.45 83.578 53.3796 83.5156 53.2943C83.8517 53.0589 84.1538 52.7785 84.4134 52.4609L84.0532 53.5846Z" fill="#BA4D3C"/>
<path d="M84.7969 50.8268C84.8992 50.897 84.9831 50.9908 85.0416 51.1003C85.1001 51.2098 85.1314 51.3317 85.1329 51.4558V51.4558C85.1325 51.4684 85.1347 51.4809 85.1393 51.4926C85.1438 51.5044 85.1507 51.5151 85.1595 51.5241C85.1683 51.5331 85.1787 51.5403 85.1903 51.5452C85.2019 51.5501 85.2144 51.5526 85.227 51.5526C85.2522 51.5526 85.2764 51.5428 85.2945 51.5252C85.3125 51.5076 85.3231 51.4837 85.3238 51.4585C85.3255 51.3003 85.2885 51.144 85.2158 51.0034C85.1432 50.8628 85.0372 50.7422 84.9071 50.6521C84.8863 50.6368 84.8603 50.6302 84.8347 50.6337C84.8092 50.6372 84.7859 50.6506 84.77 50.6709C84.762 50.6858 84.7578 50.7024 84.7578 50.7193C84.7578 50.7362 84.762 50.7528 84.77 50.7677C84.7701 50.7788 84.7726 50.7899 84.7772 50.8001C84.7818 50.8102 84.7885 50.8193 84.7969 50.8268V50.8268Z" fill="#2E353A"/>
<path d="M90.364 51.9753C90.3004 51.2353 89.9455 50.5509 89.3774 50.0725C88.8093 49.5941 88.0745 49.361 87.3345 49.4243C85.1625 49.5882 83.9582 52.4107 83.8131 54.3059C83.6518 56.4106 85.8426 57.7574 87.8184 56.7251C89.1436 56.037 89.399 55.2091 90.1624 53.2897C90.3354 52.8745 90.4046 52.4233 90.364 51.9753V51.9753Z" fill="#CE7A63"/>
<path d="M91.4211 54.4634C94.2651 50.8721 90.7733 49.8399 90.7733 49.8399C89.6792 48.3211 87.8728 48.012 86.217 48.6464C84.5611 49.2808 85.0557 50.3883 85.6578 50.4985C84.5288 51.9904 85.1767 52.7323 85.5476 52.8398C84.9643 56.5924 88.5771 58.0628 91.4211 54.4634Z" fill="#263238"/>
<path d="M86.4669 52.9583C86.4889 52.7669 86.4342 52.5747 86.3148 52.4236C86.1954 52.2724 86.021 52.1748 85.8298 52.1519C85.2922 52.0954 84.8567 52.7513 84.7358 53.2271C84.6013 53.7459 84.8917 54.2271 85.432 54.055C85.6337 53.989 85.8204 53.8837 85.9814 53.7453C86.1424 53.6069 86.2745 53.4381 86.3701 53.2486C86.4224 53.1597 86.4554 53.0608 86.4669 52.9583V52.9583Z" fill="#CE7A63"/>
<path d="M89.456 59.3031C89.2857 59.1894 89.147 59.0343 89.0529 58.8523C88.9589 58.6704 88.9126 58.4675 88.9184 58.2628C88.9184 58.2628 84.9373 57.6822 84.1094 58.58C84.1094 58.58 85.3056 58.5182 84.8298 59.5047L89.456 59.3031Z" fill="#3ACAAF"/>
<path opacity="0.6" d="M89.456 59.3031C89.2857 59.1894 89.147 59.0343 89.0529 58.8523C88.9589 58.6704 88.9126 58.4675 88.9184 58.2628C88.9184 58.2628 84.9373 57.6822 84.1094 58.58C84.1094 58.58 85.3056 58.5182 84.8298 59.5047L89.456 59.3031Z" fill="white"/>
<path d="M85.3289 71.023L85.3047 72.0498C86.5531 72.2012 87.8108 72.2623 89.068 72.2326C89.7318 72.2238 90.3933 72.1527 91.0438 72.0202C91.236 71.9773 91.4247 71.9197 91.6083 71.8482C91.7218 71.8056 91.8315 71.7534 91.9362 71.6923C92.0845 71.6111 92.2188 71.5068 92.3341 71.3832C92.4172 71.2917 92.4877 71.1895 92.5437 71.0794C92.5754 71.0139 92.6032 70.9466 92.6271 70.8778C92.6429 70.805 92.6545 70.7314 92.662 70.6574L92.697 70.4208L92.7695 69.9504C92.9093 68.6978 92.9819 67.4666 93.0383 66.2328C93.0948 64.9989 93.1244 63.7705 93.119 62.5312H91.0196L90.9605 66.179C90.9309 67.394 90.9067 68.5983 90.8449 69.7972L90.818 70.1923C90.7424 70.2292 90.6642 70.2607 90.5841 70.2864C90.0422 70.4406 89.4896 70.5547 88.9309 70.6278C87.7482 70.8079 86.5305 70.9127 85.3289 71.023Z" fill="#CE7A63"/>
<path d="M89.2188 61.873C89.2188 63.1418 89.9822 65.5181 89.9822 65.5181L93.1326 63.58C93.2724 61.9537 92.9364 59.8624 91.3746 59.3543C90.3262 59.0102 89.2295 60.5209 89.2188 61.873Z" fill="#263238"/>
<path opacity="0.6" d="M91.4821 60.952L92.2052 61.6671L92.345 64.0595L89.9822 65.511C89.9822 65.511 89.2188 63.1348 89.2188 61.866C89.2248 61.5359 89.2847 61.209 89.3962 60.8983L90.4714 60.5703L91.4821 60.952Z" fill="black"/>
<path d="M82.4336 71.5992C82.4115 71.5499 82.3996 71.4967 82.3985 71.4427C82.3974 71.3887 82.4072 71.3351 82.4273 71.2849C82.4473 71.2348 82.4773 71.1892 82.5153 71.1508C82.5533 71.1124 82.5986 71.0821 82.6486 71.0616L83.5411 70.6826C83.7326 70.6029 83.945 70.5878 84.1459 70.6396L86.0947 71.1772L86.334 71.8331C86.0302 72.5885 84.7426 72.446 84.7426 72.446L83.8152 72.7282C83.699 72.7644 83.5745 72.7647 83.458 72.7292C83.3416 72.6938 83.2384 72.6241 83.162 72.5293L82.4873 71.6933C82.4651 71.6646 82.447 71.633 82.4336 71.5992V71.5992Z" fill="#CE7A63"/>
<path d="M83.8567 59.3205C84.2626 59.2533 84.6846 59.1888 85.0986 59.1377C86.3676 59.0092 87.644 58.9706 88.9184 59.0221C89.5447 59.0356 90.1603 59.0813 90.7006 59.1377H90.7436C90.9758 59.1685 91.1996 59.2447 91.4022 59.3621C91.6049 59.4794 91.7824 59.6355 91.9247 59.8215C92.067 60.0075 92.1713 60.2197 92.2315 60.446C92.2918 60.6723 92.3068 60.9082 92.2758 61.1403C91.5124 66.5891 91.1791 68.909 91.4022 72.0245L82.9669 72.2798C81.9912 67.2047 81.5826 64.1752 81.4535 62.393C81.3992 61.6735 81.6155 60.9596 82.06 60.3913C82.5045 59.8229 83.1453 59.4411 83.8567 59.3205V59.3205Z" fill="#263238"/>
<path d="M74.0676 90.5944L72.0757 90.4062L70.7344 95.312L72.7263 95.5002L74.0676 90.5944Z" fill="#CE7A63"/>
<path d="M67.9071 86.1854L66.2189 84.5859L63.9609 88.016L65.3104 89.188L67.9071 86.1854Z" fill="#CE7A63"/>
<path d="M90.5919 72.0954C90.7917 72.0934 90.9864 72.1586 91.1448 72.2804C91.3032 72.4023 91.4162 72.5738 91.4655 72.7674C92.6053 77.2135 91.3177 79.899 88.1699 79.899C85.213 79.899 77.1702 77.2646 74.6407 76.4447C72.5225 82.5655 66.4097 88.0439 66.4097 88.0439L64.7969 86.5708C64.7969 86.5708 68.3586 79.7108 70.8182 73.6195C72.2322 70.125 85.8877 72.1411 85.8877 72.1411C85.8877 72.1411 88.6215 72.0954 90.5919 72.0954Z" fill="#3ACAAF"/>
<path opacity="0.6" d="M90.5919 72.0954C90.7917 72.0934 90.9864 72.1586 91.1448 72.2804C91.3032 72.4023 91.4162 72.5738 91.4655 72.7674C92.6053 77.2135 91.3177 79.899 88.1699 79.899C85.213 79.899 77.1702 77.2646 74.6407 76.4447C72.5225 82.5655 66.4097 88.0439 66.4097 88.0439L64.7969 86.5708C64.7969 86.5708 68.3586 79.7108 70.8182 73.6195C72.2322 70.125 85.8877 72.1411 85.8877 72.1411C85.8877 72.1411 88.6215 72.0954 90.5919 72.0954Z" fill="white"/>
<path d="M88.5412 72.0234C91.7454 76.2572 91.4981 79.8861 88.181 79.8861C85.2241 79.8861 81.5521 80.0582 77.5576 79.8055C76.6786 86.23 73.3319 93.7164 73.3319 93.7164L71.125 93.5094C71.125 93.5094 73.1384 84.1172 73.2943 77.5475C73.3884 73.5772 84.5978 73.9239 84.5978 73.9239C84.5978 73.9239 86.5735 72.0423 88.5412 72.0234Z" fill="#3ACAAF"/>
<path opacity="0.6" d="M88.5412 72.0234C91.7454 76.2572 91.4981 79.8861 88.181 79.8861C85.2241 79.8861 81.5521 80.0582 77.5576 79.8055C76.6786 86.23 73.3319 93.7164 73.3319 93.7164L71.125 93.5094C71.125 93.5094 73.1384 84.1172 73.2943 77.5475C73.3884 73.5772 84.5978 73.9239 84.5978 73.9239C84.5978 73.9239 86.5735 72.0423 88.5412 72.0234Z" fill="white"/>
<path d="M91.3701 71.463L82.8273 71.7318C82.7439 71.7318 82.6875 71.7802 82.6875 71.8313L82.795 72.5812C82.795 72.6269 82.8676 72.6592 82.9429 72.6592L91.6227 72.4038C91.7222 72.4038 91.7894 72.342 91.7571 72.2829L91.5179 71.5329C91.5034 71.5075 91.4815 71.4871 91.455 71.4746C91.4286 71.4621 91.3989 71.458 91.3701 71.463V71.463Z" fill="#263238"/>
<path d="M75.9922 68.1424C76.8113 68.6702 77.6685 69.1365 78.5566 69.5375C79.0208 69.7505 79.4996 69.9301 79.9894 70.0751C80.279 70.1608 80.5776 70.2122 80.8792 70.2283C81.1074 70.2415 81.3362 70.2124 81.5539 70.1423C81.7387 70.0791 81.9074 69.9763 82.0485 69.8412C82.0914 69.7997 82.131 69.7547 82.1668 69.7068L82.2205 69.6316L82.2581 69.5751L82.3092 69.4837C82.8368 68.5662 83.2066 67.5667 83.4033 66.5268C83.5054 66.0321 83.5807 65.5323 83.6291 65.0295C83.6506 64.7607 83.6694 64.5269 83.6828 64.2742C83.6963 64.0215 83.699 63.7823 83.6828 63.5L81.5915 63.5296C81.5915 63.7124 81.5781 63.9516 81.5673 64.1667C81.5566 64.3817 81.5404 64.6075 81.5189 64.8279C81.4786 65.2688 81.4248 65.7069 81.3576 66.1451C81.2852 66.569 81.191 66.9889 81.0754 67.4031C80.9807 67.7377 80.8612 68.0648 80.7179 68.3816C80.5989 68.3793 80.4802 68.3676 80.363 68.3466C79.933 68.2714 79.5076 68.1718 79.0889 68.0483C78.2152 67.7983 77.3201 67.5106 76.4384 67.2096L75.9922 68.1424Z" fill="#CE7A63"/>
<path d="M84.8263 61.8553C85.4526 62.8204 83.9957 65.3015 83.9957 65.3015L81.3694 65.0058C81.3694 65.0058 80.8318 61.7021 82.1167 60.3446C82.8075 59.6161 84.1731 60.85 84.8263 61.8553Z" fill="#263238"/>
<path d="M74.2326 67.5012C74.2017 67.4907 74.1761 67.4685 74.1615 67.4393C74.1469 67.4101 74.1444 67.3763 74.1547 67.3452L75.5417 63.2163C75.5527 63.1858 75.575 63.1607 75.6041 63.1462C75.6331 63.1316 75.6666 63.1288 75.6976 63.1384V63.1384C75.7129 63.1432 75.727 63.1511 75.7391 63.1614C75.7513 63.1718 75.7613 63.1845 75.7686 63.1987C75.7758 63.213 75.7802 63.2285 75.7814 63.2445C75.7826 63.2604 75.7806 63.2764 75.7756 63.2916L74.3966 67.4205C74.3888 67.4415 74.3759 67.4601 74.359 67.4747C74.3421 67.4893 74.3217 67.4993 74.2998 67.5038C74.2775 67.5078 74.2546 67.5069 74.2326 67.5012V67.5012Z" fill="#2E353A"/>
<path d="M74.6456 65.1656C74.5886 65.1608 74.5312 65.1673 74.4767 65.1847C74.4222 65.2021 74.3716 65.2301 74.328 65.267C74.2843 65.304 74.2483 65.3492 74.2221 65.4C74.1959 65.4509 74.1799 65.5064 74.1752 65.5634L74.0569 66.7086C74.0482 66.7948 74.0652 66.8817 74.1059 66.9583C74.1466 67.0348 74.209 67.0976 74.2854 67.1387L75.2504 67.6467C75.2504 67.6467 76.9036 69.2058 77.6133 68.8133L77.1025 67.7005L76.1026 65.9774C75.9908 65.7806 75.8168 65.6265 75.6079 65.5392L74.78 65.1978C74.7371 65.1805 74.6918 65.1696 74.6456 65.1656V65.1656Z" fill="#CE7A63"/>
<path d="M63.9367 87.2546C63.2647 87.2009 62.2889 86.6875 61.6787 86.1552C61.211 85.7412 60.6734 86.217 61.1411 86.8568C61.6088 87.4966 62.6249 88.4025 63.0228 88.8218C63.6625 89.4938 63.7808 89.8245 64.3131 90.3298C64.3774 90.3908 64.4632 90.4239 64.5518 90.4219C64.6404 90.4198 64.7247 90.3829 64.7862 90.3191L65.8399 89.018C65.8627 88.9904 65.8737 88.955 65.8707 88.9193C65.8677 88.8837 65.8508 88.8506 65.8238 88.8272L64.2485 87.3864C64.1615 87.31 64.0521 87.2638 63.9367 87.2546V87.2546Z" fill="#3ACAAF"/>
<path d="M70.5659 95.1868C70.0928 95.6679 69.2864 96.3507 68.4988 96.5469C67.9934 96.6706 67.6923 97.4824 68.6439 97.3883C69.5955 97.2942 70.6224 97.098 71.1869 97.0227C72.1089 96.9018 72.4261 96.9528 73.1572 96.8803C73.2006 96.8743 73.2423 96.8599 73.2801 96.8377C73.3178 96.8155 73.3507 96.7861 73.377 96.7511C73.4032 96.7161 73.4223 96.6762 73.433 96.6338C73.4437 96.5913 73.4459 96.5472 73.4395 96.5039L73.1196 94.8615C73.1124 94.8268 73.0923 94.7961 73.0634 94.7756C73.0344 94.7552 72.9988 94.7465 72.9637 94.7513L70.8697 95.0201C70.7522 95.039 70.6449 95.0979 70.5659 95.1868V95.1868Z" fill="#3ACAAF"/>
<path d="M96.8649 98.2528C96.8932 98.2373 96.9182 98.2164 96.9384 98.1913C96.9586 98.1661 96.9736 98.1372 96.9826 98.1062C96.9916 98.0753 96.9944 98.0428 96.9908 98.0107C96.9872 97.9787 96.9773 97.9477 96.9616 97.9194L87.4619 80.4468C87.4302 80.3901 87.3774 80.3482 87.3151 80.3301C87.2527 80.312 87.1857 80.3192 87.1286 80.35V80.35C87.0714 80.3813 87.0289 80.4338 87.0103 80.4962C86.9917 80.5587 86.9985 80.6259 87.0291 80.6834L96.5315 98.156C96.5633 98.2127 96.616 98.2546 96.6784 98.2727C96.7407 98.2908 96.8077 98.2836 96.8649 98.2528V98.2528Z" fill="#3ACAAF"/>
<g opacity="0.2">
<path d="M96.8649 98.2528C96.8932 98.2373 96.9182 98.2164 96.9384 98.1913C96.9586 98.1661 96.9736 98.1372 96.9826 98.1062C96.9916 98.0753 96.9944 98.0428 96.9908 98.0107C96.9872 97.9787 96.9773 97.9477 96.9616 97.9194L87.4619 80.4468C87.4302 80.3901 87.3774 80.3482 87.3151 80.3301C87.2527 80.312 87.1857 80.3192 87.1286 80.35V80.35C87.0714 80.3813 87.0289 80.4338 87.0103 80.4962C86.9917 80.5587 86.9985 80.6259 87.0291 80.6834L96.5315 98.156C96.5633 98.2127 96.616 98.2546 96.6784 98.2727C96.7407 98.2908 96.8077 98.2836 96.8649 98.2528V98.2528Z" fill="black"/>
</g>
<path opacity="0.2" d="M92.2762 90.3247L91.4375 88.7817L91.7171 88.2656L92.5557 89.8086L92.2762 90.3247Z" fill="black"/>
<path d="M83.2867 98.2528C83.3439 98.2215 83.3863 98.169 83.405 98.1065C83.4236 98.0441 83.4168 97.9769 83.3862 97.9194L73.8838 80.4468C73.852 80.3901 73.7993 80.3482 73.7369 80.3301C73.6746 80.312 73.6076 80.3192 73.5504 80.35V80.35C73.4933 80.3813 73.4508 80.4338 73.4322 80.4962C73.4136 80.5587 73.4203 80.6259 73.451 80.6834L82.9534 98.156C82.9851 98.2127 83.0379 98.2546 83.1002 98.2727C83.1626 98.2908 83.2296 98.2836 83.2867 98.2528V98.2528Z" fill="#3ACAAF"/>
<g opacity="0.2">
<path d="M83.2867 98.2528C83.3439 98.2215 83.3863 98.169 83.405 98.1065C83.4236 98.0441 83.4168 97.9769 83.3862 97.9194L73.8838 80.4468C73.852 80.3901 73.7993 80.3482 73.7369 80.3301C73.6746 80.312 73.6076 80.3192 73.5504 80.35V80.35C73.4933 80.3813 73.4508 80.4338 73.4322 80.4962C73.4136 80.5587 73.4203 80.6259 73.451 80.6834L82.9534 98.156C82.9851 98.2127 83.0379 98.2546 83.1002 98.2727C83.1626 98.2908 83.2296 98.2836 83.2867 98.2528V98.2528Z" fill="black"/>
</g>
<path opacity="0.2" d="M78.6981 90.3247L77.8594 88.7817L78.1389 88.2656L78.9776 89.8086L78.6981 90.3247Z" fill="black"/>
<path d="M73.8838 98.156L83.3862 80.6834C83.4168 80.6259 83.4236 80.5587 83.405 80.4962C83.3863 80.4338 83.3439 80.3813 83.2867 80.35V80.35C83.2296 80.3192 83.1626 80.312 83.1002 80.3301C83.0379 80.3482 82.9851 80.3901 82.9534 80.4468L73.451 97.9194C73.4203 97.9769 73.4136 98.0441 73.4322 98.1065C73.4508 98.169 73.4933 98.2215 73.5504 98.2528C73.6076 98.2836 73.6746 98.2908 73.7369 98.2727C73.7993 98.2546 73.852 98.2127 73.8838 98.156V98.156Z" fill="#3ACAAF"/>
<g opacity="0.2">
<path d="M73.8838 98.156L83.3862 80.6834C83.4168 80.6259 83.4236 80.5587 83.405 80.4962C83.3863 80.4338 83.3439 80.3813 83.2867 80.35V80.35C83.2296 80.3192 83.1626 80.312 83.1002 80.3301C83.0379 80.3482 82.9851 80.3901 82.9534 80.4468L73.451 97.9194C73.4203 97.9769 73.4136 98.0441 73.4322 98.1065C73.4508 98.169 73.4933 98.2215 73.5504 98.2528C73.6076 98.2836 73.6746 98.2908 73.7369 98.2727C73.7993 98.2546 73.852 98.2127 73.8838 98.156V98.156Z" fill="black"/>
</g>
<path d="M87.4619 98.156L96.9616 80.6834C96.9773 80.6551 96.9872 80.6241 96.9908 80.592C96.9944 80.56 96.9916 80.5275 96.9826 80.4966C96.9736 80.4656 96.9586 80.4367 96.9384 80.4115C96.9182 80.3864 96.8932 80.3655 96.8649 80.35V80.35C96.8077 80.3192 96.7407 80.312 96.6784 80.3301C96.616 80.3482 96.5633 80.3901 96.5315 80.4468L87.0291 97.9194C86.9985 97.9769 86.9917 98.0441 87.0103 98.1065C87.0289 98.169 87.0714 98.2215 87.1286 98.2528C87.1857 98.2836 87.2527 98.2908 87.3151 98.2727C87.3774 98.2546 87.4302 98.2127 87.4619 98.156V98.156Z" fill="#3ACAAF"/>
<g opacity="0.2">
<path d="M87.4619 98.156L96.9616 80.6834C96.9773 80.6551 96.9872 80.6241 96.9908 80.592C96.9944 80.56 96.9916 80.5275 96.9826 80.4966C96.9736 80.4656 96.9586 80.4367 96.9384 80.4115C96.9182 80.3864 96.8932 80.3655 96.8649 80.35V80.35C96.8077 80.3192 96.7407 80.312 96.6784 80.3301C96.616 80.3482 96.5633 80.3901 96.5315 80.4468L87.0291 97.9194C86.9985 97.9769 86.9917 98.0441 87.0103 98.1065C87.0289 98.169 87.0714 98.2215 87.1286 98.2528C87.1857 98.2836 87.2527 98.2908 87.3151 98.2727C87.3774 98.2546 87.4302 98.2127 87.4619 98.156V98.156Z" fill="black"/>
</g>
<path d="M85.4462 79.5703H74.425C74.2585 79.57 74.0936 79.6024 73.9397 79.6659C73.7858 79.7294 73.6459 79.8226 73.528 79.9402C73.4102 80.0578 73.3167 80.1975 73.2529 80.3513C73.1891 80.5051 73.1562 80.6699 73.1563 80.8364H85.457L85.4462 79.5703Z" fill="#3ACAAF"/>
<path d="M93.2822 63.3594C97.1611 63.3594 99.9218 66.2491 99.7202 70.0984L99.2766 78.5176C99.2436 79.143 98.9716 79.7319 98.5169 80.1625C98.0622 80.5932 97.4595 80.8329 96.8332 80.832H81.2422L84.4679 70.0984C85.6238 66.2491 89.4059 63.3594 93.2822 63.3594Z" fill="#3ACAAF"/>
<path opacity="0.3" d="M93.2822 63.3594C97.1611 63.3594 99.9218 66.2491 99.7202 70.0984L99.2766 78.5176C99.2436 79.143 98.9716 79.7319 98.5169 80.1625C98.0622 80.5932 97.4595 80.8329 96.8332 80.832H81.2422L84.4679 70.0984C85.6238 66.2491 89.4059 63.3594 93.2822 63.3594Z" fill="white"/>
</svg>
