<svg width="17" height="18" viewBox="0 0 17 18" fill="none" xmlns="http://www.w3.org/2000/svg">
<path d="M13.2291 2.82C13.2291 2.82 13.7391 3.32 13.2291 2.82C12.5455 2.03962 12.1688 1.03743 12.1691 0H9.07906V12.4C9.05523 13.071 8.77193 13.7066 8.28883 14.1729C7.80572 14.6393 7.16051 14.8999 6.48906 14.9C5.06906 14.9 3.88906 13.74 3.88906 12.3C3.88906 10.58 5.54906 9.29 7.25906 9.82V6.66C3.80906 6.2 0.789062 8.88 0.789062 12.3C0.789062 15.63 3.54906 18 6.47906 18C9.61906 18 12.1691 15.45 12.1691 12.3V6.01C13.4221 6.90985 14.9264 7.39265 16.4691 7.39V4.3C16.4691 4.3 14.5891 4.39 13.2291 2.82Z" fill="#257E7E"/>
</svg>
