<svg width="36" height="26" viewBox="0 0 36 26" fill="none" xmlns="http://www.w3.org/2000/svg">
<path d="M35.2509 4.76013C35.0471 4.03297 34.65 3.37464 34.1019 2.85513C33.5384 2.31963 32.8476 1.93658 32.0949 1.74213C29.2779 0.999626 17.9919 0.999626 17.9919 0.999626C13.2869 0.946095 8.58307 1.18154 3.90693 1.70463C3.15421 1.91345 2.46477 2.30506 1.89993 2.84463C1.34493 3.37863 0.942926 4.03713 0.732926 4.75863C0.228465 7.47624 -0.0166362 10.2356 0.000925775 12.9996C-0.0170742 15.7611 0.227426 18.5196 0.732926 21.2406C0.938426 21.9591 1.33893 22.6146 1.89543 23.1441C2.45193 23.6736 3.14493 24.0561 3.90693 24.2586C6.76143 24.9996 17.9919 24.9996 17.9919 24.9996C22.7029 25.0532 27.4128 24.8178 32.0949 24.2946C32.8476 24.1002 33.5384 23.7171 34.1019 23.1816C34.6498 22.6622 35.0464 22.0038 35.2494 21.2766C35.7671 18.5601 36.0187 15.7995 36.0009 13.0341C36.0399 10.257 35.7885 7.48347 35.2509 4.75863V4.76013ZM14.4039 18.1356V7.86513L23.7939 13.0011L14.4039 18.1356Z" fill="#23597B"/>
</svg>
