<svg width="25" height="17" viewBox="0 0 25 17" fill="none" xmlns="http://www.w3.org/2000/svg">
<path d="M23.9694 3.50415C23.8335 3.01938 23.5688 2.58049 23.2034 2.23415C22.8277 1.87715 22.3672 1.62178 21.8654 1.49215C19.9874 0.997146 12.4634 0.997146 12.4634 0.997146C9.3267 0.961459 6.1908 1.11842 3.07337 1.46715C2.57156 1.60636 2.11193 1.86743 1.73537 2.22715C1.36537 2.58315 1.09737 3.02215 0.957367 3.50315C0.62106 5.31489 0.457659 7.15449 0.469367 8.99715C0.457367 10.8381 0.620367 12.6771 0.957367 14.4911C1.09437 14.9701 1.36137 15.4071 1.73237 15.7601C2.10337 16.1131 2.56537 16.3681 3.07337 16.5031C4.97637 16.9971 12.4634 16.9971 12.4634 16.9971C15.604 17.0329 18.7439 16.8759 21.8654 16.5271C22.3672 16.3975 22.8277 16.1421 23.2034 15.7851C23.5686 15.4389 23.833 14.9999 23.9684 14.5151C24.3135 12.7041 24.4813 10.8637 24.4694 9.02015C24.4953 7.16875 24.3277 5.31971 23.9694 3.50315V3.50415ZM10.0714 12.4211V5.57415L16.3314 8.99815L10.0714 12.4211Z" fill="#257E7E"/>
</svg>
